<?xml version="1.0" encoding="utf-8"?>
<!-- Generator: Adobe Illustrator 17.0.0, SVG Export Plug-In . SVG Version: 6.00 Build 0)  -->
<!DOCTYPE svg PUBLIC "-//W3C//DTD SVG 1.1//EN" "http://www.w3.org/Graphics/SVG/1.1/DTD/svg11.dtd">
<svg version="1.1" xmlns="http://www.w3.org/2000/svg" xmlns:xlink="http://www.w3.org/1999/xlink" x="0px" y="0px" width="192px"
	 height="64px" viewBox="0 0 192 64" enable-background="new 0 0 192 64" xml:space="preserve">
<g id="Layer_1" display="none">
</g>
<g id="background">
	<linearGradient id="SVGID_1_" gradientUnits="userSpaceOnUse" x1="0" y1="32" x2="192" y2="32">
		<stop  offset="0" style="stop-color:#39B54A"/>
		<stop  offset="0.1842" style="stop-color:#3DB649"/>
		<stop  offset="0.3695" style="stop-color:#49B848"/>
		<stop  offset="0.5554" style="stop-color:#5DBC45"/>
		<stop  offset="0.7406" style="stop-color:#79C241"/>
		<stop  offset="0.8418" style="stop-color:#8CC63F"/>
	</linearGradient>
	<rect fill="url(#SVGID_1_)" width="192" height="64"/>
	<linearGradient id="SVGID_2_" gradientUnits="userSpaceOnUse" x1="212" y1="32" x2="404" y2="32">
		<stop  offset="0" style="stop-color:#39B54A"/>
		<stop  offset="0.1842" style="stop-color:#3DB649"/>
		<stop  offset="0.3695" style="stop-color:#49B848"/>
		<stop  offset="0.5554" style="stop-color:#5DBC45"/>
		<stop  offset="0.7406" style="stop-color:#79C241"/>
		<stop  offset="0.8418" style="stop-color:#8CC63F"/>
	</linearGradient>
	<rect x="212" fill="url(#SVGID_2_)" width="192" height="64"/>
</g>
<g id="compass">
	<g>
		<path fill="#FEFEFE" d="M20.624,12.762c4.03-0.002,7.321,3.295,7.315,7.328c-0.006,4.028-3.279,7.302-7.305,7.308
			c-4.034,0.006-7.329-3.28-7.332-7.312C13.298,16.057,16.59,12.764,20.624,12.762z"/>
		<path fill="#BDCCD4" d="M26.772,20.074c0.014,3.379-2.765,6.161-6.148,6.157c-3.394-0.004-6.158-2.771-6.148-6.155
			c0.009-3.391,2.727-6.112,6.132-6.141C23.98,13.908,26.758,16.674,26.772,20.074z"/>
		<linearGradient id="SVGID_3_" gradientUnits="userSpaceOnUse" x1="16.9949" y1="20.0809" x2="24.2466" y2="20.0809">
			<stop  offset="0" style="stop-color:#D4145A"/>
			<stop  offset="0.8418" style="stop-color:#ED1E79"/>
		</linearGradient>
		<path fill="url(#SVGID_3_)" d="M24.247,23.408c0.003,0.361-0.209,0.525-0.563,0.451c-0.367-0.077-0.696-0.247-1.011-0.443
			c-1.112-0.694-2.068-1.573-2.965-2.52c-0.884-0.933-1.701-1.92-2.322-3.053c-0.174-0.317-0.323-0.646-0.38-1.007
			c-0.062-0.394,0.162-0.613,0.555-0.532c0.413,0.085,0.777,0.289,1.124,0.517c1.41,0.926,2.595,2.098,3.68,3.378
			c0.632,0.745,1.212,1.527,1.637,2.413C24.127,22.872,24.222,23.144,24.247,23.408z"/>
		<path fill="#F2F2F2" d="M21.639,20.081c0.005,0.544-0.463,1.014-1.017,1.018c-0.546,0.005-1.012-0.462-1.017-1.017
			c-0.004-0.549,0.455-1.008,1.016-1.016C21.167,19.058,21.633,19.524,21.639,20.081z"/>
	</g>
	<g>
		<path fill="#FEFEFE" d="M267.044,14.348c1.497-0.001,2.72,1.224,2.718,2.723c-0.002,1.496-1.218,2.713-2.714,2.715
			c-1.499,0.002-2.723-1.219-2.724-2.717C264.323,15.573,265.546,14.349,267.044,14.348z"/>
		<path fill="#BDCCD4" d="M269.329,17.065c0.005,1.255-1.027,2.289-2.284,2.288c-1.261-0.001-2.288-1.029-2.284-2.287
			c0.004-1.26,1.013-2.271,2.279-2.282C268.292,14.774,269.324,15.802,269.329,17.065z"/>
		<linearGradient id="SVGID_4_" gradientUnits="userSpaceOnUse" x1="265.6962" y1="17.0676" x2="268.3906" y2="17.0676">
			<stop  offset="0" style="stop-color:#D4145A"/>
			<stop  offset="0.8418" style="stop-color:#ED1E79"/>
		</linearGradient>
		<path fill="url(#SVGID_4_)" d="M268.391,18.304c0.001,0.134-0.078,0.195-0.209,0.167c-0.136-0.029-0.259-0.092-0.376-0.165
			c-0.413-0.258-0.768-0.584-1.102-0.936c-0.328-0.347-0.632-0.713-0.863-1.134c-0.065-0.118-0.12-0.24-0.141-0.374
			c-0.023-0.147,0.06-0.228,0.206-0.198c0.153,0.032,0.289,0.107,0.418,0.192c0.524,0.344,0.964,0.78,1.367,1.255
			c0.235,0.277,0.45,0.567,0.608,0.897C268.346,18.105,268.381,18.206,268.391,18.304z"/>
		<path fill="#F2F2F2" d="M267.422,17.068c0.002,0.202-0.172,0.377-0.378,0.378c-0.203,0.002-0.376-0.172-0.378-0.378
			c-0.002-0.204,0.169-0.375,0.378-0.378C267.246,16.688,267.42,16.861,267.422,17.068z"/>
	</g>
</g>
<g id="oasis_text">
	<g>
		<path fill="#F2F2F2" d="M32.488,16.834c0-0.587,0.125-1.028,0.375-1.325c0.25-0.296,0.618-0.445,1.105-0.445
			c0.5,0,0.875,0.148,1.125,0.445c0.25,0.297,0.375,0.738,0.375,1.325v3.56c0,0.587-0.125,1.029-0.375,1.325
			c-0.25,0.297-0.625,0.445-1.125,0.445c-0.487,0-0.855-0.148-1.105-0.445c-0.25-0.296-0.375-0.738-0.375-1.325V16.834z
			 M32.708,20.404c0,1.04,0.42,1.56,1.26,1.56c0.853,0,1.28-0.52,1.28-1.56v-3.58c0-1.04-0.427-1.56-1.28-1.56
			c-0.84,0-1.26,0.52-1.26,1.56V20.404z"/>
		<path fill="#F2F2F2" d="M36.467,22.114h-0.21v-7h0.31l2.46,6.55v-6.55h0.21v7h-0.27l-2.5-6.68V22.114z"/>
		<path fill="#F2F2F2" d="M40.037,22.114v-7h0.22v6.79h2.35v0.21H40.037z"/>
		<path fill="#F2F2F2" d="M43.587,15.114v7h-0.22v-7H43.587z"/>
		<path fill="#F2F2F2" d="M44.597,22.114h-0.21v-7h0.31l2.46,6.55v-6.55h0.21v7h-0.27l-2.5-6.68V22.114z"/>
		<path fill="#F2F2F2" d="M50.447,18.464v0.2h-2.06v3.24h2.45v0.21h-2.67v-7h2.67v0.21h-2.45v3.14H50.447z"/>
		<path fill="#F2F2F2" d="M53.747,20.464l-0.41,1.65h-0.2l1.69-7.01h0.31l1.73,7.01h-0.22l-0.41-1.65H53.747z M53.787,20.264h2.41
			l-1.22-4.9L53.787,20.264z"/>
		<path fill="#F2F2F2" d="M59.086,15.064c0.267,0,0.493,0.046,0.68,0.14c0.187,0.094,0.338,0.22,0.455,0.38
			c0.117,0.16,0.202,0.348,0.255,0.565c0.053,0.217,0.08,0.445,0.08,0.685v0.54h-0.22v-0.55c0-0.213-0.022-0.415-0.065-0.605
			c-0.043-0.19-0.114-0.355-0.21-0.495c-0.097-0.14-0.225-0.251-0.385-0.335c-0.16-0.083-0.354-0.125-0.58-0.125
			c-0.233,0-0.43,0.042-0.59,0.125c-0.16,0.083-0.289,0.195-0.385,0.335c-0.097,0.14-0.167,0.305-0.21,0.495
			s-0.065,0.392-0.065,0.605v3.58c0,0.213,0.021,0.414,0.065,0.6s0.113,0.35,0.21,0.49c0.097,0.14,0.225,0.252,0.385,0.335
			c0.16,0.083,0.356,0.125,0.59,0.125c0.227,0,0.42-0.042,0.58-0.125c0.16-0.083,0.289-0.195,0.385-0.335
			c0.096-0.14,0.167-0.303,0.21-0.49c0.043-0.187,0.065-0.387,0.065-0.6v-0.77h0.22v0.76c0,0.24-0.026,0.469-0.08,0.685
			c-0.054,0.217-0.139,0.405-0.255,0.565c-0.117,0.16-0.268,0.287-0.455,0.38c-0.187,0.093-0.413,0.14-0.68,0.14
			s-0.492-0.046-0.675-0.14c-0.183-0.093-0.333-0.22-0.45-0.38c-0.117-0.16-0.202-0.348-0.255-0.565
			c-0.054-0.216-0.08-0.445-0.08-0.685v-3.56c0-0.24,0.026-0.468,0.08-0.685c0.053-0.217,0.138-0.405,0.255-0.565
			c0.117-0.16,0.267-0.287,0.45-0.38C58.595,15.11,58.82,15.064,59.086,15.064z"/>
		<path fill="#F2F2F2" d="M62.787,15.064c0.267,0,0.493,0.046,0.68,0.14c0.187,0.094,0.338,0.22,0.455,0.38
			c0.117,0.16,0.202,0.348,0.255,0.565c0.053,0.217,0.08,0.445,0.08,0.685v0.54h-0.22v-0.55c0-0.213-0.022-0.415-0.065-0.605
			c-0.043-0.19-0.114-0.355-0.21-0.495c-0.097-0.14-0.225-0.251-0.385-0.335c-0.16-0.083-0.354-0.125-0.58-0.125
			c-0.233,0-0.43,0.042-0.59,0.125c-0.16,0.083-0.289,0.195-0.385,0.335c-0.097,0.14-0.167,0.305-0.21,0.495
			s-0.065,0.392-0.065,0.605v3.58c0,0.213,0.021,0.414,0.065,0.6s0.113,0.35,0.21,0.49c0.097,0.14,0.225,0.252,0.385,0.335
			c0.16,0.083,0.356,0.125,0.59,0.125c0.227,0,0.42-0.042,0.58-0.125c0.16-0.083,0.289-0.195,0.385-0.335
			c0.096-0.14,0.167-0.303,0.21-0.49c0.043-0.187,0.065-0.387,0.065-0.6v-0.77h0.22v0.76c0,0.24-0.026,0.469-0.08,0.685
			c-0.054,0.217-0.139,0.405-0.255,0.565c-0.117,0.16-0.268,0.287-0.455,0.38c-0.187,0.093-0.413,0.14-0.68,0.14
			s-0.492-0.046-0.675-0.14c-0.183-0.093-0.333-0.22-0.45-0.38c-0.117-0.16-0.202-0.348-0.255-0.565
			c-0.054-0.216-0.08-0.445-0.08-0.685v-3.56c0-0.24,0.026-0.468,0.08-0.685c0.053-0.217,0.138-0.405,0.255-0.565
			c0.117-0.16,0.267-0.287,0.45-0.38C62.295,15.11,62.52,15.064,62.787,15.064z"/>
		<path fill="#F2F2F2" d="M65.027,16.834c0-0.247,0.026-0.477,0.08-0.69c0.053-0.213,0.14-0.4,0.26-0.56
			c0.12-0.16,0.273-0.287,0.46-0.38c0.187-0.093,0.414-0.14,0.68-0.14s0.495,0.046,0.685,0.14c0.19,0.094,0.345,0.22,0.465,0.38
			c0.12,0.16,0.208,0.347,0.265,0.56c0.057,0.214,0.085,0.444,0.085,0.69v3.56c0,0.247-0.028,0.477-0.085,0.69
			s-0.145,0.4-0.265,0.56c-0.12,0.16-0.275,0.287-0.465,0.38s-0.418,0.14-0.685,0.14s-0.494-0.046-0.68-0.14s-0.34-0.22-0.46-0.38
			c-0.12-0.16-0.207-0.346-0.26-0.56c-0.054-0.213-0.08-0.443-0.08-0.69V16.834z M65.247,20.404c0,0.213,0.021,0.415,0.065,0.605
			s0.115,0.355,0.215,0.495c0.1,0.14,0.23,0.251,0.39,0.335c0.16,0.083,0.357,0.125,0.59,0.125s0.432-0.042,0.595-0.125
			c0.164-0.083,0.295-0.195,0.395-0.335c0.1-0.14,0.173-0.305,0.22-0.495c0.046-0.19,0.07-0.392,0.07-0.605v-3.58
			c0-0.213-0.023-0.415-0.07-0.605c-0.047-0.19-0.12-0.355-0.22-0.495c-0.1-0.14-0.231-0.251-0.395-0.335
			c-0.163-0.083-0.361-0.125-0.595-0.125s-0.43,0.042-0.59,0.125c-0.16,0.083-0.29,0.195-0.39,0.335
			c-0.1,0.14-0.172,0.305-0.215,0.495s-0.065,0.392-0.065,0.605V20.404z"/>
		<path fill="#F2F2F2" d="M70.977,22.094h-0.25l-1.73-6.65v6.67h-0.2v-7h0.34l1.72,6.64l1.72-6.64h0.34v7h-0.22v-6.67L70.977,22.094
			z"/>
		<path fill="#F2F2F2" d="M73.707,16.834c0-0.247,0.026-0.477,0.08-0.69c0.053-0.213,0.14-0.4,0.26-0.56
			c0.12-0.16,0.273-0.287,0.46-0.38c0.187-0.093,0.414-0.14,0.68-0.14s0.495,0.046,0.685,0.14c0.19,0.094,0.345,0.22,0.465,0.38
			c0.12,0.16,0.208,0.347,0.265,0.56c0.057,0.214,0.085,0.444,0.085,0.69v3.56c0,0.247-0.028,0.477-0.085,0.69
			s-0.145,0.4-0.265,0.56c-0.12,0.16-0.275,0.287-0.465,0.38s-0.418,0.14-0.685,0.14s-0.494-0.046-0.68-0.14s-0.34-0.22-0.46-0.38
			c-0.12-0.16-0.207-0.346-0.26-0.56c-0.054-0.213-0.08-0.443-0.08-0.69V16.834z M73.926,20.404c0,0.213,0.021,0.415,0.065,0.605
			s0.115,0.355,0.215,0.495c0.1,0.14,0.23,0.251,0.39,0.335c0.16,0.083,0.357,0.125,0.59,0.125s0.432-0.042,0.595-0.125
			c0.164-0.083,0.295-0.195,0.395-0.335c0.1-0.14,0.173-0.305,0.22-0.495c0.046-0.19,0.07-0.392,0.07-0.605v-3.58
			c0-0.213-0.023-0.415-0.07-0.605c-0.047-0.19-0.12-0.355-0.22-0.495c-0.1-0.14-0.231-0.251-0.395-0.335
			c-0.163-0.083-0.361-0.125-0.595-0.125s-0.43,0.042-0.59,0.125c-0.16,0.083-0.29,0.195-0.39,0.335
			c-0.1,0.14-0.172,0.305-0.215,0.495s-0.065,0.392-0.065,0.605V20.404z"/>
		<path fill="#F2F2F2" d="M78.936,15.114c0.267,0,0.497,0.045,0.69,0.135c0.193,0.09,0.352,0.212,0.475,0.365
			s0.213,0.338,0.27,0.555c0.057,0.216,0.085,0.448,0.085,0.695v3.51c0,0.247-0.028,0.477-0.085,0.69s-0.146,0.396-0.27,0.55
			s-0.28,0.275-0.47,0.365c-0.19,0.09-0.418,0.135-0.685,0.135h-1.47v-7H78.936z M78.936,21.904c0.233,0,0.434-0.038,0.6-0.115
			c0.167-0.076,0.302-0.183,0.405-0.32c0.103-0.137,0.178-0.296,0.225-0.48c0.047-0.183,0.07-0.385,0.07-0.605v-3.53
			c0-0.22-0.023-0.423-0.07-0.61c-0.046-0.187-0.123-0.348-0.23-0.485c-0.106-0.137-0.242-0.243-0.405-0.32
			c-0.164-0.077-0.362-0.115-0.595-0.115h-1.24v6.58H78.936z"/>
		<path fill="#F2F2F2" d="M81.806,20.464l-0.41,1.65h-0.2l1.69-7.01h0.31l1.73,7.01h-0.22l-0.41-1.65H81.806z M81.846,20.264h2.41
			l-1.22-4.9L81.846,20.264z"/>
		<path fill="#F2F2F2" d="M86.626,22.114v-6.79h-1.52v-0.21h3.27v0.21h-1.53v6.79H86.626z"/>
		<path fill="#F2F2F2" d="M89.206,15.114v7h-0.22v-7H89.206z"/>
		<path fill="#F2F2F2" d="M89.995,16.834c0-0.247,0.027-0.477,0.08-0.69c0.054-0.213,0.141-0.4,0.261-0.56
			c0.119-0.16,0.272-0.287,0.46-0.38c0.187-0.093,0.413-0.14,0.68-0.14s0.495,0.046,0.685,0.14c0.19,0.094,0.346,0.22,0.465,0.38
			c0.12,0.16,0.209,0.347,0.266,0.56c0.057,0.214,0.085,0.444,0.085,0.69v3.56c0,0.247-0.028,0.477-0.085,0.69
			s-0.146,0.4-0.266,0.56c-0.119,0.16-0.274,0.287-0.465,0.38c-0.189,0.093-0.418,0.14-0.685,0.14s-0.493-0.046-0.68-0.14
			c-0.188-0.093-0.341-0.22-0.46-0.38c-0.12-0.16-0.207-0.346-0.261-0.56c-0.053-0.213-0.08-0.443-0.08-0.69V16.834z M90.216,20.404
			c0,0.213,0.021,0.415,0.064,0.605c0.044,0.19,0.115,0.355,0.215,0.495c0.101,0.14,0.23,0.251,0.391,0.335s0.356,0.125,0.59,0.125
			s0.432-0.042,0.595-0.125s0.295-0.195,0.396-0.335c0.1-0.14,0.173-0.305,0.22-0.495s0.07-0.392,0.07-0.605v-3.58
			c0-0.213-0.023-0.415-0.07-0.605s-0.12-0.355-0.22-0.495c-0.101-0.14-0.232-0.251-0.396-0.335
			c-0.163-0.083-0.361-0.125-0.595-0.125s-0.43,0.042-0.59,0.125c-0.16,0.083-0.29,0.195-0.391,0.335
			c-0.1,0.14-0.171,0.305-0.215,0.495c-0.043,0.19-0.064,0.392-0.064,0.605V20.404z"/>
		<path fill="#F2F2F2" d="M93.976,22.114h-0.21v-7h0.31l2.46,6.55v-6.55h0.21v7h-0.27l-2.5-6.68V22.114z"/>
		<path fill="#F2F2F2" d="M100.545,15.064c0.267,0,0.492,0.045,0.676,0.135c0.183,0.09,0.331,0.215,0.444,0.375
			s0.197,0.345,0.25,0.555c0.054,0.21,0.08,0.435,0.08,0.675v0.13h-0.22v-0.14c0-0.207-0.021-0.403-0.065-0.59
			c-0.043-0.187-0.111-0.35-0.205-0.49c-0.093-0.14-0.218-0.25-0.375-0.33c-0.156-0.08-0.348-0.12-0.574-0.12
			c-0.233,0-0.429,0.04-0.585,0.12c-0.157,0.08-0.282,0.19-0.375,0.33c-0.094,0.14-0.162,0.302-0.205,0.485
			c-0.044,0.184-0.065,0.378-0.065,0.585c0,0.3,0.066,0.554,0.2,0.76c0.133,0.207,0.298,0.392,0.495,0.555
			c0.196,0.164,0.411,0.317,0.645,0.46c0.233,0.144,0.448,0.3,0.646,0.47c0.196,0.17,0.361,0.367,0.495,0.59
			c0.133,0.224,0.199,0.492,0.199,0.805c0,0.24-0.026,0.467-0.079,0.68c-0.054,0.213-0.139,0.398-0.256,0.555
			c-0.116,0.157-0.268,0.28-0.455,0.37c-0.187,0.09-0.413,0.135-0.68,0.135s-0.491-0.045-0.675-0.135s-0.333-0.213-0.45-0.37
			c-0.116-0.156-0.201-0.341-0.255-0.555s-0.08-0.44-0.08-0.68v-0.34h0.21v0.35c0,0.213,0.021,0.412,0.065,0.595
			c0.043,0.184,0.114,0.343,0.215,0.48c0.1,0.137,0.229,0.245,0.385,0.325c0.156,0.08,0.352,0.12,0.585,0.12
			c0.227,0,0.42-0.04,0.58-0.12c0.16-0.08,0.29-0.188,0.39-0.325c0.101-0.137,0.172-0.296,0.216-0.48
			c0.043-0.183,0.064-0.382,0.064-0.595c0-0.293-0.066-0.543-0.2-0.75c-0.133-0.207-0.298-0.392-0.495-0.555
			c-0.196-0.164-0.411-0.315-0.645-0.455s-0.448-0.296-0.645-0.47c-0.197-0.173-0.362-0.372-0.495-0.595
			c-0.134-0.224-0.2-0.495-0.2-0.815c0-0.514,0.113-0.928,0.34-1.245C99.672,15.232,100.039,15.07,100.545,15.064z"/>
		<path fill="#F2F2F2" d="M104.095,22.114v-6.79h-1.52v-0.21h3.27v0.21h-1.53v6.79H104.095z"/>
		<path fill="#F2F2F2" d="M106.665,20.394c0,0.214,0.02,0.414,0.06,0.6c0.04,0.187,0.108,0.354,0.205,0.5
			c0.097,0.147,0.224,0.262,0.38,0.345s0.352,0.125,0.585,0.125s0.429-0.042,0.585-0.125c0.157-0.083,0.283-0.198,0.38-0.345
			c0.097-0.146,0.165-0.313,0.205-0.5c0.04-0.187,0.061-0.386,0.061-0.6v-5.28h0.21v5.27c0,0.24-0.025,0.468-0.075,0.685
			s-0.132,0.405-0.245,0.565s-0.262,0.289-0.445,0.385c-0.183,0.097-0.408,0.145-0.675,0.145s-0.491-0.048-0.675-0.145
			c-0.184-0.096-0.333-0.225-0.45-0.385c-0.116-0.16-0.2-0.348-0.25-0.565s-0.075-0.445-0.075-0.685v-5.27h0.221V20.394z"/>
		<path fill="#F2F2F2" d="M111.585,15.114c0.267,0,0.496,0.045,0.689,0.135c0.193,0.09,0.352,0.212,0.476,0.365
			c0.123,0.153,0.213,0.338,0.27,0.555c0.057,0.216,0.085,0.448,0.085,0.695v3.51c0,0.247-0.028,0.477-0.085,0.69
			s-0.146,0.396-0.27,0.55c-0.124,0.153-0.28,0.275-0.471,0.365c-0.189,0.09-0.418,0.135-0.685,0.135h-1.47v-7H111.585z
			 M111.585,21.904c0.233,0,0.433-0.038,0.6-0.115c0.167-0.076,0.302-0.183,0.405-0.32s0.178-0.296,0.225-0.48
			c0.047-0.183,0.07-0.385,0.07-0.605v-3.53c0-0.22-0.023-0.423-0.07-0.61c-0.047-0.187-0.123-0.348-0.229-0.485
			c-0.107-0.137-0.242-0.243-0.405-0.32s-0.361-0.115-0.595-0.115h-1.24v6.58H111.585z"/>
		<path fill="#F2F2F2" d="M116.164,18.464v0.2h-2.06v3.24h2.45v0.21h-2.67v-7h2.67v0.21h-2.45v3.14H116.164z"/>
		<path fill="#F2F2F2" d="M117.545,22.114h-0.21v-7h0.31l2.46,6.55v-6.55h0.21v7h-0.27l-2.5-6.68V22.114z"/>
		<path fill="#F2F2F2" d="M122.425,22.114v-6.79h-1.52v-0.21h3.27v0.21h-1.53v6.79H122.425z"/>
		<path fill="#F2F2F2" d="M126.555,15.114v7h-0.22v-7H126.555z"/>
		<path fill="#F2F2F2" d="M127.564,22.114h-0.21v-7h0.31l2.46,6.55v-6.55h0.21v7h-0.27l-2.5-6.68V22.114z"/>
		<path fill="#F2F2F2" d="M133.314,18.634v0.21h-1.96v3.27h-0.22v-7h2.569v0.21h-2.35v3.31H133.314z"/>
		<path fill="#F2F2F2" d="M134.454,16.834c0-0.247,0.027-0.477,0.08-0.69c0.054-0.213,0.141-0.4,0.261-0.56
			c0.119-0.16,0.272-0.287,0.46-0.38c0.187-0.093,0.413-0.14,0.68-0.14s0.495,0.046,0.685,0.14c0.19,0.094,0.346,0.22,0.465,0.38
			c0.12,0.16,0.209,0.347,0.266,0.56c0.057,0.214,0.085,0.444,0.085,0.69v3.56c0,0.247-0.028,0.477-0.085,0.69
			s-0.146,0.4-0.266,0.56c-0.119,0.16-0.274,0.287-0.465,0.38c-0.189,0.093-0.418,0.14-0.685,0.14s-0.493-0.046-0.68-0.14
			c-0.188-0.093-0.341-0.22-0.46-0.38c-0.12-0.16-0.207-0.346-0.261-0.56c-0.053-0.213-0.08-0.443-0.08-0.69V16.834z
			 M134.675,20.404c0,0.213,0.021,0.415,0.064,0.605c0.044,0.19,0.115,0.355,0.215,0.495c0.101,0.14,0.23,0.251,0.391,0.335
			s0.356,0.125,0.59,0.125s0.432-0.042,0.595-0.125s0.295-0.195,0.396-0.335c0.1-0.14,0.173-0.305,0.22-0.495s0.07-0.392,0.07-0.605
			v-3.58c0-0.213-0.023-0.415-0.07-0.605s-0.12-0.355-0.22-0.495c-0.101-0.14-0.232-0.251-0.396-0.335
			c-0.163-0.083-0.361-0.125-0.595-0.125s-0.43,0.042-0.59,0.125c-0.16,0.083-0.29,0.195-0.391,0.335
			c-0.1,0.14-0.171,0.305-0.215,0.495c-0.043,0.19-0.064,0.392-0.064,0.605V20.404z"/>
		<path fill="#F2F2F2" d="M139.614,15.114c0.52,0,0.89,0.142,1.11,0.425c0.22,0.284,0.33,0.665,0.33,1.145v0.63
			c0,0.433-0.089,0.768-0.266,1.005s-0.458,0.392-0.845,0.465c0.394,0.06,0.677,0.212,0.85,0.455
			c0.174,0.244,0.261,0.559,0.261,0.945v1.1c0,0.133,0.011,0.277,0.034,0.43s0.075,0.287,0.155,0.4h-0.24
			c-0.073-0.113-0.12-0.242-0.14-0.385c-0.021-0.144-0.03-0.292-0.03-0.445v-1.1c0-0.26-0.036-0.473-0.109-0.64
			c-0.074-0.167-0.179-0.298-0.315-0.395s-0.299-0.165-0.485-0.205s-0.393-0.06-0.619-0.06h-0.86v3.23h-0.22v-7H139.614z
			 M139.305,18.674c0.239,0,0.454-0.019,0.645-0.055s0.35-0.105,0.48-0.205c0.13-0.1,0.229-0.235,0.3-0.405
			c0.069-0.17,0.104-0.392,0.104-0.665v-0.64c0-0.426-0.092-0.763-0.274-1.01c-0.184-0.247-0.502-0.37-0.955-0.37h-1.16v3.35
			H139.305z"/>
		<path fill="#F2F2F2" d="M144.204,22.094h-0.25l-1.73-6.65v6.67h-0.199v-7h0.34l1.72,6.64l1.72-6.64h0.34v7h-0.22v-6.67
			L144.204,22.094z"/>
		<path fill="#F2F2F2" d="M147.524,20.464l-0.41,1.65h-0.2l1.689-7.01h0.311l1.729,7.01h-0.22l-0.41-1.65H147.524z M147.563,20.264
			h2.41l-1.22-4.9L147.563,20.264z"/>
		<path fill="#F2F2F2" d="M152.344,22.114v-6.79h-1.52v-0.21h3.27v0.21h-1.53v6.79H152.344z"/>
		<path fill="#F2F2F2" d="M154.924,15.114v7h-0.22v-7H154.924z"/>
		<path fill="#F2F2F2" d="M155.713,16.834c0-0.247,0.027-0.477,0.08-0.69c0.054-0.213,0.141-0.4,0.261-0.56
			c0.119-0.16,0.272-0.287,0.46-0.38c0.187-0.093,0.413-0.14,0.68-0.14s0.495,0.046,0.685,0.14c0.19,0.094,0.346,0.22,0.465,0.38
			c0.12,0.16,0.209,0.347,0.266,0.56c0.057,0.214,0.085,0.444,0.085,0.69v3.56c0,0.247-0.028,0.477-0.085,0.69
			s-0.146,0.4-0.266,0.56c-0.119,0.16-0.274,0.287-0.465,0.38c-0.189,0.093-0.418,0.14-0.685,0.14s-0.493-0.046-0.68-0.14
			c-0.188-0.093-0.341-0.22-0.46-0.38c-0.12-0.16-0.207-0.346-0.261-0.56c-0.053-0.213-0.08-0.443-0.08-0.69V16.834z
			 M155.934,20.404c0,0.213,0.021,0.415,0.064,0.605c0.044,0.19,0.115,0.355,0.215,0.495c0.101,0.14,0.23,0.251,0.391,0.335
			s0.356,0.125,0.59,0.125s0.432-0.042,0.595-0.125s0.295-0.195,0.396-0.335c0.1-0.14,0.173-0.305,0.22-0.495s0.07-0.392,0.07-0.605
			v-3.58c0-0.213-0.023-0.415-0.07-0.605s-0.12-0.355-0.22-0.495c-0.101-0.14-0.232-0.251-0.396-0.335
			c-0.163-0.083-0.361-0.125-0.595-0.125s-0.43,0.042-0.59,0.125c-0.16,0.083-0.29,0.195-0.391,0.335
			c-0.1,0.14-0.171,0.305-0.215,0.495c-0.043,0.19-0.064,0.392-0.064,0.605V20.404z"/>
		<path fill="#F2F2F2" d="M159.693,22.114h-0.21v-7h0.31l2.46,6.55v-6.55h0.21v7h-0.27l-2.5-6.68V22.114z"/>
		<path fill="#F2F2F2" d="M166.263,15.064c0.267,0,0.492,0.045,0.676,0.135c0.183,0.09,0.331,0.215,0.444,0.375
			s0.197,0.345,0.25,0.555c0.054,0.21,0.08,0.435,0.08,0.675v0.13h-0.22v-0.14c0-0.207-0.021-0.403-0.065-0.59
			c-0.043-0.187-0.111-0.35-0.205-0.49c-0.093-0.14-0.218-0.25-0.375-0.33c-0.156-0.08-0.348-0.12-0.574-0.12
			c-0.233,0-0.429,0.04-0.585,0.12c-0.157,0.08-0.282,0.19-0.375,0.33c-0.094,0.14-0.162,0.302-0.205,0.485
			c-0.044,0.184-0.065,0.378-0.065,0.585c0,0.3,0.066,0.554,0.2,0.76c0.133,0.207,0.298,0.392,0.495,0.555
			c0.196,0.164,0.411,0.317,0.645,0.46c0.233,0.144,0.448,0.3,0.646,0.47c0.196,0.17,0.361,0.367,0.495,0.59
			c0.133,0.224,0.199,0.492,0.199,0.805c0,0.24-0.026,0.467-0.079,0.68c-0.054,0.213-0.139,0.398-0.256,0.555
			c-0.116,0.157-0.268,0.28-0.455,0.37c-0.187,0.09-0.413,0.135-0.68,0.135s-0.491-0.045-0.675-0.135s-0.333-0.213-0.45-0.37
			c-0.116-0.156-0.201-0.341-0.255-0.555s-0.08-0.44-0.08-0.68v-0.34h0.21v0.35c0,0.213,0.021,0.412,0.065,0.595
			c0.043,0.184,0.114,0.343,0.215,0.48c0.1,0.137,0.229,0.245,0.385,0.325c0.156,0.08,0.352,0.12,0.585,0.12
			c0.227,0,0.42-0.04,0.58-0.12c0.16-0.08,0.29-0.188,0.39-0.325c0.101-0.137,0.172-0.296,0.216-0.48
			c0.043-0.183,0.064-0.382,0.064-0.595c0-0.293-0.066-0.543-0.2-0.75c-0.133-0.207-0.298-0.392-0.495-0.555
			c-0.196-0.164-0.411-0.315-0.645-0.455s-0.448-0.296-0.645-0.47c-0.197-0.173-0.362-0.372-0.495-0.595
			c-0.134-0.224-0.2-0.495-0.2-0.815c0-0.514,0.113-0.928,0.34-1.245C165.39,15.232,165.757,15.07,166.263,15.064z"/>
		<path fill="#F2F2F2" d="M170.022,19.284l-1.63-4.17h0.22l1.53,3.87l1.529-3.87h0.23l-1.66,4.17v2.83h-0.22V19.284z"/>
		<path fill="#F2F2F2" d="M174.032,15.064c0.267,0,0.492,0.045,0.676,0.135c0.183,0.09,0.331,0.215,0.444,0.375
			s0.197,0.345,0.25,0.555c0.054,0.21,0.08,0.435,0.08,0.675v0.13h-0.22v-0.14c0-0.207-0.021-0.403-0.065-0.59
			c-0.043-0.187-0.111-0.35-0.205-0.49c-0.093-0.14-0.218-0.25-0.375-0.33c-0.156-0.08-0.348-0.12-0.574-0.12
			c-0.233,0-0.429,0.04-0.585,0.12c-0.157,0.08-0.282,0.19-0.375,0.33c-0.094,0.14-0.162,0.302-0.205,0.485
			c-0.044,0.184-0.065,0.378-0.065,0.585c0,0.3,0.066,0.554,0.2,0.76c0.133,0.207,0.298,0.392,0.495,0.555
			c0.196,0.164,0.411,0.317,0.645,0.46c0.233,0.144,0.448,0.3,0.646,0.47c0.196,0.17,0.361,0.367,0.495,0.59
			c0.133,0.224,0.199,0.492,0.199,0.805c0,0.24-0.026,0.467-0.079,0.68c-0.054,0.213-0.139,0.398-0.256,0.555
			c-0.116,0.157-0.268,0.28-0.455,0.37c-0.187,0.09-0.413,0.135-0.68,0.135s-0.491-0.045-0.675-0.135s-0.333-0.213-0.45-0.37
			c-0.116-0.156-0.201-0.341-0.255-0.555s-0.08-0.44-0.08-0.68v-0.34h0.21v0.35c0,0.213,0.021,0.412,0.065,0.595
			c0.043,0.184,0.114,0.343,0.215,0.48c0.1,0.137,0.229,0.245,0.385,0.325c0.156,0.08,0.352,0.12,0.585,0.12
			c0.227,0,0.42-0.04,0.58-0.12c0.16-0.08,0.29-0.188,0.39-0.325c0.101-0.137,0.172-0.296,0.216-0.48
			c0.043-0.183,0.064-0.382,0.064-0.595c0-0.293-0.066-0.543-0.2-0.75c-0.133-0.207-0.298-0.392-0.495-0.555
			c-0.196-0.164-0.411-0.315-0.645-0.455s-0.448-0.296-0.645-0.47c-0.197-0.173-0.362-0.372-0.495-0.595
			c-0.134-0.224-0.2-0.495-0.2-0.815c0-0.514,0.113-0.928,0.34-1.245C173.159,15.232,173.526,15.07,174.032,15.064z"/>
		<path fill="#F2F2F2" d="M177.582,22.114v-6.79h-1.52v-0.21h3.27v0.21h-1.53v6.79H177.582z"/>
		<path fill="#F2F2F2" d="M182.222,18.464v0.2h-2.06v3.24h2.45v0.21h-2.67v-7h2.67v0.21h-2.45v3.14H182.222z"/>
		<path fill="#F2F2F2" d="M185.572,22.094h-0.25l-1.73-6.65v6.67h-0.199v-7h0.34l1.72,6.64l1.72-6.64h0.34v7h-0.22v-6.67
			L185.572,22.094z"/>
	</g>
	<g>
		<path fill="#F2F2F2" d="M264.035,29.524L263.42,32h-0.3l2.535-10.515h0.465L268.715,32h-0.33l-0.614-2.475H264.035z
			 M264.095,29.225h3.615l-1.83-7.35L264.095,29.225z"/>
		<path fill="#F2F2F2" d="M272.03,21.424c0.4,0,0.74,0.07,1.021,0.21c0.279,0.141,0.507,0.33,0.683,0.57
			c0.175,0.24,0.302,0.522,0.382,0.848c0.08,0.325,0.12,0.667,0.12,1.027v0.81h-0.33v-0.825c0-0.32-0.032-0.623-0.097-0.907
			c-0.065-0.285-0.171-0.533-0.315-0.743c-0.146-0.21-0.338-0.377-0.577-0.502c-0.24-0.125-0.53-0.188-0.87-0.188
			c-0.351,0-0.646,0.063-0.886,0.188c-0.239,0.125-0.433,0.292-0.577,0.502s-0.25,0.458-0.314,0.743
			c-0.065,0.285-0.098,0.587-0.098,0.907v5.37c0,0.32,0.032,0.62,0.098,0.9c0.064,0.28,0.17,0.525,0.314,0.735
			s0.338,0.378,0.577,0.502c0.24,0.125,0.535,0.188,0.886,0.188c0.34,0,0.63-0.062,0.87-0.188c0.239-0.125,0.432-0.292,0.577-0.502
			c0.145-0.21,0.25-0.455,0.315-0.735c0.064-0.28,0.097-0.58,0.097-0.9v-1.155h0.33v1.14c0,0.36-0.04,0.703-0.12,1.027
			c-0.08,0.325-0.207,0.608-0.382,0.848c-0.176,0.24-0.403,0.43-0.683,0.57c-0.28,0.14-0.62,0.21-1.021,0.21
			c-0.399,0-0.737-0.07-1.012-0.21c-0.275-0.14-0.501-0.33-0.676-0.57c-0.175-0.24-0.302-0.522-0.382-0.848
			c-0.08-0.325-0.12-0.667-0.12-1.027v-5.34c0-0.36,0.04-0.703,0.12-1.027c0.08-0.325,0.207-0.608,0.382-0.848
			c0.175-0.24,0.4-0.43,0.676-0.57C271.293,21.495,271.631,21.424,272.03,21.424z"/>
		<path fill="#F2F2F2" d="M277.58,21.424c0.4,0,0.74,0.07,1.021,0.21c0.279,0.141,0.507,0.33,0.683,0.57
			c0.175,0.24,0.302,0.522,0.382,0.848c0.08,0.325,0.12,0.667,0.12,1.027v0.81h-0.33v-0.825c0-0.32-0.032-0.623-0.097-0.907
			c-0.065-0.285-0.171-0.533-0.315-0.743c-0.146-0.21-0.338-0.377-0.577-0.502c-0.24-0.125-0.53-0.188-0.87-0.188
			c-0.351,0-0.646,0.063-0.886,0.188c-0.239,0.125-0.433,0.292-0.577,0.502s-0.25,0.458-0.314,0.743
			c-0.065,0.285-0.098,0.587-0.098,0.907v5.37c0,0.32,0.032,0.62,0.098,0.9c0.064,0.28,0.17,0.525,0.314,0.735
			s0.338,0.378,0.577,0.502c0.24,0.125,0.535,0.188,0.886,0.188c0.34,0,0.63-0.062,0.87-0.188c0.239-0.125,0.432-0.292,0.577-0.502
			c0.145-0.21,0.25-0.455,0.315-0.735c0.064-0.28,0.097-0.58,0.097-0.9v-1.155h0.33v1.14c0,0.36-0.04,0.703-0.12,1.027
			c-0.08,0.325-0.207,0.608-0.382,0.848c-0.176,0.24-0.403,0.43-0.683,0.57c-0.28,0.14-0.62,0.21-1.021,0.21
			c-0.399,0-0.737-0.07-1.012-0.21c-0.275-0.14-0.501-0.33-0.676-0.57c-0.175-0.24-0.302-0.522-0.382-0.848
			c-0.08-0.325-0.12-0.667-0.12-1.027v-5.34c0-0.36,0.04-0.703,0.12-1.027c0.08-0.325,0.207-0.608,0.382-0.848
			c0.175-0.24,0.4-0.43,0.676-0.57C276.843,21.495,277.181,21.424,277.58,21.424z"/>
		<path fill="#F2F2F2" d="M280.94,24.08c0-0.37,0.04-0.715,0.12-1.035c0.08-0.32,0.21-0.6,0.39-0.84c0.18-0.24,0.41-0.43,0.69-0.57
			c0.279-0.14,0.619-0.21,1.02-0.21s0.742,0.07,1.027,0.21c0.285,0.141,0.518,0.33,0.697,0.57c0.181,0.24,0.313,0.52,0.398,0.84
			c0.084,0.32,0.127,0.665,0.127,1.035v5.34c0,0.37-0.043,0.715-0.127,1.035c-0.086,0.32-0.218,0.6-0.398,0.84
			c-0.18,0.24-0.412,0.43-0.697,0.57c-0.285,0.14-0.627,0.21-1.027,0.21s-0.74-0.07-1.02-0.21c-0.28-0.14-0.511-0.33-0.69-0.57
			c-0.18-0.24-0.31-0.52-0.39-0.84c-0.08-0.32-0.12-0.665-0.12-1.035V24.08z M281.271,29.435c0,0.32,0.032,0.623,0.098,0.907
			c0.064,0.285,0.172,0.533,0.322,0.743c0.149,0.21,0.345,0.377,0.585,0.502c0.24,0.125,0.535,0.188,0.885,0.188
			s0.647-0.062,0.893-0.188c0.245-0.125,0.442-0.292,0.593-0.502c0.149-0.21,0.26-0.458,0.33-0.743
			c0.069-0.285,0.104-0.587,0.104-0.907v-5.37c0-0.32-0.035-0.623-0.104-0.907c-0.07-0.285-0.181-0.533-0.33-0.743
			c-0.15-0.21-0.348-0.377-0.593-0.502s-0.543-0.188-0.893-0.188s-0.645,0.063-0.885,0.188s-0.436,0.292-0.585,0.502
			c-0.15,0.21-0.258,0.458-0.322,0.743c-0.065,0.285-0.098,0.587-0.098,0.907V29.435z"/>
		<path fill="#F2F2F2" d="M289.865,31.97h-0.375l-2.596-9.975V32h-0.3V21.5h0.51l2.58,9.96l2.58-9.96h0.51V32h-0.329V21.995
			L289.865,31.97z"/>
		<path fill="#F2F2F2" d="M293.96,24.08c0-0.37,0.04-0.715,0.12-1.035c0.08-0.32,0.21-0.6,0.39-0.84c0.18-0.24,0.41-0.43,0.69-0.57
			c0.279-0.14,0.619-0.21,1.02-0.21s0.742,0.07,1.027,0.21c0.285,0.141,0.518,0.33,0.697,0.57c0.181,0.24,0.313,0.52,0.398,0.84
			c0.084,0.32,0.127,0.665,0.127,1.035v5.34c0,0.37-0.043,0.715-0.127,1.035c-0.086,0.32-0.218,0.6-0.398,0.84
			c-0.18,0.24-0.412,0.43-0.697,0.57c-0.285,0.14-0.627,0.21-1.027,0.21s-0.74-0.07-1.02-0.21c-0.28-0.14-0.511-0.33-0.69-0.57
			c-0.18-0.24-0.31-0.52-0.39-0.84c-0.08-0.32-0.12-0.665-0.12-1.035V24.08z M294.29,29.435c0,0.32,0.032,0.623,0.098,0.907
			c0.064,0.285,0.172,0.533,0.322,0.743c0.149,0.21,0.345,0.377,0.585,0.502c0.24,0.125,0.535,0.188,0.885,0.188
			s0.647-0.062,0.893-0.188c0.245-0.125,0.442-0.292,0.593-0.502c0.149-0.21,0.26-0.458,0.33-0.743
			c0.069-0.285,0.104-0.587,0.104-0.907v-5.37c0-0.32-0.035-0.623-0.104-0.907c-0.07-0.285-0.181-0.533-0.33-0.743
			c-0.15-0.21-0.348-0.377-0.593-0.502s-0.543-0.188-0.893-0.188s-0.645,0.063-0.885,0.188s-0.436,0.292-0.585,0.502
			c-0.15,0.21-0.258,0.458-0.322,0.743c-0.065,0.285-0.098,0.587-0.098,0.907V29.435z"/>
		<path fill="#F2F2F2" d="M301.805,21.5c0.399,0,0.744,0.067,1.035,0.203c0.289,0.135,0.527,0.317,0.712,0.547
			c0.186,0.23,0.32,0.508,0.405,0.833c0.085,0.325,0.127,0.673,0.127,1.042v5.265c0,0.37-0.042,0.715-0.127,1.035
			c-0.085,0.32-0.22,0.595-0.405,0.825c-0.185,0.23-0.42,0.413-0.705,0.547C302.562,31.932,302.22,32,301.819,32h-2.205V21.5
			H301.805z M301.805,31.685c0.35,0,0.649-0.058,0.899-0.172c0.25-0.115,0.453-0.275,0.607-0.48c0.155-0.205,0.268-0.445,0.338-0.72
			c0.07-0.275,0.105-0.578,0.105-0.908v-5.295c0-0.33-0.035-0.635-0.105-0.915c-0.07-0.28-0.186-0.522-0.345-0.728
			c-0.16-0.205-0.363-0.365-0.607-0.48c-0.245-0.115-0.543-0.172-0.893-0.172h-1.86v9.87H301.805z"/>
		<path fill="#F2F2F2" d="M306.109,29.524L305.494,32h-0.3l2.534-10.515h0.466L310.789,32h-0.33l-0.615-2.475H306.109z
			 M306.169,29.225h3.615l-1.83-7.35L306.169,29.225z"/>
		<path fill="#F2F2F2" d="M313.339,32V21.814h-2.279V21.5h4.904v0.315h-2.295V32H313.339z"/>
		<path fill="#F2F2F2" d="M317.209,21.5V32h-0.33V21.5H317.209z"/>
		<path fill="#F2F2F2" d="M318.395,24.08c0-0.37,0.04-0.715,0.12-1.035c0.08-0.32,0.21-0.6,0.39-0.84
			c0.181-0.24,0.41-0.43,0.69-0.57c0.279-0.14,0.62-0.21,1.02-0.21c0.4,0,0.743,0.07,1.027,0.21c0.285,0.141,0.518,0.33,0.698,0.57
			c0.18,0.24,0.313,0.52,0.397,0.84c0.085,0.32,0.127,0.665,0.127,1.035v5.34c0,0.37-0.042,0.715-0.127,1.035
			c-0.085,0.32-0.218,0.6-0.397,0.84c-0.181,0.24-0.413,0.43-0.698,0.57c-0.284,0.14-0.627,0.21-1.027,0.21
			c-0.399,0-0.74-0.07-1.02-0.21c-0.28-0.14-0.51-0.33-0.69-0.57c-0.18-0.24-0.31-0.52-0.39-0.84c-0.08-0.32-0.12-0.665-0.12-1.035
			V24.08z M318.725,29.435c0,0.32,0.032,0.623,0.098,0.907c0.064,0.285,0.172,0.533,0.322,0.743s0.345,0.377,0.585,0.502
			c0.24,0.125,0.535,0.188,0.885,0.188c0.351,0,0.647-0.062,0.893-0.188c0.245-0.125,0.442-0.292,0.593-0.502s0.26-0.458,0.33-0.743
			c0.069-0.285,0.104-0.587,0.104-0.907v-5.37c0-0.32-0.035-0.623-0.104-0.907c-0.07-0.285-0.18-0.533-0.33-0.743
			s-0.348-0.377-0.593-0.502s-0.542-0.188-0.893-0.188c-0.35,0-0.645,0.063-0.885,0.188s-0.435,0.292-0.585,0.502
			s-0.258,0.458-0.322,0.743c-0.065,0.285-0.098,0.587-0.098,0.907V29.435z"/>
		<path fill="#F2F2F2" d="M324.364,32h-0.315V21.5h0.466l3.689,9.825V21.5h0.315V32h-0.405l-3.75-10.02V32z"/>
		<path fill="#F2F2F2" d="M332.044,32V21.5h0.33v10.185h3.525V32H332.044z"/>
		<path fill="#F2F2F2" d="M337.024,24.08c0-0.37,0.04-0.715,0.12-1.035c0.08-0.32,0.21-0.6,0.39-0.84
			c0.181-0.24,0.41-0.43,0.69-0.57c0.279-0.14,0.62-0.21,1.02-0.21c0.4,0,0.743,0.07,1.027,0.21c0.285,0.141,0.518,0.33,0.698,0.57
			c0.18,0.24,0.313,0.52,0.397,0.84c0.085,0.32,0.127,0.665,0.127,1.035v5.34c0,0.37-0.042,0.715-0.127,1.035
			c-0.085,0.32-0.218,0.6-0.397,0.84c-0.181,0.24-0.413,0.43-0.698,0.57c-0.284,0.14-0.627,0.21-1.027,0.21
			c-0.399,0-0.74-0.07-1.02-0.21c-0.28-0.14-0.51-0.33-0.69-0.57c-0.18-0.24-0.31-0.52-0.39-0.84c-0.08-0.32-0.12-0.665-0.12-1.035
			V24.08z M337.354,29.435c0,0.32,0.032,0.623,0.098,0.907c0.064,0.285,0.172,0.533,0.322,0.743s0.345,0.377,0.585,0.502
			c0.24,0.125,0.535,0.188,0.885,0.188c0.351,0,0.647-0.062,0.893-0.188c0.245-0.125,0.442-0.292,0.593-0.502s0.26-0.458,0.33-0.743
			c0.069-0.285,0.104-0.587,0.104-0.907v-5.37c0-0.32-0.035-0.623-0.104-0.907c-0.07-0.285-0.18-0.533-0.33-0.743
			s-0.348-0.377-0.593-0.502s-0.542-0.188-0.893-0.188c-0.35,0-0.645,0.063-0.885,0.188s-0.435,0.292-0.585,0.502
			s-0.258,0.458-0.322,0.743c-0.065,0.285-0.098,0.587-0.098,0.907V29.435z"/>
		<path fill="#F2F2F2" d="M344.854,21.424c0.399,0,0.739,0.07,1.02,0.21c0.28,0.141,0.508,0.33,0.683,0.57
			c0.175,0.24,0.303,0.522,0.383,0.848c0.079,0.325,0.12,0.667,0.12,1.027v0.81h-0.33v-0.825c0-0.32-0.033-0.623-0.098-0.907
			c-0.065-0.285-0.17-0.533-0.315-0.743c-0.145-0.21-0.337-0.377-0.577-0.502s-0.53-0.188-0.87-0.188
			c-0.351,0-0.646,0.063-0.885,0.188c-0.24,0.125-0.433,0.292-0.578,0.502c-0.145,0.21-0.25,0.458-0.314,0.743
			c-0.065,0.285-0.098,0.587-0.098,0.907v5.37c0,0.32,0.032,0.62,0.098,0.9c0.064,0.28,0.17,0.525,0.314,0.735
			c0.146,0.21,0.338,0.378,0.578,0.502c0.239,0.125,0.534,0.188,0.885,0.188c0.34,0,0.63-0.062,0.87-0.188
			c0.24-0.125,0.433-0.292,0.577-0.502c0.146-0.21,0.25-0.455,0.315-0.735c0.064-0.28,0.098-0.58,0.098-0.9v-1.155h0.33v1.14
			c0,0.36-0.041,0.703-0.12,1.027c-0.08,0.325-0.208,0.608-0.383,0.848c-0.175,0.24-0.402,0.43-0.683,0.57
			c-0.28,0.14-0.62,0.21-1.02,0.21c-0.4,0-0.738-0.07-1.013-0.21c-0.275-0.14-0.5-0.33-0.675-0.57
			c-0.176-0.24-0.303-0.522-0.383-0.848c-0.08-0.325-0.12-0.667-0.12-1.027v-5.34c0-0.36,0.04-0.703,0.12-1.027
			c0.08-0.325,0.207-0.608,0.383-0.848c0.175-0.24,0.399-0.43,0.675-0.57C344.116,21.495,344.454,21.424,344.854,21.424z"/>
		<path fill="#F2F2F2" d="M349.099,29.524L348.484,32h-0.301l2.535-10.515h0.465L353.779,32h-0.33l-0.615-2.475H349.099z
			 M349.159,29.225h3.614l-1.829-7.35L349.159,29.225z"/>
		<path fill="#F2F2F2" d="M356.329,32V21.814h-2.28V21.5h4.905v0.315h-2.296V32H356.329z"/>
		<path fill="#F2F2F2" d="M359.854,24.08c0-0.37,0.04-0.715,0.12-1.035c0.08-0.32,0.21-0.6,0.39-0.84
			c0.181-0.24,0.41-0.43,0.69-0.57c0.279-0.14,0.62-0.21,1.02-0.21c0.4,0,0.743,0.07,1.027,0.21c0.285,0.141,0.518,0.33,0.698,0.57
			c0.18,0.24,0.313,0.52,0.397,0.84c0.085,0.32,0.127,0.665,0.127,1.035v5.34c0,0.37-0.042,0.715-0.127,1.035
			c-0.085,0.32-0.218,0.6-0.397,0.84c-0.181,0.24-0.413,0.43-0.698,0.57c-0.284,0.14-0.627,0.21-1.027,0.21
			c-0.399,0-0.74-0.07-1.02-0.21c-0.28-0.14-0.51-0.33-0.69-0.57c-0.18-0.24-0.31-0.52-0.39-0.84c-0.08-0.32-0.12-0.665-0.12-1.035
			V24.08z M360.184,29.435c0,0.32,0.032,0.623,0.098,0.907c0.064,0.285,0.172,0.533,0.322,0.743s0.345,0.377,0.585,0.502
			c0.24,0.125,0.535,0.188,0.885,0.188c0.351,0,0.647-0.062,0.893-0.188c0.245-0.125,0.442-0.292,0.593-0.502s0.26-0.458,0.33-0.743
			c0.069-0.285,0.104-0.587,0.104-0.907v-5.37c0-0.32-0.035-0.623-0.104-0.907c-0.07-0.285-0.18-0.533-0.33-0.743
			s-0.348-0.377-0.593-0.502s-0.542-0.188-0.893-0.188c-0.35,0-0.645,0.063-0.885,0.188s-0.435,0.292-0.585,0.502
			s-0.258,0.458-0.322,0.743c-0.065,0.285-0.098,0.587-0.098,0.907V29.435z"/>
		<path fill="#F2F2F2" d="M367.593,21.5c0.78,0,1.335,0.212,1.665,0.638c0.33,0.425,0.495,0.997,0.495,1.717v0.945
			c0,0.65-0.133,1.153-0.397,1.508s-0.688,0.587-1.268,0.697c0.59,0.09,1.016,0.318,1.275,0.683c0.26,0.365,0.39,0.838,0.39,1.417
			v1.65c0,0.2,0.018,0.415,0.053,0.645c0.035,0.23,0.112,0.43,0.232,0.6h-0.36c-0.109-0.17-0.18-0.362-0.21-0.578
			c-0.029-0.215-0.045-0.437-0.045-0.667v-1.65c0-0.39-0.055-0.71-0.165-0.96c-0.109-0.25-0.268-0.447-0.472-0.592
			c-0.205-0.145-0.448-0.248-0.728-0.308c-0.28-0.06-0.591-0.09-0.931-0.09h-1.29V32h-0.33V21.5H367.593z M367.128,26.839
			c0.36,0,0.683-0.027,0.968-0.083c0.285-0.055,0.525-0.157,0.72-0.307c0.195-0.15,0.346-0.353,0.45-0.608
			c0.105-0.255,0.157-0.587,0.157-0.997v-0.96c0-0.64-0.138-1.145-0.412-1.515c-0.275-0.37-0.753-0.555-1.433-0.555h-1.74v5.025
			H367.128z"/>
	</g>
	<g>
		<path fill="#F2F2F2" d="M270.888,16.185c0-0.148,0.016-0.286,0.048-0.414s0.084-0.24,0.156-0.336
			c0.071-0.096,0.163-0.172,0.275-0.228s0.248-0.084,0.408-0.084s0.297,0.028,0.411,0.084s0.207,0.132,0.278,0.228
			c0.072,0.096,0.125,0.208,0.159,0.336s0.052,0.266,0.052,0.414v2.136c0,0.148-0.018,0.286-0.052,0.414
			c-0.034,0.128-0.087,0.24-0.159,0.336c-0.071,0.096-0.164,0.172-0.278,0.228c-0.114,0.056-0.251,0.084-0.411,0.084
			s-0.296-0.028-0.408-0.084c-0.112-0.056-0.204-0.132-0.275-0.228c-0.072-0.096-0.124-0.208-0.156-0.336
			c-0.032-0.128-0.048-0.266-0.048-0.414V16.185z M271.02,18.327c0,0.128,0.013,0.249,0.039,0.363
			c0.025,0.114,0.068,0.213,0.129,0.297c0.06,0.084,0.138,0.151,0.233,0.201c0.097,0.05,0.215,0.075,0.354,0.075
			s0.259-0.025,0.356-0.075c0.099-0.05,0.178-0.117,0.237-0.201c0.061-0.084,0.104-0.183,0.132-0.297
			c0.028-0.114,0.042-0.235,0.042-0.363v-2.148c0-0.128-0.014-0.249-0.042-0.363c-0.027-0.114-0.071-0.213-0.132-0.297
			c-0.06-0.084-0.139-0.151-0.237-0.201c-0.098-0.05-0.217-0.075-0.356-0.075s-0.258,0.025-0.354,0.075
			c-0.096,0.05-0.174,0.117-0.233,0.201c-0.061,0.084-0.104,0.183-0.129,0.297c-0.026,0.114-0.039,0.235-0.039,0.363V18.327z"/>
		<path fill="#F2F2F2" d="M273.491,18.362l-0.246,0.99h-0.12l1.015-4.206h0.186l1.038,4.206h-0.132l-0.246-0.99H273.491z
			 M273.516,18.243h1.445l-0.731-2.94L273.516,18.243z"/>
		<path fill="#F2F2F2" d="M276.695,15.123c0.159,0,0.295,0.027,0.404,0.081c0.11,0.054,0.199,0.129,0.268,0.225
			c0.067,0.096,0.118,0.207,0.149,0.333c0.032,0.126,0.049,0.261,0.049,0.405v0.078h-0.133v-0.084c0-0.124-0.013-0.242-0.039-0.354
			c-0.025-0.112-0.066-0.21-0.123-0.294c-0.056-0.084-0.131-0.15-0.225-0.198s-0.209-0.072-0.345-0.072
			c-0.141,0-0.257,0.024-0.352,0.072c-0.094,0.048-0.169,0.114-0.225,0.198s-0.097,0.181-0.123,0.291
			c-0.026,0.11-0.039,0.227-0.039,0.351c0,0.18,0.04,0.333,0.12,0.456c0.08,0.124,0.179,0.235,0.297,0.333
			c0.118,0.098,0.247,0.19,0.387,0.276c0.141,0.086,0.27,0.18,0.388,0.282c0.117,0.102,0.217,0.22,0.297,0.354
			c0.08,0.134,0.12,0.295,0.12,0.483c0,0.144-0.017,0.28-0.048,0.408c-0.032,0.128-0.084,0.239-0.153,0.333
			c-0.07,0.094-0.161,0.168-0.273,0.222c-0.111,0.054-0.248,0.081-0.408,0.081c-0.159,0-0.295-0.027-0.404-0.081
			c-0.11-0.054-0.2-0.128-0.271-0.222c-0.069-0.094-0.121-0.205-0.152-0.333c-0.032-0.128-0.049-0.264-0.049-0.408v-0.204h0.126
			v0.21c0,0.128,0.014,0.247,0.039,0.357c0.026,0.11,0.069,0.206,0.13,0.288c0.06,0.082,0.137,0.147,0.23,0.195
			s0.211,0.072,0.351,0.072c0.137,0,0.253-0.024,0.349-0.072s0.174-0.113,0.233-0.195c0.061-0.082,0.104-0.178,0.13-0.288
			c0.025-0.11,0.038-0.229,0.038-0.357c0-0.176-0.039-0.326-0.119-0.45s-0.18-0.235-0.298-0.333
			c-0.117-0.098-0.246-0.189-0.387-0.273c-0.14-0.084-0.269-0.178-0.387-0.282c-0.118-0.104-0.217-0.223-0.297-0.357
			c-0.08-0.134-0.12-0.297-0.12-0.489c0-0.308,0.068-0.557,0.204-0.747S276.391,15.126,276.695,15.123z"/>
		<path fill="#F2F2F2" d="M278.171,15.152v4.2h-0.132v-4.2H278.171z"/>
		<path fill="#F2F2F2" d="M279.521,15.123c0.159,0,0.295,0.027,0.404,0.081c0.11,0.054,0.199,0.129,0.268,0.225
			c0.067,0.096,0.118,0.207,0.149,0.333c0.032,0.126,0.049,0.261,0.049,0.405v0.078h-0.133v-0.084c0-0.124-0.013-0.242-0.039-0.354
			c-0.025-0.112-0.066-0.21-0.123-0.294c-0.056-0.084-0.131-0.15-0.225-0.198s-0.209-0.072-0.345-0.072
			c-0.141,0-0.257,0.024-0.352,0.072c-0.094,0.048-0.169,0.114-0.225,0.198s-0.097,0.181-0.123,0.291
			c-0.026,0.11-0.039,0.227-0.039,0.351c0,0.18,0.04,0.333,0.12,0.456c0.08,0.124,0.179,0.235,0.297,0.333
			c0.118,0.098,0.247,0.19,0.387,0.276c0.141,0.086,0.27,0.18,0.388,0.282c0.117,0.102,0.217,0.22,0.297,0.354
			c0.08,0.134,0.12,0.295,0.12,0.483c0,0.144-0.017,0.28-0.048,0.408c-0.032,0.128-0.084,0.239-0.153,0.333
			c-0.07,0.094-0.161,0.168-0.273,0.222c-0.111,0.054-0.248,0.081-0.408,0.081c-0.159,0-0.295-0.027-0.404-0.081
			c-0.11-0.054-0.2-0.128-0.271-0.222c-0.069-0.094-0.121-0.205-0.152-0.333c-0.032-0.128-0.049-0.264-0.049-0.408v-0.204h0.126
			v0.21c0,0.128,0.014,0.247,0.039,0.357c0.026,0.11,0.069,0.206,0.13,0.288c0.06,0.082,0.137,0.147,0.23,0.195
			s0.211,0.072,0.351,0.072c0.137,0,0.253-0.024,0.349-0.072s0.174-0.113,0.233-0.195c0.061-0.082,0.104-0.178,0.13-0.288
			c0.025-0.11,0.038-0.229,0.038-0.357c0-0.176-0.039-0.326-0.119-0.45s-0.18-0.235-0.298-0.333
			c-0.117-0.098-0.246-0.189-0.387-0.273c-0.14-0.084-0.269-0.178-0.387-0.282c-0.118-0.104-0.217-0.223-0.297-0.357
			c-0.08-0.134-0.12-0.297-0.12-0.489c0-0.308,0.068-0.557,0.204-0.747S279.217,15.126,279.521,15.123z"/>
	</g>
</g>
<g id="sas">
	<g>
		<path fill="#F2F2F2" d="M76.616,25.163c0.16,0,0.296,0.026,0.408,0.078c0.112,0.052,0.204,0.125,0.276,0.219
			c0.072,0.094,0.125,0.205,0.159,0.333s0.051,0.268,0.051,0.42v0.09h-0.264v-0.108c0-0.112-0.011-0.215-0.033-0.309
			c-0.022-0.094-0.058-0.176-0.108-0.246c-0.05-0.07-0.115-0.125-0.195-0.165c-0.08-0.04-0.176-0.06-0.288-0.06
			c-0.228,0-0.389,0.073-0.483,0.219c-0.094,0.146-0.141,0.331-0.141,0.555c0,0.172,0.037,0.318,0.111,0.438
			c0.074,0.12,0.168,0.229,0.282,0.327c0.114,0.098,0.236,0.192,0.366,0.282s0.252,0.188,0.366,0.294
			c0.114,0.106,0.208,0.227,0.282,0.363c0.074,0.136,0.111,0.3,0.111,0.492c0,0.152-0.017,0.292-0.051,0.42
			c-0.034,0.128-0.088,0.239-0.162,0.333c-0.074,0.094-0.168,0.167-0.282,0.219s-0.251,0.078-0.411,0.078
			c-0.16,0-0.297-0.026-0.411-0.078c-0.114-0.052-0.208-0.125-0.282-0.219c-0.074-0.094-0.128-0.205-0.162-0.333
			c-0.034-0.128-0.051-0.268-0.051-0.42v-0.216h0.264v0.234c0,0.224,0.048,0.409,0.144,0.555c0.096,0.146,0.26,0.219,0.492,0.219
			s0.396-0.073,0.492-0.219c0.096-0.146,0.144-0.331,0.144-0.555c0-0.168-0.037-0.312-0.111-0.432
			c-0.074-0.12-0.168-0.229-0.282-0.327c-0.114-0.098-0.236-0.191-0.366-0.279c-0.13-0.088-0.252-0.185-0.366-0.291
			c-0.114-0.106-0.208-0.228-0.282-0.366c-0.074-0.138-0.111-0.305-0.111-0.501c0-0.316,0.071-0.568,0.213-0.756
			C76.077,25.263,76.304,25.167,76.616,25.163z"/>
		<path fill="#F2F2F2" d="M78.668,29.399v-3.948h-0.852v-0.252h1.986v0.252h-0.858v3.948H78.668z"/>
		<path fill="#F2F2F2" d="M80.408,28.385c0,0.112,0.011,0.217,0.033,0.315c0.022,0.098,0.058,0.183,0.108,0.255
			c0.05,0.072,0.115,0.128,0.195,0.168s0.178,0.06,0.294,0.06c0.116,0,0.214-0.02,0.294-0.06c0.08-0.04,0.145-0.096,0.195-0.168
			c0.05-0.072,0.086-0.157,0.108-0.255c0.022-0.098,0.033-0.203,0.033-0.315v-3.186h0.258v3.174c0,0.152-0.016,0.292-0.048,0.42
			c-0.032,0.128-0.084,0.24-0.156,0.336c-0.072,0.096-0.165,0.171-0.279,0.225c-0.114,0.054-0.251,0.081-0.411,0.081
			s-0.297-0.027-0.411-0.081c-0.114-0.054-0.207-0.129-0.279-0.225s-0.125-0.208-0.159-0.336c-0.034-0.128-0.051-0.268-0.051-0.42
			v-3.174h0.276V28.385z"/>
		<path fill="#F2F2F2" d="M83.324,25.199c0.16,0,0.299,0.025,0.417,0.075c0.118,0.05,0.215,0.121,0.291,0.213
			c0.076,0.092,0.132,0.202,0.168,0.33s0.054,0.27,0.054,0.426v2.112c0,0.156-0.018,0.298-0.054,0.426
			c-0.036,0.128-0.092,0.238-0.168,0.33c-0.076,0.092-0.173,0.163-0.291,0.213c-0.118,0.05-0.257,0.075-0.417,0.075H82.4v-4.2
			H83.324z M83.318,29.147c0.236,0,0.405-0.072,0.507-0.216c0.102-0.144,0.153-0.332,0.153-0.564v-2.136
			c0-0.232-0.052-0.42-0.156-0.564s-0.272-0.216-0.504-0.216h-0.642v3.696H83.318z"/>
		<path fill="#F2F2F2" d="M86.132,27.143v0.252h-1.146v1.752h1.38v0.252H84.71v-4.2h1.656v0.252h-1.38v1.692H86.132z"/>
		<path fill="#F2F2F2" d="M87.068,29.399h-0.252v-4.2h0.36l1.26,3.546v-3.546h0.252v4.2h-0.306l-1.314-3.744V29.399z"/>
		<path fill="#F2F2F2" d="M89.87,29.399v-3.948h-0.852v-0.252h1.986v0.252h-0.858v3.948H89.87z"/>
		<path fill="#F2F2F2" d="M92.678,28.469l-0.21,0.93h-0.252l0.918-4.206h0.402l0.936,4.206h-0.276l-0.21-0.93H92.678z M92.72,28.229
			h1.224l-0.618-2.718L92.72,28.229z"/>
		<path fill="#F2F2F2" d="M95.816,25.199c0.16,0,0.299,0.025,0.417,0.075c0.118,0.05,0.215,0.121,0.291,0.213
			c0.076,0.092,0.132,0.202,0.168,0.33s0.054,0.27,0.054,0.426v2.112c0,0.156-0.018,0.298-0.054,0.426
			c-0.036,0.128-0.092,0.238-0.168,0.33c-0.076,0.092-0.173,0.163-0.291,0.213c-0.118,0.05-0.257,0.075-0.417,0.075h-0.924v-4.2
			H95.816z M95.81,29.147c0.236,0,0.405-0.072,0.507-0.216c0.102-0.144,0.153-0.332,0.153-0.564v-2.136
			c0-0.232-0.052-0.42-0.156-0.564s-0.272-0.216-0.504-0.216h-0.642v3.696H95.81z"/>
		<path fill="#F2F2F2" d="M97.418,25.199l0.852,3.882l0.852-3.882h0.258l-0.911,4.2H98.06l-0.924-4.2H97.418z"/>
		<path fill="#F2F2F2" d="M100.076,25.199v4.2H99.8v-4.2H100.076z"/>
		<path fill="#F2F2F2" d="M101.432,25.163c0.16,0,0.296,0.026,0.408,0.078c0.111,0.052,0.203,0.125,0.275,0.219
			c0.072,0.094,0.125,0.205,0.159,0.333s0.051,0.268,0.051,0.42v0.09h-0.264v-0.108c0-0.112-0.011-0.215-0.033-0.309
			c-0.022-0.094-0.058-0.176-0.108-0.246c-0.049-0.07-0.115-0.125-0.194-0.165c-0.08-0.04-0.177-0.06-0.288-0.06
			c-0.229,0-0.389,0.073-0.482,0.219c-0.095,0.146-0.142,0.331-0.142,0.555c0,0.172,0.037,0.318,0.11,0.438
			c0.074,0.12,0.168,0.229,0.283,0.327c0.113,0.098,0.235,0.192,0.365,0.282s0.252,0.188,0.366,0.294s0.208,0.227,0.282,0.363
			c0.074,0.136,0.111,0.3,0.111,0.492c0,0.152-0.018,0.292-0.052,0.42c-0.034,0.128-0.088,0.239-0.161,0.333
			c-0.074,0.094-0.169,0.167-0.283,0.219c-0.113,0.052-0.25,0.078-0.41,0.078s-0.297-0.026-0.411-0.078s-0.208-0.125-0.282-0.219
			c-0.074-0.094-0.128-0.205-0.162-0.333c-0.033-0.128-0.051-0.268-0.051-0.42v-0.216h0.264v0.234c0,0.224,0.049,0.409,0.145,0.555
			s0.26,0.219,0.492,0.219c0.231,0,0.396-0.073,0.492-0.219c0.096-0.146,0.144-0.331,0.144-0.555c0-0.168-0.037-0.312-0.111-0.432
			c-0.073-0.12-0.168-0.229-0.282-0.327c-0.113-0.098-0.236-0.191-0.365-0.279c-0.131-0.088-0.252-0.185-0.366-0.291
			c-0.114-0.106-0.208-0.228-0.282-0.366c-0.074-0.138-0.111-0.305-0.111-0.501c0-0.316,0.071-0.568,0.213-0.756
			C100.893,25.263,101.119,25.167,101.432,25.163z"/>
		<path fill="#F2F2F2" d="M102.758,26.225c0-0.152,0.018-0.293,0.054-0.423c0.036-0.13,0.091-0.242,0.165-0.336
			c0.074-0.094,0.169-0.168,0.285-0.222c0.115-0.054,0.254-0.081,0.414-0.081s0.299,0.027,0.417,0.081
			c0.118,0.054,0.215,0.128,0.291,0.222c0.075,0.094,0.132,0.206,0.168,0.336c0.036,0.13,0.054,0.271,0.054,0.423v2.148
			c0,0.152-0.018,0.293-0.054,0.423s-0.093,0.242-0.168,0.336c-0.076,0.094-0.173,0.168-0.291,0.222
			c-0.118,0.054-0.257,0.081-0.417,0.081s-0.299-0.027-0.414-0.081c-0.116-0.054-0.211-0.128-0.285-0.222
			c-0.074-0.094-0.129-0.206-0.165-0.336s-0.054-0.271-0.054-0.423V26.225z M103.033,28.391c0,0.228,0.049,0.417,0.147,0.567
			s0.263,0.225,0.495,0.225s0.398-0.075,0.501-0.225s0.153-0.339,0.153-0.567v-2.184c0-0.228-0.051-0.417-0.153-0.567
			c-0.103-0.15-0.269-0.225-0.501-0.225s-0.396,0.075-0.495,0.225c-0.099,0.15-0.147,0.339-0.147,0.567V28.391z"/>
		<path fill="#F2F2F2" d="M105.938,25.199c0.32,0,0.551,0.084,0.69,0.252c0.14,0.168,0.21,0.4,0.21,0.696v0.366
			c0,0.488-0.202,0.778-0.605,0.87c0.215,0.048,0.37,0.146,0.465,0.294c0.094,0.148,0.141,0.336,0.141,0.564v0.654
			c0,0.088,0.006,0.177,0.018,0.267c0.012,0.09,0.04,0.169,0.084,0.237h-0.287c-0.037-0.064-0.061-0.135-0.072-0.213
			s-0.018-0.175-0.018-0.291v-0.66c0-0.14-0.019-0.256-0.055-0.348c-0.036-0.092-0.089-0.165-0.159-0.219
			c-0.069-0.054-0.153-0.092-0.249-0.114c-0.096-0.021-0.203-0.033-0.324-0.033h-0.438v1.878h-0.275v-4.2H105.938z M105.781,27.269
			c0.125,0,0.234-0.01,0.33-0.03c0.097-0.02,0.178-0.056,0.244-0.108c0.065-0.052,0.116-0.124,0.152-0.216
			c0.036-0.092,0.055-0.208,0.055-0.348v-0.396c0-0.228-0.049-0.405-0.145-0.531s-0.258-0.189-0.486-0.189h-0.594v1.818H105.781z"/>
		<path fill="#F2F2F2" d="M108.182,27.785l-0.941-2.586h0.287l0.805,2.208l0.804-2.208h0.271l-0.949,2.586v1.614h-0.275V27.785z"/>
		<path fill="#F2F2F2" d="M111.613,25.163c0.16,0,0.297,0.026,0.408,0.078c0.111,0.052,0.204,0.125,0.275,0.219
			c0.072,0.094,0.125,0.205,0.16,0.333c0.033,0.128,0.051,0.268,0.051,0.42v0.09h-0.264v-0.108c0-0.112-0.012-0.215-0.033-0.309
			c-0.022-0.094-0.059-0.176-0.108-0.246c-0.05-0.07-0.115-0.125-0.194-0.165c-0.08-0.04-0.177-0.06-0.289-0.06
			c-0.228,0-0.389,0.073-0.482,0.219s-0.141,0.331-0.141,0.555c0,0.172,0.037,0.318,0.11,0.438c0.074,0.12,0.168,0.229,0.282,0.327
			c0.113,0.098,0.236,0.192,0.365,0.282c0.131,0.09,0.252,0.188,0.367,0.294c0.113,0.106,0.207,0.227,0.281,0.363
			c0.074,0.136,0.111,0.3,0.111,0.492c0,0.152-0.018,0.292-0.051,0.42c-0.034,0.128-0.088,0.239-0.162,0.333
			c-0.074,0.094-0.168,0.167-0.282,0.219s-0.251,0.078-0.411,0.078s-0.297-0.026-0.41-0.078c-0.115-0.052-0.209-0.125-0.283-0.219
			c-0.074-0.094-0.127-0.205-0.162-0.333c-0.033-0.128-0.051-0.268-0.051-0.42v-0.216h0.264v0.234c0,0.224,0.049,0.409,0.145,0.555
			s0.26,0.219,0.492,0.219s0.396-0.073,0.492-0.219s0.145-0.331,0.145-0.555c0-0.168-0.037-0.312-0.111-0.432
			c-0.074-0.12-0.168-0.229-0.282-0.327s-0.236-0.191-0.366-0.279c-0.13-0.088-0.252-0.185-0.365-0.291
			c-0.115-0.106-0.209-0.228-0.283-0.366c-0.074-0.138-0.11-0.305-0.11-0.501c0-0.316,0.071-0.568,0.213-0.756
			C111.074,25.263,111.302,25.167,111.613,25.163z"/>
		<path fill="#F2F2F2" d="M114.379,27.143v0.252h-1.146v1.752h1.38v0.252h-1.656v-4.2h1.656v0.252h-1.38v1.692H114.379z"/>
		<path fill="#F2F2F2" d="M115.939,25.199c0.32,0,0.55,0.084,0.689,0.252c0.141,0.168,0.211,0.4,0.211,0.696v0.366
			c0,0.488-0.203,0.778-0.606,0.87c0.216,0.048,0.37,0.146,0.465,0.294c0.094,0.148,0.142,0.336,0.142,0.564v0.654
			c0,0.088,0.006,0.177,0.018,0.267c0.012,0.09,0.039,0.169,0.084,0.237h-0.288c-0.036-0.064-0.06-0.135-0.072-0.213
			c-0.012-0.078-0.018-0.175-0.018-0.291v-0.66c0-0.14-0.019-0.256-0.054-0.348c-0.037-0.092-0.09-0.165-0.16-0.219
			c-0.069-0.054-0.152-0.092-0.248-0.114c-0.096-0.021-0.204-0.033-0.324-0.033h-0.438v1.878h-0.276v-4.2H115.939z M115.783,27.269
			c0.124,0,0.234-0.01,0.33-0.03s0.177-0.056,0.243-0.108c0.065-0.052,0.116-0.124,0.153-0.216c0.035-0.092,0.054-0.208,0.054-0.348
			v-0.396c0-0.228-0.048-0.405-0.144-0.531c-0.097-0.126-0.259-0.189-0.486-0.189h-0.594v1.818H115.783z"/>
		<path fill="#F2F2F2" d="M117.59,25.199l0.852,3.882l0.852-3.882h0.258l-0.911,4.2h-0.408l-0.924-4.2H117.59z"/>
		<path fill="#F2F2F2" d="M120.248,25.199v4.2h-0.276v-4.2H120.248z"/>
		<path fill="#F2F2F2" d="M121.615,25.163c0.16,0,0.297,0.027,0.411,0.081c0.114,0.054,0.208,0.128,0.282,0.222
			c0.074,0.094,0.127,0.206,0.162,0.336c0.033,0.13,0.051,0.271,0.051,0.423v0.348h-0.264v-0.366c0-0.112-0.012-0.216-0.033-0.312
			c-0.022-0.096-0.06-0.18-0.111-0.252c-0.053-0.072-0.118-0.128-0.197-0.168c-0.08-0.04-0.179-0.06-0.295-0.06
			c-0.115,0-0.214,0.02-0.294,0.06s-0.146,0.096-0.198,0.168c-0.052,0.072-0.089,0.156-0.111,0.252
			c-0.021,0.096-0.032,0.2-0.032,0.312v2.184c0,0.112,0.011,0.216,0.032,0.312c0.022,0.096,0.06,0.179,0.111,0.249
			c0.053,0.07,0.118,0.125,0.198,0.165c0.08,0.04,0.179,0.06,0.294,0.06c0.116,0,0.215-0.02,0.295-0.06
			c0.079-0.04,0.145-0.095,0.197-0.165c0.052-0.07,0.089-0.153,0.111-0.249c0.021-0.096,0.033-0.2,0.033-0.312v-0.498h0.264v0.48
			c0,0.152-0.018,0.293-0.051,0.423c-0.035,0.13-0.088,0.242-0.162,0.336c-0.074,0.094-0.168,0.168-0.282,0.222
			c-0.114,0.054-0.251,0.081-0.411,0.081s-0.297-0.027-0.411-0.081c-0.114-0.054-0.208-0.128-0.282-0.222
			c-0.074-0.094-0.127-0.206-0.162-0.336c-0.033-0.13-0.051-0.271-0.051-0.423v-2.148c0-0.152,0.018-0.293,0.051-0.423
			c0.035-0.13,0.088-0.242,0.162-0.336c0.074-0.094,0.168-0.168,0.282-0.222C121.318,25.19,121.455,25.163,121.615,25.163z"/>
		<path fill="#F2F2F2" d="M124.394,27.143v0.252h-1.146v1.752h1.379v0.252h-1.655v-4.2h1.655v0.252h-1.379v1.692H124.394z"/>
		<path fill="#F2F2F2" d="M125.953,25.163c0.16,0,0.297,0.026,0.408,0.078c0.111,0.052,0.204,0.125,0.275,0.219
			c0.072,0.094,0.125,0.205,0.16,0.333c0.033,0.128,0.051,0.268,0.051,0.42v0.09h-0.264v-0.108c0-0.112-0.012-0.215-0.033-0.309
			c-0.022-0.094-0.059-0.176-0.108-0.246c-0.05-0.07-0.115-0.125-0.194-0.165c-0.08-0.04-0.177-0.06-0.289-0.06
			c-0.228,0-0.389,0.073-0.482,0.219s-0.141,0.331-0.141,0.555c0,0.172,0.037,0.318,0.11,0.438c0.074,0.12,0.168,0.229,0.282,0.327
			c0.113,0.098,0.236,0.192,0.365,0.282c0.131,0.09,0.252,0.188,0.367,0.294c0.113,0.106,0.207,0.227,0.281,0.363
			c0.074,0.136,0.111,0.3,0.111,0.492c0,0.152-0.018,0.292-0.051,0.42c-0.034,0.128-0.088,0.239-0.162,0.333
			c-0.074,0.094-0.168,0.167-0.282,0.219s-0.251,0.078-0.411,0.078s-0.297-0.026-0.41-0.078c-0.115-0.052-0.209-0.125-0.283-0.219
			c-0.074-0.094-0.127-0.205-0.162-0.333c-0.033-0.128-0.051-0.268-0.051-0.42v-0.216h0.264v0.234c0,0.224,0.049,0.409,0.145,0.555
			s0.26,0.219,0.492,0.219s0.396-0.073,0.492-0.219s0.145-0.331,0.145-0.555c0-0.168-0.037-0.312-0.111-0.432
			c-0.074-0.12-0.168-0.229-0.282-0.327s-0.236-0.191-0.366-0.279c-0.13-0.088-0.252-0.185-0.365-0.291
			c-0.115-0.106-0.209-0.228-0.283-0.366c-0.074-0.138-0.11-0.305-0.11-0.501c0-0.316,0.071-0.568,0.213-0.756
			C125.414,25.263,125.642,25.167,125.953,25.163z"/>
	</g>
	<g display="none">
		<path display="inline" fill="#F2F2F2" d="M288.616,25.163c0.159,0,0.296,0.026,0.407,0.078c0.112,0.052,0.205,0.125,0.276,0.219
			c0.072,0.094,0.125,0.205,0.159,0.333s0.051,0.268,0.051,0.42v0.09h-0.264v-0.108c0-0.112-0.012-0.215-0.033-0.309
			c-0.021-0.094-0.059-0.176-0.107-0.246c-0.051-0.07-0.115-0.125-0.195-0.165s-0.176-0.06-0.288-0.06
			c-0.228,0-0.39,0.073-0.483,0.219s-0.141,0.331-0.141,0.555c0,0.172,0.037,0.318,0.111,0.438s0.168,0.229,0.281,0.327
			c0.114,0.098,0.236,0.192,0.366,0.282s0.252,0.188,0.366,0.294c0.113,0.106,0.208,0.227,0.281,0.363
			c0.074,0.136,0.111,0.3,0.111,0.492c0,0.152-0.017,0.292-0.051,0.42c-0.033,0.128-0.088,0.239-0.162,0.333
			c-0.074,0.094-0.168,0.167-0.281,0.219c-0.114,0.052-0.252,0.078-0.412,0.078c-0.159,0-0.297-0.026-0.41-0.078
			c-0.114-0.052-0.208-0.125-0.282-0.219c-0.074-0.094-0.128-0.205-0.162-0.333c-0.034-0.128-0.051-0.268-0.051-0.42v-0.216h0.264
			v0.234c0,0.224,0.048,0.409,0.144,0.555c0.097,0.146,0.261,0.219,0.492,0.219c0.232,0,0.396-0.073,0.492-0.219
			s0.145-0.331,0.145-0.555c0-0.168-0.037-0.312-0.111-0.432c-0.074-0.12-0.168-0.229-0.281-0.327
			c-0.115-0.098-0.236-0.191-0.367-0.279c-0.129-0.088-0.252-0.185-0.365-0.291c-0.114-0.106-0.209-0.228-0.282-0.366
			c-0.074-0.138-0.11-0.305-0.11-0.501c0-0.316,0.07-0.568,0.213-0.756C288.077,25.263,288.305,25.167,288.616,25.163z"/>
		<path display="inline" fill="#F2F2F2" d="M290.668,29.399v-3.948h-0.852v-0.252h1.985v0.252h-0.858v3.948H290.668z"/>
		<path display="inline" fill="#F2F2F2" d="M292.408,28.385c0,0.112,0.011,0.217,0.033,0.315c0.021,0.098,0.057,0.183,0.107,0.255
			c0.05,0.072,0.115,0.128,0.195,0.168s0.178,0.06,0.293,0.06c0.117,0,0.215-0.02,0.295-0.06s0.145-0.096,0.195-0.168
			c0.049-0.072,0.086-0.157,0.107-0.255c0.021-0.098,0.033-0.203,0.033-0.315v-3.186h0.258v3.174c0,0.152-0.016,0.292-0.048,0.42
			s-0.084,0.24-0.156,0.336c-0.071,0.096-0.165,0.171-0.278,0.225c-0.115,0.054-0.252,0.081-0.412,0.081s-0.297-0.027-0.41-0.081
			c-0.114-0.054-0.207-0.129-0.279-0.225s-0.125-0.208-0.159-0.336s-0.051-0.268-0.051-0.42v-3.174h0.276V28.385z"/>
		<path display="inline" fill="#F2F2F2" d="M295.324,25.199c0.159,0,0.299,0.025,0.416,0.075c0.118,0.05,0.215,0.121,0.291,0.213
			c0.076,0.092,0.133,0.202,0.168,0.33c0.037,0.128,0.055,0.27,0.055,0.426v2.112c0,0.156-0.018,0.298-0.055,0.426
			c-0.035,0.128-0.092,0.238-0.168,0.33c-0.076,0.092-0.173,0.163-0.291,0.213c-0.117,0.05-0.257,0.075-0.416,0.075H294.4v-4.2
			H295.324z M295.318,29.147c0.235,0,0.404-0.072,0.506-0.216c0.103-0.144,0.153-0.332,0.153-0.564v-2.136
			c0-0.232-0.052-0.42-0.155-0.564c-0.104-0.144-0.272-0.216-0.504-0.216h-0.643v3.696H295.318z"/>
		<path display="inline" fill="#F2F2F2" d="M298.132,27.143v0.252h-1.146v1.752h1.379v0.252h-1.655v-4.2h1.655v0.252h-1.379v1.692
			H298.132z"/>
		<path display="inline" fill="#F2F2F2" d="M299.068,29.399h-0.252v-4.2h0.359l1.26,3.546v-3.546h0.252v4.2h-0.306l-1.313-3.744
			V29.399z"/>
		<path display="inline" fill="#F2F2F2" d="M301.87,29.399v-3.948h-0.853v-0.252h1.986v0.252h-0.857v3.948H301.87z"/>
		<path display="inline" fill="#F2F2F2" d="M304.678,28.469l-0.209,0.93h-0.252l0.918-4.206h0.401l0.937,4.206h-0.276l-0.21-0.93
			H304.678z M304.721,28.229h1.224l-0.618-2.718L304.721,28.229z"/>
		<path display="inline" fill="#F2F2F2" d="M307.816,25.199c0.159,0,0.299,0.025,0.416,0.075c0.118,0.05,0.215,0.121,0.291,0.213
			c0.076,0.092,0.133,0.202,0.168,0.33c0.037,0.128,0.055,0.27,0.055,0.426v2.112c0,0.156-0.018,0.298-0.055,0.426
			c-0.035,0.128-0.092,0.238-0.168,0.33c-0.076,0.092-0.173,0.163-0.291,0.213c-0.117,0.05-0.257,0.075-0.416,0.075h-0.924v-4.2
			H307.816z M307.811,29.147c0.235,0,0.404-0.072,0.506-0.216c0.103-0.144,0.153-0.332,0.153-0.564v-2.136
			c0-0.232-0.052-0.42-0.155-0.564c-0.104-0.144-0.272-0.216-0.504-0.216h-0.643v3.696H307.811z"/>
		<path display="inline" fill="#F2F2F2" d="M309.418,25.199l0.852,3.882l0.853-3.882h0.258l-0.911,4.2h-0.408l-0.924-4.2H309.418z"
			/>
		<path display="inline" fill="#F2F2F2" d="M312.076,25.199v4.2h-0.275v-4.2H312.076z"/>
		<path display="inline" fill="#F2F2F2" d="M313.432,25.163c0.16,0,0.297,0.026,0.408,0.078c0.111,0.052,0.204,0.125,0.275,0.219
			c0.072,0.094,0.125,0.205,0.16,0.333c0.033,0.128,0.051,0.268,0.051,0.42v0.09h-0.264v-0.108c0-0.112-0.012-0.215-0.033-0.309
			c-0.022-0.094-0.059-0.176-0.108-0.246c-0.05-0.07-0.115-0.125-0.194-0.165c-0.08-0.04-0.177-0.06-0.289-0.06
			c-0.228,0-0.389,0.073-0.482,0.219s-0.141,0.331-0.141,0.555c0,0.172,0.037,0.318,0.11,0.438c0.074,0.12,0.168,0.229,0.282,0.327
			c0.113,0.098,0.236,0.192,0.365,0.282c0.131,0.09,0.252,0.188,0.367,0.294c0.113,0.106,0.207,0.227,0.281,0.363
			c0.074,0.136,0.111,0.3,0.111,0.492c0,0.152-0.018,0.292-0.051,0.42c-0.034,0.128-0.088,0.239-0.162,0.333
			c-0.074,0.094-0.168,0.167-0.282,0.219s-0.251,0.078-0.411,0.078s-0.297-0.026-0.41-0.078c-0.115-0.052-0.209-0.125-0.283-0.219
			c-0.074-0.094-0.127-0.205-0.162-0.333c-0.033-0.128-0.051-0.268-0.051-0.42v-0.216h0.264v0.234c0,0.224,0.049,0.409,0.145,0.555
			s0.26,0.219,0.492,0.219s0.396-0.073,0.492-0.219s0.145-0.331,0.145-0.555c0-0.168-0.037-0.312-0.111-0.432
			c-0.074-0.12-0.168-0.229-0.282-0.327s-0.236-0.191-0.366-0.279c-0.13-0.088-0.252-0.185-0.365-0.291
			c-0.115-0.106-0.209-0.228-0.283-0.366c-0.074-0.138-0.11-0.305-0.11-0.501c0-0.316,0.071-0.568,0.213-0.756
			C312.893,25.263,313.12,25.167,313.432,25.163z"/>
		<path display="inline" fill="#F2F2F2" d="M314.758,26.225c0-0.152,0.019-0.293,0.055-0.423c0.035-0.13,0.09-0.242,0.164-0.336
			c0.074-0.094,0.17-0.168,0.285-0.222c0.116-0.054,0.254-0.081,0.414-0.081s0.299,0.027,0.418,0.081
			c0.117,0.054,0.215,0.128,0.291,0.222c0.075,0.094,0.131,0.206,0.168,0.336c0.035,0.13,0.053,0.271,0.053,0.423v2.148
			c0,0.152-0.018,0.293-0.053,0.423c-0.037,0.13-0.093,0.242-0.168,0.336c-0.076,0.094-0.174,0.168-0.291,0.222
			c-0.119,0.054-0.258,0.081-0.418,0.081s-0.298-0.027-0.414-0.081c-0.115-0.054-0.211-0.128-0.285-0.222
			c-0.074-0.094-0.129-0.206-0.164-0.336c-0.036-0.13-0.055-0.271-0.055-0.423V26.225z M315.034,28.391
			c0,0.228,0.049,0.417,0.147,0.567c0.098,0.15,0.263,0.225,0.494,0.225c0.232,0,0.399-0.075,0.502-0.225
			c0.102-0.15,0.152-0.339,0.152-0.567v-2.184c0-0.228-0.051-0.417-0.152-0.567c-0.103-0.15-0.27-0.225-0.502-0.225
			c-0.231,0-0.396,0.075-0.494,0.225c-0.099,0.15-0.147,0.339-0.147,0.567V28.391z"/>
		<path display="inline" fill="#F2F2F2" d="M317.938,25.199c0.319,0,0.55,0.084,0.69,0.252c0.139,0.168,0.209,0.4,0.209,0.696v0.366
			c0,0.488-0.201,0.778-0.605,0.87c0.216,0.048,0.371,0.146,0.465,0.294c0.094,0.148,0.141,0.336,0.141,0.564v0.654
			c0,0.088,0.006,0.177,0.019,0.267c0.012,0.09,0.04,0.169,0.084,0.237h-0.288c-0.036-0.064-0.061-0.135-0.072-0.213
			s-0.018-0.175-0.018-0.291v-0.66c0-0.14-0.018-0.256-0.055-0.348c-0.035-0.092-0.088-0.165-0.158-0.219s-0.153-0.092-0.25-0.114
			c-0.096-0.021-0.203-0.033-0.323-0.033h-0.438v1.878h-0.275v-4.2H317.938z M317.782,27.269c0.124,0,0.233-0.01,0.33-0.03
			s0.177-0.056,0.243-0.108c0.066-0.052,0.117-0.124,0.152-0.216c0.037-0.092,0.055-0.208,0.055-0.348v-0.396
			c0-0.228-0.049-0.405-0.145-0.531s-0.258-0.189-0.486-0.189h-0.594v1.818H317.782z"/>
		<path display="inline" fill="#F2F2F2" d="M320.182,27.785l-0.941-2.586h0.288l0.804,2.208l0.805-2.208h0.27l-0.948,2.586v1.614
			h-0.276V27.785z"/>
		<path display="inline" fill="#F2F2F2" d="M323.614,25.163c0.159,0,0.296,0.026,0.407,0.078c0.112,0.052,0.205,0.125,0.276,0.219
			c0.072,0.094,0.125,0.205,0.159,0.333s0.051,0.268,0.051,0.42v0.09h-0.264v-0.108c0-0.112-0.012-0.215-0.033-0.309
			c-0.021-0.094-0.059-0.176-0.107-0.246c-0.051-0.07-0.115-0.125-0.195-0.165s-0.176-0.06-0.288-0.06
			c-0.228,0-0.39,0.073-0.483,0.219s-0.141,0.331-0.141,0.555c0,0.172,0.037,0.318,0.111,0.438s0.168,0.229,0.281,0.327
			c0.114,0.098,0.236,0.192,0.366,0.282s0.252,0.188,0.366,0.294c0.113,0.106,0.208,0.227,0.281,0.363
			c0.074,0.136,0.111,0.3,0.111,0.492c0,0.152-0.017,0.292-0.051,0.42c-0.033,0.128-0.088,0.239-0.162,0.333
			c-0.074,0.094-0.168,0.167-0.281,0.219c-0.114,0.052-0.252,0.078-0.412,0.078c-0.159,0-0.297-0.026-0.41-0.078
			c-0.114-0.052-0.208-0.125-0.282-0.219c-0.074-0.094-0.128-0.205-0.162-0.333c-0.034-0.128-0.051-0.268-0.051-0.42v-0.216h0.264
			v0.234c0,0.224,0.048,0.409,0.144,0.555c0.097,0.146,0.261,0.219,0.492,0.219c0.232,0,0.396-0.073,0.492-0.219
			s0.145-0.331,0.145-0.555c0-0.168-0.037-0.312-0.111-0.432c-0.074-0.12-0.168-0.229-0.281-0.327
			c-0.115-0.098-0.236-0.191-0.367-0.279c-0.129-0.088-0.252-0.185-0.365-0.291c-0.114-0.106-0.209-0.228-0.282-0.366
			c-0.074-0.138-0.11-0.305-0.11-0.501c0-0.316,0.07-0.568,0.213-0.756C323.075,25.263,323.303,25.167,323.614,25.163z"/>
		<path display="inline" fill="#F2F2F2" d="M326.381,27.143v0.252h-1.146v1.752h1.38v0.252h-1.655v-4.2h1.655v0.252h-1.38v1.692
			H326.381z"/>
		<path display="inline" fill="#F2F2F2" d="M327.94,25.199c0.319,0,0.55,0.084,0.69,0.252c0.139,0.168,0.209,0.4,0.209,0.696v0.366
			c0,0.488-0.201,0.778-0.605,0.87c0.216,0.048,0.371,0.146,0.465,0.294c0.094,0.148,0.141,0.336,0.141,0.564v0.654
			c0,0.088,0.006,0.177,0.019,0.267c0.012,0.09,0.04,0.169,0.084,0.237h-0.288c-0.036-0.064-0.061-0.135-0.072-0.213
			s-0.018-0.175-0.018-0.291v-0.66c0-0.14-0.018-0.256-0.055-0.348c-0.035-0.092-0.088-0.165-0.158-0.219s-0.153-0.092-0.25-0.114
			c-0.096-0.021-0.203-0.033-0.323-0.033h-0.438v1.878h-0.275v-4.2H327.94z M327.784,27.269c0.124,0,0.233-0.01,0.33-0.03
			s0.177-0.056,0.243-0.108c0.066-0.052,0.117-0.124,0.152-0.216c0.037-0.092,0.055-0.208,0.055-0.348v-0.396
			c0-0.228-0.049-0.405-0.145-0.531s-0.258-0.189-0.486-0.189h-0.594v1.818H327.784z"/>
		<path display="inline" fill="#F2F2F2" d="M329.59,25.199l0.852,3.882l0.853-3.882h0.258l-0.911,4.2h-0.408l-0.924-4.2H329.59z"/>
		<path display="inline" fill="#F2F2F2" d="M332.248,25.199v4.2h-0.275v-4.2H332.248z"/>
		<path display="inline" fill="#F2F2F2" d="M333.615,25.163c0.16,0,0.297,0.027,0.412,0.081c0.113,0.054,0.207,0.128,0.281,0.222
			c0.074,0.094,0.128,0.206,0.162,0.336c0.034,0.13,0.051,0.271,0.051,0.423v0.348h-0.264v-0.366c0-0.112-0.012-0.216-0.033-0.312
			c-0.021-0.096-0.059-0.18-0.111-0.252c-0.052-0.072-0.117-0.128-0.197-0.168s-0.178-0.06-0.295-0.06
			c-0.115,0-0.213,0.02-0.293,0.06s-0.146,0.096-0.198,0.168c-0.052,0.072-0.089,0.156-0.111,0.252
			c-0.022,0.096-0.032,0.2-0.032,0.312v2.184c0,0.112,0.01,0.216,0.032,0.312c0.022,0.096,0.06,0.179,0.111,0.249
			c0.052,0.07,0.118,0.125,0.198,0.165c0.08,0.04,0.178,0.06,0.293,0.06c0.117,0,0.215-0.02,0.295-0.06
			c0.08-0.04,0.146-0.095,0.197-0.165c0.053-0.07,0.09-0.153,0.111-0.249c0.021-0.096,0.033-0.2,0.033-0.312v-0.498h0.264v0.48
			c0,0.152-0.017,0.293-0.051,0.423s-0.088,0.242-0.162,0.336c-0.074,0.094-0.168,0.168-0.281,0.222
			c-0.115,0.054-0.252,0.081-0.412,0.081s-0.297-0.027-0.41-0.081c-0.114-0.054-0.209-0.128-0.282-0.222
			c-0.074-0.094-0.128-0.206-0.162-0.336s-0.051-0.271-0.051-0.423v-2.148c0-0.152,0.017-0.293,0.051-0.423
			c0.034-0.13,0.088-0.242,0.162-0.336c0.073-0.094,0.168-0.168,0.282-0.222C333.318,25.19,333.455,25.163,333.615,25.163z"/>
		<path display="inline" fill="#F2F2F2" d="M336.395,27.143v0.252h-1.146v1.752h1.38v0.252h-1.655v-4.2h1.655v0.252h-1.38v1.692
			H336.395z"/>
		<path display="inline" fill="#F2F2F2" d="M337.954,25.163c0.159,0,0.296,0.026,0.407,0.078c0.112,0.052,0.205,0.125,0.276,0.219
			c0.072,0.094,0.125,0.205,0.159,0.333s0.051,0.268,0.051,0.42v0.09h-0.264v-0.108c0-0.112-0.012-0.215-0.033-0.309
			c-0.021-0.094-0.059-0.176-0.107-0.246c-0.051-0.07-0.115-0.125-0.195-0.165s-0.176-0.06-0.288-0.06
			c-0.228,0-0.39,0.073-0.483,0.219s-0.141,0.331-0.141,0.555c0,0.172,0.037,0.318,0.111,0.438s0.168,0.229,0.281,0.327
			c0.114,0.098,0.236,0.192,0.366,0.282s0.252,0.188,0.366,0.294c0.113,0.106,0.208,0.227,0.281,0.363
			c0.074,0.136,0.111,0.3,0.111,0.492c0,0.152-0.017,0.292-0.051,0.42c-0.033,0.128-0.088,0.239-0.162,0.333
			c-0.074,0.094-0.168,0.167-0.281,0.219c-0.114,0.052-0.252,0.078-0.412,0.078c-0.159,0-0.297-0.026-0.41-0.078
			c-0.114-0.052-0.208-0.125-0.282-0.219c-0.074-0.094-0.128-0.205-0.162-0.333c-0.034-0.128-0.051-0.268-0.051-0.42v-0.216h0.264
			v0.234c0,0.224,0.048,0.409,0.144,0.555c0.097,0.146,0.261,0.219,0.492,0.219c0.232,0,0.396-0.073,0.492-0.219
			s0.145-0.331,0.145-0.555c0-0.168-0.037-0.312-0.111-0.432c-0.074-0.12-0.168-0.229-0.281-0.327
			c-0.115-0.098-0.236-0.191-0.367-0.279c-0.129-0.088-0.252-0.185-0.365-0.291c-0.114-0.106-0.209-0.228-0.282-0.366
			c-0.074-0.138-0.11-0.305-0.11-0.501c0-0.316,0.07-0.568,0.213-0.756C337.415,25.263,337.643,25.167,337.954,25.163z"/>
	</g>
</g>
<g id="Layer_6">
	<g>
		<path fill="#FEFEFE" d="M249.004,29.395c-1.164-0.613-2.235-1.433-3.653-1.422c0.124-0.468,0.251-0.946,0.376-1.425
			c0.229-0.873,0.462-1.746,0.684-2.621c0.038-0.148,0.082-0.191,0.23-0.128c0.208,0.088,0.483,0.101,0.62,0.248
			c0.156,0.169-0.077,0.401-0.099,0.616c-0.067,0.634,0.151,1.163,0.548,1.634c0.366,0.435,0.815,0.771,1.309,1.045
			c0.12,0.067,0.164,0.135,0.146,0.274c-0.037,0.294-0.051,0.59-0.077,0.886C249.061,28.795,249.033,29.088,249.004,29.395z"/>
		<path fill="#FEFEFE" d="M254.62,25.231c-0.286-1.082-0.544-2.124-0.839-3.154c-0.163-0.569-0.142-1.094,0.201-1.581
			c0.526-0.745,1.567-0.926,2.304-0.412c0.763,0.533,0.958,1.581,0.417,2.335c-0.65,0.905-1.317,1.798-1.977,2.695
			C254.703,25.145,254.676,25.17,254.62,25.231z"/>
		<path fill="#FEFEFE" d="M248.923,30.369c-0.049,0.55-0.099,1.069-0.139,1.59c-0.009,0.12-0.047,0.12-0.142,0.08
			c-1.271-0.527-2.544-1.051-3.817-1.574c-0.085-0.035-0.114-0.071-0.086-0.173c0.127-0.457,0.248-0.916,0.358-1.378
			c0.035-0.146,0.128-0.127,0.227-0.126c0.764,0.002,1.471,0.235,2.156,0.544c0.448,0.202,0.868,0.455,1.279,0.724
			C248.892,30.144,248.967,30.236,248.923,30.369z"/>
		<path fill="#FEFEFE" d="M252.699,28.338c0.033,0.731,0.063,1.44,0.097,2.148c0.005,0.099,0.005,0.174-0.11,0.223
			c-1.053,0.446-2.103,0.897-3.155,1.346c-0.013,0.006-0.03,0.001-0.066,0.001c0.052-0.6,0.106-1.197,0.155-1.794
			c0.006-0.076,0.051-0.108,0.105-0.14c0.964-0.587,1.929-1.173,2.893-1.759C252.637,28.35,252.66,28.349,252.699,28.338z"/>
		<path fill="#FEFEFE" d="M251.871,27.967c0-0.503,0-0.954,0-1.405c-0.001-0.423-0.223-0.572-0.625-0.421
			c-0.379,0.143-0.759,0.282-1.135,0.433c-0.143,0.057-0.173,0.022-0.16-0.121c0.051-0.52,0.098-1.041,0.138-1.562
			c0.008-0.106,0.06-0.144,0.145-0.181c0.707-0.307,1.414-0.614,2.118-0.93c0.151-0.068,0.165-0.013,0.17,0.119
			c0.043,1.131,0.089,2.262,0.142,3.392c0.006,0.136-0.036,0.213-0.151,0.279C252.311,27.684,252.117,27.813,251.871,27.967z"/>
		<path fill="#FEFEFE" d="M253.196,23.691c0.203,0.066,0.393,0.131,0.585,0.188c0.12,0.036,0.11,0.144,0.133,0.227
			c0.182,0.668,0.357,1.337,0.544,2.043c0.369-0.504,0.715-0.981,1.066-1.455c0.059-0.08,0.102-0.23,0.243-0.151
			c0.173,0.097,0.461,0.013,0.501,0.324c0.039,0.309,0.094,0.616,0.141,0.924c0.014,0.095,0.029,0.171-0.115,0.198
			c-1.046,0.201-1.746,0.845-2.208,1.772c-0.081,0.162-0.121,0.141-0.26,0.068c-0.391-0.205-0.508-0.504-0.511-0.942
			C253.307,25.829,253.24,24.77,253.196,23.691z"/>
		<path fill="#FEFEFE" d="M257.355,31.884c-1.185-0.387-2.344-0.764-3.503-1.143c-0.375-0.123-0.38-0.124-0.384-0.522
			c-0.005-0.59-0.001-1.179-0.001-1.758c0.42,0.304,0.88,0.633,1.365,0.923c0.684,0.407,1.387,0.771,2.171,0.948
			c0.065,0.015,0.111,0.022,0.124,0.105C257.199,30.912,257.276,31.387,257.355,31.884z"/>
		<path fill="#FEFEFE" d="M256.426,26.723c0.166-0.032,0.135,0.083,0.145,0.145c0.107,0.661,0.209,1.322,0.312,1.984
			c0.022,0.138,0.039,0.278,0.062,0.416c0.044,0.27,0.04,0.274-0.238,0.196c-0.484-0.135-0.917-0.383-1.347-0.633
			c-0.195-0.113-0.382-0.24-0.574-0.359c-0.069-0.042-0.128-0.074-0.087-0.18c0.298-0.771,0.799-1.327,1.619-1.551
			C256.362,26.729,256.409,26.726,256.426,26.723z"/>
		<path fill="#FEFEFE" d="M249.254,26.593c-0.614-0.328-1.159-0.674-1.335-1.379c-0.065-0.258-0.026-0.508,0.062-0.755
			c0.039-0.108,0.089-0.149,0.206-0.104c0.363,0.137,0.728,0.269,1.095,0.397c0.086,0.03,0.128,0.067,0.119,0.165
			C249.35,25.465,249.304,26.015,249.254,26.593z"/>
		<path fill="#FEFEFE" d="M249.701,29.334c0.055-0.615,0.107-1.174,0.151-1.733c0.007-0.089,0.052-0.12,0.12-0.146
			c0.349-0.134,0.699-0.263,1.044-0.406c0.137-0.057,0.139,0.008,0.138,0.11c-0.002,0.374-0.002,0.749,0,1.123
			c0,0.082-0.009,0.146-0.09,0.197C250.623,28.752,250.184,29.03,249.701,29.334z"/>
		<linearGradient id="SVGID_5_" gradientUnits="userSpaceOnUse" x1="254.4656" y1="21.516" x2="256.1866" y2="21.516">
			<stop  offset="0" style="stop-color:#D4145A"/>
			<stop  offset="0.8418" style="stop-color:#ED1E79"/>
		</linearGradient>
		<path fill="url(#SVGID_5_)" d="M256.187,21.528c-0.004,0.478-0.389,0.856-0.866,0.85c-0.474-0.006-0.862-0.4-0.855-0.868
			c0.007-0.47,0.411-0.865,0.872-0.854C255.816,20.666,256.19,21.051,256.187,21.528z"/>
	</g>
	<g>
	</g>
	<g>
	</g>
	<g>
	</g>
	<g>
	</g>
	<g>
	</g>
	<g>
	</g>
	<g>
	</g>
	<g>
	</g>
	<g>
	</g>
	<g>
	</g>
	<g>
	</g>
	<g>
	</g>
	<g>
	</g>
	<g>
	</g>
	<g>
	</g>
</g>
</svg>
