<?xml version="1.0" encoding="utf-8"?>
<!-- Generator: Adobe Illustrator 17.0.0, SVG Export Plug-In . SVG Version: 6.00 Build 0)  -->
<!DOCTYPE svg PUBLIC "-//W3C//DTD SVG 1.1//EN" "http://www.w3.org/Graphics/SVG/1.1/DTD/svg11.dtd">
<svg version="1.1" xmlns="http://www.w3.org/2000/svg" xmlns:xlink="http://www.w3.org/1999/xlink" x="0px" y="0px" width="192px"
	 height="64px" viewBox="0 0 192 64" enable-background="new 0 0 192 64" xml:space="preserve">
<g id="Layer_1" display="none">
</g>
<g id="background">
	<linearGradient id="SVGID_1_" gradientUnits="userSpaceOnUse" x1="-212" y1="32" x2="-20" y2="32">
		<stop  offset="0" style="stop-color:#39B54A"/>
		<stop  offset="0.1842" style="stop-color:#3DB649"/>
		<stop  offset="0.3695" style="stop-color:#49B848"/>
		<stop  offset="0.5554" style="stop-color:#5DBC45"/>
		<stop  offset="0.7406" style="stop-color:#79C241"/>
		<stop  offset="0.8418" style="stop-color:#8CC63F"/>
	</linearGradient>
	<rect x="-212" fill="url(#SVGID_1_)" width="192" height="64"/>
	<linearGradient id="SVGID_2_" gradientUnits="userSpaceOnUse" x1="0" y1="32" x2="192" y2="32">
		<stop  offset="0" style="stop-color:#39B54A"/>
		<stop  offset="0.1842" style="stop-color:#3DB649"/>
		<stop  offset="0.3695" style="stop-color:#49B848"/>
		<stop  offset="0.5554" style="stop-color:#5DBC45"/>
		<stop  offset="0.7406" style="stop-color:#79C241"/>
		<stop  offset="0.8418" style="stop-color:#8CC63F"/>
	</linearGradient>
	<rect fill="url(#SVGID_2_)" width="192" height="64"/>
	<linearGradient id="SVGID_3_" gradientUnits="userSpaceOnUse" x1="212" y1="32" x2="404" y2="32">
		<stop  offset="0" style="stop-color:#39B54A"/>
		<stop  offset="0.1842" style="stop-color:#3DB649"/>
		<stop  offset="0.3695" style="stop-color:#49B848"/>
		<stop  offset="0.5554" style="stop-color:#5DBC45"/>
		<stop  offset="0.7406" style="stop-color:#79C241"/>
		<stop  offset="0.8418" style="stop-color:#8CC63F"/>
	</linearGradient>
	<rect x="212" fill="url(#SVGID_3_)" width="192" height="64"/>
</g>
<g id="compass">
	<g display="none">
		<path display="inline" fill="#FEFEFE" d="M52.316,15.758c1.497-0.001,2.72,1.224,2.718,2.723
			c-0.002,1.496-1.218,2.713-2.714,2.715c-1.499,0.002-2.723-1.219-2.724-2.717C49.594,16.983,50.817,15.759,52.316,15.758z"/>
		<path display="inline" fill="#BDCCD4" d="M54.6,18.475c0.005,1.255-1.027,2.289-2.284,2.288c-1.261-0.001-2.288-1.029-2.284-2.287
			c0.004-1.26,1.013-2.271,2.279-2.282C53.563,16.184,54.595,17.212,54.6,18.475z"/>
		<linearGradient id="SVGID_4_" gradientUnits="userSpaceOnUse" x1="50.9677" y1="18.4777" x2="53.6621" y2="18.4777">
			<stop  offset="0" style="stop-color:#D4145A"/>
			<stop  offset="0.8418" style="stop-color:#ED1E79"/>
		</linearGradient>
		<path display="inline" fill="url(#SVGID_4_)" d="M53.662,19.714c0.001,0.134-0.078,0.195-0.209,0.167
			c-0.136-0.029-0.259-0.092-0.376-0.165c-0.413-0.258-0.768-0.584-1.102-0.936c-0.328-0.347-0.632-0.713-0.863-1.134
			c-0.065-0.118-0.12-0.24-0.141-0.374c-0.023-0.147,0.06-0.228,0.206-0.198c0.153,0.032,0.289,0.107,0.418,0.192
			c0.524,0.344,0.964,0.78,1.367,1.255c0.235,0.277,0.45,0.567,0.608,0.897C53.618,19.515,53.653,19.616,53.662,19.714z"/>
		<path display="inline" fill="#F2F2F2" d="M52.693,18.478c0.002,0.202-0.172,0.377-0.378,0.378
			c-0.203,0.002-0.376-0.172-0.378-0.378c-0.002-0.204,0.169-0.375,0.378-0.378C52.518,18.098,52.691,18.271,52.693,18.478z"/>
	</g>
	<g>
		<path fill="#FEFEFE" d="M-196.208,22.404c-1.355,0-2.709-0.008-4.064,0.007c-0.283,0.003-0.364-0.073-0.361-0.359
			c0.015-1.287,0.015-2.574,0-3.861c-0.003-0.278,0.088-0.332,0.343-0.33c0.821,0.006,0.821-0.004,0.821,0.819
			c0,0.745,0.008,1.49-0.005,2.235c-0.004,0.227,0.024,0.33,0.299,0.328c1.978-0.013,3.956-0.012,5.933-0.002
			c0.251,0.001,0.321-0.068,0.316-0.318c-0.015-0.907,0.003-1.815-0.011-2.723c-0.004-0.261,0.062-0.344,0.336-0.342
			c0.841,0.006,0.841-0.007,0.841,0.847c0,1.07-0.017,2.141,0.009,3.21c0.009,0.376-0.064,0.507-0.476,0.498
			C-193.553,22.385-194.881,22.404-196.208,22.404z"/>
		<path fill="#FEFEFE" d="M-190.677,17.517c-1.4-1.015-2.734-1.982-4.068-2.949c-0.395-0.286-0.8-0.559-1.18-0.863
			c-0.206-0.165-0.346-0.156-0.557-0.001c-1.779,1.304-3.568,2.595-5.421,3.938c0-0.436,0.004-0.818-0.002-1.2
			c-0.002-0.156,0.121-0.204,0.213-0.271c1.753-1.273,3.51-2.541,5.259-3.819c0.178-0.13,0.295-0.11,0.46,0.011
			c1.696,1.236,3.396,2.467,5.099,3.694c0.131,0.095,0.208,0.184,0.201,0.358C-190.687,16.752-190.677,17.091-190.677,17.517z"/>
	</g>
</g>
<g id="oasis_text">
	<g>
		<path fill="#F2F2F2" d="M-187.567,16.834c0-0.587,0.125-1.028,0.375-1.325c0.25-0.296,0.618-0.445,1.105-0.445
			c0.5,0,0.875,0.148,1.125,0.445c0.25,0.297,0.375,0.738,0.375,1.325v3.56c0,0.587-0.125,1.029-0.375,1.325
			c-0.25,0.297-0.625,0.445-1.125,0.445c-0.487,0-0.855-0.148-1.105-0.445c-0.25-0.296-0.375-0.738-0.375-1.325V16.834z
			 M-187.348,20.404c0,1.04,0.42,1.56,1.26,1.56c0.853,0,1.28-0.52,1.28-1.56v-3.58c0-1.04-0.427-1.56-1.28-1.56
			c-0.84,0-1.26,0.52-1.26,1.56V20.404z"/>
		<path fill="#F2F2F2" d="M-183.588,22.114h-0.21v-7h0.31l2.46,6.55v-6.55h0.21v7h-0.27l-2.5-6.68V22.114z"/>
		<path fill="#F2F2F2" d="M-180.018,22.114v-7h0.22v6.79h2.35v0.21H-180.018z"/>
		<path fill="#F2F2F2" d="M-176.468,15.114v7h-0.22v-7H-176.468z"/>
		<path fill="#F2F2F2" d="M-175.458,22.114h-0.21v-7h0.31l2.46,6.55v-6.55h0.21v7h-0.27l-2.5-6.68V22.114z"/>
		<path fill="#F2F2F2" d="M-169.608,18.464v0.2h-2.06v3.24h2.45v0.21h-2.67v-7h2.67v0.21h-2.45v3.14H-169.608z"/>
		<path fill="#F2F2F2" d="M-166.308,20.464l-0.41,1.65h-0.2l1.69-7.01h0.31l1.73,7.01h-0.22l-0.41-1.65H-166.308z M-166.268,20.264
			h2.41l-1.22-4.9L-166.268,20.264z"/>
		<path fill="#F2F2F2" d="M-160.968,15.064c0.267,0,0.493,0.046,0.68,0.14c0.187,0.094,0.338,0.22,0.455,0.38
			c0.117,0.16,0.202,0.348,0.255,0.565c0.053,0.217,0.08,0.445,0.08,0.685v0.54h-0.22v-0.55c0-0.213-0.022-0.415-0.065-0.605
			c-0.043-0.19-0.114-0.355-0.21-0.495c-0.097-0.14-0.225-0.251-0.385-0.335c-0.16-0.083-0.354-0.125-0.58-0.125
			c-0.233,0-0.43,0.042-0.59,0.125c-0.16,0.083-0.289,0.195-0.385,0.335c-0.097,0.14-0.167,0.305-0.21,0.495
			s-0.065,0.392-0.065,0.605v3.58c0,0.213,0.021,0.414,0.065,0.6s0.113,0.35,0.21,0.49c0.097,0.14,0.225,0.252,0.385,0.335
			c0.16,0.083,0.356,0.125,0.59,0.125c0.227,0,0.42-0.042,0.58-0.125c0.16-0.083,0.289-0.195,0.385-0.335
			c0.096-0.14,0.167-0.303,0.21-0.49c0.043-0.187,0.065-0.387,0.065-0.6v-0.77h0.22v0.76c0,0.24-0.026,0.469-0.08,0.685
			c-0.054,0.217-0.139,0.405-0.255,0.565c-0.117,0.16-0.268,0.287-0.455,0.38c-0.187,0.093-0.413,0.14-0.68,0.14
			s-0.492-0.046-0.675-0.14c-0.183-0.093-0.333-0.22-0.45-0.38c-0.117-0.16-0.202-0.348-0.255-0.565
			c-0.054-0.216-0.08-0.445-0.08-0.685v-3.56c0-0.24,0.026-0.468,0.08-0.685c0.053-0.217,0.138-0.405,0.255-0.565
			c0.117-0.16,0.267-0.287,0.45-0.38C-161.46,15.11-161.235,15.064-160.968,15.064z"/>
		<path fill="#F2F2F2" d="M-157.268,15.064c0.267,0,0.493,0.046,0.68,0.14c0.187,0.094,0.338,0.22,0.455,0.38
			c0.117,0.16,0.202,0.348,0.255,0.565c0.053,0.217,0.08,0.445,0.08,0.685v0.54h-0.22v-0.55c0-0.213-0.022-0.415-0.065-0.605
			c-0.043-0.19-0.114-0.355-0.21-0.495c-0.097-0.14-0.225-0.251-0.385-0.335c-0.16-0.083-0.354-0.125-0.58-0.125
			c-0.233,0-0.43,0.042-0.59,0.125c-0.16,0.083-0.289,0.195-0.385,0.335c-0.097,0.14-0.167,0.305-0.21,0.495
			s-0.065,0.392-0.065,0.605v3.58c0,0.213,0.021,0.414,0.065,0.6s0.113,0.35,0.21,0.49c0.097,0.14,0.225,0.252,0.385,0.335
			c0.16,0.083,0.356,0.125,0.59,0.125c0.227,0,0.42-0.042,0.58-0.125c0.16-0.083,0.289-0.195,0.385-0.335
			c0.096-0.14,0.167-0.303,0.21-0.49c0.043-0.187,0.065-0.387,0.065-0.6v-0.77h0.22v0.76c0,0.24-0.026,0.469-0.08,0.685
			c-0.054,0.217-0.139,0.405-0.255,0.565c-0.117,0.16-0.268,0.287-0.455,0.38c-0.187,0.093-0.413,0.14-0.68,0.14
			s-0.492-0.046-0.675-0.14c-0.183-0.093-0.333-0.22-0.45-0.38c-0.117-0.16-0.202-0.348-0.255-0.565
			c-0.054-0.216-0.08-0.445-0.08-0.685v-3.56c0-0.24,0.026-0.468,0.08-0.685c0.053-0.217,0.138-0.405,0.255-0.565
			c0.117-0.16,0.267-0.287,0.45-0.38C-157.76,15.11-157.535,15.064-157.268,15.064z"/>
		<path fill="#F2F2F2" d="M-155.028,16.834c0-0.247,0.026-0.477,0.08-0.69c0.053-0.213,0.14-0.4,0.26-0.56
			c0.12-0.16,0.273-0.287,0.46-0.38c0.187-0.093,0.414-0.14,0.68-0.14s0.495,0.046,0.685,0.14c0.19,0.094,0.345,0.22,0.465,0.38
			c0.12,0.16,0.208,0.347,0.265,0.56c0.057,0.214,0.085,0.444,0.085,0.69v3.56c0,0.247-0.028,0.477-0.085,0.69
			s-0.145,0.4-0.265,0.56c-0.12,0.16-0.275,0.287-0.465,0.38s-0.418,0.14-0.685,0.14s-0.494-0.046-0.68-0.14s-0.34-0.22-0.46-0.38
			c-0.12-0.16-0.207-0.346-0.26-0.56c-0.054-0.213-0.08-0.443-0.08-0.69V16.834z M-154.809,20.404c0,0.213,0.021,0.415,0.065,0.605
			s0.115,0.355,0.215,0.495c0.1,0.14,0.23,0.251,0.39,0.335c0.16,0.083,0.357,0.125,0.59,0.125s0.432-0.042,0.595-0.125
			c0.164-0.083,0.295-0.195,0.395-0.335c0.1-0.14,0.173-0.305,0.22-0.495c0.046-0.19,0.07-0.392,0.07-0.605v-3.58
			c0-0.213-0.023-0.415-0.07-0.605c-0.047-0.19-0.12-0.355-0.22-0.495c-0.1-0.14-0.231-0.251-0.395-0.335
			c-0.163-0.083-0.361-0.125-0.595-0.125s-0.43,0.042-0.59,0.125c-0.16,0.083-0.29,0.195-0.39,0.335
			c-0.1,0.14-0.172,0.305-0.215,0.495s-0.065,0.392-0.065,0.605V20.404z"/>
		<path fill="#F2F2F2" d="M-149.078,22.094h-0.25l-1.73-6.65v6.67h-0.2v-7h0.34l1.72,6.64l1.72-6.64h0.34v7h-0.22v-6.67
			L-149.078,22.094z"/>
		<path fill="#F2F2F2" d="M-146.348,16.834c0-0.247,0.026-0.477,0.08-0.69c0.053-0.213,0.14-0.4,0.26-0.56
			c0.12-0.16,0.273-0.287,0.46-0.38c0.187-0.093,0.414-0.14,0.68-0.14s0.495,0.046,0.685,0.14c0.19,0.094,0.345,0.22,0.465,0.38
			c0.12,0.16,0.208,0.347,0.265,0.56c0.057,0.214,0.085,0.444,0.085,0.69v3.56c0,0.247-0.028,0.477-0.085,0.69
			s-0.145,0.4-0.265,0.56c-0.12,0.16-0.275,0.287-0.465,0.38s-0.418,0.14-0.685,0.14s-0.494-0.046-0.68-0.14s-0.34-0.22-0.46-0.38
			c-0.12-0.16-0.207-0.346-0.26-0.56c-0.054-0.213-0.08-0.443-0.08-0.69V16.834z M-146.128,20.404c0,0.213,0.021,0.415,0.065,0.605
			s0.115,0.355,0.215,0.495c0.1,0.14,0.23,0.251,0.39,0.335c0.16,0.083,0.357,0.125,0.59,0.125s0.432-0.042,0.595-0.125
			c0.164-0.083,0.295-0.195,0.395-0.335c0.1-0.14,0.173-0.305,0.22-0.495c0.046-0.19,0.07-0.392,0.07-0.605v-3.58
			c0-0.213-0.023-0.415-0.07-0.605c-0.047-0.19-0.12-0.355-0.22-0.495c-0.1-0.14-0.231-0.251-0.395-0.335
			c-0.163-0.083-0.361-0.125-0.595-0.125s-0.43,0.042-0.59,0.125c-0.16,0.083-0.29,0.195-0.39,0.335
			c-0.1,0.14-0.172,0.305-0.215,0.495s-0.065,0.392-0.065,0.605V20.404z"/>
		<path fill="#F2F2F2" d="M-141.119,15.114c0.267,0,0.497,0.045,0.69,0.135c0.193,0.09,0.352,0.212,0.475,0.365
			s0.213,0.338,0.27,0.555c0.057,0.216,0.085,0.448,0.085,0.695v3.51c0,0.247-0.028,0.477-0.085,0.69s-0.146,0.396-0.27,0.55
			s-0.28,0.275-0.47,0.365c-0.19,0.09-0.418,0.135-0.685,0.135h-1.47v-7H-141.119z M-141.119,21.904c0.233,0,0.434-0.038,0.6-0.115
			c0.167-0.076,0.302-0.183,0.405-0.32c0.103-0.137,0.178-0.296,0.225-0.48c0.047-0.183,0.07-0.385,0.07-0.605v-3.53
			c0-0.22-0.023-0.423-0.07-0.61c-0.046-0.187-0.123-0.348-0.23-0.485c-0.106-0.137-0.242-0.243-0.405-0.32
			c-0.164-0.077-0.362-0.115-0.595-0.115h-1.24v6.58H-141.119z"/>
		<path fill="#F2F2F2" d="M-138.249,20.464l-0.41,1.65h-0.2l1.69-7.01h0.31l1.73,7.01h-0.22l-0.41-1.65H-138.249z M-138.208,20.264
			h2.41l-1.22-4.9L-138.208,20.264z"/>
		<path fill="#F2F2F2" d="M-133.429,22.114v-6.79h-1.52v-0.21h3.271v0.21h-1.53v6.79H-133.429z"/>
		<path fill="#F2F2F2" d="M-130.848,15.114v7h-0.22v-7H-130.848z"/>
		<path fill="#F2F2F2" d="M-130.059,16.834c0-0.247,0.027-0.477,0.08-0.69c0.054-0.213,0.141-0.4,0.261-0.56
			c0.119-0.16,0.272-0.287,0.46-0.38c0.187-0.093,0.413-0.14,0.68-0.14s0.495,0.046,0.685,0.14c0.19,0.094,0.346,0.22,0.465,0.38
			c0.12,0.16,0.209,0.347,0.266,0.56c0.057,0.214,0.085,0.444,0.085,0.69v3.56c0,0.247-0.028,0.477-0.085,0.69
			s-0.146,0.4-0.266,0.56c-0.119,0.16-0.274,0.287-0.465,0.38c-0.189,0.093-0.418,0.14-0.685,0.14s-0.493-0.046-0.68-0.14
			c-0.188-0.093-0.341-0.22-0.46-0.38c-0.12-0.16-0.207-0.346-0.261-0.56c-0.053-0.213-0.08-0.443-0.08-0.69V16.834z
			 M-129.838,20.404c0,0.213,0.021,0.415,0.064,0.605c0.044,0.19,0.115,0.355,0.215,0.495c0.101,0.14,0.23,0.251,0.391,0.335
			s0.356,0.125,0.59,0.125s0.432-0.042,0.595-0.125s0.295-0.195,0.396-0.335c0.1-0.14,0.173-0.305,0.22-0.495s0.07-0.392,0.07-0.605
			v-3.58c0-0.213-0.023-0.415-0.07-0.605s-0.12-0.355-0.22-0.495c-0.101-0.14-0.232-0.251-0.396-0.335
			c-0.163-0.083-0.361-0.125-0.595-0.125s-0.43,0.042-0.59,0.125c-0.16,0.083-0.29,0.195-0.391,0.335
			c-0.1,0.14-0.171,0.305-0.215,0.495c-0.043,0.19-0.064,0.392-0.064,0.605V20.404z"/>
		<path fill="#F2F2F2" d="M-126.079,22.114h-0.21v-7h0.31l2.46,6.55v-6.55h0.21v7h-0.27l-2.5-6.68V22.114z"/>
		<path fill="#F2F2F2" d="M-119.509,15.064c0.267,0,0.492,0.045,0.676,0.135c0.183,0.09,0.331,0.215,0.444,0.375
			s0.197,0.345,0.25,0.555c0.054,0.21,0.08,0.435,0.08,0.675v0.13h-0.22v-0.14c0-0.207-0.021-0.403-0.065-0.59
			c-0.043-0.187-0.111-0.35-0.205-0.49c-0.093-0.14-0.218-0.25-0.375-0.33c-0.156-0.08-0.348-0.12-0.574-0.12
			c-0.233,0-0.429,0.04-0.585,0.12c-0.157,0.08-0.282,0.19-0.375,0.33c-0.094,0.14-0.162,0.302-0.205,0.485
			c-0.044,0.184-0.065,0.378-0.065,0.585c0,0.3,0.066,0.554,0.2,0.76c0.133,0.207,0.298,0.392,0.495,0.555
			c0.196,0.164,0.411,0.317,0.645,0.46c0.233,0.144,0.448,0.3,0.646,0.47c0.196,0.17,0.361,0.367,0.495,0.59
			c0.133,0.224,0.199,0.492,0.199,0.805c0,0.24-0.026,0.467-0.079,0.68c-0.054,0.213-0.139,0.398-0.256,0.555
			c-0.116,0.157-0.268,0.28-0.455,0.37c-0.187,0.09-0.413,0.135-0.68,0.135s-0.491-0.045-0.675-0.135s-0.333-0.213-0.45-0.37
			c-0.116-0.156-0.201-0.341-0.255-0.555s-0.08-0.44-0.08-0.68v-0.34h0.21v0.35c0,0.213,0.021,0.412,0.065,0.595
			c0.043,0.184,0.114,0.343,0.215,0.48c0.1,0.137,0.229,0.245,0.385,0.325c0.156,0.08,0.352,0.12,0.585,0.12
			c0.227,0,0.42-0.04,0.58-0.12c0.16-0.08,0.29-0.188,0.39-0.325c0.101-0.137,0.172-0.296,0.216-0.48
			c0.043-0.183,0.064-0.382,0.064-0.595c0-0.293-0.066-0.543-0.2-0.75c-0.133-0.207-0.298-0.392-0.495-0.555
			c-0.196-0.164-0.411-0.315-0.645-0.455s-0.448-0.296-0.645-0.47c-0.197-0.173-0.362-0.372-0.495-0.595
			c-0.134-0.224-0.2-0.495-0.2-0.815c0-0.514,0.113-0.928,0.34-1.245C-120.382,15.232-120.015,15.07-119.509,15.064z"/>
		<path fill="#F2F2F2" d="M-115.959,22.114v-6.79h-1.52v-0.21h3.27v0.21h-1.531v6.79H-115.959z"/>
		<path fill="#F2F2F2" d="M-113.389,20.394c0,0.214,0.02,0.414,0.06,0.6c0.04,0.187,0.108,0.354,0.205,0.5
			c0.097,0.147,0.224,0.262,0.38,0.345s0.352,0.125,0.585,0.125s0.429-0.042,0.585-0.125c0.157-0.083,0.283-0.198,0.38-0.345
			c0.097-0.146,0.165-0.313,0.205-0.5c0.04-0.187,0.061-0.386,0.061-0.6v-5.28h0.21v5.27c0,0.24-0.025,0.468-0.075,0.685
			s-0.132,0.405-0.245,0.565s-0.262,0.289-0.445,0.385c-0.183,0.097-0.408,0.145-0.675,0.145s-0.491-0.048-0.675-0.145
			c-0.184-0.096-0.333-0.225-0.45-0.385c-0.116-0.16-0.2-0.348-0.25-0.565s-0.075-0.445-0.075-0.685v-5.27h0.221V20.394z"/>
		<path fill="#F2F2F2" d="M-108.469,15.114c0.267,0,0.496,0.045,0.689,0.135c0.193,0.09,0.352,0.212,0.476,0.365
			c0.123,0.153,0.213,0.338,0.27,0.555c0.057,0.216,0.085,0.448,0.085,0.695v3.51c0,0.247-0.028,0.477-0.085,0.69
			s-0.146,0.396-0.27,0.55c-0.124,0.153-0.28,0.275-0.471,0.365c-0.189,0.09-0.418,0.135-0.685,0.135h-1.47v-7H-108.469z
			 M-108.469,21.904c0.233,0,0.433-0.038,0.6-0.115c0.167-0.076,0.302-0.183,0.405-0.32s0.178-0.296,0.225-0.48
			c0.047-0.183,0.07-0.385,0.07-0.605v-3.53c0-0.22-0.023-0.423-0.07-0.61c-0.047-0.187-0.123-0.348-0.229-0.485
			c-0.107-0.137-0.242-0.243-0.405-0.32s-0.361-0.115-0.595-0.115h-1.24v6.58H-108.469z"/>
		<path fill="#F2F2F2" d="M-103.89,18.464v0.2h-2.06v3.24h2.45v0.21h-2.67v-7h2.67v0.21h-2.45v3.14H-103.89z"/>
		<path fill="#F2F2F2" d="M-102.509,22.114h-0.21v-7h0.31l2.46,6.55v-6.55h0.21v7h-0.27l-2.5-6.68V22.114z"/>
		<path fill="#F2F2F2" d="M-97.629,22.114v-6.79h-1.52v-0.21h3.27v0.21h-1.53v6.79H-97.629z"/>
		<path fill="#F2F2F2" d="M-93.499,15.114v7h-0.22v-7H-93.499z"/>
		<path fill="#F2F2F2" d="M-92.489,22.114h-0.21v-7h0.31l2.46,6.55v-6.55h0.21v7h-0.27l-2.5-6.68V22.114z"/>
		<path fill="#F2F2F2" d="M-86.739,18.634v0.21h-1.96v3.27h-0.22v-7h2.569v0.21h-2.35v3.31H-86.739z"/>
		<path fill="#F2F2F2" d="M-85.6,16.834c0-0.247,0.027-0.477,0.08-0.69c0.054-0.213,0.141-0.4,0.261-0.56
			c0.119-0.16,0.272-0.287,0.46-0.38c0.187-0.093,0.413-0.14,0.68-0.14s0.495,0.046,0.685,0.14c0.19,0.094,0.346,0.22,0.465,0.38
			c0.12,0.16,0.209,0.347,0.266,0.56c0.057,0.214,0.085,0.444,0.085,0.69v3.56c0,0.247-0.028,0.477-0.085,0.69
			s-0.146,0.4-0.266,0.56c-0.119,0.16-0.274,0.287-0.465,0.38c-0.189,0.093-0.418,0.14-0.685,0.14s-0.493-0.046-0.68-0.14
			c-0.188-0.093-0.341-0.22-0.46-0.38c-0.12-0.16-0.207-0.346-0.261-0.56c-0.053-0.213-0.08-0.443-0.08-0.69V16.834z
			 M-85.379,20.404c0,0.213,0.021,0.415,0.064,0.605c0.044,0.19,0.115,0.355,0.215,0.495c0.101,0.14,0.23,0.251,0.391,0.335
			s0.356,0.125,0.59,0.125s0.432-0.042,0.595-0.125s0.295-0.195,0.396-0.335c0.1-0.14,0.173-0.305,0.22-0.495s0.07-0.392,0.07-0.605
			v-3.58c0-0.213-0.023-0.415-0.07-0.605s-0.12-0.355-0.22-0.495c-0.101-0.14-0.232-0.251-0.396-0.335
			c-0.163-0.083-0.361-0.125-0.595-0.125s-0.43,0.042-0.59,0.125c-0.16,0.083-0.29,0.195-0.391,0.335
			c-0.1,0.14-0.171,0.305-0.215,0.495c-0.043,0.19-0.064,0.392-0.064,0.605V20.404z"/>
		<path fill="#F2F2F2" d="M-80.439,15.114c0.52,0,0.89,0.142,1.11,0.425c0.22,0.284,0.33,0.665,0.33,1.145v0.63
			c0,0.433-0.089,0.768-0.266,1.005s-0.458,0.392-0.845,0.465c0.394,0.06,0.677,0.212,0.85,0.455
			c0.174,0.244,0.261,0.559,0.261,0.945v1.1c0,0.133,0.011,0.277,0.034,0.43s0.075,0.287,0.155,0.4h-0.24
			c-0.073-0.113-0.12-0.242-0.14-0.385c-0.021-0.144-0.03-0.292-0.03-0.445v-1.1c0-0.26-0.036-0.473-0.109-0.64
			c-0.074-0.167-0.179-0.298-0.315-0.395s-0.299-0.165-0.485-0.205s-0.393-0.06-0.619-0.06h-0.86v3.23h-0.22v-7H-80.439z
			 M-80.749,18.674c0.239,0,0.454-0.019,0.645-0.055s0.35-0.105,0.48-0.205c0.13-0.1,0.229-0.235,0.3-0.405
			c0.069-0.17,0.104-0.392,0.104-0.665v-0.64c0-0.426-0.092-0.763-0.274-1.01c-0.184-0.247-0.502-0.37-0.955-0.37h-1.16v3.35
			H-80.749z"/>
		<path fill="#F2F2F2" d="M-75.85,22.094h-0.25l-1.73-6.65v6.67h-0.199v-7h0.34l1.72,6.64l1.72-6.64h0.34v7h-0.22v-6.67
			L-75.85,22.094z"/>
		<path fill="#F2F2F2" d="M-72.529,20.464l-0.41,1.65h-0.2l1.689-7.01h0.311l1.729,7.01h-0.22l-0.41-1.65H-72.529z M-72.49,20.264
			h2.41l-1.22-4.9L-72.49,20.264z"/>
		<path fill="#F2F2F2" d="M-67.71,22.114v-6.79h-1.52v-0.21h3.27v0.21h-1.53v6.79H-67.71z"/>
		<path fill="#F2F2F2" d="M-65.13,15.114v7h-0.22v-7H-65.13z"/>
		<path fill="#F2F2F2" d="M-64.341,16.834c0-0.247,0.027-0.477,0.08-0.69c0.054-0.213,0.141-0.4,0.261-0.56
			c0.119-0.16,0.272-0.287,0.46-0.38c0.187-0.093,0.413-0.14,0.68-0.14s0.495,0.046,0.685,0.14c0.19,0.094,0.346,0.22,0.465,0.38
			c0.12,0.16,0.209,0.347,0.266,0.56c0.057,0.214,0.085,0.444,0.085,0.69v3.56c0,0.247-0.028,0.477-0.085,0.69
			s-0.146,0.4-0.266,0.56c-0.119,0.16-0.274,0.287-0.465,0.38c-0.189,0.093-0.418,0.14-0.685,0.14s-0.493-0.046-0.68-0.14
			c-0.188-0.093-0.341-0.22-0.46-0.38c-0.12-0.16-0.207-0.346-0.261-0.56c-0.053-0.213-0.08-0.443-0.08-0.69V16.834z M-64.12,20.404
			c0,0.213,0.021,0.415,0.064,0.605c0.044,0.19,0.115,0.355,0.215,0.495c0.101,0.14,0.23,0.251,0.391,0.335s0.356,0.125,0.59,0.125
			s0.432-0.042,0.595-0.125s0.295-0.195,0.396-0.335c0.1-0.14,0.173-0.305,0.22-0.495s0.07-0.392,0.07-0.605v-3.58
			c0-0.213-0.023-0.415-0.07-0.605s-0.12-0.355-0.22-0.495c-0.101-0.14-0.232-0.251-0.396-0.335
			c-0.163-0.083-0.361-0.125-0.595-0.125s-0.43,0.042-0.59,0.125c-0.16,0.083-0.29,0.195-0.391,0.335
			c-0.1,0.14-0.171,0.305-0.215,0.495c-0.043,0.19-0.064,0.392-0.064,0.605V20.404z"/>
		<path fill="#F2F2F2" d="M-60.359,22.114h-0.21v-7h0.31l2.46,6.55v-6.55h0.21v7h-0.27l-2.5-6.68V22.114z"/>
		<path fill="#F2F2F2" d="M-53.791,15.064c0.267,0,0.492,0.045,0.676,0.135c0.183,0.09,0.331,0.215,0.444,0.375
			s0.197,0.345,0.25,0.555c0.054,0.21,0.08,0.435,0.08,0.675v0.13h-0.22v-0.14c0-0.207-0.021-0.403-0.065-0.59
			c-0.043-0.187-0.111-0.35-0.205-0.49c-0.093-0.14-0.218-0.25-0.375-0.33c-0.156-0.08-0.348-0.12-0.574-0.12
			c-0.233,0-0.429,0.04-0.585,0.12c-0.157,0.08-0.282,0.19-0.375,0.33c-0.094,0.14-0.162,0.302-0.205,0.485
			c-0.044,0.184-0.065,0.378-0.065,0.585c0,0.3,0.066,0.554,0.2,0.76c0.133,0.207,0.298,0.392,0.495,0.555
			c0.196,0.164,0.411,0.317,0.645,0.46c0.233,0.144,0.448,0.3,0.646,0.47c0.196,0.17,0.361,0.367,0.495,0.59
			c0.133,0.224,0.199,0.492,0.199,0.805c0,0.24-0.026,0.467-0.079,0.68c-0.054,0.213-0.139,0.398-0.256,0.555
			c-0.116,0.157-0.268,0.28-0.455,0.37c-0.187,0.09-0.413,0.135-0.68,0.135s-0.491-0.045-0.675-0.135s-0.333-0.213-0.45-0.37
			c-0.116-0.156-0.201-0.341-0.255-0.555s-0.08-0.44-0.08-0.68v-0.34h0.21v0.35c0,0.213,0.021,0.412,0.065,0.595
			c0.043,0.184,0.114,0.343,0.215,0.48c0.1,0.137,0.229,0.245,0.385,0.325c0.156,0.08,0.352,0.12,0.585,0.12
			c0.227,0,0.42-0.04,0.58-0.12c0.16-0.08,0.29-0.188,0.39-0.325c0.101-0.137,0.172-0.296,0.216-0.48
			c0.043-0.183,0.064-0.382,0.064-0.595c0-0.293-0.066-0.543-0.2-0.75c-0.133-0.207-0.298-0.392-0.495-0.555
			c-0.196-0.164-0.411-0.315-0.645-0.455s-0.448-0.296-0.645-0.47c-0.197-0.173-0.362-0.372-0.495-0.595
			c-0.134-0.224-0.2-0.495-0.2-0.815c0-0.514,0.113-0.928,0.34-1.245C-54.664,15.232-54.297,15.07-53.791,15.064z"/>
		<path fill="#F2F2F2" d="M-50.03,19.284l-1.63-4.17h0.22l1.53,3.87l1.529-3.87h0.23l-1.66,4.17v2.83h-0.22V19.284z"/>
		<path fill="#F2F2F2" d="M-46.021,15.064c0.267,0,0.492,0.045,0.676,0.135c0.183,0.09,0.331,0.215,0.444,0.375
			s0.197,0.345,0.25,0.555c0.054,0.21,0.08,0.435,0.08,0.675v0.13h-0.22v-0.14c0-0.207-0.021-0.403-0.065-0.59
			c-0.043-0.187-0.111-0.35-0.205-0.49c-0.093-0.14-0.218-0.25-0.375-0.33c-0.156-0.08-0.348-0.12-0.574-0.12
			c-0.233,0-0.429,0.04-0.585,0.12c-0.157,0.08-0.282,0.19-0.375,0.33c-0.094,0.14-0.162,0.302-0.205,0.485
			c-0.044,0.184-0.065,0.378-0.065,0.585c0,0.3,0.066,0.554,0.2,0.76c0.133,0.207,0.298,0.392,0.495,0.555
			c0.196,0.164,0.411,0.317,0.645,0.46c0.233,0.144,0.448,0.3,0.646,0.47c0.196,0.17,0.361,0.367,0.495,0.59
			c0.133,0.224,0.199,0.492,0.199,0.805c0,0.24-0.026,0.467-0.079,0.68c-0.054,0.213-0.139,0.398-0.256,0.555
			c-0.116,0.157-0.268,0.28-0.455,0.37c-0.187,0.09-0.413,0.135-0.68,0.135s-0.491-0.045-0.675-0.135s-0.333-0.213-0.45-0.37
			c-0.116-0.156-0.201-0.341-0.255-0.555s-0.08-0.44-0.08-0.68v-0.34h0.21v0.35c0,0.213,0.021,0.412,0.065,0.595
			c0.043,0.184,0.114,0.343,0.215,0.48c0.1,0.137,0.229,0.245,0.385,0.325c0.156,0.08,0.352,0.12,0.585,0.12
			c0.227,0,0.42-0.04,0.58-0.12c0.16-0.08,0.29-0.188,0.39-0.325c0.101-0.137,0.172-0.296,0.216-0.48
			c0.043-0.183,0.064-0.382,0.064-0.595c0-0.293-0.066-0.543-0.2-0.75c-0.133-0.207-0.298-0.392-0.495-0.555
			c-0.196-0.164-0.411-0.315-0.645-0.455s-0.448-0.296-0.645-0.47c-0.197-0.173-0.362-0.372-0.495-0.595
			c-0.134-0.224-0.2-0.495-0.2-0.815c0-0.514,0.113-0.928,0.34-1.245C-46.894,15.232-46.526,15.07-46.021,15.064z"/>
		<path fill="#F2F2F2" d="M-42.471,22.114v-6.79h-1.52v-0.21h3.27v0.21h-1.53v6.79H-42.471z"/>
		<path fill="#F2F2F2" d="M-37.831,18.464v0.2h-2.06v3.24h2.45v0.21h-2.67v-7h2.67v0.21h-2.45v3.14H-37.831z"/>
		<path fill="#F2F2F2" d="M-34.48,22.094h-0.25l-1.73-6.65v6.67h-0.199v-7h0.34l1.72,6.64l1.72-6.64h0.34v7h-0.22v-6.67
			L-34.48,22.094z"/>
	</g>
	<g>
		<path fill="#F2F2F2" d="M60.623,27.418l-0.492,1.98h-0.24l2.028-8.412h0.372l2.076,8.412h-0.265l-0.491-1.98H60.623z
			 M60.671,27.178h2.893l-1.465-5.88L60.671,27.178z"/>
		<path fill="#F2F2F2" d="M67.02,20.938c0.319,0,0.592,0.056,0.815,0.168c0.224,0.112,0.406,0.264,0.546,0.456
			s0.242,0.418,0.307,0.678c0.063,0.26,0.096,0.534,0.096,0.822v0.648H68.52v-0.66c0-0.256-0.026-0.498-0.078-0.726
			c-0.053-0.228-0.137-0.426-0.252-0.594c-0.116-0.168-0.271-0.302-0.462-0.402c-0.192-0.1-0.425-0.15-0.696-0.15
			c-0.28,0-0.517,0.05-0.708,0.15c-0.192,0.1-0.347,0.234-0.462,0.402c-0.116,0.168-0.2,0.366-0.252,0.594
			c-0.053,0.228-0.078,0.47-0.078,0.726v4.296c0,0.256,0.025,0.496,0.078,0.72c0.052,0.224,0.136,0.42,0.252,0.588
			c0.115,0.168,0.27,0.302,0.462,0.402c0.191,0.1,0.428,0.15,0.708,0.15c0.271,0,0.504-0.05,0.696-0.15
			c0.191-0.1,0.346-0.234,0.462-0.402c0.115-0.168,0.199-0.364,0.252-0.588c0.052-0.224,0.078-0.464,0.078-0.72v-0.924h0.264v0.912
			c0,0.288-0.032,0.562-0.096,0.822c-0.064,0.26-0.167,0.486-0.307,0.678s-0.322,0.344-0.546,0.456s-0.496,0.168-0.815,0.168
			c-0.32,0-0.591-0.056-0.811-0.168s-0.4-0.264-0.54-0.456s-0.242-0.418-0.306-0.678c-0.064-0.26-0.097-0.534-0.097-0.822v-4.272
			c0-0.288,0.032-0.562,0.097-0.822c0.063-0.26,0.166-0.486,0.306-0.678s0.32-0.344,0.54-0.456
			C66.429,20.995,66.699,20.938,67.02,20.938z"/>
		<path fill="#F2F2F2" d="M71.459,20.938c0.32,0,0.592,0.056,0.816,0.168c0.224,0.112,0.405,0.264,0.546,0.456
			c0.14,0.192,0.241,0.418,0.306,0.678c0.064,0.26,0.096,0.534,0.096,0.822v0.648h-0.264v-0.66c0-0.256-0.026-0.498-0.078-0.726
			c-0.052-0.228-0.136-0.426-0.252-0.594s-0.27-0.302-0.462-0.402s-0.424-0.15-0.696-0.15c-0.28,0-0.516,0.05-0.708,0.15
			c-0.191,0.1-0.346,0.234-0.462,0.402s-0.2,0.366-0.252,0.594c-0.052,0.228-0.078,0.47-0.078,0.726v4.296
			c0,0.256,0.026,0.496,0.078,0.72c0.052,0.224,0.136,0.42,0.252,0.588s0.271,0.302,0.462,0.402c0.192,0.1,0.428,0.15,0.708,0.15
			c0.272,0,0.504-0.05,0.696-0.15s0.346-0.234,0.462-0.402s0.2-0.364,0.252-0.588c0.052-0.224,0.078-0.464,0.078-0.72v-0.924h0.264
			v0.912c0,0.288-0.031,0.562-0.096,0.822c-0.064,0.26-0.166,0.486-0.306,0.678c-0.141,0.192-0.322,0.344-0.546,0.456
			c-0.225,0.112-0.496,0.168-0.816,0.168s-0.59-0.056-0.81-0.168c-0.221-0.112-0.4-0.264-0.54-0.456
			c-0.141-0.192-0.242-0.418-0.307-0.678c-0.063-0.26-0.096-0.534-0.096-0.822v-4.272c0-0.288,0.032-0.562,0.096-0.822
			c0.064-0.26,0.166-0.486,0.307-0.678c0.14-0.192,0.319-0.344,0.54-0.456C70.869,20.995,71.139,20.938,71.459,20.938z"/>
		<path fill="#F2F2F2" d="M74.146,23.063c0-0.296,0.032-0.572,0.097-0.828c0.063-0.256,0.168-0.48,0.312-0.672
			c0.145-0.192,0.328-0.344,0.553-0.456c0.224-0.112,0.495-0.168,0.815-0.168s0.594,0.056,0.822,0.168
			c0.228,0.112,0.414,0.264,0.558,0.456c0.145,0.192,0.25,0.416,0.318,0.672c0.067,0.256,0.102,0.532,0.102,0.828v4.272
			c0,0.296-0.034,0.572-0.102,0.828c-0.068,0.256-0.174,0.48-0.318,0.672c-0.144,0.192-0.33,0.344-0.558,0.456
			c-0.229,0.112-0.502,0.168-0.822,0.168s-0.592-0.056-0.815-0.168c-0.225-0.112-0.408-0.264-0.553-0.456
			c-0.144-0.192-0.248-0.416-0.312-0.672c-0.064-0.256-0.097-0.532-0.097-0.828V23.063z M74.411,27.347
			c0,0.256,0.025,0.498,0.078,0.726c0.052,0.228,0.138,0.426,0.258,0.594s0.276,0.302,0.468,0.402c0.192,0.1,0.428,0.15,0.708,0.15
			s0.518-0.05,0.714-0.15s0.354-0.234,0.475-0.402c0.119-0.168,0.208-0.366,0.264-0.594s0.084-0.47,0.084-0.726V23.05
			c0-0.256-0.028-0.498-0.084-0.726c-0.056-0.228-0.145-0.426-0.264-0.594c-0.12-0.168-0.278-0.302-0.475-0.402
			s-0.434-0.15-0.714-0.15s-0.516,0.05-0.708,0.15c-0.191,0.1-0.348,0.234-0.468,0.402s-0.206,0.366-0.258,0.594
			c-0.053,0.228-0.078,0.47-0.078,0.726V27.347z"/>
		<path fill="#F2F2F2" d="M81.287,29.375h-0.301l-2.075-7.98v8.004h-0.24v-8.4h0.408l2.063,7.968l2.064-7.968h0.407v8.4h-0.264
			v-8.004L81.287,29.375z"/>
		<path fill="#F2F2F2" d="M84.563,23.063c0-0.296,0.032-0.572,0.096-0.828c0.064-0.256,0.168-0.48,0.313-0.672
			c0.144-0.192,0.328-0.344,0.552-0.456c0.224-0.112,0.496-0.168,0.816-0.168c0.319,0,0.594,0.056,0.821,0.168
			c0.229,0.112,0.414,0.264,0.559,0.456c0.144,0.192,0.25,0.416,0.317,0.672c0.068,0.256,0.103,0.532,0.103,0.828v4.272
			c0,0.296-0.034,0.572-0.103,0.828c-0.067,0.256-0.174,0.48-0.317,0.672c-0.145,0.192-0.33,0.344-0.559,0.456
			c-0.228,0.112-0.502,0.168-0.821,0.168c-0.32,0-0.593-0.056-0.816-0.168s-0.408-0.264-0.552-0.456
			c-0.145-0.192-0.248-0.416-0.313-0.672c-0.063-0.256-0.096-0.532-0.096-0.828V23.063z M84.826,27.347
			c0,0.256,0.026,0.498,0.078,0.726s0.139,0.426,0.258,0.594c0.12,0.168,0.276,0.302,0.469,0.402c0.191,0.1,0.428,0.15,0.708,0.15
			c0.279,0,0.518-0.05,0.714-0.15c0.195-0.1,0.354-0.234,0.474-0.402s0.208-0.366,0.264-0.594c0.057-0.228,0.084-0.47,0.084-0.726
			V23.05c0-0.256-0.027-0.498-0.084-0.726c-0.056-0.228-0.144-0.426-0.264-0.594s-0.278-0.302-0.474-0.402
			c-0.196-0.1-0.435-0.15-0.714-0.15c-0.28,0-0.517,0.05-0.708,0.15c-0.192,0.1-0.349,0.234-0.469,0.402
			c-0.119,0.168-0.206,0.366-0.258,0.594c-0.052,0.228-0.078,0.47-0.078,0.726V27.347z"/>
		<path fill="#F2F2F2" d="M90.839,20.999c0.319,0,0.596,0.054,0.828,0.162c0.231,0.108,0.422,0.254,0.569,0.438
			c0.148,0.184,0.256,0.406,0.324,0.666c0.068,0.26,0.103,0.538,0.103,0.834v4.212c0,0.296-0.034,0.572-0.103,0.828
			c-0.068,0.256-0.176,0.476-0.324,0.66c-0.147,0.184-0.336,0.33-0.563,0.438c-0.229,0.108-0.502,0.162-0.822,0.162h-1.764v-8.4
			H90.839z M90.839,29.146c0.279,0,0.52-0.046,0.72-0.138c0.2-0.092,0.362-0.22,0.486-0.384s0.214-0.356,0.27-0.576
			c0.056-0.22,0.084-0.462,0.084-0.726v-4.236c0-0.264-0.028-0.508-0.084-0.732s-0.147-0.418-0.275-0.582
			c-0.129-0.164-0.29-0.292-0.486-0.384c-0.196-0.092-0.435-0.138-0.714-0.138h-1.488v7.896H90.839z"/>
		<path fill="#F2F2F2" d="M94.282,27.418l-0.491,1.98h-0.24l2.028-8.412h0.372l2.075,8.412h-0.264l-0.492-1.98H94.282z
			 M94.331,27.178h2.892l-1.464-5.88L94.331,27.178z"/>
		<path fill="#F2F2F2" d="M100.066,29.398V21.25h-1.824v-0.252h3.924v0.252h-1.836v8.148H100.066z"/>
		<path fill="#F2F2F2" d="M103.162,20.999v8.4h-0.264v-8.4H103.162z"/>
		<path fill="#F2F2F2" d="M104.11,23.063c0-0.296,0.032-0.572,0.096-0.828c0.064-0.256,0.168-0.48,0.313-0.672
			c0.144-0.192,0.328-0.344,0.552-0.456c0.224-0.112,0.496-0.168,0.816-0.168c0.319,0,0.594,0.056,0.821,0.168
			c0.229,0.112,0.414,0.264,0.559,0.456c0.144,0.192,0.25,0.416,0.317,0.672c0.068,0.256,0.103,0.532,0.103,0.828v4.272
			c0,0.296-0.034,0.572-0.103,0.828c-0.067,0.256-0.174,0.48-0.317,0.672c-0.145,0.192-0.33,0.344-0.559,0.456
			c-0.228,0.112-0.502,0.168-0.821,0.168c-0.32,0-0.593-0.056-0.816-0.168s-0.408-0.264-0.552-0.456
			c-0.145-0.192-0.248-0.416-0.313-0.672c-0.063-0.256-0.096-0.532-0.096-0.828V23.063z M104.374,27.347
			c0,0.256,0.026,0.498,0.078,0.726s0.139,0.426,0.258,0.594c0.12,0.168,0.276,0.302,0.469,0.402c0.191,0.1,0.428,0.15,0.708,0.15
			c0.279,0,0.518-0.05,0.714-0.15c0.195-0.1,0.354-0.234,0.474-0.402s0.208-0.366,0.264-0.594c0.057-0.228,0.084-0.47,0.084-0.726
			V23.05c0-0.256-0.027-0.498-0.084-0.726c-0.056-0.228-0.144-0.426-0.264-0.594s-0.278-0.302-0.474-0.402
			c-0.196-0.1-0.435-0.15-0.714-0.15c-0.28,0-0.517,0.05-0.708,0.15c-0.192,0.1-0.349,0.234-0.469,0.402
			c-0.119,0.168-0.206,0.366-0.258,0.594c-0.052,0.228-0.078,0.47-0.078,0.726V27.347z"/>
		<path fill="#F2F2F2" d="M108.886,29.398h-0.252v-8.4h0.372l2.952,7.86v-7.86h0.252v8.4h-0.324l-3-8.016V29.398z"/>
		<path fill="#F2F2F2" d="M115.031,29.398v-8.4h0.264v8.148h2.82v0.252H115.031z"/>
		<path fill="#F2F2F2" d="M119.014,23.063c0-0.296,0.032-0.572,0.097-0.828c0.063-0.256,0.168-0.48,0.312-0.672
			s0.328-0.344,0.552-0.456c0.225-0.112,0.496-0.168,0.816-0.168c0.319,0,0.594,0.056,0.822,0.168
			c0.228,0.112,0.414,0.264,0.558,0.456s0.25,0.416,0.318,0.672c0.067,0.256,0.102,0.532,0.102,0.828v4.272
			c0,0.296-0.034,0.572-0.102,0.828c-0.068,0.256-0.175,0.48-0.318,0.672s-0.33,0.344-0.558,0.456
			c-0.229,0.112-0.503,0.168-0.822,0.168c-0.32,0-0.592-0.056-0.816-0.168c-0.224-0.112-0.408-0.264-0.552-0.456
			s-0.248-0.416-0.312-0.672c-0.064-0.256-0.097-0.532-0.097-0.828V23.063z M119.278,27.347c0,0.256,0.025,0.498,0.077,0.726
			c0.053,0.228,0.139,0.426,0.259,0.594s0.275,0.302,0.468,0.402c0.191,0.1,0.428,0.15,0.708,0.15s0.518-0.05,0.714-0.15
			s0.354-0.234,0.474-0.402s0.208-0.366,0.265-0.594c0.056-0.228,0.084-0.47,0.084-0.726V23.05c0-0.256-0.028-0.498-0.084-0.726
			c-0.057-0.228-0.145-0.426-0.265-0.594s-0.277-0.302-0.474-0.402s-0.434-0.15-0.714-0.15s-0.517,0.05-0.708,0.15
			c-0.192,0.1-0.348,0.234-0.468,0.402s-0.206,0.366-0.259,0.594c-0.052,0.228-0.077,0.47-0.077,0.726V27.347z"/>
		<path fill="#F2F2F2" d="M125.278,20.938c0.32,0,0.592,0.056,0.816,0.168c0.224,0.112,0.406,0.264,0.546,0.456
			s0.242,0.418,0.306,0.678c0.064,0.26,0.097,0.534,0.097,0.822v0.648h-0.265v-0.66c0-0.256-0.025-0.498-0.078-0.726
			c-0.052-0.228-0.136-0.426-0.252-0.594c-0.115-0.168-0.27-0.302-0.462-0.402c-0.191-0.1-0.424-0.15-0.695-0.15
			c-0.28,0-0.517,0.05-0.708,0.15c-0.192,0.1-0.347,0.234-0.463,0.402c-0.115,0.168-0.199,0.366-0.252,0.594
			c-0.052,0.228-0.077,0.47-0.077,0.726v4.296c0,0.256,0.025,0.496,0.077,0.72c0.053,0.224,0.137,0.42,0.252,0.588
			c0.116,0.168,0.271,0.302,0.463,0.402c0.191,0.1,0.428,0.15,0.708,0.15c0.271,0,0.504-0.05,0.695-0.15
			c0.192-0.1,0.347-0.234,0.462-0.402c0.116-0.168,0.2-0.364,0.252-0.588c0.053-0.224,0.078-0.464,0.078-0.72v-0.924h0.265v0.912
			c0,0.288-0.032,0.562-0.097,0.822c-0.063,0.26-0.166,0.486-0.306,0.678s-0.322,0.344-0.546,0.456
			c-0.225,0.112-0.496,0.168-0.816,0.168c-0.319,0-0.59-0.056-0.81-0.168c-0.221-0.112-0.4-0.264-0.54-0.456
			c-0.141-0.192-0.242-0.418-0.306-0.678c-0.064-0.26-0.097-0.534-0.097-0.822v-4.272c0-0.288,0.032-0.562,0.097-0.822
			c0.063-0.26,0.165-0.486,0.306-0.678c0.14-0.192,0.319-0.344,0.54-0.456C124.688,20.995,124.959,20.938,125.278,20.938z"/>
		<path fill="#F2F2F2" d="M128.674,27.418l-0.492,1.98h-0.239l2.027-8.412h0.372l2.076,8.412h-0.264l-0.492-1.98H128.674z
			 M128.722,27.178h2.893l-1.464-5.88L128.722,27.178z"/>
		<path fill="#F2F2F2" d="M134.458,29.398V21.25h-1.824v-0.252h3.925v0.252h-1.836v8.148H134.458z"/>
		<path fill="#F2F2F2" d="M137.277,23.063c0-0.296,0.032-0.572,0.097-0.828c0.063-0.256,0.168-0.48,0.312-0.672
			s0.328-0.344,0.552-0.456c0.225-0.112,0.496-0.168,0.816-0.168c0.319,0,0.594,0.056,0.822,0.168
			c0.228,0.112,0.414,0.264,0.558,0.456s0.25,0.416,0.318,0.672c0.067,0.256,0.102,0.532,0.102,0.828v4.272
			c0,0.296-0.034,0.572-0.102,0.828c-0.068,0.256-0.175,0.48-0.318,0.672s-0.33,0.344-0.558,0.456
			c-0.229,0.112-0.503,0.168-0.822,0.168c-0.32,0-0.592-0.056-0.816-0.168c-0.224-0.112-0.408-0.264-0.552-0.456
			s-0.248-0.416-0.312-0.672c-0.064-0.256-0.097-0.532-0.097-0.828V23.063z M137.542,27.347c0,0.256,0.025,0.498,0.077,0.726
			c0.053,0.228,0.139,0.426,0.259,0.594s0.275,0.302,0.468,0.402c0.191,0.1,0.428,0.15,0.708,0.15s0.518-0.05,0.714-0.15
			s0.354-0.234,0.474-0.402s0.208-0.366,0.265-0.594c0.056-0.228,0.084-0.47,0.084-0.726V23.05c0-0.256-0.028-0.498-0.084-0.726
			c-0.057-0.228-0.145-0.426-0.265-0.594s-0.277-0.302-0.474-0.402s-0.434-0.15-0.714-0.15s-0.517,0.05-0.708,0.15
			c-0.192,0.1-0.348,0.234-0.468,0.402s-0.206,0.366-0.259,0.594c-0.052,0.228-0.077,0.47-0.077,0.726V27.347z"/>
		<path fill="#F2F2F2" d="M143.471,20.999c0.624,0,1.067,0.17,1.332,0.51c0.264,0.34,0.396,0.798,0.396,1.374v0.756
			c0,0.52-0.106,0.922-0.318,1.206c-0.212,0.284-0.55,0.47-1.014,0.558c0.472,0.072,0.812,0.254,1.021,0.546
			c0.207,0.292,0.312,0.67,0.312,1.134v1.32c0,0.16,0.014,0.332,0.042,0.516s0.09,0.344,0.186,0.48h-0.287
			c-0.089-0.136-0.145-0.29-0.168-0.462c-0.024-0.172-0.036-0.35-0.036-0.534v-1.32c0-0.312-0.044-0.568-0.132-0.768
			c-0.089-0.2-0.215-0.358-0.379-0.474c-0.164-0.116-0.357-0.198-0.582-0.246c-0.224-0.048-0.472-0.072-0.743-0.072h-1.032v3.876
			h-0.264v-8.4H143.471z M143.099,25.271c0.288,0,0.546-0.022,0.773-0.066c0.229-0.044,0.42-0.126,0.576-0.246
			s0.276-0.282,0.36-0.486c0.084-0.204,0.126-0.47,0.126-0.798v-0.768c0-0.512-0.11-0.916-0.33-1.212
			c-0.221-0.296-0.603-0.444-1.146-0.444h-1.392v4.02H143.099z"/>
	</g>
	<g>
		<path fill="#F2F2F2" d="M261.699,24.089c0-0.296,0.032-0.572,0.096-0.828c0.064-0.256,0.168-0.48,0.313-0.672
			c0.144-0.192,0.328-0.344,0.552-0.456c0.224-0.112,0.496-0.168,0.816-0.168c0.319,0,0.594,0.056,0.821,0.168
			c0.229,0.112,0.414,0.264,0.559,0.456c0.144,0.192,0.25,0.416,0.317,0.672c0.068,0.256,0.103,0.532,0.103,0.828v4.272
			c0,0.296-0.034,0.572-0.103,0.828c-0.067,0.256-0.174,0.48-0.317,0.672c-0.145,0.192-0.33,0.344-0.559,0.456
			c-0.228,0.112-0.502,0.168-0.821,0.168c-0.32,0-0.593-0.056-0.816-0.168s-0.408-0.264-0.552-0.456
			c-0.145-0.192-0.248-0.416-0.313-0.672c-0.063-0.256-0.096-0.532-0.096-0.828V24.089z M261.963,28.373
			c0,0.256,0.026,0.498,0.078,0.726s0.139,0.426,0.258,0.594c0.12,0.168,0.276,0.302,0.469,0.402c0.191,0.1,0.428,0.15,0.708,0.15
			c0.279,0,0.518-0.05,0.714-0.15c0.195-0.1,0.354-0.234,0.474-0.402s0.208-0.366,0.264-0.594c0.057-0.228,0.084-0.47,0.084-0.726
			v-4.296c0-0.256-0.027-0.498-0.084-0.726c-0.056-0.228-0.144-0.426-0.264-0.594s-0.278-0.302-0.474-0.402
			c-0.196-0.1-0.435-0.15-0.714-0.15c-0.28,0-0.517,0.05-0.708,0.15c-0.192,0.1-0.349,0.234-0.469,0.402
			c-0.119,0.168-0.206,0.366-0.258,0.594c-0.052,0.228-0.078,0.47-0.078,0.726V28.373z"/>
		<path fill="#F2F2F2" d="M266.907,28.445l-0.492,1.98h-0.24l2.028-8.412h0.372l2.076,8.412h-0.265l-0.491-1.98H266.907z
			 M266.955,28.205h2.893l-1.465-5.88L266.955,28.205z"/>
		<path fill="#F2F2F2" d="M273.315,21.965c0.319,0,0.59,0.054,0.81,0.162s0.397,0.258,0.534,0.45c0.136,0.192,0.235,0.414,0.3,0.666
			c0.063,0.252,0.096,0.522,0.096,0.81v0.156h-0.264v-0.168c0-0.248-0.026-0.484-0.078-0.708c-0.052-0.224-0.134-0.42-0.246-0.588
			s-0.262-0.3-0.45-0.396c-0.188-0.096-0.418-0.144-0.689-0.144c-0.28,0-0.515,0.048-0.702,0.144
			c-0.188,0.096-0.338,0.228-0.45,0.396s-0.194,0.362-0.246,0.582c-0.052,0.22-0.078,0.454-0.078,0.702
			c0,0.36,0.08,0.664,0.24,0.912s0.358,0.47,0.594,0.666c0.236,0.196,0.494,0.38,0.774,0.552c0.28,0.172,0.538,0.36,0.774,0.564
			c0.235,0.204,0.434,0.44,0.594,0.708c0.16,0.268,0.24,0.59,0.24,0.966c0,0.288-0.032,0.56-0.097,0.816
			c-0.063,0.256-0.166,0.478-0.306,0.666s-0.322,0.336-0.546,0.444c-0.225,0.108-0.496,0.162-0.816,0.162s-0.59-0.054-0.81-0.162
			c-0.221-0.108-0.4-0.256-0.54-0.444c-0.141-0.188-0.242-0.41-0.307-0.666c-0.063-0.256-0.096-0.528-0.096-0.816v-0.408h0.252v0.42
			c0,0.256,0.026,0.494,0.078,0.714c0.052,0.22,0.138,0.412,0.258,0.576c0.12,0.164,0.274,0.294,0.462,0.39
			c0.188,0.096,0.422,0.144,0.702,0.144c0.272,0,0.504-0.048,0.696-0.144c0.192-0.096,0.348-0.226,0.468-0.39
			c0.12-0.164,0.206-0.356,0.258-0.576c0.053-0.22,0.078-0.458,0.078-0.714c0-0.352-0.08-0.652-0.24-0.9
			c-0.159-0.248-0.357-0.47-0.594-0.666c-0.236-0.196-0.494-0.378-0.773-0.546c-0.28-0.168-0.538-0.356-0.774-0.564
			s-0.434-0.446-0.594-0.714s-0.24-0.594-0.24-0.978c0-0.616,0.136-1.114,0.408-1.494C272.267,22.167,272.707,21.973,273.315,21.965
			z"/>
		<path fill="#F2F2F2" d="M276.267,22.025v8.4h-0.264v-8.4H276.267z"/>
		<path fill="#F2F2F2" d="M278.967,21.965c0.32,0,0.59,0.054,0.81,0.162c0.221,0.108,0.398,0.258,0.534,0.45
			c0.136,0.192,0.236,0.414,0.3,0.666c0.064,0.252,0.097,0.522,0.097,0.81v0.156h-0.265v-0.168c0-0.248-0.025-0.484-0.077-0.708
			c-0.053-0.224-0.135-0.42-0.246-0.588c-0.112-0.168-0.263-0.3-0.45-0.396c-0.188-0.096-0.418-0.144-0.69-0.144
			c-0.28,0-0.514,0.048-0.702,0.144c-0.188,0.096-0.338,0.228-0.449,0.396c-0.112,0.168-0.194,0.362-0.246,0.582
			c-0.053,0.22-0.078,0.454-0.078,0.702c0,0.36,0.08,0.664,0.24,0.912c0.159,0.248,0.357,0.47,0.594,0.666
			c0.235,0.196,0.494,0.38,0.773,0.552c0.28,0.172,0.538,0.36,0.774,0.564c0.236,0.204,0.434,0.44,0.594,0.708
			c0.16,0.268,0.24,0.59,0.24,0.966c0,0.288-0.032,0.56-0.096,0.816c-0.064,0.256-0.166,0.478-0.307,0.666
			c-0.14,0.188-0.321,0.336-0.546,0.444c-0.224,0.108-0.496,0.162-0.815,0.162c-0.32,0-0.59-0.054-0.811-0.162
			c-0.22-0.108-0.399-0.256-0.54-0.444c-0.14-0.188-0.242-0.41-0.306-0.666c-0.064-0.256-0.096-0.528-0.096-0.816v-0.408h0.252v0.42
			c0,0.256,0.025,0.494,0.078,0.714c0.052,0.22,0.138,0.412,0.258,0.576c0.12,0.164,0.273,0.294,0.462,0.39
			c0.188,0.096,0.422,0.144,0.702,0.144c0.271,0,0.504-0.048,0.695-0.144c0.192-0.096,0.349-0.226,0.469-0.39
			c0.12-0.164,0.205-0.356,0.258-0.576c0.052-0.22,0.078-0.458,0.078-0.714c0-0.352-0.08-0.652-0.24-0.9s-0.358-0.47-0.594-0.666
			c-0.236-0.196-0.494-0.378-0.774-0.546s-0.538-0.356-0.773-0.564c-0.236-0.208-0.435-0.446-0.595-0.714s-0.239-0.594-0.239-0.978
			c0-0.616,0.136-1.114,0.407-1.494C277.919,22.167,278.358,21.973,278.967,21.965z"/>
		<path fill="#F2F2F2" d="M285.255,21.965c0.319,0,0.592,0.056,0.815,0.168c0.224,0.112,0.406,0.264,0.546,0.456
			s0.242,0.418,0.307,0.678c0.063,0.26,0.096,0.534,0.096,0.822v0.648h-0.264v-0.66c0-0.256-0.026-0.498-0.078-0.726
			c-0.053-0.228-0.137-0.426-0.252-0.594c-0.116-0.168-0.271-0.302-0.462-0.402c-0.192-0.1-0.425-0.15-0.696-0.15
			c-0.28,0-0.517,0.05-0.708,0.15c-0.192,0.1-0.347,0.234-0.462,0.402c-0.116,0.168-0.2,0.366-0.252,0.594
			c-0.053,0.228-0.078,0.47-0.078,0.726v4.296c0,0.256,0.025,0.496,0.078,0.72c0.052,0.224,0.136,0.42,0.252,0.588
			c0.115,0.168,0.27,0.302,0.462,0.402c0.191,0.1,0.428,0.15,0.708,0.15c0.271,0,0.504-0.05,0.696-0.15
			c0.191-0.1,0.346-0.234,0.462-0.402c0.115-0.168,0.199-0.364,0.252-0.588c0.052-0.224,0.078-0.464,0.078-0.72v-0.924h0.264v0.912
			c0,0.288-0.032,0.562-0.096,0.822c-0.064,0.26-0.167,0.486-0.307,0.678s-0.322,0.344-0.546,0.456s-0.496,0.168-0.815,0.168
			c-0.32,0-0.591-0.056-0.811-0.168s-0.4-0.264-0.54-0.456s-0.242-0.418-0.306-0.678c-0.064-0.26-0.097-0.534-0.097-0.822v-4.272
			c0-0.288,0.032-0.562,0.097-0.822c0.063-0.26,0.166-0.486,0.306-0.678s0.32-0.344,0.54-0.456
			C284.664,22.021,284.935,21.965,285.255,21.965z"/>
		<path fill="#F2F2F2" d="M287.942,24.089c0-0.296,0.032-0.572,0.096-0.828c0.064-0.256,0.168-0.48,0.313-0.672
			c0.144-0.192,0.328-0.344,0.552-0.456c0.224-0.112,0.496-0.168,0.816-0.168c0.319,0,0.594,0.056,0.821,0.168
			c0.229,0.112,0.414,0.264,0.559,0.456c0.144,0.192,0.25,0.416,0.317,0.672c0.068,0.256,0.103,0.532,0.103,0.828v4.272
			c0,0.296-0.034,0.572-0.103,0.828c-0.067,0.256-0.174,0.48-0.317,0.672c-0.145,0.192-0.33,0.344-0.559,0.456
			c-0.228,0.112-0.502,0.168-0.821,0.168c-0.32,0-0.593-0.056-0.816-0.168s-0.408-0.264-0.552-0.456
			c-0.145-0.192-0.248-0.416-0.313-0.672c-0.063-0.256-0.096-0.532-0.096-0.828V24.089z M288.206,28.373
			c0,0.256,0.026,0.498,0.078,0.726s0.139,0.426,0.258,0.594c0.12,0.168,0.276,0.302,0.469,0.402c0.191,0.1,0.428,0.15,0.708,0.15
			c0.279,0,0.518-0.05,0.714-0.15c0.195-0.1,0.354-0.234,0.474-0.402s0.208-0.366,0.264-0.594c0.057-0.228,0.084-0.47,0.084-0.726
			v-4.296c0-0.256-0.027-0.498-0.084-0.726c-0.056-0.228-0.144-0.426-0.264-0.594s-0.278-0.302-0.474-0.402
			c-0.196-0.1-0.435-0.15-0.714-0.15c-0.28,0-0.517,0.05-0.708,0.15c-0.192,0.1-0.349,0.234-0.469,0.402
			c-0.119,0.168-0.206,0.366-0.258,0.594c-0.052,0.228-0.078,0.47-0.078,0.726V28.373z"/>
		<path fill="#F2F2F2" d="M292.718,30.425h-0.252v-8.4h0.372l2.952,7.86v-7.86h0.252v8.4h-0.324l-3-8.016V30.425z"/>
		<path fill="#F2F2F2" d="M298.574,30.425v-8.148h-1.824v-0.252h3.924v0.252h-1.836v8.148H298.574z"/>
		<path fill="#F2F2F2" d="M303.074,22.025c0.624,0,1.067,0.17,1.332,0.51c0.264,0.34,0.396,0.798,0.396,1.374v0.756
			c0,0.52-0.105,0.922-0.317,1.206c-0.213,0.284-0.551,0.47-1.015,0.558c0.473,0.072,0.813,0.254,1.021,0.546
			c0.208,0.292,0.312,0.67,0.312,1.134v1.32c0,0.16,0.014,0.332,0.042,0.516s0.09,0.344,0.187,0.48h-0.288
			c-0.088-0.136-0.145-0.29-0.168-0.462c-0.024-0.172-0.036-0.35-0.036-0.534v-1.32c0-0.312-0.044-0.568-0.132-0.768
			c-0.088-0.2-0.214-0.358-0.378-0.474c-0.164-0.116-0.358-0.198-0.582-0.246c-0.225-0.048-0.473-0.072-0.744-0.072h-1.032v3.876
			h-0.264v-8.4H303.074z M302.702,26.297c0.288,0,0.546-0.022,0.773-0.066c0.229-0.044,0.421-0.126,0.576-0.246
			c0.156-0.12,0.276-0.282,0.36-0.486c0.084-0.204,0.126-0.47,0.126-0.798v-0.768c0-0.512-0.11-0.916-0.33-1.212
			c-0.22-0.296-0.602-0.444-1.146-0.444h-1.393v4.02H302.702z"/>
		<path fill="#F2F2F2" d="M305.954,24.089c0-0.296,0.032-0.572,0.096-0.828c0.064-0.256,0.168-0.48,0.313-0.672
			c0.144-0.192,0.328-0.344,0.552-0.456c0.224-0.112,0.496-0.168,0.816-0.168c0.319,0,0.594,0.056,0.821,0.168
			c0.229,0.112,0.414,0.264,0.559,0.456c0.144,0.192,0.25,0.416,0.317,0.672c0.068,0.256,0.103,0.532,0.103,0.828v4.272
			c0,0.296-0.034,0.572-0.103,0.828c-0.067,0.256-0.174,0.48-0.317,0.672c-0.145,0.192-0.33,0.344-0.559,0.456
			c-0.228,0.112-0.502,0.168-0.821,0.168c-0.32,0-0.593-0.056-0.816-0.168s-0.408-0.264-0.552-0.456
			c-0.145-0.192-0.248-0.416-0.313-0.672c-0.063-0.256-0.096-0.532-0.096-0.828V24.089z M306.218,28.373
			c0,0.256,0.026,0.498,0.078,0.726s0.139,0.426,0.258,0.594c0.12,0.168,0.276,0.302,0.469,0.402c0.191,0.1,0.428,0.15,0.708,0.15
			c0.279,0,0.518-0.05,0.714-0.15c0.195-0.1,0.354-0.234,0.474-0.402s0.208-0.366,0.264-0.594c0.057-0.228,0.084-0.47,0.084-0.726
			v-4.296c0-0.256-0.027-0.498-0.084-0.726c-0.056-0.228-0.144-0.426-0.264-0.594s-0.278-0.302-0.474-0.402
			c-0.196-0.1-0.435-0.15-0.714-0.15c-0.28,0-0.517,0.05-0.708,0.15c-0.192,0.1-0.349,0.234-0.469,0.402
			c-0.119,0.168-0.206,0.366-0.258,0.594c-0.052,0.228-0.078,0.47-0.078,0.726V28.373z"/>
		<path fill="#F2F2F2" d="M310.478,30.425v-8.4h0.265v8.148h2.819v0.252H310.478z"/>
		<path fill="#F2F2F2" d="M318.073,21.965c0.32,0,0.592,0.056,0.816,0.168c0.225,0.112,0.406,0.264,0.547,0.456
			c0.139,0.192,0.242,0.418,0.305,0.678c0.064,0.26,0.098,0.534,0.098,0.822v0.648h-0.266v-0.66c0-0.256-0.025-0.498-0.078-0.726
			c-0.051-0.228-0.135-0.426-0.252-0.594c-0.115-0.168-0.27-0.302-0.461-0.402s-0.424-0.15-0.695-0.15
			c-0.281,0-0.518,0.05-0.709,0.15s-0.346,0.234-0.463,0.402c-0.115,0.168-0.199,0.366-0.251,0.594
			c-0.052,0.228-0.078,0.47-0.078,0.726v4.296c0,0.256,0.026,0.496,0.078,0.72c0.052,0.224,0.136,0.42,0.251,0.588
			c0.117,0.168,0.271,0.302,0.463,0.402s0.428,0.15,0.709,0.15c0.271,0,0.504-0.05,0.695-0.15s0.346-0.234,0.461-0.402
			c0.117-0.168,0.201-0.364,0.252-0.588c0.053-0.224,0.078-0.464,0.078-0.72v-0.924h0.266v0.912c0,0.288-0.033,0.562-0.098,0.822
			c-0.063,0.26-0.166,0.486-0.305,0.678c-0.141,0.192-0.322,0.344-0.547,0.456s-0.496,0.168-0.816,0.168
			c-0.318,0-0.59-0.056-0.809-0.168c-0.221-0.112-0.4-0.264-0.541-0.456c-0.14-0.192-0.242-0.418-0.306-0.678
			c-0.063-0.26-0.097-0.534-0.097-0.822v-4.272c0-0.288,0.033-0.562,0.097-0.822c0.063-0.26,0.166-0.486,0.306-0.678
			c0.141-0.192,0.32-0.344,0.541-0.456C317.483,22.021,317.755,21.965,318.073,21.965z"/>
		<path fill="#F2F2F2" d="M323.51,26.045v0.24h-2.472v3.888h2.939v0.252h-3.203v-8.4h3.203v0.252h-2.939v3.768H323.51z"/>
		<path fill="#F2F2F2" d="M325.166,30.425h-0.252v-8.4h0.371l2.952,7.86v-7.86h0.252v8.4h-0.323l-3-8.016V30.425z"/>
		<path fill="#F2F2F2" d="M331.021,30.425v-8.148h-1.824v-0.252h3.925v0.252h-1.836v8.148H331.021z"/>
		<path fill="#F2F2F2" d="M336.59,26.045v0.24h-2.472v3.888h2.939v0.252h-3.203v-8.4h3.203v0.252h-2.939v3.768H336.59z"/>
		<path fill="#F2F2F2" d="M339.662,22.025c0.624,0,1.067,0.17,1.332,0.51c0.264,0.34,0.396,0.798,0.396,1.374v0.756
			c0,0.52-0.106,0.922-0.318,1.206c-0.212,0.284-0.55,0.47-1.014,0.558c0.472,0.072,0.812,0.254,1.021,0.546
			c0.207,0.292,0.312,0.67,0.312,1.134v1.32c0,0.16,0.014,0.332,0.042,0.516s0.09,0.344,0.186,0.48h-0.287
			c-0.089-0.136-0.145-0.29-0.168-0.462c-0.024-0.172-0.036-0.35-0.036-0.534v-1.32c0-0.312-0.044-0.568-0.132-0.768
			c-0.089-0.2-0.215-0.358-0.379-0.474c-0.164-0.116-0.357-0.198-0.582-0.246c-0.224-0.048-0.472-0.072-0.743-0.072h-1.032v3.876
			h-0.264v-8.4H339.662z M339.29,26.297c0.288,0,0.546-0.022,0.773-0.066c0.229-0.044,0.42-0.126,0.576-0.246
			s0.276-0.282,0.36-0.486c0.084-0.204,0.126-0.47,0.126-0.798v-0.768c0-0.512-0.11-0.916-0.33-1.212
			c-0.221-0.296-0.603-0.444-1.146-0.444h-1.392v4.02H339.29z"/>
	</g>
	<g display="none">
		<path display="inline" fill="#F2F2F2" d="M56.159,17.595c0-0.148,0.016-0.286,0.048-0.414s0.084-0.24,0.156-0.336
			c0.071-0.096,0.163-0.172,0.275-0.228s0.248-0.084,0.408-0.084s0.297,0.028,0.411,0.084s0.207,0.132,0.278,0.228
			c0.072,0.096,0.125,0.208,0.159,0.336s0.052,0.266,0.052,0.414v2.136c0,0.148-0.018,0.286-0.052,0.414
			c-0.034,0.128-0.087,0.24-0.159,0.336c-0.071,0.096-0.164,0.172-0.278,0.228c-0.114,0.056-0.251,0.084-0.411,0.084
			s-0.296-0.028-0.408-0.084c-0.112-0.056-0.204-0.132-0.275-0.228c-0.072-0.096-0.124-0.208-0.156-0.336
			c-0.032-0.128-0.048-0.266-0.048-0.414V17.595z M56.291,19.737c0,0.128,0.013,0.249,0.039,0.363
			c0.025,0.114,0.068,0.213,0.129,0.297c0.06,0.084,0.138,0.151,0.233,0.201c0.097,0.05,0.215,0.075,0.354,0.075
			s0.259-0.025,0.356-0.075c0.099-0.05,0.178-0.117,0.237-0.201c0.061-0.084,0.104-0.183,0.132-0.297
			c0.028-0.114,0.042-0.235,0.042-0.363v-2.148c0-0.128-0.014-0.249-0.042-0.363c-0.027-0.114-0.071-0.213-0.132-0.297
			c-0.06-0.084-0.139-0.151-0.237-0.201c-0.098-0.05-0.217-0.075-0.356-0.075s-0.258,0.025-0.354,0.075
			c-0.096,0.05-0.174,0.117-0.233,0.201c-0.061,0.084-0.104,0.183-0.129,0.297c-0.026,0.114-0.039,0.235-0.039,0.363V19.737z"/>
		<path display="inline" fill="#F2F2F2" d="M58.763,19.772l-0.246,0.99h-0.12l1.015-4.206h0.186l1.038,4.206h-0.132l-0.246-0.99
			H58.763z M58.787,19.653h1.445l-0.731-2.94L58.787,19.653z"/>
		<path display="inline" fill="#F2F2F2" d="M61.967,16.533c0.159,0,0.295,0.027,0.404,0.081c0.11,0.054,0.199,0.129,0.268,0.225
			c0.067,0.096,0.118,0.207,0.149,0.333c0.032,0.126,0.049,0.261,0.049,0.405v0.078h-0.133v-0.084c0-0.124-0.013-0.242-0.039-0.354
			c-0.025-0.112-0.066-0.21-0.123-0.294c-0.056-0.084-0.131-0.15-0.225-0.198s-0.209-0.072-0.345-0.072
			c-0.141,0-0.257,0.024-0.352,0.072c-0.094,0.048-0.169,0.114-0.225,0.198s-0.097,0.181-0.123,0.291
			c-0.026,0.11-0.039,0.227-0.039,0.351c0,0.18,0.04,0.333,0.12,0.456c0.08,0.124,0.179,0.235,0.297,0.333
			c0.118,0.098,0.247,0.19,0.387,0.276c0.141,0.086,0.27,0.18,0.388,0.282c0.117,0.102,0.217,0.22,0.297,0.354
			c0.08,0.134,0.12,0.295,0.12,0.483c0,0.144-0.017,0.28-0.048,0.408c-0.032,0.128-0.084,0.239-0.153,0.333
			c-0.07,0.094-0.161,0.168-0.273,0.222c-0.111,0.054-0.248,0.081-0.408,0.081c-0.159,0-0.295-0.027-0.404-0.081
			c-0.11-0.054-0.2-0.128-0.271-0.222c-0.069-0.094-0.121-0.205-0.152-0.333c-0.032-0.128-0.049-0.264-0.049-0.408v-0.204h0.126
			v0.21c0,0.128,0.014,0.247,0.039,0.357c0.026,0.11,0.069,0.206,0.13,0.288c0.06,0.082,0.137,0.147,0.23,0.195
			s0.211,0.072,0.351,0.072c0.137,0,0.253-0.024,0.349-0.072s0.174-0.113,0.233-0.195c0.061-0.082,0.104-0.178,0.13-0.288
			c0.025-0.11,0.038-0.229,0.038-0.357c0-0.176-0.039-0.326-0.119-0.45s-0.18-0.235-0.298-0.333
			c-0.117-0.098-0.246-0.189-0.387-0.273c-0.14-0.084-0.269-0.178-0.387-0.282c-0.118-0.104-0.217-0.223-0.297-0.357
			c-0.08-0.134-0.12-0.297-0.12-0.489c0-0.308,0.068-0.557,0.204-0.747S61.662,16.537,61.967,16.533z"/>
		<path display="inline" fill="#F2F2F2" d="M63.442,16.563v4.2h-0.132v-4.2H63.442z"/>
		<path display="inline" fill="#F2F2F2" d="M64.793,16.533c0.159,0,0.295,0.027,0.404,0.081c0.11,0.054,0.199,0.129,0.268,0.225
			c0.067,0.096,0.118,0.207,0.149,0.333c0.032,0.126,0.049,0.261,0.049,0.405v0.078H65.53v-0.084c0-0.124-0.013-0.242-0.039-0.354
			c-0.025-0.112-0.066-0.21-0.123-0.294c-0.056-0.084-0.131-0.15-0.225-0.198s-0.209-0.072-0.345-0.072
			c-0.141,0-0.257,0.024-0.352,0.072c-0.094,0.048-0.169,0.114-0.225,0.198s-0.097,0.181-0.123,0.291
			c-0.026,0.11-0.039,0.227-0.039,0.351c0,0.18,0.04,0.333,0.12,0.456c0.08,0.124,0.179,0.235,0.297,0.333
			c0.118,0.098,0.247,0.19,0.387,0.276c0.141,0.086,0.27,0.18,0.388,0.282c0.117,0.102,0.217,0.22,0.297,0.354
			c0.08,0.134,0.12,0.295,0.12,0.483c0,0.144-0.017,0.28-0.048,0.408c-0.032,0.128-0.084,0.239-0.153,0.333
			c-0.07,0.094-0.161,0.168-0.273,0.222c-0.111,0.054-0.248,0.081-0.408,0.081c-0.159,0-0.295-0.027-0.404-0.081
			c-0.11-0.054-0.2-0.128-0.271-0.222c-0.069-0.094-0.121-0.205-0.152-0.333c-0.032-0.128-0.049-0.264-0.049-0.408v-0.204h0.126
			v0.21c0,0.128,0.014,0.247,0.039,0.357c0.026,0.11,0.069,0.206,0.13,0.288c0.06,0.082,0.137,0.147,0.23,0.195
			s0.211,0.072,0.351,0.072c0.137,0,0.253-0.024,0.349-0.072s0.174-0.113,0.233-0.195c0.061-0.082,0.104-0.178,0.13-0.288
			c0.025-0.11,0.038-0.229,0.038-0.357c0-0.176-0.039-0.326-0.119-0.45s-0.18-0.235-0.298-0.333
			c-0.117-0.098-0.246-0.189-0.387-0.273c-0.14-0.084-0.269-0.178-0.387-0.282c-0.118-0.104-0.217-0.223-0.297-0.357
			c-0.08-0.134-0.12-0.297-0.12-0.489c0-0.308,0.068-0.557,0.204-0.747S64.488,16.537,64.793,16.533z"/>
	</g>
</g>
<g id="sas">
	<g>
		<path fill="#F2F2F2" d="M-137.741,25.163c0.16,0,0.296,0.026,0.408,0.078c0.112,0.052,0.204,0.125,0.276,0.219
			c0.072,0.094,0.125,0.205,0.159,0.333s0.051,0.268,0.051,0.42v0.09h-0.264v-0.108c0-0.112-0.011-0.215-0.033-0.309
			c-0.022-0.094-0.058-0.176-0.108-0.246c-0.05-0.07-0.115-0.125-0.195-0.165c-0.08-0.04-0.176-0.06-0.288-0.06
			c-0.228,0-0.389,0.073-0.483,0.219c-0.094,0.146-0.141,0.331-0.141,0.555c0,0.172,0.037,0.318,0.111,0.438
			c0.074,0.12,0.168,0.229,0.282,0.327c0.114,0.098,0.236,0.192,0.366,0.282s0.252,0.188,0.366,0.294
			c0.114,0.106,0.208,0.227,0.282,0.363c0.074,0.136,0.111,0.3,0.111,0.492c0,0.152-0.017,0.292-0.051,0.42
			c-0.034,0.128-0.088,0.239-0.162,0.333c-0.074,0.094-0.168,0.167-0.282,0.219s-0.251,0.078-0.411,0.078
			c-0.16,0-0.297-0.026-0.411-0.078c-0.114-0.052-0.208-0.125-0.282-0.219c-0.074-0.094-0.128-0.205-0.162-0.333
			c-0.034-0.128-0.051-0.268-0.051-0.42v-0.216h0.264v0.234c0,0.224,0.048,0.409,0.144,0.555c0.096,0.146,0.26,0.219,0.492,0.219
			s0.396-0.073,0.492-0.219c0.096-0.146,0.144-0.331,0.144-0.555c0-0.168-0.037-0.312-0.111-0.432
			c-0.074-0.12-0.168-0.229-0.282-0.327c-0.114-0.098-0.236-0.191-0.366-0.279c-0.13-0.088-0.252-0.185-0.366-0.291
			c-0.114-0.106-0.208-0.228-0.282-0.366c-0.074-0.138-0.111-0.305-0.111-0.501c0-0.316,0.071-0.568,0.213-0.756
			C-138.28,25.263-138.053,25.167-137.741,25.163z"/>
		<path fill="#F2F2F2" d="M-135.689,29.399v-3.948h-0.852v-0.252h1.986v0.252h-0.858v3.948H-135.689z"/>
		<path fill="#F2F2F2" d="M-133.95,28.385c0,0.112,0.011,0.217,0.033,0.315c0.022,0.098,0.058,0.183,0.108,0.255
			c0.05,0.072,0.115,0.128,0.195,0.168s0.178,0.06,0.294,0.06c0.116,0,0.214-0.02,0.294-0.06c0.08-0.04,0.145-0.096,0.195-0.168
			c0.05-0.072,0.086-0.157,0.108-0.255c0.022-0.098,0.033-0.203,0.033-0.315v-3.186h0.258v3.174c0,0.152-0.016,0.292-0.048,0.42
			c-0.032,0.128-0.084,0.24-0.156,0.336c-0.072,0.096-0.165,0.171-0.279,0.225c-0.114,0.054-0.251,0.081-0.411,0.081
			s-0.297-0.027-0.411-0.081c-0.114-0.054-0.207-0.129-0.279-0.225s-0.125-0.208-0.159-0.336c-0.034-0.128-0.051-0.268-0.051-0.42
			v-3.174h0.276V28.385z"/>
		<path fill="#F2F2F2" d="M-131.033,25.199c0.16,0,0.299,0.025,0.417,0.075c0.118,0.05,0.215,0.121,0.291,0.213
			c0.076,0.092,0.132,0.202,0.168,0.33s0.054,0.27,0.054,0.426v2.112c0,0.156-0.018,0.298-0.054,0.426
			c-0.036,0.128-0.092,0.238-0.168,0.33c-0.076,0.092-0.173,0.163-0.291,0.213c-0.118,0.05-0.257,0.075-0.417,0.075h-0.924v-4.2
			H-131.033z M-131.039,29.147c0.236,0,0.405-0.072,0.507-0.216c0.102-0.144,0.153-0.332,0.153-0.564v-2.136
			c0-0.232-0.052-0.42-0.156-0.564s-0.272-0.216-0.504-0.216h-0.642v3.696H-131.039z"/>
		<path fill="#F2F2F2" d="M-128.226,27.143v0.252h-1.146v1.752h1.38v0.252h-1.656v-4.2h1.656v0.252h-1.38v1.692H-128.226z"/>
		<path fill="#F2F2F2" d="M-127.29,29.399h-0.252v-4.2h0.36l1.26,3.546v-3.546h0.252v4.2h-0.306l-1.314-3.744V29.399z"/>
		<path fill="#F2F2F2" d="M-124.487,29.399v-3.948h-0.852v-0.252h1.986v0.252h-0.858v3.948H-124.487z"/>
		<path fill="#F2F2F2" d="M-121.68,28.469l-0.21,0.93h-0.252l0.918-4.206h0.402l0.936,4.206h-0.276l-0.21-0.93H-121.68z
			 M-121.638,28.229h1.224l-0.618-2.718L-121.638,28.229z"/>
		<path fill="#F2F2F2" d="M-118.542,25.199c0.16,0,0.299,0.025,0.417,0.075c0.118,0.05,0.215,0.121,0.291,0.213
			c0.076,0.092,0.132,0.202,0.168,0.33s0.054,0.27,0.054,0.426v2.112c0,0.156-0.018,0.298-0.054,0.426
			c-0.036,0.128-0.092,0.238-0.168,0.33c-0.076,0.092-0.173,0.163-0.291,0.213c-0.118,0.05-0.257,0.075-0.417,0.075h-0.924v-4.2
			H-118.542z M-118.547,29.147c0.236,0,0.405-0.072,0.507-0.216c0.102-0.144,0.153-0.332,0.153-0.564v-2.136
			c0-0.232-0.052-0.42-0.156-0.564s-0.272-0.216-0.504-0.216h-0.642v3.696H-118.547z"/>
		<path fill="#F2F2F2" d="M-116.94,25.199l0.852,3.882l0.852-3.882h0.257l-0.911,4.2h-0.408l-0.924-4.2H-116.94z"/>
		<path fill="#F2F2F2" d="M-114.282,25.199v4.2h-0.275v-4.2H-114.282z"/>
		<path fill="#F2F2F2" d="M-112.926,25.163c0.159,0,0.296,0.026,0.407,0.078c0.112,0.052,0.204,0.125,0.276,0.219
			c0.072,0.094,0.125,0.205,0.159,0.333s0.051,0.268,0.051,0.42v0.09h-0.264v-0.108c0-0.112-0.012-0.215-0.033-0.309
			c-0.022-0.094-0.059-0.176-0.108-0.246c-0.05-0.07-0.115-0.125-0.194-0.165c-0.08-0.04-0.177-0.06-0.288-0.06
			c-0.229,0-0.39,0.073-0.483,0.219s-0.141,0.331-0.141,0.555c0,0.172,0.037,0.318,0.11,0.438c0.074,0.12,0.168,0.229,0.282,0.327
			c0.114,0.098,0.236,0.192,0.366,0.282s0.252,0.188,0.366,0.294c0.113,0.106,0.208,0.227,0.281,0.363
			c0.074,0.136,0.111,0.3,0.111,0.492c0,0.152-0.017,0.292-0.051,0.42c-0.034,0.128-0.088,0.239-0.162,0.333
			c-0.074,0.094-0.168,0.167-0.282,0.219c-0.113,0.052-0.251,0.078-0.411,0.078c-0.159,0-0.297-0.026-0.41-0.078
			c-0.114-0.052-0.208-0.125-0.282-0.219c-0.074-0.094-0.128-0.205-0.162-0.333c-0.034-0.128-0.051-0.268-0.051-0.42v-0.216h0.264
			v0.234c0,0.224,0.048,0.409,0.144,0.555c0.097,0.146,0.261,0.219,0.492,0.219c0.232,0,0.396-0.073,0.492-0.219
			s0.145-0.331,0.145-0.555c0-0.168-0.037-0.312-0.111-0.432c-0.074-0.12-0.168-0.229-0.282-0.327s-0.236-0.191-0.366-0.279
			c-0.13-0.088-0.252-0.185-0.365-0.291c-0.114-0.106-0.209-0.228-0.282-0.366c-0.074-0.138-0.111-0.305-0.111-0.501
			c0-0.316,0.071-0.568,0.213-0.756C-113.465,25.263-113.238,25.167-112.926,25.163z"/>
		<path fill="#F2F2F2" d="M-111.6,26.225c0-0.152,0.018-0.293,0.054-0.423c0.036-0.13,0.091-0.242,0.165-0.336
			c0.074-0.094,0.169-0.168,0.285-0.222c0.115-0.054,0.254-0.081,0.414-0.081c0.159,0,0.299,0.027,0.417,0.081
			c0.117,0.054,0.215,0.128,0.291,0.222c0.075,0.094,0.132,0.206,0.168,0.336c0.035,0.13,0.054,0.271,0.054,0.423v2.148
			c0,0.152-0.019,0.293-0.054,0.423c-0.036,0.13-0.093,0.242-0.168,0.336c-0.076,0.094-0.174,0.168-0.291,0.222
			c-0.118,0.054-0.258,0.081-0.417,0.081c-0.16,0-0.299-0.027-0.414-0.081c-0.116-0.054-0.211-0.128-0.285-0.222
			c-0.074-0.094-0.129-0.206-0.165-0.336s-0.054-0.271-0.054-0.423V26.225z M-111.324,28.391c0,0.228,0.049,0.417,0.147,0.567
			c0.098,0.15,0.263,0.225,0.495,0.225c0.231,0,0.398-0.075,0.501-0.225c0.102-0.15,0.152-0.339,0.152-0.567v-2.184
			c0-0.228-0.051-0.417-0.152-0.567c-0.103-0.15-0.27-0.225-0.501-0.225c-0.232,0-0.397,0.075-0.495,0.225
			c-0.099,0.15-0.147,0.339-0.147,0.567V28.391z"/>
		<path fill="#F2F2F2" d="M-108.42,25.199c0.32,0,0.55,0.084,0.69,0.252c0.14,0.168,0.21,0.4,0.21,0.696v0.366
			c0,0.488-0.202,0.778-0.606,0.87c0.216,0.048,0.371,0.146,0.465,0.294c0.094,0.148,0.142,0.336,0.142,0.564v0.654
			c0,0.088,0.006,0.177,0.018,0.267c0.012,0.09,0.04,0.169,0.084,0.237h-0.288c-0.036-0.064-0.06-0.135-0.072-0.213
			c-0.012-0.078-0.018-0.175-0.018-0.291v-0.66c0-0.14-0.018-0.256-0.054-0.348c-0.036-0.092-0.089-0.165-0.159-0.219
			s-0.153-0.092-0.249-0.114c-0.096-0.021-0.204-0.033-0.324-0.033h-0.438v1.878h-0.276v-4.2H-108.42z M-108.576,27.269
			c0.124,0,0.234-0.01,0.33-0.03c0.097-0.02,0.177-0.056,0.243-0.108c0.066-0.052,0.117-0.124,0.153-0.216
			c0.036-0.092,0.054-0.208,0.054-0.348v-0.396c0-0.228-0.048-0.405-0.144-0.531c-0.097-0.126-0.259-0.189-0.486-0.189h-0.594v1.818
			H-108.576z"/>
		<path fill="#F2F2F2" d="M-106.176,27.785l-0.942-2.586h0.288l0.804,2.208l0.805-2.208h0.27l-0.948,2.586v1.614h-0.275V27.785z"/>
		<path fill="#F2F2F2" d="M-102.744,25.163c0.16,0,0.296,0.026,0.408,0.078c0.111,0.052,0.204,0.125,0.275,0.219
			c0.072,0.094,0.125,0.205,0.159,0.333s0.051,0.268,0.051,0.42v0.09h-0.264v-0.108c0-0.112-0.011-0.215-0.033-0.309
			c-0.021-0.094-0.058-0.176-0.107-0.246c-0.05-0.07-0.115-0.125-0.195-0.165s-0.176-0.06-0.288-0.06
			c-0.228,0-0.389,0.073-0.482,0.219c-0.095,0.146-0.142,0.331-0.142,0.555c0,0.172,0.037,0.318,0.111,0.438
			s0.168,0.229,0.282,0.327c0.113,0.098,0.235,0.192,0.365,0.282s0.252,0.188,0.366,0.294s0.208,0.227,0.282,0.363
			c0.074,0.136,0.111,0.3,0.111,0.492c0,0.152-0.018,0.292-0.052,0.42c-0.033,0.128-0.088,0.239-0.161,0.333
			c-0.074,0.094-0.169,0.167-0.282,0.219c-0.114,0.052-0.251,0.078-0.411,0.078s-0.297-0.026-0.411-0.078s-0.208-0.125-0.282-0.219
			c-0.074-0.094-0.128-0.205-0.162-0.333c-0.033-0.128-0.051-0.268-0.051-0.42v-0.216h0.264v0.234c0,0.224,0.049,0.409,0.145,0.555
			s0.26,0.219,0.492,0.219c0.231,0,0.396-0.073,0.492-0.219c0.096-0.146,0.144-0.331,0.144-0.555c0-0.168-0.037-0.312-0.111-0.432
			c-0.073-0.12-0.168-0.229-0.281-0.327c-0.114-0.098-0.236-0.191-0.366-0.279c-0.13-0.088-0.252-0.185-0.366-0.291
			c-0.114-0.106-0.208-0.228-0.282-0.366c-0.074-0.138-0.11-0.305-0.11-0.501c0-0.316,0.07-0.568,0.213-0.756
			C-103.283,25.263-103.056,25.167-102.744,25.163z"/>
		<path fill="#F2F2F2" d="M-99.979,27.143v0.252h-1.146v1.752h1.38v0.252h-1.656v-4.2h1.656v0.252h-1.38v1.692H-99.979z"/>
		<path fill="#F2F2F2" d="M-98.418,25.199c0.319,0,0.55,0.084,0.689,0.252c0.14,0.168,0.21,0.4,0.21,0.696v0.366
			c0,0.488-0.202,0.778-0.605,0.87c0.216,0.048,0.37,0.146,0.465,0.294c0.094,0.148,0.141,0.336,0.141,0.564v0.654
			c0,0.088,0.006,0.177,0.019,0.267c0.012,0.09,0.039,0.169,0.084,0.237h-0.288c-0.036-0.064-0.061-0.135-0.072-0.213
			s-0.018-0.175-0.018-0.291v-0.66c0-0.14-0.019-0.256-0.055-0.348c-0.036-0.092-0.089-0.165-0.159-0.219
			c-0.069-0.054-0.152-0.092-0.249-0.114c-0.096-0.021-0.203-0.033-0.323-0.033h-0.438v1.878h-0.275v-4.2H-98.418z M-98.574,27.269
			c0.124,0,0.233-0.01,0.33-0.03c0.096-0.02,0.177-0.056,0.243-0.108c0.065-0.052,0.116-0.124,0.152-0.216
			c0.036-0.092,0.055-0.208,0.055-0.348v-0.396c0-0.228-0.049-0.405-0.145-0.531s-0.258-0.189-0.486-0.189h-0.594v1.818H-98.574z"/>
		<path fill="#F2F2F2" d="M-96.769,25.199l0.853,3.882l0.852-3.882h0.258l-0.911,4.2h-0.408l-0.924-4.2H-96.769z"/>
		<path fill="#F2F2F2" d="M-94.11,25.199v4.2h-0.275v-4.2H-94.11z"/>
		<path fill="#F2F2F2" d="M-92.742,25.163c0.16,0,0.297,0.027,0.411,0.081c0.113,0.054,0.208,0.128,0.281,0.222
			c0.074,0.094,0.128,0.206,0.162,0.336c0.034,0.13,0.052,0.271,0.052,0.423v0.348h-0.265v-0.366c0-0.112-0.011-0.216-0.033-0.312
			c-0.021-0.096-0.059-0.18-0.11-0.252c-0.053-0.072-0.118-0.128-0.198-0.168s-0.178-0.06-0.294-0.06s-0.214,0.02-0.294,0.06
			s-0.146,0.096-0.198,0.168c-0.052,0.072-0.089,0.156-0.111,0.252c-0.021,0.096-0.032,0.2-0.032,0.312v2.184
			c0,0.112,0.011,0.216,0.032,0.312c0.022,0.096,0.06,0.179,0.111,0.249c0.052,0.07,0.118,0.125,0.198,0.165
			c0.08,0.04,0.178,0.06,0.294,0.06s0.214-0.02,0.294-0.06c0.08-0.04,0.146-0.095,0.198-0.165c0.052-0.07,0.089-0.153,0.11-0.249
			c0.022-0.096,0.033-0.2,0.033-0.312v-0.498h0.265v0.48c0,0.152-0.018,0.293-0.052,0.423s-0.088,0.242-0.162,0.336
			c-0.073,0.094-0.168,0.168-0.281,0.222c-0.114,0.054-0.251,0.081-0.411,0.081s-0.297-0.027-0.411-0.081
			c-0.114-0.054-0.208-0.128-0.282-0.222c-0.074-0.094-0.128-0.206-0.162-0.336s-0.051-0.271-0.051-0.423v-2.148
			c0-0.152,0.017-0.293,0.051-0.423c0.034-0.13,0.088-0.242,0.162-0.336c0.074-0.094,0.168-0.168,0.282-0.222
			C-93.039,25.19-92.902,25.163-92.742,25.163z"/>
		<path fill="#F2F2F2" d="M-89.964,27.143v0.252h-1.146v1.752h1.38v0.252h-1.655v-4.2h1.655v0.252h-1.38v1.692H-89.964z"/>
		<path fill="#F2F2F2" d="M-88.404,25.163c0.16,0,0.296,0.026,0.408,0.078c0.111,0.052,0.204,0.125,0.275,0.219
			c0.072,0.094,0.125,0.205,0.159,0.333s0.051,0.268,0.051,0.42v0.09h-0.264v-0.108c0-0.112-0.011-0.215-0.033-0.309
			c-0.021-0.094-0.058-0.176-0.107-0.246c-0.05-0.07-0.115-0.125-0.195-0.165s-0.176-0.06-0.288-0.06
			c-0.228,0-0.389,0.073-0.482,0.219c-0.095,0.146-0.142,0.331-0.142,0.555c0,0.172,0.037,0.318,0.111,0.438
			s0.168,0.229,0.282,0.327c0.113,0.098,0.235,0.192,0.365,0.282s0.252,0.188,0.366,0.294s0.208,0.227,0.282,0.363
			c0.074,0.136,0.111,0.3,0.111,0.492c0,0.152-0.018,0.292-0.052,0.42c-0.033,0.128-0.088,0.239-0.161,0.333
			c-0.074,0.094-0.169,0.167-0.282,0.219c-0.114,0.052-0.251,0.078-0.411,0.078s-0.297-0.026-0.411-0.078s-0.208-0.125-0.282-0.219
			c-0.074-0.094-0.128-0.205-0.162-0.333c-0.033-0.128-0.051-0.268-0.051-0.42v-0.216h0.264v0.234c0,0.224,0.049,0.409,0.145,0.555
			s0.26,0.219,0.492,0.219c0.231,0,0.396-0.073,0.492-0.219c0.096-0.146,0.144-0.331,0.144-0.555c0-0.168-0.037-0.312-0.111-0.432
			c-0.073-0.12-0.168-0.229-0.281-0.327c-0.114-0.098-0.236-0.191-0.366-0.279c-0.13-0.088-0.252-0.185-0.366-0.291
			c-0.114-0.106-0.208-0.228-0.282-0.366c-0.074-0.138-0.11-0.305-0.11-0.501c0-0.316,0.07-0.568,0.213-0.756
			C-88.943,25.263-88.716,25.167-88.404,25.163z"/>
	</g>
	<g display="none">
		<path display="inline" fill="#F2F2F2" d="M76.616,25.163c0.159,0,0.296,0.026,0.407,0.078c0.112,0.052,0.205,0.125,0.276,0.219
			c0.072,0.094,0.125,0.205,0.159,0.333s0.051,0.268,0.051,0.42v0.09h-0.264v-0.108c0-0.112-0.012-0.215-0.033-0.309
			c-0.021-0.094-0.059-0.176-0.107-0.246c-0.051-0.07-0.115-0.125-0.195-0.165s-0.176-0.06-0.288-0.06
			c-0.228,0-0.39,0.073-0.483,0.219s-0.141,0.331-0.141,0.555c0,0.172,0.037,0.318,0.111,0.438s0.168,0.229,0.281,0.327
			c0.114,0.098,0.236,0.192,0.366,0.282s0.252,0.188,0.366,0.294c0.113,0.106,0.208,0.227,0.281,0.363
			c0.074,0.136,0.111,0.3,0.111,0.492c0,0.152-0.017,0.292-0.051,0.42c-0.033,0.128-0.088,0.239-0.162,0.333
			c-0.074,0.094-0.168,0.167-0.281,0.219c-0.114,0.052-0.252,0.078-0.412,0.078c-0.159,0-0.297-0.026-0.41-0.078
			c-0.114-0.052-0.208-0.125-0.282-0.219c-0.074-0.094-0.128-0.205-0.162-0.333c-0.034-0.128-0.051-0.268-0.051-0.42v-0.216h0.264
			v0.234c0,0.224,0.048,0.409,0.144,0.555c0.097,0.146,0.261,0.219,0.492,0.219c0.232,0,0.396-0.073,0.492-0.219
			s0.145-0.331,0.145-0.555c0-0.168-0.037-0.312-0.111-0.432c-0.074-0.12-0.168-0.229-0.281-0.327
			c-0.115-0.098-0.236-0.191-0.367-0.279c-0.129-0.088-0.252-0.185-0.365-0.291c-0.114-0.106-0.209-0.228-0.282-0.366
			c-0.074-0.138-0.11-0.305-0.11-0.501c0-0.316,0.07-0.568,0.213-0.756C76.077,25.263,76.305,25.167,76.616,25.163z"/>
		<path display="inline" fill="#F2F2F2" d="M78.668,29.399v-3.948h-0.852v-0.252h1.985v0.252h-0.858v3.948H78.668z"/>
		<path display="inline" fill="#F2F2F2" d="M80.408,28.385c0,0.112,0.011,0.217,0.033,0.315c0.021,0.098,0.057,0.183,0.107,0.255
			c0.05,0.072,0.115,0.128,0.195,0.168s0.178,0.06,0.293,0.06c0.117,0,0.215-0.02,0.295-0.06s0.145-0.096,0.195-0.168
			c0.049-0.072,0.086-0.157,0.107-0.255c0.021-0.098,0.033-0.203,0.033-0.315v-3.186h0.258v3.174c0,0.152-0.016,0.292-0.048,0.42
			s-0.084,0.24-0.156,0.336c-0.071,0.096-0.165,0.171-0.278,0.225c-0.115,0.054-0.252,0.081-0.412,0.081s-0.297-0.027-0.41-0.081
			c-0.114-0.054-0.207-0.129-0.279-0.225s-0.125-0.208-0.159-0.336s-0.051-0.268-0.051-0.42v-3.174h0.276V28.385z"/>
		<path display="inline" fill="#F2F2F2" d="M83.324,25.199c0.159,0,0.299,0.025,0.416,0.075c0.118,0.05,0.215,0.121,0.291,0.213
			c0.076,0.092,0.133,0.202,0.168,0.33c0.037,0.128,0.055,0.27,0.055,0.426v2.112c0,0.156-0.018,0.298-0.055,0.426
			c-0.035,0.128-0.092,0.238-0.168,0.33c-0.076,0.092-0.173,0.163-0.291,0.213c-0.117,0.05-0.257,0.075-0.416,0.075H82.4v-4.2
			H83.324z M83.318,29.147c0.235,0,0.404-0.072,0.506-0.216c0.103-0.144,0.153-0.332,0.153-0.564v-2.136
			c0-0.232-0.052-0.42-0.155-0.564c-0.104-0.144-0.272-0.216-0.504-0.216h-0.643v3.696H83.318z"/>
		<path display="inline" fill="#F2F2F2" d="M86.132,27.143v0.252h-1.146v1.752h1.379v0.252H84.71v-4.2h1.655v0.252h-1.379v1.692
			H86.132z"/>
		<path display="inline" fill="#F2F2F2" d="M87.068,29.399h-0.252v-4.2h0.359l1.26,3.546v-3.546h0.252v4.2h-0.306l-1.313-3.744
			V29.399z"/>
		<path display="inline" fill="#F2F2F2" d="M89.87,29.399v-3.948h-0.853v-0.252h1.986v0.252h-0.857v3.948H89.87z"/>
		<path display="inline" fill="#F2F2F2" d="M92.678,28.469l-0.209,0.93h-0.252l0.918-4.206h0.401l0.937,4.206h-0.276l-0.21-0.93
			H92.678z M92.721,28.229h1.224l-0.618-2.718L92.721,28.229z"/>
		<path display="inline" fill="#F2F2F2" d="M95.816,25.199c0.159,0,0.299,0.025,0.416,0.075c0.118,0.05,0.215,0.121,0.291,0.213
			c0.076,0.092,0.133,0.202,0.168,0.33c0.037,0.128,0.055,0.27,0.055,0.426v2.112c0,0.156-0.018,0.298-0.055,0.426
			c-0.035,0.128-0.092,0.238-0.168,0.33c-0.076,0.092-0.173,0.163-0.291,0.213c-0.117,0.05-0.257,0.075-0.416,0.075h-0.924v-4.2
			H95.816z M95.811,29.147c0.235,0,0.404-0.072,0.506-0.216c0.103-0.144,0.153-0.332,0.153-0.564v-2.136
			c0-0.232-0.052-0.42-0.155-0.564c-0.104-0.144-0.272-0.216-0.504-0.216h-0.643v3.696H95.811z"/>
		<path display="inline" fill="#F2F2F2" d="M97.418,25.199l0.852,3.882l0.853-3.882h0.258l-0.911,4.2h-0.408l-0.924-4.2H97.418z"/>
		<path display="inline" fill="#F2F2F2" d="M100.076,25.199v4.2h-0.275v-4.2H100.076z"/>
		<path display="inline" fill="#F2F2F2" d="M101.432,25.163c0.16,0,0.297,0.026,0.408,0.078c0.111,0.052,0.204,0.125,0.275,0.219
			c0.072,0.094,0.125,0.205,0.16,0.333c0.033,0.128,0.051,0.268,0.051,0.42v0.09h-0.264v-0.108c0-0.112-0.012-0.215-0.033-0.309
			c-0.022-0.094-0.059-0.176-0.108-0.246c-0.05-0.07-0.115-0.125-0.194-0.165c-0.08-0.04-0.177-0.06-0.289-0.06
			c-0.228,0-0.389,0.073-0.482,0.219s-0.141,0.331-0.141,0.555c0,0.172,0.037,0.318,0.11,0.438c0.074,0.12,0.168,0.229,0.282,0.327
			c0.113,0.098,0.236,0.192,0.365,0.282c0.131,0.09,0.252,0.188,0.367,0.294c0.113,0.106,0.207,0.227,0.281,0.363
			c0.074,0.136,0.111,0.3,0.111,0.492c0,0.152-0.018,0.292-0.051,0.42c-0.034,0.128-0.088,0.239-0.162,0.333
			c-0.074,0.094-0.168,0.167-0.282,0.219s-0.251,0.078-0.411,0.078s-0.297-0.026-0.41-0.078c-0.115-0.052-0.209-0.125-0.283-0.219
			c-0.074-0.094-0.127-0.205-0.162-0.333c-0.033-0.128-0.051-0.268-0.051-0.42v-0.216h0.264v0.234c0,0.224,0.049,0.409,0.145,0.555
			s0.26,0.219,0.492,0.219s0.396-0.073,0.492-0.219s0.145-0.331,0.145-0.555c0-0.168-0.037-0.312-0.111-0.432
			c-0.074-0.12-0.168-0.229-0.282-0.327s-0.236-0.191-0.366-0.279c-0.13-0.088-0.252-0.185-0.365-0.291
			c-0.115-0.106-0.209-0.228-0.283-0.366c-0.074-0.138-0.11-0.305-0.11-0.501c0-0.316,0.071-0.568,0.213-0.756
			C100.893,25.263,101.12,25.167,101.432,25.163z"/>
		<path display="inline" fill="#F2F2F2" d="M102.758,26.225c0-0.152,0.019-0.293,0.055-0.423c0.035-0.13,0.09-0.242,0.164-0.336
			c0.074-0.094,0.17-0.168,0.285-0.222c0.116-0.054,0.254-0.081,0.414-0.081s0.299,0.027,0.418,0.081
			c0.117,0.054,0.215,0.128,0.291,0.222c0.075,0.094,0.131,0.206,0.168,0.336c0.035,0.13,0.053,0.271,0.053,0.423v2.148
			c0,0.152-0.018,0.293-0.053,0.423c-0.037,0.13-0.093,0.242-0.168,0.336c-0.076,0.094-0.174,0.168-0.291,0.222
			c-0.119,0.054-0.258,0.081-0.418,0.081s-0.298-0.027-0.414-0.081c-0.115-0.054-0.211-0.128-0.285-0.222
			c-0.074-0.094-0.129-0.206-0.164-0.336c-0.036-0.13-0.055-0.271-0.055-0.423V26.225z M103.034,28.391
			c0,0.228,0.049,0.417,0.147,0.567c0.098,0.15,0.263,0.225,0.494,0.225c0.232,0,0.399-0.075,0.502-0.225
			c0.102-0.15,0.152-0.339,0.152-0.567v-2.184c0-0.228-0.051-0.417-0.152-0.567c-0.103-0.15-0.27-0.225-0.502-0.225
			c-0.231,0-0.396,0.075-0.494,0.225c-0.099,0.15-0.147,0.339-0.147,0.567V28.391z"/>
		<path display="inline" fill="#F2F2F2" d="M105.938,25.199c0.319,0,0.55,0.084,0.69,0.252c0.139,0.168,0.209,0.4,0.209,0.696v0.366
			c0,0.488-0.201,0.778-0.605,0.87c0.216,0.048,0.371,0.146,0.465,0.294c0.094,0.148,0.141,0.336,0.141,0.564v0.654
			c0,0.088,0.006,0.177,0.019,0.267c0.012,0.09,0.04,0.169,0.084,0.237h-0.288c-0.036-0.064-0.061-0.135-0.072-0.213
			s-0.018-0.175-0.018-0.291v-0.66c0-0.14-0.018-0.256-0.055-0.348c-0.035-0.092-0.088-0.165-0.158-0.219s-0.153-0.092-0.25-0.114
			c-0.096-0.021-0.203-0.033-0.323-0.033h-0.438v1.878h-0.275v-4.2H105.938z M105.782,27.269c0.124,0,0.233-0.01,0.33-0.03
			s0.177-0.056,0.243-0.108c0.066-0.052,0.117-0.124,0.152-0.216c0.037-0.092,0.055-0.208,0.055-0.348v-0.396
			c0-0.228-0.049-0.405-0.145-0.531s-0.258-0.189-0.486-0.189h-0.594v1.818H105.782z"/>
		<path display="inline" fill="#F2F2F2" d="M108.182,27.785l-0.941-2.586h0.288l0.804,2.208l0.805-2.208h0.27l-0.948,2.586v1.614
			h-0.276V27.785z"/>
		<path display="inline" fill="#F2F2F2" d="M111.614,25.163c0.159,0,0.296,0.026,0.407,0.078c0.112,0.052,0.205,0.125,0.276,0.219
			c0.072,0.094,0.125,0.205,0.159,0.333s0.051,0.268,0.051,0.42v0.09h-0.264v-0.108c0-0.112-0.012-0.215-0.033-0.309
			c-0.021-0.094-0.059-0.176-0.107-0.246c-0.051-0.07-0.115-0.125-0.195-0.165s-0.176-0.06-0.288-0.06
			c-0.228,0-0.39,0.073-0.483,0.219s-0.141,0.331-0.141,0.555c0,0.172,0.037,0.318,0.111,0.438s0.168,0.229,0.281,0.327
			c0.114,0.098,0.236,0.192,0.366,0.282s0.252,0.188,0.366,0.294c0.113,0.106,0.208,0.227,0.281,0.363
			c0.074,0.136,0.111,0.3,0.111,0.492c0,0.152-0.017,0.292-0.051,0.42c-0.033,0.128-0.088,0.239-0.162,0.333
			c-0.074,0.094-0.168,0.167-0.281,0.219c-0.114,0.052-0.252,0.078-0.412,0.078c-0.159,0-0.297-0.026-0.41-0.078
			c-0.114-0.052-0.208-0.125-0.282-0.219c-0.074-0.094-0.128-0.205-0.162-0.333c-0.034-0.128-0.051-0.268-0.051-0.42v-0.216h0.264
			v0.234c0,0.224,0.048,0.409,0.144,0.555c0.097,0.146,0.261,0.219,0.492,0.219c0.232,0,0.396-0.073,0.492-0.219
			s0.145-0.331,0.145-0.555c0-0.168-0.037-0.312-0.111-0.432c-0.074-0.12-0.168-0.229-0.281-0.327
			c-0.115-0.098-0.236-0.191-0.367-0.279c-0.129-0.088-0.252-0.185-0.365-0.291c-0.114-0.106-0.209-0.228-0.282-0.366
			c-0.074-0.138-0.11-0.305-0.11-0.501c0-0.316,0.07-0.568,0.213-0.756C111.075,25.263,111.303,25.167,111.614,25.163z"/>
		<path display="inline" fill="#F2F2F2" d="M114.381,27.143v0.252h-1.146v1.752h1.38v0.252h-1.655v-4.2h1.655v0.252h-1.38v1.692
			H114.381z"/>
		<path display="inline" fill="#F2F2F2" d="M115.94,25.199c0.319,0,0.55,0.084,0.69,0.252c0.139,0.168,0.209,0.4,0.209,0.696v0.366
			c0,0.488-0.201,0.778-0.605,0.87c0.216,0.048,0.371,0.146,0.465,0.294c0.094,0.148,0.141,0.336,0.141,0.564v0.654
			c0,0.088,0.006,0.177,0.019,0.267c0.012,0.09,0.04,0.169,0.084,0.237h-0.288c-0.036-0.064-0.061-0.135-0.072-0.213
			s-0.018-0.175-0.018-0.291v-0.66c0-0.14-0.018-0.256-0.055-0.348c-0.035-0.092-0.088-0.165-0.158-0.219s-0.153-0.092-0.25-0.114
			c-0.096-0.021-0.203-0.033-0.323-0.033h-0.438v1.878h-0.275v-4.2H115.94z M115.784,27.269c0.124,0,0.233-0.01,0.33-0.03
			s0.177-0.056,0.243-0.108c0.066-0.052,0.117-0.124,0.152-0.216c0.037-0.092,0.055-0.208,0.055-0.348v-0.396
			c0-0.228-0.049-0.405-0.145-0.531s-0.258-0.189-0.486-0.189h-0.594v1.818H115.784z"/>
		<path display="inline" fill="#F2F2F2" d="M117.59,25.199l0.852,3.882l0.853-3.882h0.258l-0.911,4.2h-0.408l-0.924-4.2H117.59z"/>
		<path display="inline" fill="#F2F2F2" d="M120.248,25.199v4.2h-0.275v-4.2H120.248z"/>
		<path display="inline" fill="#F2F2F2" d="M121.615,25.163c0.16,0,0.297,0.027,0.412,0.081c0.113,0.054,0.207,0.128,0.281,0.222
			c0.074,0.094,0.128,0.206,0.162,0.336c0.034,0.13,0.051,0.271,0.051,0.423v0.348h-0.264v-0.366c0-0.112-0.012-0.216-0.033-0.312
			c-0.021-0.096-0.059-0.18-0.111-0.252c-0.052-0.072-0.117-0.128-0.197-0.168s-0.178-0.06-0.295-0.06
			c-0.115,0-0.213,0.02-0.293,0.06s-0.146,0.096-0.198,0.168c-0.052,0.072-0.089,0.156-0.111,0.252
			c-0.022,0.096-0.032,0.2-0.032,0.312v2.184c0,0.112,0.01,0.216,0.032,0.312c0.022,0.096,0.06,0.179,0.111,0.249
			c0.052,0.07,0.118,0.125,0.198,0.165c0.08,0.04,0.178,0.06,0.293,0.06c0.117,0,0.215-0.02,0.295-0.06
			c0.08-0.04,0.146-0.095,0.197-0.165c0.053-0.07,0.09-0.153,0.111-0.249c0.021-0.096,0.033-0.2,0.033-0.312v-0.498h0.264v0.48
			c0,0.152-0.017,0.293-0.051,0.423s-0.088,0.242-0.162,0.336c-0.074,0.094-0.168,0.168-0.281,0.222
			c-0.115,0.054-0.252,0.081-0.412,0.081s-0.297-0.027-0.41-0.081c-0.114-0.054-0.209-0.128-0.282-0.222
			c-0.074-0.094-0.128-0.206-0.162-0.336s-0.051-0.271-0.051-0.423v-2.148c0-0.152,0.017-0.293,0.051-0.423
			c0.034-0.13,0.088-0.242,0.162-0.336c0.073-0.094,0.168-0.168,0.282-0.222C121.318,25.19,121.455,25.163,121.615,25.163z"/>
		<path display="inline" fill="#F2F2F2" d="M124.395,27.143v0.252h-1.146v1.752h1.38v0.252h-1.655v-4.2h1.655v0.252h-1.38v1.692
			H124.395z"/>
		<path display="inline" fill="#F2F2F2" d="M125.954,25.163c0.159,0,0.296,0.026,0.407,0.078c0.112,0.052,0.205,0.125,0.276,0.219
			c0.072,0.094,0.125,0.205,0.159,0.333s0.051,0.268,0.051,0.42v0.09h-0.264v-0.108c0-0.112-0.012-0.215-0.033-0.309
			c-0.021-0.094-0.059-0.176-0.107-0.246c-0.051-0.07-0.115-0.125-0.195-0.165s-0.176-0.06-0.288-0.06
			c-0.228,0-0.39,0.073-0.483,0.219s-0.141,0.331-0.141,0.555c0,0.172,0.037,0.318,0.111,0.438s0.168,0.229,0.281,0.327
			c0.114,0.098,0.236,0.192,0.366,0.282s0.252,0.188,0.366,0.294c0.113,0.106,0.208,0.227,0.281,0.363
			c0.074,0.136,0.111,0.3,0.111,0.492c0,0.152-0.017,0.292-0.051,0.42c-0.033,0.128-0.088,0.239-0.162,0.333
			c-0.074,0.094-0.168,0.167-0.281,0.219c-0.114,0.052-0.252,0.078-0.412,0.078c-0.159,0-0.297-0.026-0.41-0.078
			c-0.114-0.052-0.208-0.125-0.282-0.219c-0.074-0.094-0.128-0.205-0.162-0.333c-0.034-0.128-0.051-0.268-0.051-0.42v-0.216h0.264
			v0.234c0,0.224,0.048,0.409,0.144,0.555c0.097,0.146,0.261,0.219,0.492,0.219c0.232,0,0.396-0.073,0.492-0.219
			s0.145-0.331,0.145-0.555c0-0.168-0.037-0.312-0.111-0.432c-0.074-0.12-0.168-0.229-0.281-0.327
			c-0.115-0.098-0.236-0.191-0.367-0.279c-0.129-0.088-0.252-0.185-0.365-0.291c-0.114-0.106-0.209-0.228-0.282-0.366
			c-0.074-0.138-0.11-0.305-0.11-0.501c0-0.316,0.07-0.568,0.213-0.756C125.415,25.263,125.643,25.167,125.954,25.163z"/>
	</g>
</g>
<g id="Layer_6">
	<g>
		<path fill="#FEFEFE" d="M247.145,26.862c-0.856,0-0.832-0.001-0.866-0.872c-0.015-0.4,0.08-0.542,0.494-0.499
			c0.387,0.04,0.823,0.112,1.162-0.022c0.37-0.146,0.277-0.673,0.45-1.011c0.344-0.671,0.323-0.681-0.228-1.232
			c-0.652-0.652-0.636-0.637-0.002-1.316c0.258-0.275,0.405-0.273,0.641,0.006c0.26,0.309,0.521,0.687,0.867,0.834
			c0.352,0.15,0.667-0.289,1.034-0.399c0.71-0.214,0.703-0.236,0.703-1.001c0-0.966,0-0.953,0.976-0.968
			c0.307-0.005,0.421,0.062,0.393,0.386c-0.031,0.375,0.002,0.754-0.011,1.131c-0.007,0.206,0.062,0.298,0.269,0.338
			c0.428,0.082,0.832,0.241,1.19,0.492c0.184,0.129,0.289,0.071,0.421-0.069c0.278-0.295,0.58-0.566,0.854-0.865
			c0.153-0.167,0.242-0.145,0.398,0.004c0.79,0.754,0.795,0.749,0.022,1.522c-0.02,0.02-0.037,0.043-0.06,0.059
			c-0.381,0.259-0.465,0.545-0.163,0.946c0.153,0.204,0.254,0.477,0.291,0.732c0.054,0.369,0.22,0.503,0.576,0.445
			c0.095-0.016,0.195-0.002,0.293-0.002c1.105,0,1.1,0,1.021,1.131c-0.013,0.184-0.067,0.239-0.244,0.234
			c-0.405-0.01-0.812,0.015-1.215-0.009c-0.251-0.015-0.342,0.085-0.389,0.312c-0.084,0.413-0.242,0.803-0.483,1.149
			c-0.128,0.182-0.083,0.285,0.061,0.419c0.305,0.287,0.591,0.595,0.894,0.884c0.132,0.125,0.147,0.224-0.001,0.335
			c-0.011,0.008-0.021,0.019-0.03,0.029c-0.744,0.804-0.744,0.804-1.518,0.03c-0.02-0.02-0.043-0.037-0.059-0.06
			c-0.259-0.379-0.542-0.467-0.946-0.167c-0.216,0.161-0.502,0.27-0.769,0.308c-0.371,0.053-0.457,0.236-0.41,0.561
			c0.014,0.096,0.002,0.195,0.002,0.293c0,1.103,0,1.098-1.133,1.021c-0.186-0.013-0.236-0.069-0.232-0.245
			c0.01-0.419-0.012-0.839,0.009-1.257c0.011-0.217-0.079-0.297-0.269-0.336c-0.428-0.088-0.832-0.246-1.189-0.494
			c-0.184-0.128-0.285-0.082-0.42,0.061c-0.287,0.305-0.595,0.59-0.884,0.895c-0.126,0.132-0.224,0.146-0.336-0.001
			c-0.008-0.011-0.019-0.021-0.029-0.03c-0.805-0.743-0.805-0.743-0.032-1.516c0.01-0.01,0.018-0.022,0.03-0.029
			c0.412-0.275,0.516-0.589,0.18-1.013c-0.125-0.157-0.211-0.375-0.236-0.574c-0.06-0.494-0.317-0.657-0.784-0.569
			C247.344,26.878,247.243,26.862,247.145,26.862z"/>
		<linearGradient id="SVGID_5_" gradientUnits="userSpaceOnUse" x1="253.435" y1="28.5261" x2="250.729" y2="23.839">
			<stop  offset="0" style="stop-color:#D4145A"/>
			<stop  offset="0.1237" style="stop-color:#DD1865"/>
			<stop  offset="0.2704" style="stop-color:#ED1E79"/>
		</linearGradient>
		<path fill="url(#SVGID_5_)" d="M254.785,26.168c0.011,1.501-1.193,2.714-2.698,2.718c-1.488,0.004-2.687-1.177-2.708-2.666
			c-0.021-1.505,1.171-2.724,2.677-2.738C253.562,23.466,254.774,24.659,254.785,26.168z"/>
	</g>
	<g>
		<path fill="#FFFFFF" d="M56.071,28.221c-0.477,0.342-0.915,0.656-1.355,0.969c-0.075,0.053-0.157,0.098-0.267,0.166
			c-0.521-0.599-1.037-1.19-1.552-1.782c-0.339-0.39-0.693-0.77-1.01-1.178c-0.2-0.258-0.386-0.305-0.712-0.225
			c-1.568,0.381-2.941,0.013-4.013-1.221c-1.135-1.306-0.958-3.231,0.37-4.428c1.698-1.53,4.464-1.229,5.784,0.631
			c0.712,1.003,0.762,2.388,0.086,3.416c-0.175,0.266-0.128,0.414,0.062,0.628c0.804,0.905,1.593,1.825,2.386,2.74
			C55.919,28.015,55.978,28.1,56.071,28.221z M50.211,24.862c0.043-0.002,0.162,0.004,0.277-0.015
			c0.772-0.123,1.366-0.506,1.668-1.245c0.265-0.65,0.164-1.274-0.283-1.817c-0.522-0.634-1.224-0.843-2.019-0.771
			c-1.076,0.097-1.927,1.068-1.836,2.078C48.107,24.089,49.014,24.847,50.211,24.862z"/>
		<path fill="#39B54A" d="M50.211,24.862c-1.196-0.015-2.104-0.773-2.193-1.769c-0.091-1.011,0.761-1.981,1.836-2.078
			c0.795-0.072,1.497,0.137,2.019,0.771c0.447,0.543,0.548,1.167,0.283,1.817c-0.302,0.739-0.895,1.121-1.668,1.245
			C50.372,24.866,50.253,24.86,50.211,24.862z"/>
	</g>
	<g>
	</g>
	<g>
	</g>
	<g>
	</g>
	<g>
	</g>
	<g>
	</g>
	<g>
	</g>
	<g>
	</g>
	<g>
	</g>
	<g>
	</g>
	<g>
	</g>
	<g>
	</g>
	<g>
	</g>
	<g>
	</g>
	<g>
	</g>
	<g>
	</g>
</g>
</svg>
