<?xml version="1.0" encoding="utf-8"?>
<!-- Generator: Adobe Illustrator 16.0.0, SVG Export Plug-In . SVG Version: 6.00 Build 0)  -->
<!DOCTYPE svg PUBLIC "-//W3C//DTD SVG 1.1//EN" "http://www.w3.org/Graphics/SVG/1.1/DTD/svg11.dtd">
<svg version="1.1" xmlns="http://www.w3.org/2000/svg" xmlns:xlink="http://www.w3.org/1999/xlink" x="0px" y="0px" width="960px"
	 height="2000px" viewBox="0 0 960 2000" enable-background="new 0 0 960 2000" xml:space="preserve">
<g id="Layer_1">
	<rect x="-0.5" y="0.5" fill="#3FA9F5" stroke="#000000" stroke-miterlimit="10" width="960" height="2006"/>
</g>
<g id="Layer_2">
	<g>
		<path fill-rule="evenodd" clip-rule="evenodd" fill="#F2F2F2" d="M165.826,336.109c4.29-2.665,8.245-5.802,12.327-8.757
			c25.543-18.487,51.067-37.002,76.557-55.562c1.292-0.941,2.051-0.808,3.26,0.07c28.527,20.702,57.086,41.36,85.641,62.025
			c0.234,0.169,0.48,0.321,0.721,0.48c0,6.973,0,13.946,0,20.919c-9.361-6.754-18.733-13.494-28.081-20.266
			c-19.502-14.127-39.003-28.256-58.458-42.447c-1.247-0.909-1.934-0.604-2.977,0.152c-29.16,21.172-58.338,42.318-87.52,63.459
			c-0.454,0.329-0.823,0.84-1.471,0.844C165.826,350.055,165.826,343.082,165.826,336.109z"/>
		<path fill-rule="evenodd" clip-rule="evenodd" fill="#F2F2F2" d="M256.505,432.977c-22.834,0-45.669-0.016-68.503,0.034
			c-1.552,0.003-2.023-0.336-2.019-1.971c0.059-22.718,0.056-45.436,0.004-68.154c-0.003-1.573,0.365-2.046,1.985-2.008
			c4.878,0.115,9.761,0.096,14.64,0.008c1.44-0.026,1.852,0.36,1.848,1.825c-0.052,16.559-0.004,33.119-0.075,49.677
			c-0.007,1.741,0.39,2.191,2.172,2.188c33.351-0.061,66.702-0.058,100.052-0.005c1.667,0.002,2.112-0.379,2.105-2.08
			c-0.07-16.559-0.021-33.118-0.077-49.677c-0.005-1.514,0.342-1.969,1.907-1.935c4.994,0.109,9.993,0.076,14.989,0.015
			c1.196-0.014,1.589,0.304,1.588,1.544c-0.034,23.008-0.039,46.017,0.008,69.025c0.003,1.464-0.631,1.534-1.773,1.533
			C302.406,432.971,279.456,432.977,256.505,432.977z"/>
	</g>
</g>
<g id="Layer_3">
	<g>
		<path fill="#F2F2F2" d="M383.996,327.213c0-20.4,9.4-35.399,30.6-35.399c21.6,0,31,15,31,35.399v71.599c0,20.4-9.4,35.4-31,35.4
			c-21.2,0-30.6-15-30.6-35.4V327.213z M393.195,399.412c0,15.2,6,26.4,21.4,26.4c15.6,0,21.8-11.2,21.8-26.4v-72.799
			c0-15.2-6.2-26.399-21.8-26.399c-15.4,0-21.4,11.2-21.4,26.399V399.412z"/>
		<path fill="#F2F2F2" d="M473.997,402.012l-7,31h-8.4l30.6-140.198h13.399l31.199,140.198h-9.199l-7-31H473.997z M475.396,394.012
			h40.799l-20.6-90.599L475.396,394.012z"/>
		<path fill="#F2F2F2" d="M606.793,326.813v3h-8.799v-3.6c0-14.8-5.6-26-20.801-26c-15.199,0-20.799,11-20.799,25.799
			c0,34,50.6,34.6,50.6,73.199c0,20.2-8.801,35-30.201,35c-21.398,0-30.199-14.8-30.199-35v-7.2h8.801v7.8
			c0,15,5.799,25.8,21.199,25.8s21.199-10.8,21.199-25.8c0-33.599-50.6-34.199-50.6-73.199c0-21,9.201-34.6,29.801-34.799
			C598.193,291.813,606.793,306.613,606.793,326.813z"/>
		<path fill="#F2F2F2" d="M630.994,293.013v139.998h-9.201V293.013H630.994z"/>
		<path fill="#F2F2F2" d="M705.99,326.813v3h-8.799v-3.6c0-14.8-5.6-26-20.801-26c-15.199,0-20.799,11-20.799,25.799
			c0,34,50.6,34.6,50.6,73.199c0,20.2-8.801,35-30.201,35c-21.398,0-30.199-14.8-30.199-35v-7.2h8.801v7.8
			c0,15,5.799,25.8,21.199,25.8s21.199-10.8,21.199-25.8c0-33.599-50.6-34.199-50.6-73.199c0-21,9.201-34.6,29.801-34.799
			C697.391,291.813,705.99,306.613,705.99,326.813z"/>
	</g>
</g>
<g id="Layer_4">
	<g>
		<path d="M406.653,453.004v0.54h-1.584v-0.648c0-2.664-1.008-4.679-3.744-4.679c-2.735,0-3.743,1.979-3.743,4.643
			c0,6.12,9.107,6.228,9.107,13.175c0,3.635-1.584,6.299-5.436,6.299s-5.436-2.664-5.436-6.299v-1.296h1.584v1.404
			c0,2.7,1.044,4.643,3.815,4.643c2.772,0,3.815-1.943,3.815-4.643c0-6.047-9.106-6.155-9.106-13.174
			c0-3.78,1.656-6.228,5.363-6.263C405.105,446.706,406.653,449.369,406.653,453.004z"/>
		<path d="M413.602,472.118v-23.685h-5.112v-1.512h11.915v1.512h-5.147v23.685H413.602z"/>
		<path d="M424.042,466.035c0,2.699,1.008,4.787,3.78,4.787c2.771,0,3.779-2.088,3.779-4.787v-19.114h1.548v19.042
			c0,3.6-1.512,6.371-5.363,6.371s-5.399-2.771-5.399-6.371v-19.042h1.656V466.035z"/>
		<path d="M441.537,446.921c3.888,0,5.58,2.556,5.58,6.263v12.67c0,3.708-1.692,6.263-5.58,6.263h-5.543v-25.197H441.537z
			 M441.501,470.606c2.808,0,3.959-1.908,3.959-4.68v-12.814c0-2.771-1.188-4.679-3.959-4.679h-3.852v22.173H441.501z"/>
		<path d="M458.385,458.584v1.512h-6.875v10.511h8.279v1.512h-9.935v-25.197h9.935v1.512h-8.279v10.151H458.385z"/>
		<path d="M464.001,472.118h-1.512v-25.197h2.16l7.559,21.273v-21.273h1.512v25.197h-1.836l-7.883-22.461V472.118z"/>
		<path d="M480.813,472.118v-23.685h-5.112v-1.512h11.914v1.512h-5.146v23.685H480.813z"/>
		<path d="M497.661,466.539l-1.26,5.579h-1.512l5.507-25.233h2.412l5.615,25.233h-1.656l-1.26-5.579H497.661z M497.913,465.099
			h7.343l-3.707-16.306L497.913,465.099z"/>
		<path d="M516.488,446.921c3.888,0,5.579,2.556,5.579,6.263v12.67c0,3.708-1.691,6.263-5.579,6.263h-5.543v-25.197H516.488z
			 M516.452,470.606c2.808,0,3.959-1.908,3.959-4.68v-12.814c0-2.771-1.188-4.679-3.959-4.679h-3.852v22.173H516.452z"/>
		<path d="M526.101,446.921l5.111,23.289l5.111-23.289h1.548l-5.471,25.197h-2.448l-5.543-25.197H526.101z"/>
		<path d="M542.049,446.921v25.197h-1.656v-25.197H542.049z"/>
		<path d="M544.82,453.077c0-3.672,1.691-6.371,5.507-6.371c3.888,0,5.579,2.699,5.579,6.371v12.886
			c0,3.671-1.691,6.371-5.579,6.371c-3.815,0-5.507-2.7-5.507-6.371V453.077z M546.476,466.071c0,2.736,1.08,4.751,3.852,4.751
			c2.808,0,3.924-2.016,3.924-4.751v-13.102c0-2.736-1.116-4.751-3.924-4.751c-2.771,0-3.852,2.016-3.852,4.751V466.071z"/>
		<path d="M563.899,446.921c3.852,0,5.399,2.124,5.399,5.687v2.196c0,2.952-1.152,4.644-3.636,5.219
			c2.592,0.576,3.636,2.412,3.636,5.147v3.924c0,1.043,0.071,2.195,0.611,3.023h-1.728c-0.432-0.756-0.54-1.656-0.54-3.023v-3.959
			c0-3.348-1.836-4.284-4.715-4.284H560.3v11.267h-1.656v-25.197H563.899z M562.963,459.34c2.952,0,4.68-0.828,4.68-4.211v-2.376
			c0-2.7-1.044-4.319-3.779-4.319H560.3v10.907H562.963z"/>
		<path d="M577.363,462.436l-5.651-15.514h1.728l4.824,13.246l4.823-13.246h1.619l-5.687,15.514v9.683h-1.656V462.436z"/>
		<path d="M603.318,453.004v0.54h-1.584v-0.648c0-2.664-1.008-4.679-3.743-4.679c-2.736,0-3.744,1.979-3.744,4.643
			c0,6.12,9.107,6.228,9.107,13.175c0,3.635-1.584,6.299-5.436,6.299s-5.436-2.664-5.436-6.299v-1.296h1.584v1.404
			c0,2.7,1.044,4.643,3.815,4.643s3.815-1.943,3.815-4.643c0-6.047-9.106-6.155-9.106-13.174c0-3.78,1.655-6.228,5.363-6.263
			C601.771,446.706,603.318,449.369,603.318,453.004z"/>
		<path d="M614.551,458.584v1.512h-6.875v10.511h8.279v1.512h-9.936v-25.197h9.936v1.512h-8.279v10.151H614.551z"/>
		<path d="M623.911,446.921c3.852,0,5.399,2.124,5.399,5.687v2.196c0,2.952-1.152,4.644-3.636,5.219
			c2.592,0.576,3.636,2.412,3.636,5.147v3.924c0,1.043,0.071,2.195,0.611,3.023h-1.728c-0.432-0.756-0.54-1.656-0.54-3.023v-3.959
			c0-3.348-1.836-4.284-4.715-4.284h-2.628v11.267h-1.656v-25.197H623.911z M622.975,459.34c2.952,0,4.68-0.828,4.68-4.211v-2.376
			c0-2.7-1.044-4.319-3.779-4.319h-3.563v10.907H622.975z"/>
		<path d="M633.811,446.921l5.111,23.289l5.111-23.289h1.548l-5.471,25.197h-2.448l-5.543-25.197H633.811z"/>
		<path d="M649.759,446.921v25.197h-1.656v-25.197H649.759z"/>
		<path d="M663.4,453.077v2.087h-1.583v-2.195c0-2.7-1.044-4.751-3.816-4.751c-2.771,0-3.815,2.052-3.815,4.751v13.102
			c0,2.7,1.044,4.715,3.815,4.715c2.772,0,3.816-2.016,3.816-4.715v-2.987h1.583v2.879c0,3.636-1.583,6.371-5.435,6.371
			s-5.436-2.735-5.436-6.371v-12.886c0-3.636,1.584-6.371,5.436-6.371S663.4,449.441,663.4,453.077z"/>
		<path d="M674.633,458.584v1.512h-6.875v10.511h8.279v1.512h-9.936v-25.197h9.936v1.512h-8.279v10.151H674.633z"/>
		<path d="M689.356,453.004v0.54h-1.584v-0.648c0-2.664-1.008-4.679-3.743-4.679c-2.736,0-3.744,1.979-3.744,4.643
			c0,6.12,9.107,6.228,9.107,13.175c0,3.635-1.584,6.299-5.436,6.299s-5.436-2.664-5.436-6.299v-1.296h1.584v1.404
			c0,2.7,1.044,4.643,3.815,4.643s3.815-1.943,3.815-4.643c0-6.047-9.106-6.155-9.106-13.174c0-3.78,1.655-6.228,5.363-6.263
			C687.809,446.706,689.356,449.369,689.356,453.004z"/>
	</g>
</g>
<g id="Layer_5">
	<g>
	</g>
	<g>
	</g>
	<g>
	</g>
	<g>
	</g>
	<g>
	</g>
	<g>
	</g>
	<g>
	</g>
	<g>
	</g>
	<g>
	</g>
	<g>
	</g>
	<g>
	</g>
	<g>
	</g>
	<g>
	</g>
	<g>
	</g>
	<g>
	</g>
</g>
</svg>
