<?xml version="1.0" encoding="utf-8"?>
<!-- Generator: Adobe Illustrator 17.0.0, SVG Export Plug-In . SVG Version: 6.00 Build 0)  -->
<!DOCTYPE svg PUBLIC "-//W3C//DTD SVG 1.1//EN" "http://www.w3.org/Graphics/SVG/1.1/DTD/svg11.dtd">
<svg version="1.1" xmlns="http://www.w3.org/2000/svg" xmlns:xlink="http://www.w3.org/1999/xlink" x="0px" y="0px" width="192px"
	 height="64px" viewBox="0 0 192 64" enable-background="new 0 0 192 64" xml:space="preserve">
<g id="Layer_1" display="none">
</g>
<g id="background">
	<linearGradient id="SVGID_1_" gradientUnits="userSpaceOnUse" x1="-212" y1="32" x2="-20" y2="32">
		<stop  offset="0" style="stop-color:#0071BC"/>
		<stop  offset="0.8418" style="stop-color:#29ABE2"/>
	</linearGradient>
	<rect x="-212" fill="url(#SVGID_1_)" width="192" height="64"/>
	<linearGradient id="SVGID_2_" gradientUnits="userSpaceOnUse" x1="0" y1="32" x2="192" y2="32">
		<stop  offset="0" style="stop-color:#0071BC"/>
		<stop  offset="0.8418" style="stop-color:#29ABE2"/>
	</linearGradient>
	<rect fill="url(#SVGID_2_)" width="192" height="64"/>
</g>
<g id="compass">
	<g>
		<path fill="#FEFEFE" d="M-191.376,12.762c4.03-0.002,7.321,3.295,7.315,7.328c-0.006,4.028-3.279,7.302-7.305,7.308
			c-4.034,0.006-7.329-3.28-7.332-7.312C-198.702,16.057-195.41,12.764-191.376,12.762z"/>
		<linearGradient id="SVGID_3_" gradientUnits="userSpaceOnUse" x1="-197.5248" y1="20.0834" x2="-185.2281" y2="20.0834">
			<stop  offset="0" style="stop-color:#0071BC"/>
			<stop  offset="0.8418" style="stop-color:#29ABE2"/>
		</linearGradient>
		<path fill="url(#SVGID_3_)" d="M-185.228,20.074c0.014,3.379-2.765,6.161-6.148,6.157c-3.394-0.004-6.158-2.771-6.148-6.155
			c0.009-3.391,2.727-6.112,6.132-6.141C-188.02,13.908-185.242,16.674-185.228,20.074z"/>
		<linearGradient id="SVGID_4_" gradientUnits="userSpaceOnUse" x1="-195.0051" y1="20.0809" x2="-187.7534" y2="20.0809">
			<stop  offset="0" style="stop-color:#D4145A"/>
			<stop  offset="0.8418" style="stop-color:#ED1E79"/>
		</linearGradient>
		<path fill="url(#SVGID_4_)" d="M-187.753,23.408c0.003,0.361-0.209,0.525-0.563,0.451c-0.367-0.077-0.696-0.247-1.011-0.443
			c-1.112-0.694-2.068-1.573-2.965-2.52c-0.884-0.933-1.701-1.92-2.322-3.053c-0.174-0.317-0.323-0.646-0.38-1.007
			c-0.062-0.394,0.162-0.613,0.555-0.532c0.413,0.085,0.777,0.289,1.124,0.517c1.41,0.926,2.595,2.098,3.68,3.378
			c0.632,0.745,1.212,1.527,1.637,2.413C-187.873,22.872-187.778,23.144-187.753,23.408z"/>
		<path fill="#F2F2F2" d="M-190.361,20.081c0.005,0.544-0.463,1.014-1.017,1.018c-0.546,0.005-1.012-0.462-1.017-1.017
			c-0.004-0.549,0.455-1.008,1.016-1.016C-190.833,19.058-190.367,19.524-190.361,20.081z"/>
	</g>
	<g>
		<path fill="#FEFEFE" d="M55.044,14.348c1.497-0.001,2.72,1.224,2.718,2.723c-0.002,1.496-1.218,2.713-2.714,2.715
			c-1.499,0.002-2.723-1.219-2.724-2.717C52.323,15.573,53.546,14.349,55.044,14.348z"/>
		<linearGradient id="SVGID_5_" gradientUnits="userSpaceOnUse" x1="52.76" y1="17.0685" x2="57.3289" y2="17.0685">
			<stop  offset="0" style="stop-color:#0071BC"/>
			<stop  offset="0.8418" style="stop-color:#29ABE2"/>
		</linearGradient>
		<path fill="url(#SVGID_5_)" d="M57.329,17.065c0.005,1.255-1.027,2.289-2.284,2.288c-1.261-0.001-2.288-1.029-2.284-2.287
			c0.004-1.26,1.013-2.271,2.279-2.282C56.292,14.774,57.324,15.802,57.329,17.065z"/>
		<linearGradient id="SVGID_6_" gradientUnits="userSpaceOnUse" x1="53.6962" y1="17.0676" x2="56.3906" y2="17.0676">
			<stop  offset="0" style="stop-color:#D4145A"/>
			<stop  offset="0.8418" style="stop-color:#ED1E79"/>
		</linearGradient>
		<path fill="url(#SVGID_6_)" d="M56.391,18.304c0.001,0.134-0.078,0.195-0.209,0.167c-0.136-0.029-0.259-0.092-0.376-0.165
			c-0.413-0.258-0.768-0.584-1.102-0.936c-0.328-0.347-0.632-0.713-0.863-1.134c-0.065-0.118-0.12-0.24-0.141-0.374
			c-0.023-0.147,0.06-0.228,0.206-0.198c0.153,0.032,0.289,0.107,0.418,0.192c0.524,0.344,0.964,0.78,1.367,1.255
			c0.235,0.277,0.45,0.567,0.608,0.897C56.346,18.105,56.381,18.206,56.391,18.304z"/>
		<path fill="#F2F2F2" d="M55.422,17.068c0.002,0.202-0.172,0.377-0.378,0.378c-0.203,0.002-0.376-0.172-0.378-0.378
			c-0.002-0.204,0.169-0.375,0.378-0.378C55.246,16.688,55.42,16.861,55.422,17.068z"/>
	</g>
</g>
<g id="oasis_text">
	<g>
		<path fill="#F2F2F2" d="M-179.512,16.834c0-0.587,0.125-1.028,0.375-1.325c0.25-0.296,0.618-0.445,1.105-0.445
			c0.5,0,0.875,0.148,1.125,0.445c0.25,0.297,0.375,0.738,0.375,1.325v3.56c0,0.587-0.125,1.029-0.375,1.325
			c-0.25,0.297-0.625,0.445-1.125,0.445c-0.487,0-0.855-0.148-1.105-0.445c-0.25-0.296-0.375-0.738-0.375-1.325V16.834z
			 M-179.292,20.404c0,1.04,0.42,1.56,1.26,1.56c0.853,0,1.28-0.52,1.28-1.56v-3.58c0-1.04-0.427-1.56-1.28-1.56
			c-0.84,0-1.26,0.52-1.26,1.56V20.404z"/>
		<path fill="#F2F2F2" d="M-175.533,22.114h-0.21v-7h0.31l2.46,6.55v-6.55h0.21v7h-0.27l-2.5-6.68V22.114z"/>
		<path fill="#F2F2F2" d="M-171.962,22.114v-7h0.22v6.79h2.35v0.21H-171.962z"/>
		<path fill="#F2F2F2" d="M-168.413,15.114v7h-0.22v-7H-168.413z"/>
		<path fill="#F2F2F2" d="M-167.403,22.114h-0.21v-7h0.31l2.46,6.55v-6.55h0.21v7h-0.27l-2.5-6.68V22.114z"/>
		<path fill="#F2F2F2" d="M-161.553,18.464v0.2h-2.06v3.24h2.45v0.21h-2.67v-7h2.67v0.21h-2.45v3.14H-161.553z"/>
		<path fill="#F2F2F2" d="M-158.253,20.464l-0.41,1.65h-0.2l1.69-7.01h0.31l1.73,7.01h-0.22l-0.41-1.65H-158.253z M-158.213,20.264
			h2.41l-1.22-4.9L-158.213,20.264z"/>
		<path fill="#F2F2F2" d="M-152.913,15.064c0.267,0,0.493,0.046,0.68,0.14c0.187,0.094,0.338,0.22,0.455,0.38
			c0.117,0.16,0.202,0.348,0.255,0.565c0.053,0.217,0.08,0.445,0.08,0.685v0.54h-0.22v-0.55c0-0.213-0.022-0.415-0.065-0.605
			c-0.043-0.19-0.114-0.355-0.21-0.495c-0.097-0.14-0.225-0.251-0.385-0.335c-0.16-0.083-0.354-0.125-0.58-0.125
			c-0.233,0-0.43,0.042-0.59,0.125c-0.16,0.083-0.289,0.195-0.385,0.335c-0.097,0.14-0.167,0.305-0.21,0.495
			s-0.065,0.392-0.065,0.605v3.58c0,0.213,0.021,0.414,0.065,0.6s0.113,0.35,0.21,0.49c0.097,0.14,0.225,0.252,0.385,0.335
			c0.16,0.083,0.356,0.125,0.59,0.125c0.227,0,0.42-0.042,0.58-0.125c0.16-0.083,0.289-0.195,0.385-0.335
			c0.096-0.14,0.167-0.303,0.21-0.49c0.043-0.187,0.065-0.387,0.065-0.6v-0.77h0.22v0.76c0,0.24-0.026,0.469-0.08,0.685
			c-0.054,0.217-0.139,0.405-0.255,0.565c-0.117,0.16-0.268,0.287-0.455,0.38c-0.187,0.093-0.413,0.14-0.68,0.14
			s-0.492-0.046-0.675-0.14c-0.183-0.093-0.333-0.22-0.45-0.38c-0.117-0.16-0.202-0.348-0.255-0.565
			c-0.054-0.216-0.08-0.445-0.08-0.685v-3.56c0-0.24,0.026-0.468,0.08-0.685c0.053-0.217,0.138-0.405,0.255-0.565
			c0.117-0.16,0.267-0.287,0.45-0.38C-153.405,15.11-153.18,15.064-152.913,15.064z"/>
		<path fill="#F2F2F2" d="M-149.213,15.064c0.267,0,0.493,0.046,0.68,0.14c0.187,0.094,0.338,0.22,0.455,0.38
			c0.117,0.16,0.202,0.348,0.255,0.565c0.053,0.217,0.08,0.445,0.08,0.685v0.54h-0.22v-0.55c0-0.213-0.022-0.415-0.065-0.605
			c-0.043-0.19-0.114-0.355-0.21-0.495c-0.097-0.14-0.225-0.251-0.385-0.335c-0.16-0.083-0.354-0.125-0.58-0.125
			c-0.233,0-0.43,0.042-0.59,0.125c-0.16,0.083-0.289,0.195-0.385,0.335c-0.097,0.14-0.167,0.305-0.21,0.495
			s-0.065,0.392-0.065,0.605v3.58c0,0.213,0.021,0.414,0.065,0.6s0.113,0.35,0.21,0.49c0.097,0.14,0.225,0.252,0.385,0.335
			c0.16,0.083,0.356,0.125,0.59,0.125c0.227,0,0.42-0.042,0.58-0.125c0.16-0.083,0.289-0.195,0.385-0.335
			c0.096-0.14,0.167-0.303,0.21-0.49c0.043-0.187,0.065-0.387,0.065-0.6v-0.77h0.22v0.76c0,0.24-0.026,0.469-0.08,0.685
			c-0.054,0.217-0.139,0.405-0.255,0.565c-0.117,0.16-0.268,0.287-0.455,0.38c-0.187,0.093-0.413,0.14-0.68,0.14
			s-0.492-0.046-0.675-0.14c-0.183-0.093-0.333-0.22-0.45-0.38c-0.117-0.16-0.202-0.348-0.255-0.565
			c-0.054-0.216-0.08-0.445-0.08-0.685v-3.56c0-0.24,0.026-0.468,0.08-0.685c0.053-0.217,0.138-0.405,0.255-0.565
			c0.117-0.16,0.267-0.287,0.45-0.38C-149.705,15.11-149.479,15.064-149.213,15.064z"/>
		<path fill="#F2F2F2" d="M-146.973,16.834c0-0.247,0.026-0.477,0.08-0.69c0.053-0.213,0.14-0.4,0.26-0.56
			c0.12-0.16,0.273-0.287,0.46-0.38c0.187-0.093,0.414-0.14,0.68-0.14s0.495,0.046,0.685,0.14c0.19,0.094,0.345,0.22,0.465,0.38
			c0.12,0.16,0.208,0.347,0.265,0.56c0.057,0.214,0.085,0.444,0.085,0.69v3.56c0,0.247-0.028,0.477-0.085,0.69
			s-0.145,0.4-0.265,0.56c-0.12,0.16-0.275,0.287-0.465,0.38s-0.418,0.14-0.685,0.14s-0.494-0.046-0.68-0.14s-0.34-0.22-0.46-0.38
			c-0.12-0.16-0.207-0.346-0.26-0.56c-0.054-0.213-0.08-0.443-0.08-0.69V16.834z M-146.753,20.404c0,0.213,0.021,0.415,0.065,0.605
			s0.115,0.355,0.215,0.495c0.1,0.14,0.23,0.251,0.39,0.335c0.16,0.083,0.357,0.125,0.59,0.125s0.432-0.042,0.595-0.125
			c0.164-0.083,0.295-0.195,0.395-0.335c0.1-0.14,0.173-0.305,0.22-0.495c0.046-0.19,0.07-0.392,0.07-0.605v-3.58
			c0-0.213-0.023-0.415-0.07-0.605c-0.047-0.19-0.12-0.355-0.22-0.495c-0.1-0.14-0.231-0.251-0.395-0.335
			c-0.163-0.083-0.361-0.125-0.595-0.125s-0.43,0.042-0.59,0.125c-0.16,0.083-0.29,0.195-0.39,0.335
			c-0.1,0.14-0.172,0.305-0.215,0.495s-0.065,0.392-0.065,0.605V20.404z"/>
		<path fill="#F2F2F2" d="M-141.023,22.094h-0.25l-1.73-6.65v6.67h-0.2v-7h0.34l1.72,6.64l1.72-6.64h0.34v7h-0.22v-6.67
			L-141.023,22.094z"/>
		<path fill="#F2F2F2" d="M-138.293,16.834c0-0.247,0.026-0.477,0.08-0.69c0.053-0.213,0.14-0.4,0.26-0.56
			c0.12-0.16,0.273-0.287,0.46-0.38c0.187-0.093,0.414-0.14,0.68-0.14s0.495,0.046,0.685,0.14c0.19,0.094,0.345,0.22,0.465,0.38
			c0.12,0.16,0.208,0.347,0.265,0.56c0.057,0.214,0.085,0.444,0.085,0.69v3.56c0,0.247-0.028,0.477-0.085,0.69
			s-0.145,0.4-0.265,0.56c-0.12,0.16-0.275,0.287-0.465,0.38s-0.418,0.14-0.685,0.14s-0.494-0.046-0.68-0.14s-0.34-0.22-0.46-0.38
			c-0.12-0.16-0.207-0.346-0.26-0.56c-0.054-0.213-0.08-0.443-0.08-0.69V16.834z M-138.073,20.404c0,0.213,0.021,0.415,0.065,0.605
			s0.115,0.355,0.215,0.495c0.1,0.14,0.23,0.251,0.39,0.335c0.16,0.083,0.357,0.125,0.59,0.125s0.432-0.042,0.595-0.125
			c0.164-0.083,0.295-0.195,0.395-0.335c0.1-0.14,0.173-0.305,0.22-0.495c0.046-0.19,0.07-0.392,0.07-0.605v-3.58
			c0-0.213-0.023-0.415-0.07-0.605c-0.047-0.19-0.12-0.355-0.22-0.495c-0.1-0.14-0.231-0.251-0.395-0.335
			c-0.163-0.083-0.361-0.125-0.595-0.125s-0.43,0.042-0.59,0.125c-0.16,0.083-0.29,0.195-0.39,0.335
			c-0.1,0.14-0.172,0.305-0.215,0.495s-0.065,0.392-0.065,0.605V20.404z"/>
		<path fill="#F2F2F2" d="M-133.063,15.114c0.267,0,0.497,0.045,0.69,0.135c0.193,0.09,0.352,0.212,0.475,0.365
			s0.213,0.338,0.27,0.555c0.057,0.216,0.085,0.448,0.085,0.695v3.51c0,0.247-0.028,0.477-0.085,0.69s-0.146,0.396-0.27,0.55
			s-0.28,0.275-0.47,0.365c-0.19,0.09-0.418,0.135-0.685,0.135h-1.47v-7H-133.063z M-133.063,21.904c0.233,0,0.434-0.038,0.6-0.115
			c0.167-0.076,0.302-0.183,0.405-0.32c0.103-0.137,0.178-0.296,0.225-0.48c0.047-0.183,0.07-0.385,0.07-0.605v-3.53
			c0-0.22-0.023-0.423-0.07-0.61c-0.046-0.187-0.123-0.348-0.23-0.485c-0.106-0.137-0.242-0.243-0.405-0.32
			c-0.164-0.077-0.362-0.115-0.595-0.115h-1.24v6.58H-133.063z"/>
		<path fill="#F2F2F2" d="M-130.193,20.464l-0.41,1.65h-0.2l1.69-7.01h0.31l1.73,7.01h-0.22l-0.41-1.65H-130.193z M-130.153,20.264
			h2.41l-1.22-4.9L-130.153,20.264z"/>
		<path fill="#F2F2F2" d="M-125.374,22.114v-6.79h-1.52v-0.21h3.271v0.21h-1.53v6.79H-125.374z"/>
		<path fill="#F2F2F2" d="M-122.793,15.114v7h-0.22v-7H-122.793z"/>
		<path fill="#F2F2F2" d="M-122.004,16.834c0-0.247,0.027-0.477,0.08-0.69c0.054-0.213,0.141-0.4,0.261-0.56
			c0.119-0.16,0.272-0.287,0.46-0.38c0.187-0.093,0.413-0.14,0.68-0.14s0.495,0.046,0.685,0.14c0.19,0.094,0.346,0.22,0.465,0.38
			c0.12,0.16,0.209,0.347,0.266,0.56c0.057,0.214,0.085,0.444,0.085,0.69v3.56c0,0.247-0.028,0.477-0.085,0.69
			s-0.146,0.4-0.266,0.56c-0.119,0.16-0.274,0.287-0.465,0.38c-0.189,0.093-0.418,0.14-0.685,0.14s-0.493-0.046-0.68-0.14
			c-0.188-0.093-0.341-0.22-0.46-0.38c-0.12-0.16-0.207-0.346-0.261-0.56c-0.053-0.213-0.08-0.443-0.08-0.69V16.834z
			 M-121.783,20.404c0,0.213,0.021,0.415,0.064,0.605c0.044,0.19,0.115,0.355,0.215,0.495c0.101,0.14,0.23,0.251,0.391,0.335
			s0.356,0.125,0.59,0.125s0.432-0.042,0.595-0.125s0.295-0.195,0.396-0.335c0.1-0.14,0.173-0.305,0.22-0.495s0.07-0.392,0.07-0.605
			v-3.58c0-0.213-0.023-0.415-0.07-0.605s-0.12-0.355-0.22-0.495c-0.101-0.14-0.232-0.251-0.396-0.335
			c-0.163-0.083-0.361-0.125-0.595-0.125s-0.43,0.042-0.59,0.125c-0.16,0.083-0.29,0.195-0.391,0.335
			c-0.1,0.14-0.171,0.305-0.215,0.495c-0.043,0.19-0.064,0.392-0.064,0.605V20.404z"/>
		<path fill="#F2F2F2" d="M-118.023,22.114h-0.21v-7h0.31l2.46,6.55v-6.55h0.21v7h-0.27l-2.5-6.68V22.114z"/>
		<path fill="#F2F2F2" d="M-111.454,15.064c0.267,0,0.492,0.045,0.676,0.135c0.183,0.09,0.331,0.215,0.444,0.375
			s0.197,0.345,0.25,0.555c0.054,0.21,0.08,0.435,0.08,0.675v0.13h-0.22v-0.14c0-0.207-0.021-0.403-0.065-0.59
			c-0.043-0.187-0.111-0.35-0.205-0.49c-0.093-0.14-0.218-0.25-0.375-0.33c-0.156-0.08-0.348-0.12-0.574-0.12
			c-0.233,0-0.429,0.04-0.585,0.12c-0.157,0.08-0.282,0.19-0.375,0.33c-0.094,0.14-0.162,0.302-0.205,0.485
			c-0.044,0.184-0.065,0.378-0.065,0.585c0,0.3,0.066,0.554,0.2,0.76c0.133,0.207,0.298,0.392,0.495,0.555
			c0.196,0.164,0.411,0.317,0.645,0.46c0.233,0.144,0.448,0.3,0.646,0.47c0.196,0.17,0.361,0.367,0.495,0.59
			c0.133,0.224,0.199,0.492,0.199,0.805c0,0.24-0.026,0.467-0.079,0.68c-0.054,0.213-0.139,0.398-0.256,0.555
			c-0.116,0.157-0.268,0.28-0.455,0.37c-0.187,0.09-0.413,0.135-0.68,0.135s-0.491-0.045-0.675-0.135s-0.333-0.213-0.45-0.37
			c-0.116-0.156-0.201-0.341-0.255-0.555s-0.08-0.44-0.08-0.68v-0.34h0.21v0.35c0,0.213,0.021,0.412,0.065,0.595
			c0.043,0.184,0.114,0.343,0.215,0.48c0.1,0.137,0.229,0.245,0.385,0.325c0.156,0.08,0.352,0.12,0.585,0.12
			c0.227,0,0.42-0.04,0.58-0.12c0.16-0.08,0.29-0.188,0.39-0.325c0.101-0.137,0.172-0.296,0.216-0.48
			c0.043-0.183,0.064-0.382,0.064-0.595c0-0.293-0.066-0.543-0.2-0.75c-0.133-0.207-0.298-0.392-0.495-0.555
			c-0.196-0.164-0.411-0.315-0.645-0.455s-0.448-0.296-0.645-0.47c-0.197-0.173-0.362-0.372-0.495-0.595
			c-0.134-0.224-0.2-0.495-0.2-0.815c0-0.514,0.113-0.928,0.34-1.245C-112.327,15.232-111.96,15.07-111.454,15.064z"/>
		<path fill="#F2F2F2" d="M-107.904,22.114v-6.79h-1.52v-0.21h3.27v0.21h-1.53v6.79H-107.904z"/>
		<path fill="#F2F2F2" d="M-105.334,20.394c0,0.214,0.02,0.414,0.06,0.6c0.04,0.187,0.108,0.354,0.205,0.5
			c0.097,0.147,0.224,0.262,0.38,0.345s0.352,0.125,0.585,0.125s0.429-0.042,0.585-0.125c0.157-0.083,0.283-0.198,0.38-0.345
			c0.097-0.146,0.165-0.313,0.205-0.5c0.04-0.187,0.061-0.386,0.061-0.6v-5.28h0.21v5.27c0,0.24-0.025,0.468-0.075,0.685
			s-0.132,0.405-0.245,0.565s-0.262,0.289-0.445,0.385c-0.183,0.097-0.408,0.145-0.675,0.145s-0.491-0.048-0.675-0.145
			c-0.184-0.096-0.333-0.225-0.45-0.385c-0.116-0.16-0.2-0.348-0.25-0.565s-0.075-0.445-0.075-0.685v-5.27h0.221V20.394z"/>
		<path fill="#F2F2F2" d="M-100.414,15.114c0.267,0,0.496,0.045,0.689,0.135c0.193,0.09,0.352,0.212,0.476,0.365
			c0.123,0.153,0.213,0.338,0.27,0.555c0.057,0.216,0.085,0.448,0.085,0.695v3.51c0,0.247-0.028,0.477-0.085,0.69
			s-0.146,0.396-0.27,0.55c-0.124,0.153-0.28,0.275-0.471,0.365c-0.189,0.09-0.418,0.135-0.685,0.135h-1.47v-7H-100.414z
			 M-100.414,21.904c0.233,0,0.433-0.038,0.6-0.115c0.167-0.076,0.302-0.183,0.405-0.32s0.178-0.296,0.225-0.48
			c0.047-0.183,0.07-0.385,0.07-0.605v-3.53c0-0.22-0.023-0.423-0.07-0.61c-0.047-0.187-0.123-0.348-0.229-0.485
			c-0.107-0.137-0.242-0.243-0.405-0.32s-0.361-0.115-0.595-0.115h-1.24v6.58H-100.414z"/>
		<path fill="#F2F2F2" d="M-95.835,18.464v0.2h-2.06v3.24h2.45v0.21h-2.67v-7h2.67v0.21h-2.45v3.14H-95.835z"/>
		<path fill="#F2F2F2" d="M-94.454,22.114h-0.21v-7h0.31l2.46,6.55v-6.55h0.21v7h-0.27l-2.5-6.68V22.114z"/>
		<path fill="#F2F2F2" d="M-89.574,22.114v-6.79h-1.52v-0.21h3.27v0.21h-1.53v6.79H-89.574z"/>
		<path fill="#F2F2F2" d="M-85.444,15.114v7h-0.22v-7H-85.444z"/>
		<path fill="#F2F2F2" d="M-84.435,22.114h-0.21v-7h0.31l2.46,6.55v-6.55h0.21v7h-0.27l-2.5-6.68V22.114z"/>
		<path fill="#F2F2F2" d="M-78.685,18.634v0.21h-1.96v3.27h-0.22v-7h2.569v0.21h-2.35v3.31H-78.685z"/>
		<path fill="#F2F2F2" d="M-77.545,16.834c0-0.247,0.027-0.477,0.08-0.69c0.054-0.213,0.141-0.4,0.261-0.56
			c0.119-0.16,0.272-0.287,0.46-0.38c0.187-0.093,0.413-0.14,0.68-0.14s0.495,0.046,0.685,0.14c0.19,0.094,0.346,0.22,0.465,0.38
			c0.12,0.16,0.209,0.347,0.266,0.56c0.057,0.214,0.085,0.444,0.085,0.69v3.56c0,0.247-0.028,0.477-0.085,0.69
			s-0.146,0.4-0.266,0.56c-0.119,0.16-0.274,0.287-0.465,0.38c-0.189,0.093-0.418,0.14-0.685,0.14s-0.493-0.046-0.68-0.14
			c-0.188-0.093-0.341-0.22-0.46-0.38c-0.12-0.16-0.207-0.346-0.261-0.56c-0.053-0.213-0.08-0.443-0.08-0.69V16.834z
			 M-77.324,20.404c0,0.213,0.021,0.415,0.064,0.605c0.044,0.19,0.115,0.355,0.215,0.495c0.101,0.14,0.23,0.251,0.391,0.335
			s0.356,0.125,0.59,0.125s0.432-0.042,0.595-0.125s0.295-0.195,0.396-0.335c0.1-0.14,0.173-0.305,0.22-0.495s0.07-0.392,0.07-0.605
			v-3.58c0-0.213-0.023-0.415-0.07-0.605s-0.12-0.355-0.22-0.495c-0.101-0.14-0.232-0.251-0.396-0.335
			c-0.163-0.083-0.361-0.125-0.595-0.125s-0.43,0.042-0.59,0.125c-0.16,0.083-0.29,0.195-0.391,0.335
			c-0.1,0.14-0.171,0.305-0.215,0.495c-0.043,0.19-0.064,0.392-0.064,0.605V20.404z"/>
		<path fill="#F2F2F2" d="M-72.385,15.114c0.52,0,0.89,0.142,1.11,0.425c0.22,0.284,0.33,0.665,0.33,1.145v0.63
			c0,0.433-0.089,0.768-0.266,1.005s-0.458,0.392-0.845,0.465c0.394,0.06,0.677,0.212,0.85,0.455
			c0.174,0.244,0.261,0.559,0.261,0.945v1.1c0,0.133,0.011,0.277,0.034,0.43s0.075,0.287,0.155,0.4h-0.24
			c-0.073-0.113-0.12-0.242-0.14-0.385c-0.021-0.144-0.03-0.292-0.03-0.445v-1.1c0-0.26-0.036-0.473-0.109-0.64
			c-0.074-0.167-0.179-0.298-0.315-0.395s-0.299-0.165-0.485-0.205s-0.393-0.06-0.619-0.06h-0.86v3.23h-0.22v-7H-72.385z
			 M-72.694,18.674c0.239,0,0.454-0.019,0.645-0.055s0.35-0.105,0.48-0.205c0.13-0.1,0.229-0.235,0.3-0.405
			c0.069-0.17,0.104-0.392,0.104-0.665v-0.64c0-0.426-0.092-0.763-0.274-1.01c-0.184-0.247-0.502-0.37-0.955-0.37h-1.16v3.35
			H-72.694z"/>
		<path fill="#F2F2F2" d="M-67.795,22.094h-0.25l-1.73-6.65v6.67h-0.199v-7h0.34l1.72,6.64l1.72-6.64h0.34v7h-0.22v-6.67
			L-67.795,22.094z"/>
		<path fill="#F2F2F2" d="M-64.475,20.464l-0.41,1.65h-0.2l1.689-7.01h0.311l1.729,7.01h-0.22l-0.41-1.65H-64.475z M-64.436,20.264
			h2.41l-1.22-4.9L-64.436,20.264z"/>
		<path fill="#F2F2F2" d="M-59.655,22.114v-6.79h-1.52v-0.21h3.27v0.21h-1.53v6.79H-59.655z"/>
		<path fill="#F2F2F2" d="M-57.075,15.114v7h-0.22v-7H-57.075z"/>
		<path fill="#F2F2F2" d="M-56.286,16.834c0-0.247,0.027-0.477,0.08-0.69c0.054-0.213,0.141-0.4,0.261-0.56
			c0.119-0.16,0.272-0.287,0.46-0.38c0.187-0.093,0.413-0.14,0.68-0.14s0.495,0.046,0.685,0.14c0.19,0.094,0.346,0.22,0.465,0.38
			c0.12,0.16,0.209,0.347,0.266,0.56c0.057,0.214,0.085,0.444,0.085,0.69v3.56c0,0.247-0.028,0.477-0.085,0.69
			s-0.146,0.4-0.266,0.56c-0.119,0.16-0.274,0.287-0.465,0.38c-0.189,0.093-0.418,0.14-0.685,0.14s-0.493-0.046-0.68-0.14
			c-0.188-0.093-0.341-0.22-0.46-0.38c-0.12-0.16-0.207-0.346-0.261-0.56c-0.053-0.213-0.08-0.443-0.08-0.69V16.834z
			 M-56.065,20.404c0,0.213,0.021,0.415,0.064,0.605c0.044,0.19,0.115,0.355,0.215,0.495c0.101,0.14,0.23,0.251,0.391,0.335
			s0.356,0.125,0.59,0.125s0.432-0.042,0.595-0.125s0.295-0.195,0.396-0.335c0.1-0.14,0.173-0.305,0.22-0.495s0.07-0.392,0.07-0.605
			v-3.58c0-0.213-0.023-0.415-0.07-0.605s-0.12-0.355-0.22-0.495c-0.101-0.14-0.232-0.251-0.396-0.335
			c-0.163-0.083-0.361-0.125-0.595-0.125s-0.43,0.042-0.59,0.125c-0.16,0.083-0.29,0.195-0.391,0.335
			c-0.1,0.14-0.171,0.305-0.215,0.495c-0.043,0.19-0.064,0.392-0.064,0.605V20.404z"/>
		<path fill="#F2F2F2" d="M-52.305,22.114h-0.21v-7h0.31l2.46,6.55v-6.55h0.21v7h-0.27l-2.5-6.68V22.114z"/>
		<path fill="#F2F2F2" d="M-45.736,15.064c0.267,0,0.492,0.045,0.676,0.135c0.183,0.09,0.331,0.215,0.444,0.375
			s0.197,0.345,0.25,0.555c0.054,0.21,0.08,0.435,0.08,0.675v0.13h-0.22v-0.14c0-0.207-0.021-0.403-0.065-0.59
			c-0.043-0.187-0.111-0.35-0.205-0.49c-0.093-0.14-0.218-0.25-0.375-0.33c-0.156-0.08-0.348-0.12-0.574-0.12
			c-0.233,0-0.429,0.04-0.585,0.12c-0.157,0.08-0.282,0.19-0.375,0.33c-0.094,0.14-0.162,0.302-0.205,0.485
			c-0.044,0.184-0.065,0.378-0.065,0.585c0,0.3,0.066,0.554,0.2,0.76c0.133,0.207,0.298,0.392,0.495,0.555
			c0.196,0.164,0.411,0.317,0.645,0.46c0.233,0.144,0.448,0.3,0.646,0.47c0.196,0.17,0.361,0.367,0.495,0.59
			c0.133,0.224,0.199,0.492,0.199,0.805c0,0.24-0.026,0.467-0.079,0.68c-0.054,0.213-0.139,0.398-0.256,0.555
			c-0.116,0.157-0.268,0.28-0.455,0.37c-0.187,0.09-0.413,0.135-0.68,0.135s-0.491-0.045-0.675-0.135s-0.333-0.213-0.45-0.37
			c-0.116-0.156-0.201-0.341-0.255-0.555s-0.08-0.44-0.08-0.68v-0.34h0.21v0.35c0,0.213,0.021,0.412,0.065,0.595
			c0.043,0.184,0.114,0.343,0.215,0.48c0.1,0.137,0.229,0.245,0.385,0.325c0.156,0.08,0.352,0.12,0.585,0.12
			c0.227,0,0.42-0.04,0.58-0.12c0.16-0.08,0.29-0.188,0.39-0.325c0.101-0.137,0.172-0.296,0.216-0.48
			c0.043-0.183,0.064-0.382,0.064-0.595c0-0.293-0.066-0.543-0.2-0.75c-0.133-0.207-0.298-0.392-0.495-0.555
			c-0.196-0.164-0.411-0.315-0.645-0.455s-0.448-0.296-0.645-0.47c-0.197-0.173-0.362-0.372-0.495-0.595
			c-0.134-0.224-0.2-0.495-0.2-0.815c0-0.514,0.113-0.928,0.34-1.245C-46.609,15.232-46.242,15.07-45.736,15.064z"/>
		<path fill="#F2F2F2" d="M-41.976,19.284l-1.63-4.17h0.22l1.53,3.87l1.529-3.87h0.23l-1.66,4.17v2.83h-0.22V19.284z"/>
		<path fill="#F2F2F2" d="M-37.966,15.064c0.267,0,0.492,0.045,0.676,0.135c0.183,0.09,0.331,0.215,0.444,0.375
			s0.197,0.345,0.25,0.555c0.054,0.21,0.08,0.435,0.08,0.675v0.13h-0.22v-0.14c0-0.207-0.021-0.403-0.065-0.59
			c-0.043-0.187-0.111-0.35-0.205-0.49c-0.093-0.14-0.218-0.25-0.375-0.33c-0.156-0.08-0.348-0.12-0.574-0.12
			c-0.233,0-0.429,0.04-0.585,0.12c-0.157,0.08-0.282,0.19-0.375,0.33c-0.094,0.14-0.162,0.302-0.205,0.485
			c-0.044,0.184-0.065,0.378-0.065,0.585c0,0.3,0.066,0.554,0.2,0.76c0.133,0.207,0.298,0.392,0.495,0.555
			c0.196,0.164,0.411,0.317,0.645,0.46c0.233,0.144,0.448,0.3,0.646,0.47c0.196,0.17,0.361,0.367,0.495,0.59
			c0.133,0.224,0.199,0.492,0.199,0.805c0,0.24-0.026,0.467-0.079,0.68c-0.054,0.213-0.139,0.398-0.256,0.555
			c-0.116,0.157-0.268,0.28-0.455,0.37c-0.187,0.09-0.413,0.135-0.68,0.135s-0.491-0.045-0.675-0.135s-0.333-0.213-0.45-0.37
			c-0.116-0.156-0.201-0.341-0.255-0.555s-0.08-0.44-0.08-0.68v-0.34h0.21v0.35c0,0.213,0.021,0.412,0.065,0.595
			c0.043,0.184,0.114,0.343,0.215,0.48c0.1,0.137,0.229,0.245,0.385,0.325c0.156,0.08,0.352,0.12,0.585,0.12
			c0.227,0,0.42-0.04,0.58-0.12c0.16-0.08,0.29-0.188,0.39-0.325c0.101-0.137,0.172-0.296,0.216-0.48
			c0.043-0.183,0.064-0.382,0.064-0.595c0-0.293-0.066-0.543-0.2-0.75c-0.133-0.207-0.298-0.392-0.495-0.555
			c-0.196-0.164-0.411-0.315-0.645-0.455s-0.448-0.296-0.645-0.47c-0.197-0.173-0.362-0.372-0.495-0.595
			c-0.134-0.224-0.2-0.495-0.2-0.815c0-0.514,0.113-0.928,0.34-1.245C-38.839,15.232-38.472,15.07-37.966,15.064z"/>
		<path fill="#F2F2F2" d="M-34.416,22.114v-6.79h-1.52v-0.21h3.27v0.21h-1.53v6.79H-34.416z"/>
		<path fill="#F2F2F2" d="M-29.776,18.464v0.2h-2.06v3.24h2.45v0.21h-2.67v-7h2.67v0.21h-2.45v3.14H-29.776z"/>
		<path fill="#F2F2F2" d="M-26.426,22.094h-0.25l-1.73-6.65v6.67h-0.199v-7h0.34l1.72,6.64l1.72-6.64h0.34v7h-0.22v-6.67
			L-26.426,22.094z"/>
	</g>
	<g>
		<path fill="#F2F2F2" d="M52.035,29.524L51.42,32h-0.3l2.535-10.515h0.465L56.715,32h-0.33l-0.614-2.475H52.035z M52.095,29.225
			h3.615l-1.83-7.35L52.095,29.225z"/>
		<path fill="#F2F2F2" d="M60.03,21.424c0.399,0,0.74,0.07,1.02,0.21c0.28,0.141,0.508,0.33,0.683,0.57
			c0.175,0.24,0.303,0.522,0.383,0.848c0.08,0.325,0.12,0.667,0.12,1.027v0.81h-0.33v-0.825c0-0.32-0.033-0.623-0.098-0.907
			c-0.065-0.285-0.17-0.533-0.315-0.743c-0.145-0.21-0.337-0.377-0.577-0.502s-0.53-0.188-0.87-0.188
			c-0.35,0-0.645,0.063-0.885,0.188s-0.433,0.292-0.577,0.502c-0.146,0.21-0.25,0.458-0.315,0.743
			c-0.065,0.285-0.098,0.587-0.098,0.907v5.37c0,0.32,0.032,0.62,0.098,0.9c0.065,0.28,0.17,0.525,0.315,0.735
			c0.145,0.21,0.337,0.378,0.577,0.502c0.24,0.125,0.535,0.188,0.885,0.188c0.34,0,0.63-0.062,0.87-0.188
			c0.24-0.125,0.433-0.292,0.577-0.502c0.146-0.21,0.25-0.455,0.315-0.735c0.064-0.28,0.098-0.58,0.098-0.9v-1.155h0.33v1.14
			c0,0.36-0.04,0.703-0.12,1.027c-0.08,0.325-0.208,0.608-0.383,0.848c-0.175,0.24-0.402,0.43-0.683,0.57
			c-0.279,0.14-0.62,0.21-1.02,0.21c-0.4,0-0.737-0.07-1.013-0.21c-0.275-0.14-0.5-0.33-0.675-0.57
			c-0.175-0.24-0.303-0.522-0.383-0.848c-0.08-0.325-0.12-0.667-0.12-1.027v-5.34c0-0.36,0.04-0.703,0.12-1.027
			c0.08-0.325,0.208-0.608,0.383-0.848c0.175-0.24,0.399-0.43,0.675-0.57C59.293,21.495,59.63,21.424,60.03,21.424z"/>
		<path fill="#F2F2F2" d="M65.58,21.424c0.399,0,0.74,0.07,1.02,0.21c0.28,0.141,0.508,0.33,0.683,0.57
			c0.175,0.24,0.303,0.522,0.383,0.848c0.08,0.325,0.12,0.667,0.12,1.027v0.81h-0.33v-0.825c0-0.32-0.033-0.623-0.098-0.907
			c-0.065-0.285-0.17-0.533-0.315-0.743c-0.145-0.21-0.337-0.377-0.577-0.502s-0.53-0.188-0.87-0.188
			c-0.35,0-0.645,0.063-0.885,0.188s-0.433,0.292-0.577,0.502c-0.146,0.21-0.25,0.458-0.315,0.743
			c-0.065,0.285-0.098,0.587-0.098,0.907v5.37c0,0.32,0.032,0.62,0.098,0.9c0.065,0.28,0.17,0.525,0.315,0.735
			c0.145,0.21,0.337,0.378,0.577,0.502c0.24,0.125,0.535,0.188,0.885,0.188c0.34,0,0.63-0.062,0.87-0.188
			c0.24-0.125,0.433-0.292,0.577-0.502c0.146-0.21,0.25-0.455,0.315-0.735c0.064-0.28,0.098-0.58,0.098-0.9v-1.155h0.33v1.14
			c0,0.36-0.04,0.703-0.12,1.027c-0.08,0.325-0.208,0.608-0.383,0.848c-0.175,0.24-0.402,0.43-0.683,0.57
			c-0.279,0.14-0.62,0.21-1.02,0.21c-0.4,0-0.737-0.07-1.013-0.21c-0.275-0.14-0.5-0.33-0.675-0.57
			c-0.175-0.24-0.303-0.522-0.383-0.848c-0.08-0.325-0.12-0.667-0.12-1.027v-5.34c0-0.36,0.04-0.703,0.12-1.027
			c0.08-0.325,0.208-0.608,0.383-0.848c0.175-0.24,0.399-0.43,0.675-0.57C64.843,21.495,65.18,21.424,65.58,21.424z"/>
		<path fill="#F2F2F2" d="M68.94,24.08c0-0.37,0.04-0.715,0.12-1.035c0.08-0.32,0.21-0.6,0.39-0.84c0.18-0.24,0.41-0.43,0.69-0.57
			c0.279-0.14,0.619-0.21,1.02-0.21s0.742,0.07,1.027,0.21c0.285,0.141,0.518,0.33,0.697,0.57c0.181,0.24,0.313,0.52,0.398,0.84
			c0.084,0.32,0.127,0.665,0.127,1.035v5.34c0,0.37-0.043,0.715-0.127,1.035c-0.086,0.32-0.218,0.6-0.398,0.84
			c-0.18,0.24-0.412,0.43-0.697,0.57c-0.285,0.14-0.627,0.21-1.027,0.21s-0.74-0.07-1.02-0.21c-0.28-0.14-0.511-0.33-0.69-0.57
			c-0.18-0.24-0.31-0.52-0.39-0.84c-0.08-0.32-0.12-0.665-0.12-1.035V24.08z M69.271,29.435c0,0.32,0.032,0.623,0.098,0.907
			c0.064,0.285,0.172,0.533,0.322,0.743c0.149,0.21,0.345,0.377,0.585,0.502c0.24,0.125,0.535,0.188,0.885,0.188
			s0.647-0.062,0.893-0.188c0.245-0.125,0.442-0.292,0.593-0.502c0.149-0.21,0.26-0.458,0.33-0.743
			c0.069-0.285,0.104-0.587,0.104-0.907v-5.37c0-0.32-0.035-0.623-0.104-0.907c-0.07-0.285-0.181-0.533-0.33-0.743
			c-0.15-0.21-0.348-0.377-0.593-0.502s-0.543-0.188-0.893-0.188s-0.645,0.063-0.885,0.188s-0.436,0.292-0.585,0.502
			c-0.15,0.21-0.258,0.458-0.322,0.743c-0.065,0.285-0.098,0.587-0.098,0.907V29.435z"/>
		<path fill="#F2F2F2" d="M77.865,31.97H77.49l-2.596-9.975V32h-0.3V21.5h0.51l2.58,9.96l2.58-9.96h0.51V32h-0.329V21.995
			L77.865,31.97z"/>
		<path fill="#F2F2F2" d="M81.96,24.08c0-0.37,0.04-0.715,0.12-1.035c0.08-0.32,0.21-0.6,0.39-0.84c0.18-0.24,0.41-0.43,0.69-0.57
			c0.279-0.14,0.619-0.21,1.02-0.21s0.742,0.07,1.027,0.21c0.285,0.141,0.518,0.33,0.697,0.57c0.181,0.24,0.313,0.52,0.398,0.84
			c0.084,0.32,0.127,0.665,0.127,1.035v5.34c0,0.37-0.043,0.715-0.127,1.035c-0.086,0.32-0.218,0.6-0.398,0.84
			c-0.18,0.24-0.412,0.43-0.697,0.57c-0.285,0.14-0.627,0.21-1.027,0.21s-0.74-0.07-1.02-0.21c-0.28-0.14-0.511-0.33-0.69-0.57
			c-0.18-0.24-0.31-0.52-0.39-0.84c-0.08-0.32-0.12-0.665-0.12-1.035V24.08z M82.29,29.435c0,0.32,0.032,0.623,0.098,0.907
			c0.064,0.285,0.172,0.533,0.322,0.743c0.149,0.21,0.345,0.377,0.585,0.502c0.24,0.125,0.535,0.188,0.885,0.188
			s0.647-0.062,0.893-0.188c0.245-0.125,0.442-0.292,0.593-0.502c0.149-0.21,0.26-0.458,0.33-0.743
			c0.069-0.285,0.104-0.587,0.104-0.907v-5.37c0-0.32-0.035-0.623-0.104-0.907c-0.07-0.285-0.181-0.533-0.33-0.743
			c-0.15-0.21-0.348-0.377-0.593-0.502s-0.543-0.188-0.893-0.188s-0.645,0.063-0.885,0.188s-0.436,0.292-0.585,0.502
			c-0.15,0.21-0.258,0.458-0.322,0.743c-0.065,0.285-0.098,0.587-0.098,0.907V29.435z"/>
		<path fill="#F2F2F2" d="M89.805,21.5c0.399,0,0.744,0.067,1.035,0.203c0.289,0.135,0.527,0.317,0.712,0.547
			c0.186,0.23,0.32,0.508,0.405,0.833c0.085,0.325,0.127,0.673,0.127,1.042v5.265c0,0.37-0.042,0.715-0.127,1.035
			c-0.085,0.32-0.22,0.595-0.405,0.825c-0.185,0.23-0.42,0.413-0.705,0.547C90.562,31.932,90.22,32,89.819,32h-2.205V21.5H89.805z
			 M89.805,31.685c0.35,0,0.649-0.058,0.899-0.172c0.25-0.115,0.453-0.275,0.607-0.48c0.155-0.205,0.268-0.445,0.338-0.72
			c0.07-0.275,0.105-0.578,0.105-0.908v-5.295c0-0.33-0.035-0.635-0.105-0.915c-0.07-0.28-0.186-0.522-0.345-0.728
			c-0.16-0.205-0.363-0.365-0.607-0.48c-0.245-0.115-0.543-0.172-0.893-0.172h-1.86v9.87H89.805z"/>
		<path fill="#F2F2F2" d="M94.109,29.524L93.494,32h-0.3l2.535-10.515h0.465L98.789,32h-0.33l-0.614-2.475H94.109z M94.169,29.225
			h3.615l-1.83-7.35L94.169,29.225z"/>
		<path fill="#F2F2F2" d="M101.34,32V21.814h-2.28V21.5h4.905v0.315h-2.295V32H101.34z"/>
		<path fill="#F2F2F2" d="M105.21,21.5V32h-0.33V21.5H105.21z"/>
		<path fill="#F2F2F2" d="M106.395,24.08c0-0.37,0.04-0.715,0.12-1.035c0.08-0.32,0.21-0.6,0.39-0.84
			c0.181-0.24,0.41-0.43,0.69-0.57c0.279-0.14,0.62-0.21,1.02-0.21c0.4,0,0.743,0.07,1.027,0.21c0.285,0.141,0.518,0.33,0.698,0.57
			c0.18,0.24,0.313,0.52,0.397,0.84c0.085,0.32,0.127,0.665,0.127,1.035v5.34c0,0.37-0.042,0.715-0.127,1.035
			c-0.085,0.32-0.218,0.6-0.397,0.84c-0.181,0.24-0.413,0.43-0.698,0.57c-0.284,0.14-0.627,0.21-1.027,0.21
			c-0.399,0-0.74-0.07-1.02-0.21c-0.28-0.14-0.51-0.33-0.69-0.57c-0.18-0.24-0.31-0.52-0.39-0.84c-0.08-0.32-0.12-0.665-0.12-1.035
			V24.08z M106.725,29.435c0,0.32,0.032,0.623,0.098,0.907c0.064,0.285,0.172,0.533,0.322,0.743s0.345,0.377,0.585,0.502
			c0.24,0.125,0.535,0.188,0.885,0.188c0.351,0,0.647-0.062,0.893-0.188c0.245-0.125,0.442-0.292,0.593-0.502s0.26-0.458,0.33-0.743
			c0.069-0.285,0.104-0.587,0.104-0.907v-5.37c0-0.32-0.035-0.623-0.104-0.907c-0.07-0.285-0.18-0.533-0.33-0.743
			s-0.348-0.377-0.593-0.502s-0.542-0.188-0.893-0.188c-0.35,0-0.645,0.063-0.885,0.188s-0.435,0.292-0.585,0.502
			s-0.258,0.458-0.322,0.743c-0.065,0.285-0.098,0.587-0.098,0.907V29.435z"/>
		<path fill="#F2F2F2" d="M112.364,32h-0.315V21.5h0.466l3.689,9.825V21.5h0.315V32h-0.405l-3.75-10.02V32z"/>
		<path fill="#F2F2F2" d="M120.044,32V21.5h0.33v10.185h3.525V32H120.044z"/>
		<path fill="#F2F2F2" d="M125.024,24.08c0-0.37,0.04-0.715,0.12-1.035c0.08-0.32,0.21-0.6,0.39-0.84
			c0.181-0.24,0.41-0.43,0.69-0.57c0.279-0.14,0.62-0.21,1.02-0.21c0.4,0,0.743,0.07,1.027,0.21c0.285,0.141,0.518,0.33,0.698,0.57
			c0.18,0.24,0.313,0.52,0.397,0.84c0.085,0.32,0.127,0.665,0.127,1.035v5.34c0,0.37-0.042,0.715-0.127,1.035
			c-0.085,0.32-0.218,0.6-0.397,0.84c-0.181,0.24-0.413,0.43-0.698,0.57c-0.284,0.14-0.627,0.21-1.027,0.21
			c-0.399,0-0.74-0.07-1.02-0.21c-0.28-0.14-0.51-0.33-0.69-0.57c-0.18-0.24-0.31-0.52-0.39-0.84c-0.08-0.32-0.12-0.665-0.12-1.035
			V24.08z M125.354,29.435c0,0.32,0.032,0.623,0.098,0.907c0.064,0.285,0.172,0.533,0.322,0.743s0.345,0.377,0.585,0.502
			c0.24,0.125,0.535,0.188,0.885,0.188c0.351,0,0.647-0.062,0.893-0.188c0.245-0.125,0.442-0.292,0.593-0.502s0.26-0.458,0.33-0.743
			c0.069-0.285,0.104-0.587,0.104-0.907v-5.37c0-0.32-0.035-0.623-0.104-0.907c-0.07-0.285-0.18-0.533-0.33-0.743
			s-0.348-0.377-0.593-0.502s-0.542-0.188-0.893-0.188c-0.35,0-0.645,0.063-0.885,0.188s-0.435,0.292-0.585,0.502
			s-0.258,0.458-0.322,0.743c-0.065,0.285-0.098,0.587-0.098,0.907V29.435z"/>
		<path fill="#F2F2F2" d="M132.854,21.424c0.399,0,0.739,0.07,1.02,0.21c0.28,0.141,0.508,0.33,0.683,0.57
			c0.175,0.24,0.303,0.522,0.383,0.848c0.079,0.325,0.12,0.667,0.12,1.027v0.81h-0.33v-0.825c0-0.32-0.033-0.623-0.098-0.907
			c-0.065-0.285-0.17-0.533-0.315-0.743c-0.145-0.21-0.337-0.377-0.577-0.502s-0.53-0.188-0.87-0.188
			c-0.351,0-0.646,0.063-0.885,0.188c-0.24,0.125-0.433,0.292-0.578,0.502c-0.145,0.21-0.25,0.458-0.314,0.743
			c-0.065,0.285-0.098,0.587-0.098,0.907v5.37c0,0.32,0.032,0.62,0.098,0.9c0.064,0.28,0.17,0.525,0.314,0.735
			c0.146,0.21,0.338,0.378,0.578,0.502c0.239,0.125,0.534,0.188,0.885,0.188c0.34,0,0.63-0.062,0.87-0.188
			c0.24-0.125,0.433-0.292,0.577-0.502c0.146-0.21,0.25-0.455,0.315-0.735c0.064-0.28,0.098-0.58,0.098-0.9v-1.155h0.33v1.14
			c0,0.36-0.041,0.703-0.12,1.027c-0.08,0.325-0.208,0.608-0.383,0.848c-0.175,0.24-0.402,0.43-0.683,0.57
			c-0.28,0.14-0.62,0.21-1.02,0.21c-0.4,0-0.738-0.07-1.013-0.21c-0.275-0.14-0.5-0.33-0.675-0.57
			c-0.176-0.24-0.303-0.522-0.383-0.848c-0.08-0.325-0.12-0.667-0.12-1.027v-5.34c0-0.36,0.04-0.703,0.12-1.027
			c0.08-0.325,0.207-0.608,0.383-0.848c0.175-0.24,0.399-0.43,0.675-0.57C132.116,21.495,132.454,21.424,132.854,21.424z"/>
		<path fill="#F2F2F2" d="M137.099,29.524L136.484,32h-0.301l2.535-10.515h0.465L141.779,32h-0.33l-0.615-2.475H137.099z
			 M137.159,29.225h3.614l-1.829-7.35L137.159,29.225z"/>
		<path fill="#F2F2F2" d="M144.329,32V21.814h-2.28V21.5h4.905v0.315h-2.296V32H144.329z"/>
		<path fill="#F2F2F2" d="M147.854,24.08c0-0.37,0.04-0.715,0.12-1.035c0.08-0.32,0.21-0.6,0.39-0.84
			c0.181-0.24,0.41-0.43,0.69-0.57c0.279-0.14,0.62-0.21,1.02-0.21c0.4,0,0.743,0.07,1.027,0.21c0.285,0.141,0.518,0.33,0.698,0.57
			c0.18,0.24,0.313,0.52,0.397,0.84c0.085,0.32,0.127,0.665,0.127,1.035v5.34c0,0.37-0.042,0.715-0.127,1.035
			c-0.085,0.32-0.218,0.6-0.397,0.84c-0.181,0.24-0.413,0.43-0.698,0.57c-0.284,0.14-0.627,0.21-1.027,0.21
			c-0.399,0-0.74-0.07-1.02-0.21c-0.28-0.14-0.51-0.33-0.69-0.57c-0.18-0.24-0.31-0.52-0.39-0.84c-0.08-0.32-0.12-0.665-0.12-1.035
			V24.08z M148.184,29.435c0,0.32,0.032,0.623,0.098,0.907c0.064,0.285,0.172,0.533,0.322,0.743s0.345,0.377,0.585,0.502
			c0.24,0.125,0.535,0.188,0.885,0.188c0.351,0,0.647-0.062,0.893-0.188c0.245-0.125,0.442-0.292,0.593-0.502s0.26-0.458,0.33-0.743
			c0.069-0.285,0.104-0.587,0.104-0.907v-5.37c0-0.32-0.035-0.623-0.104-0.907c-0.07-0.285-0.18-0.533-0.33-0.743
			s-0.348-0.377-0.593-0.502s-0.542-0.188-0.893-0.188c-0.35,0-0.645,0.063-0.885,0.188s-0.435,0.292-0.585,0.502
			s-0.258,0.458-0.322,0.743c-0.065,0.285-0.098,0.587-0.098,0.907V29.435z"/>
		<path fill="#F2F2F2" d="M155.593,21.5c0.78,0,1.335,0.212,1.665,0.638c0.33,0.425,0.495,0.997,0.495,1.717v0.945
			c0,0.65-0.133,1.153-0.397,1.508s-0.688,0.587-1.268,0.697c0.59,0.09,1.016,0.318,1.275,0.683c0.26,0.365,0.39,0.838,0.39,1.417
			v1.65c0,0.2,0.018,0.415,0.053,0.645c0.035,0.23,0.112,0.43,0.232,0.6h-0.36c-0.109-0.17-0.18-0.362-0.21-0.578
			c-0.029-0.215-0.045-0.437-0.045-0.667v-1.65c0-0.39-0.055-0.71-0.165-0.96c-0.109-0.25-0.268-0.447-0.472-0.592
			c-0.205-0.145-0.448-0.248-0.728-0.308c-0.28-0.06-0.591-0.09-0.931-0.09h-1.29V32h-0.33V21.5H155.593z M155.128,26.839
			c0.36,0,0.683-0.027,0.968-0.083c0.285-0.055,0.525-0.157,0.72-0.307c0.195-0.15,0.346-0.353,0.45-0.608
			c0.105-0.255,0.157-0.587,0.157-0.997v-0.96c0-0.64-0.138-1.145-0.412-1.515c-0.275-0.37-0.753-0.555-1.433-0.555h-1.74v5.025
			H155.128z"/>
	</g>
	<g>
		<path fill="#F2F2F2" d="M58.889,16.185c0-0.148,0.016-0.286,0.047-0.414c0.033-0.128,0.084-0.24,0.156-0.336
			s0.164-0.172,0.275-0.228c0.113-0.056,0.248-0.084,0.408-0.084s0.297,0.028,0.412,0.084c0.113,0.056,0.207,0.132,0.277,0.228
			c0.072,0.096,0.125,0.208,0.16,0.336c0.033,0.128,0.051,0.266,0.051,0.414v2.136c0,0.148-0.018,0.286-0.051,0.414
			c-0.035,0.128-0.088,0.24-0.16,0.336c-0.07,0.096-0.164,0.172-0.277,0.228c-0.115,0.056-0.252,0.084-0.412,0.084
			s-0.295-0.028-0.408-0.084c-0.111-0.056-0.203-0.132-0.275-0.228c-0.072-0.096-0.123-0.208-0.156-0.336
			c-0.031-0.128-0.047-0.266-0.047-0.414V16.185z M59.02,18.327c0,0.128,0.014,0.249,0.039,0.363
			c0.025,0.114,0.068,0.213,0.129,0.297s0.139,0.151,0.234,0.201c0.096,0.05,0.215,0.075,0.354,0.075
			c0.141,0,0.26-0.025,0.357-0.075c0.098-0.05,0.178-0.117,0.236-0.201c0.061-0.084,0.105-0.183,0.133-0.297
			c0.027-0.114,0.041-0.235,0.041-0.363v-2.148c0-0.128-0.014-0.249-0.041-0.363c-0.027-0.114-0.072-0.213-0.133-0.297
			c-0.059-0.084-0.139-0.151-0.236-0.201c-0.098-0.05-0.217-0.075-0.357-0.075c-0.139,0-0.258,0.025-0.354,0.075
			c-0.096,0.05-0.174,0.117-0.234,0.201s-0.104,0.183-0.129,0.297c-0.025,0.114-0.039,0.235-0.039,0.363V18.327z"/>
		<path fill="#F2F2F2" d="M61.492,18.362l-0.246,0.99h-0.121l1.016-4.206h0.186l1.037,4.206h-0.131l-0.246-0.99H61.492z
			 M61.516,18.243h1.445l-0.73-2.94L61.516,18.243z"/>
		<path fill="#F2F2F2" d="M64.695,15.123c0.16,0,0.295,0.027,0.404,0.081c0.111,0.054,0.199,0.129,0.268,0.225
			c0.068,0.096,0.119,0.207,0.15,0.333s0.049,0.261,0.049,0.405v0.078h-0.133v-0.084c0-0.124-0.014-0.242-0.039-0.354
			s-0.066-0.21-0.123-0.294s-0.131-0.15-0.225-0.198s-0.209-0.072-0.346-0.072c-0.141,0-0.256,0.024-0.352,0.072
			c-0.094,0.048-0.168,0.114-0.225,0.198c-0.055,0.084-0.096,0.181-0.123,0.291c-0.025,0.11-0.039,0.227-0.039,0.351
			c0,0.18,0.041,0.333,0.121,0.456c0.08,0.124,0.178,0.235,0.297,0.333c0.117,0.098,0.246,0.19,0.387,0.276s0.27,0.18,0.387,0.282
			s0.217,0.22,0.297,0.354c0.08,0.134,0.121,0.295,0.121,0.483c0,0.144-0.018,0.28-0.049,0.408s-0.084,0.239-0.152,0.333
			c-0.07,0.094-0.162,0.168-0.273,0.222c-0.111,0.054-0.248,0.081-0.408,0.081s-0.295-0.027-0.404-0.081
			c-0.111-0.054-0.201-0.128-0.271-0.222c-0.068-0.094-0.121-0.205-0.152-0.333s-0.049-0.264-0.049-0.408v-0.204h0.127v0.21
			c0,0.128,0.014,0.247,0.039,0.357s0.068,0.206,0.129,0.288s0.137,0.147,0.23,0.195s0.211,0.072,0.352,0.072
			c0.137,0,0.252-0.024,0.348-0.072s0.174-0.113,0.234-0.195s0.104-0.178,0.129-0.288s0.039-0.229,0.039-0.357
			c0-0.176-0.039-0.326-0.119-0.45s-0.18-0.235-0.299-0.333c-0.117-0.098-0.246-0.189-0.387-0.273
			c-0.139-0.084-0.268-0.178-0.387-0.282c-0.117-0.104-0.217-0.223-0.297-0.357c-0.08-0.134-0.119-0.297-0.119-0.489
			c0-0.308,0.068-0.557,0.203-0.747C64.172,15.224,64.391,15.126,64.695,15.123z"/>
		<path fill="#F2F2F2" d="M66.172,15.152v4.2h-0.133v-4.2H66.172z"/>
		<path fill="#F2F2F2" d="M67.521,15.123c0.16,0,0.295,0.027,0.404,0.081c0.111,0.054,0.199,0.129,0.268,0.225
			c0.068,0.096,0.119,0.207,0.15,0.333s0.049,0.261,0.049,0.405v0.078H68.26v-0.084c0-0.124-0.014-0.242-0.039-0.354
			s-0.066-0.21-0.123-0.294s-0.131-0.15-0.225-0.198s-0.209-0.072-0.346-0.072c-0.141,0-0.256,0.024-0.352,0.072
			c-0.094,0.048-0.168,0.114-0.225,0.198c-0.055,0.084-0.096,0.181-0.123,0.291c-0.025,0.11-0.039,0.227-0.039,0.351
			c0,0.18,0.041,0.333,0.121,0.456c0.08,0.124,0.178,0.235,0.297,0.333c0.117,0.098,0.246,0.19,0.387,0.276s0.27,0.18,0.387,0.282
			s0.217,0.22,0.297,0.354c0.08,0.134,0.121,0.295,0.121,0.483c0,0.144-0.018,0.28-0.049,0.408s-0.084,0.239-0.152,0.333
			c-0.07,0.094-0.162,0.168-0.273,0.222c-0.111,0.054-0.248,0.081-0.408,0.081s-0.295-0.027-0.404-0.081
			C67,19.248,66.91,19.173,66.84,19.08c-0.068-0.094-0.121-0.205-0.152-0.333s-0.049-0.264-0.049-0.408v-0.204h0.127v0.21
			c0,0.128,0.014,0.247,0.039,0.357s0.068,0.206,0.129,0.288s0.137,0.147,0.23,0.195s0.211,0.072,0.352,0.072
			c0.137,0,0.252-0.024,0.348-0.072s0.174-0.113,0.234-0.195s0.104-0.178,0.129-0.288s0.039-0.229,0.039-0.357
			c0-0.176-0.039-0.326-0.119-0.45s-0.18-0.235-0.299-0.333c-0.117-0.098-0.246-0.189-0.387-0.273
			c-0.139-0.084-0.268-0.178-0.387-0.282c-0.117-0.104-0.217-0.223-0.297-0.357c-0.08-0.134-0.119-0.297-0.119-0.489
			c0-0.308,0.068-0.557,0.203-0.747C66.998,15.224,67.217,15.126,67.521,15.123z"/>
	</g>
</g>
<g id="sas">
	<g>
		<path fill="#F2F2F2" d="M-135.384,25.163c0.16,0,0.296,0.026,0.408,0.078c0.112,0.052,0.204,0.125,0.276,0.219
			c0.072,0.094,0.125,0.205,0.159,0.333s0.051,0.268,0.051,0.42v0.09h-0.264v-0.108c0-0.112-0.011-0.215-0.033-0.309
			c-0.022-0.094-0.058-0.176-0.108-0.246c-0.05-0.07-0.115-0.125-0.195-0.165c-0.08-0.04-0.176-0.06-0.288-0.06
			c-0.228,0-0.389,0.073-0.483,0.219c-0.094,0.146-0.141,0.331-0.141,0.555c0,0.172,0.037,0.318,0.111,0.438
			c0.074,0.12,0.168,0.229,0.282,0.327c0.114,0.098,0.236,0.192,0.366,0.282s0.252,0.188,0.366,0.294
			c0.114,0.106,0.208,0.227,0.282,0.363c0.074,0.136,0.111,0.3,0.111,0.492c0,0.152-0.017,0.292-0.051,0.42
			c-0.034,0.128-0.088,0.239-0.162,0.333c-0.074,0.094-0.168,0.167-0.282,0.219s-0.251,0.078-0.411,0.078
			c-0.16,0-0.297-0.026-0.411-0.078c-0.114-0.052-0.208-0.125-0.282-0.219c-0.074-0.094-0.128-0.205-0.162-0.333
			c-0.034-0.128-0.051-0.268-0.051-0.42v-0.216h0.264v0.234c0,0.224,0.048,0.409,0.144,0.555c0.096,0.146,0.26,0.219,0.492,0.219
			s0.396-0.073,0.492-0.219c0.096-0.146,0.144-0.331,0.144-0.555c0-0.168-0.037-0.312-0.111-0.432
			c-0.074-0.12-0.168-0.229-0.282-0.327c-0.114-0.098-0.236-0.191-0.366-0.279c-0.13-0.088-0.252-0.185-0.366-0.291
			c-0.114-0.106-0.208-0.228-0.282-0.366c-0.074-0.138-0.111-0.305-0.111-0.501c0-0.316,0.071-0.568,0.213-0.756
			C-135.923,25.263-135.696,25.167-135.384,25.163z"/>
		<path fill="#F2F2F2" d="M-133.332,29.399v-3.948h-0.852v-0.252h1.986v0.252h-0.858v3.948H-133.332z"/>
		<path fill="#F2F2F2" d="M-131.592,28.385c0,0.112,0.011,0.217,0.033,0.315c0.022,0.098,0.058,0.183,0.108,0.255
			c0.05,0.072,0.115,0.128,0.195,0.168s0.178,0.06,0.294,0.06c0.116,0,0.214-0.02,0.294-0.06c0.08-0.04,0.145-0.096,0.195-0.168
			c0.05-0.072,0.086-0.157,0.108-0.255c0.022-0.098,0.033-0.203,0.033-0.315v-3.186h0.258v3.174c0,0.152-0.016,0.292-0.048,0.42
			c-0.032,0.128-0.084,0.24-0.156,0.336c-0.072,0.096-0.165,0.171-0.279,0.225c-0.114,0.054-0.251,0.081-0.411,0.081
			s-0.297-0.027-0.411-0.081c-0.114-0.054-0.207-0.129-0.279-0.225s-0.125-0.208-0.159-0.336c-0.034-0.128-0.051-0.268-0.051-0.42
			v-3.174h0.276V28.385z"/>
		<path fill="#F2F2F2" d="M-128.676,25.199c0.16,0,0.299,0.025,0.417,0.075c0.118,0.05,0.215,0.121,0.291,0.213
			c0.076,0.092,0.132,0.202,0.168,0.33s0.054,0.27,0.054,0.426v2.112c0,0.156-0.018,0.298-0.054,0.426
			c-0.036,0.128-0.092,0.238-0.168,0.33c-0.076,0.092-0.173,0.163-0.291,0.213c-0.118,0.05-0.257,0.075-0.417,0.075h-0.924v-4.2
			H-128.676z M-128.682,29.147c0.236,0,0.405-0.072,0.507-0.216c0.102-0.144,0.153-0.332,0.153-0.564v-2.136
			c0-0.232-0.052-0.42-0.156-0.564s-0.272-0.216-0.504-0.216h-0.642v3.696H-128.682z"/>
		<path fill="#F2F2F2" d="M-125.868,27.143v0.252h-1.146v1.752h1.38v0.252h-1.656v-4.2h1.656v0.252h-1.38v1.692H-125.868z"/>
		<path fill="#F2F2F2" d="M-124.932,29.399h-0.252v-4.2h0.36l1.26,3.546v-3.546h0.252v4.2h-0.306l-1.314-3.744V29.399z"/>
		<path fill="#F2F2F2" d="M-122.13,29.399v-3.948h-0.852v-0.252h1.986v0.252h-0.858v3.948H-122.13z"/>
		<path fill="#F2F2F2" d="M-119.322,28.469l-0.21,0.93h-0.252l0.918-4.206h0.402l0.936,4.206h-0.276l-0.21-0.93H-119.322z
			 M-119.28,28.229h1.224l-0.618-2.718L-119.28,28.229z"/>
		<path fill="#F2F2F2" d="M-116.184,25.199c0.16,0,0.299,0.025,0.417,0.075c0.118,0.05,0.215,0.121,0.291,0.213
			c0.076,0.092,0.132,0.202,0.168,0.33s0.054,0.27,0.054,0.426v2.112c0,0.156-0.018,0.298-0.054,0.426
			c-0.036,0.128-0.092,0.238-0.168,0.33c-0.076,0.092-0.173,0.163-0.291,0.213c-0.118,0.05-0.257,0.075-0.417,0.075h-0.924v-4.2
			H-116.184z M-116.19,29.147c0.236,0,0.405-0.072,0.507-0.216c0.102-0.144,0.153-0.332,0.153-0.564v-2.136
			c0-0.232-0.052-0.42-0.156-0.564s-0.272-0.216-0.504-0.216h-0.642v3.696H-116.19z"/>
		<path fill="#F2F2F2" d="M-114.582,25.199l0.852,3.882l0.852-3.882h0.258l-0.911,4.2h-0.408l-0.924-4.2H-114.582z"/>
		<path fill="#F2F2F2" d="M-111.924,25.199v4.2h-0.276v-4.2H-111.924z"/>
		<path fill="#F2F2F2" d="M-110.568,25.163c0.16,0,0.296,0.026,0.408,0.078c0.111,0.052,0.203,0.125,0.275,0.219
			c0.072,0.094,0.125,0.205,0.159,0.333s0.051,0.268,0.051,0.42v0.09h-0.264v-0.108c0-0.112-0.011-0.215-0.033-0.309
			c-0.022-0.094-0.058-0.176-0.108-0.246c-0.049-0.07-0.115-0.125-0.194-0.165c-0.08-0.04-0.177-0.06-0.288-0.06
			c-0.229,0-0.389,0.073-0.482,0.219c-0.095,0.146-0.142,0.331-0.142,0.555c0,0.172,0.037,0.318,0.11,0.438
			c0.074,0.12,0.168,0.229,0.283,0.327c0.113,0.098,0.235,0.192,0.365,0.282s0.252,0.188,0.366,0.294s0.208,0.227,0.282,0.363
			c0.074,0.136,0.111,0.3,0.111,0.492c0,0.152-0.018,0.292-0.052,0.42c-0.034,0.128-0.088,0.239-0.161,0.333
			c-0.074,0.094-0.169,0.167-0.283,0.219c-0.113,0.052-0.25,0.078-0.41,0.078s-0.297-0.026-0.411-0.078s-0.208-0.125-0.282-0.219
			c-0.074-0.094-0.128-0.205-0.162-0.333c-0.033-0.128-0.051-0.268-0.051-0.42v-0.216h0.264v0.234c0,0.224,0.049,0.409,0.145,0.555
			s0.26,0.219,0.492,0.219c0.231,0,0.396-0.073,0.492-0.219c0.096-0.146,0.144-0.331,0.144-0.555c0-0.168-0.037-0.312-0.111-0.432
			c-0.073-0.12-0.168-0.229-0.282-0.327c-0.113-0.098-0.236-0.191-0.365-0.279c-0.131-0.088-0.252-0.185-0.366-0.291
			c-0.114-0.106-0.208-0.228-0.282-0.366c-0.074-0.138-0.111-0.305-0.111-0.501c0-0.316,0.071-0.568,0.213-0.756
			C-111.107,25.263-110.881,25.167-110.568,25.163z"/>
		<path fill="#F2F2F2" d="M-109.242,26.225c0-0.152,0.018-0.293,0.054-0.423c0.036-0.13,0.091-0.242,0.165-0.336
			c0.074-0.094,0.169-0.168,0.285-0.222c0.115-0.054,0.254-0.081,0.414-0.081s0.299,0.027,0.417,0.081
			c0.118,0.054,0.215,0.128,0.291,0.222c0.075,0.094,0.132,0.206,0.168,0.336c0.036,0.13,0.054,0.271,0.054,0.423v2.148
			c0,0.152-0.018,0.293-0.054,0.423s-0.093,0.242-0.168,0.336c-0.076,0.094-0.173,0.168-0.291,0.222
			c-0.118,0.054-0.257,0.081-0.417,0.081s-0.299-0.027-0.414-0.081c-0.116-0.054-0.211-0.128-0.285-0.222
			c-0.074-0.094-0.129-0.206-0.165-0.336s-0.054-0.271-0.054-0.423V26.225z M-108.967,28.391c0,0.228,0.049,0.417,0.147,0.567
			s0.263,0.225,0.495,0.225s0.398-0.075,0.501-0.225s0.153-0.339,0.153-0.567v-2.184c0-0.228-0.051-0.417-0.153-0.567
			c-0.103-0.15-0.269-0.225-0.501-0.225s-0.396,0.075-0.495,0.225c-0.099,0.15-0.147,0.339-0.147,0.567V28.391z"/>
		<path fill="#F2F2F2" d="M-106.063,25.199c0.32,0,0.551,0.084,0.69,0.252c0.14,0.168,0.21,0.4,0.21,0.696v0.366
			c0,0.488-0.202,0.778-0.605,0.87c0.215,0.048,0.37,0.146,0.465,0.294c0.094,0.148,0.141,0.336,0.141,0.564v0.654
			c0,0.088,0.006,0.177,0.018,0.267c0.012,0.09,0.04,0.169,0.084,0.237h-0.287c-0.037-0.064-0.061-0.135-0.072-0.213
			s-0.018-0.175-0.018-0.291v-0.66c0-0.14-0.019-0.256-0.055-0.348c-0.036-0.092-0.089-0.165-0.159-0.219
			c-0.069-0.054-0.153-0.092-0.249-0.114c-0.096-0.021-0.203-0.033-0.324-0.033h-0.438v1.878h-0.275v-4.2H-106.063z
			 M-106.219,27.269c0.125,0,0.234-0.01,0.33-0.03c0.097-0.02,0.178-0.056,0.244-0.108c0.065-0.052,0.116-0.124,0.152-0.216
			c0.036-0.092,0.055-0.208,0.055-0.348v-0.396c0-0.228-0.049-0.405-0.145-0.531s-0.258-0.189-0.486-0.189h-0.594v1.818H-106.219z"
			/>
		<path fill="#F2F2F2" d="M-103.818,27.785l-0.941-2.586h0.287l0.805,2.208l0.804-2.208h0.271l-0.949,2.586v1.614h-0.275V27.785z"/>
		<path fill="#F2F2F2" d="M-100.387,25.163c0.16,0,0.297,0.026,0.408,0.078c0.111,0.052,0.204,0.125,0.275,0.219
			c0.072,0.094,0.125,0.205,0.16,0.333c0.033,0.128,0.051,0.268,0.051,0.42v0.09h-0.264v-0.108c0-0.112-0.012-0.215-0.033-0.309
			c-0.022-0.094-0.059-0.176-0.108-0.246c-0.05-0.07-0.115-0.125-0.194-0.165c-0.08-0.04-0.177-0.06-0.289-0.06
			c-0.228,0-0.389,0.073-0.482,0.219s-0.141,0.331-0.141,0.555c0,0.172,0.037,0.318,0.11,0.438c0.074,0.12,0.168,0.229,0.282,0.327
			c0.113,0.098,0.236,0.192,0.365,0.282c0.131,0.09,0.252,0.188,0.367,0.294c0.113,0.106,0.207,0.227,0.281,0.363
			c0.074,0.136,0.111,0.3,0.111,0.492c0,0.152-0.018,0.292-0.051,0.42c-0.034,0.128-0.088,0.239-0.162,0.333
			c-0.074,0.094-0.168,0.167-0.282,0.219s-0.251,0.078-0.411,0.078s-0.297-0.026-0.41-0.078c-0.115-0.052-0.209-0.125-0.283-0.219
			c-0.074-0.094-0.127-0.205-0.162-0.333c-0.033-0.128-0.051-0.268-0.051-0.42v-0.216h0.264v0.234c0,0.224,0.049,0.409,0.145,0.555
			s0.26,0.219,0.492,0.219s0.396-0.073,0.492-0.219s0.145-0.331,0.145-0.555c0-0.168-0.037-0.312-0.111-0.432
			c-0.074-0.12-0.168-0.229-0.282-0.327s-0.236-0.191-0.366-0.279c-0.13-0.088-0.252-0.185-0.365-0.291
			c-0.115-0.106-0.209-0.228-0.283-0.366c-0.074-0.138-0.11-0.305-0.11-0.501c0-0.316,0.071-0.568,0.213-0.756
			C-100.926,25.263-100.698,25.167-100.387,25.163z"/>
		<path fill="#F2F2F2" d="M-97.621,27.143v0.252h-1.146v1.752h1.38v0.252h-1.656v-4.2h1.656v0.252h-1.38v1.692H-97.621z"/>
		<path fill="#F2F2F2" d="M-96.061,25.199c0.32,0,0.55,0.084,0.689,0.252c0.141,0.168,0.211,0.4,0.211,0.696v0.366
			c0,0.488-0.203,0.778-0.606,0.87c0.216,0.048,0.37,0.146,0.465,0.294c0.094,0.148,0.142,0.336,0.142,0.564v0.654
			c0,0.088,0.006,0.177,0.018,0.267c0.012,0.09,0.039,0.169,0.084,0.237h-0.288c-0.036-0.064-0.06-0.135-0.072-0.213
			c-0.012-0.078-0.018-0.175-0.018-0.291v-0.66c0-0.14-0.019-0.256-0.054-0.348c-0.037-0.092-0.09-0.165-0.16-0.219
			c-0.069-0.054-0.152-0.092-0.248-0.114c-0.096-0.021-0.204-0.033-0.324-0.033h-0.438v1.878h-0.276v-4.2H-96.061z M-96.217,27.269
			c0.124,0,0.234-0.01,0.33-0.03s0.177-0.056,0.243-0.108c0.065-0.052,0.116-0.124,0.153-0.216c0.035-0.092,0.054-0.208,0.054-0.348
			v-0.396c0-0.228-0.048-0.405-0.144-0.531c-0.097-0.126-0.259-0.189-0.486-0.189h-0.594v1.818H-96.217z"/>
		<path fill="#F2F2F2" d="M-94.41,25.199l0.852,3.882l0.852-3.882h0.258l-0.911,4.2h-0.408l-0.924-4.2H-94.41z"/>
		<path fill="#F2F2F2" d="M-91.752,25.199v4.2h-0.276v-4.2H-91.752z"/>
		<path fill="#F2F2F2" d="M-90.385,25.163c0.16,0,0.297,0.027,0.411,0.081c0.114,0.054,0.208,0.128,0.282,0.222
			c0.074,0.094,0.127,0.206,0.162,0.336c0.033,0.13,0.051,0.271,0.051,0.423v0.348h-0.264v-0.366c0-0.112-0.012-0.216-0.033-0.312
			c-0.022-0.096-0.06-0.18-0.111-0.252c-0.053-0.072-0.118-0.128-0.197-0.168c-0.08-0.04-0.179-0.06-0.295-0.06
			c-0.115,0-0.214,0.02-0.294,0.06s-0.146,0.096-0.198,0.168c-0.052,0.072-0.089,0.156-0.111,0.252
			c-0.021,0.096-0.032,0.2-0.032,0.312v2.184c0,0.112,0.011,0.216,0.032,0.312c0.022,0.096,0.06,0.179,0.111,0.249
			c0.053,0.07,0.118,0.125,0.198,0.165c0.08,0.04,0.179,0.06,0.294,0.06c0.116,0,0.215-0.02,0.295-0.06
			c0.079-0.04,0.145-0.095,0.197-0.165c0.052-0.07,0.089-0.153,0.111-0.249c0.021-0.096,0.033-0.2,0.033-0.312v-0.498h0.264v0.48
			c0,0.152-0.018,0.293-0.051,0.423c-0.035,0.13-0.088,0.242-0.162,0.336c-0.074,0.094-0.168,0.168-0.282,0.222
			c-0.114,0.054-0.251,0.081-0.411,0.081s-0.297-0.027-0.411-0.081c-0.114-0.054-0.208-0.128-0.282-0.222
			c-0.074-0.094-0.127-0.206-0.162-0.336c-0.033-0.13-0.051-0.271-0.051-0.423v-2.148c0-0.152,0.018-0.293,0.051-0.423
			c0.035-0.13,0.088-0.242,0.162-0.336c0.074-0.094,0.168-0.168,0.282-0.222C-90.682,25.19-90.545,25.163-90.385,25.163z"/>
		<path fill="#F2F2F2" d="M-87.606,27.143v0.252h-1.146v1.752h1.379v0.252h-1.655v-4.2h1.655v0.252h-1.379v1.692H-87.606z"/>
		<path fill="#F2F2F2" d="M-86.047,25.163c0.16,0,0.297,0.026,0.408,0.078c0.111,0.052,0.204,0.125,0.275,0.219
			c0.072,0.094,0.125,0.205,0.16,0.333c0.033,0.128,0.051,0.268,0.051,0.42v0.09h-0.264v-0.108c0-0.112-0.012-0.215-0.033-0.309
			c-0.022-0.094-0.059-0.176-0.108-0.246c-0.05-0.07-0.115-0.125-0.194-0.165c-0.08-0.04-0.177-0.06-0.289-0.06
			c-0.228,0-0.389,0.073-0.482,0.219s-0.141,0.331-0.141,0.555c0,0.172,0.037,0.318,0.11,0.438c0.074,0.12,0.168,0.229,0.282,0.327
			c0.113,0.098,0.236,0.192,0.365,0.282c0.131,0.09,0.252,0.188,0.367,0.294c0.113,0.106,0.207,0.227,0.281,0.363
			c0.074,0.136,0.111,0.3,0.111,0.492c0,0.152-0.018,0.292-0.051,0.42c-0.034,0.128-0.088,0.239-0.162,0.333
			c-0.074,0.094-0.168,0.167-0.282,0.219s-0.251,0.078-0.411,0.078s-0.297-0.026-0.41-0.078c-0.115-0.052-0.209-0.125-0.283-0.219
			c-0.074-0.094-0.127-0.205-0.162-0.333c-0.033-0.128-0.051-0.268-0.051-0.42v-0.216h0.264v0.234c0,0.224,0.049,0.409,0.145,0.555
			s0.26,0.219,0.492,0.219s0.396-0.073,0.492-0.219s0.145-0.331,0.145-0.555c0-0.168-0.037-0.312-0.111-0.432
			c-0.074-0.12-0.168-0.229-0.282-0.327s-0.236-0.191-0.366-0.279c-0.13-0.088-0.252-0.185-0.365-0.291
			c-0.115-0.106-0.209-0.228-0.283-0.366c-0.074-0.138-0.11-0.305-0.11-0.501c0-0.316,0.071-0.568,0.213-0.756
			C-86.586,25.263-86.358,25.167-86.047,25.163z"/>
	</g>
	<g display="none">
		<path display="inline" fill="#F2F2F2" d="M76.616,25.163c0.159,0,0.296,0.026,0.407,0.078c0.112,0.052,0.205,0.125,0.276,0.219
			c0.072,0.094,0.125,0.205,0.159,0.333s0.051,0.268,0.051,0.42v0.09h-0.264v-0.108c0-0.112-0.012-0.215-0.033-0.309
			c-0.021-0.094-0.059-0.176-0.107-0.246c-0.051-0.07-0.115-0.125-0.195-0.165s-0.176-0.06-0.288-0.06
			c-0.228,0-0.39,0.073-0.483,0.219s-0.141,0.331-0.141,0.555c0,0.172,0.037,0.318,0.111,0.438s0.168,0.229,0.281,0.327
			c0.114,0.098,0.236,0.192,0.366,0.282s0.252,0.188,0.366,0.294c0.113,0.106,0.208,0.227,0.281,0.363
			c0.074,0.136,0.111,0.3,0.111,0.492c0,0.152-0.017,0.292-0.051,0.42c-0.033,0.128-0.088,0.239-0.162,0.333
			c-0.074,0.094-0.168,0.167-0.281,0.219c-0.114,0.052-0.252,0.078-0.412,0.078c-0.159,0-0.297-0.026-0.41-0.078
			c-0.114-0.052-0.208-0.125-0.282-0.219c-0.074-0.094-0.128-0.205-0.162-0.333c-0.034-0.128-0.051-0.268-0.051-0.42v-0.216h0.264
			v0.234c0,0.224,0.048,0.409,0.144,0.555c0.097,0.146,0.261,0.219,0.492,0.219c0.232,0,0.396-0.073,0.492-0.219
			s0.145-0.331,0.145-0.555c0-0.168-0.037-0.312-0.111-0.432c-0.074-0.12-0.168-0.229-0.281-0.327
			c-0.115-0.098-0.236-0.191-0.367-0.279c-0.129-0.088-0.252-0.185-0.365-0.291c-0.114-0.106-0.209-0.228-0.282-0.366
			c-0.074-0.138-0.11-0.305-0.11-0.501c0-0.316,0.07-0.568,0.213-0.756C76.077,25.263,76.305,25.167,76.616,25.163z"/>
		<path display="inline" fill="#F2F2F2" d="M78.668,29.399v-3.948h-0.852v-0.252h1.985v0.252h-0.858v3.948H78.668z"/>
		<path display="inline" fill="#F2F2F2" d="M80.408,28.385c0,0.112,0.011,0.217,0.033,0.315c0.021,0.098,0.057,0.183,0.107,0.255
			c0.05,0.072,0.115,0.128,0.195,0.168s0.178,0.06,0.293,0.06c0.117,0,0.215-0.02,0.295-0.06s0.145-0.096,0.195-0.168
			c0.049-0.072,0.086-0.157,0.107-0.255c0.021-0.098,0.033-0.203,0.033-0.315v-3.186h0.258v3.174c0,0.152-0.016,0.292-0.048,0.42
			s-0.084,0.24-0.156,0.336c-0.071,0.096-0.165,0.171-0.278,0.225c-0.115,0.054-0.252,0.081-0.412,0.081s-0.297-0.027-0.41-0.081
			c-0.114-0.054-0.207-0.129-0.279-0.225s-0.125-0.208-0.159-0.336s-0.051-0.268-0.051-0.42v-3.174h0.276V28.385z"/>
		<path display="inline" fill="#F2F2F2" d="M83.324,25.199c0.16,0,0.299,0.025,0.417,0.075c0.118,0.05,0.215,0.121,0.291,0.213
			c0.075,0.092,0.132,0.202,0.168,0.33s0.054,0.27,0.054,0.426v2.112c0,0.156-0.018,0.298-0.054,0.426
			c-0.036,0.128-0.093,0.238-0.168,0.33c-0.076,0.092-0.173,0.163-0.291,0.213c-0.118,0.05-0.257,0.075-0.417,0.075H82.4v-4.2
			H83.324z M83.318,29.147c0.236,0,0.404-0.072,0.507-0.216c0.103-0.144,0.153-0.332,0.153-0.564v-2.136
			c0-0.232-0.053-0.42-0.156-0.564s-0.271-0.216-0.504-0.216h-0.643v3.696H83.318z"/>
		<path display="inline" fill="#F2F2F2" d="M86.132,27.143v0.252h-1.146v1.752h1.379v0.252H84.71v-4.2h1.655v0.252h-1.379v1.692
			H86.132z"/>
		<path display="inline" fill="#F2F2F2" d="M87.068,29.399h-0.252v-4.2h0.359l1.26,3.546v-3.546h0.252v4.2h-0.306l-1.313-3.744
			V29.399z"/>
		<path display="inline" fill="#F2F2F2" d="M89.87,29.399v-3.948h-0.853v-0.252h1.986v0.252h-0.857v3.948H89.87z"/>
		<path display="inline" fill="#F2F2F2" d="M92.678,28.469l-0.21,0.93h-0.252l0.918-4.206h0.401l0.937,4.206h-0.276l-0.209-0.93
			H92.678z M92.72,28.229h1.224l-0.617-2.718L92.72,28.229z"/>
		<path display="inline" fill="#F2F2F2" d="M95.816,25.199c0.159,0,0.299,0.025,0.416,0.075c0.118,0.05,0.215,0.121,0.291,0.213
			c0.076,0.092,0.133,0.202,0.168,0.33c0.037,0.128,0.055,0.27,0.055,0.426v2.112c0,0.156-0.018,0.298-0.055,0.426
			c-0.035,0.128-0.092,0.238-0.168,0.33c-0.076,0.092-0.173,0.163-0.291,0.213c-0.117,0.05-0.257,0.075-0.416,0.075h-0.924v-4.2
			H95.816z M95.811,29.147c0.235,0,0.404-0.072,0.506-0.216c0.103-0.144,0.153-0.332,0.153-0.564v-2.136
			c0-0.232-0.052-0.42-0.155-0.564c-0.104-0.144-0.272-0.216-0.504-0.216h-0.643v3.696H95.811z"/>
		<path display="inline" fill="#F2F2F2" d="M97.418,25.199l0.852,3.882l0.852-3.882h0.258l-0.911,4.2H98.06l-0.924-4.2H97.418z"/>
		<path display="inline" fill="#F2F2F2" d="M100.076,25.199v4.2H99.8v-4.2H100.076z"/>
		<path display="inline" fill="#F2F2F2" d="M101.432,25.163c0.16,0,0.296,0.026,0.408,0.078c0.111,0.052,0.203,0.125,0.275,0.219
			c0.072,0.094,0.125,0.205,0.159,0.333s0.051,0.268,0.051,0.42v0.09h-0.264v-0.108c0-0.112-0.011-0.215-0.033-0.309
			c-0.022-0.094-0.058-0.176-0.108-0.246c-0.049-0.07-0.115-0.125-0.194-0.165c-0.08-0.04-0.177-0.06-0.288-0.06
			c-0.229,0-0.389,0.073-0.482,0.219c-0.095,0.146-0.142,0.331-0.142,0.555c0,0.172,0.037,0.318,0.11,0.438
			c0.074,0.12,0.168,0.229,0.283,0.327c0.113,0.098,0.235,0.192,0.365,0.282s0.252,0.188,0.366,0.294s0.208,0.227,0.282,0.363
			c0.074,0.136,0.111,0.3,0.111,0.492c0,0.152-0.018,0.292-0.052,0.42c-0.034,0.128-0.088,0.239-0.161,0.333
			c-0.074,0.094-0.169,0.167-0.283,0.219c-0.113,0.052-0.25,0.078-0.41,0.078s-0.297-0.026-0.411-0.078s-0.208-0.125-0.282-0.219
			c-0.074-0.094-0.128-0.205-0.162-0.333c-0.033-0.128-0.051-0.268-0.051-0.42v-0.216h0.264v0.234c0,0.224,0.049,0.409,0.145,0.555
			s0.26,0.219,0.492,0.219c0.231,0,0.396-0.073,0.492-0.219c0.096-0.146,0.144-0.331,0.144-0.555c0-0.168-0.037-0.312-0.111-0.432
			c-0.073-0.12-0.168-0.229-0.282-0.327c-0.113-0.098-0.236-0.191-0.365-0.279c-0.131-0.088-0.252-0.185-0.366-0.291
			c-0.114-0.106-0.208-0.228-0.282-0.366c-0.074-0.138-0.111-0.305-0.111-0.501c0-0.316,0.071-0.568,0.213-0.756
			C100.893,25.263,101.119,25.167,101.432,25.163z"/>
		<path display="inline" fill="#F2F2F2" d="M102.758,26.225c0-0.152,0.018-0.293,0.054-0.423c0.036-0.13,0.091-0.242,0.165-0.336
			c0.074-0.094,0.169-0.168,0.285-0.222c0.115-0.054,0.254-0.081,0.414-0.081s0.299,0.027,0.417,0.081
			c0.118,0.054,0.215,0.128,0.291,0.222c0.075,0.094,0.132,0.206,0.168,0.336c0.036,0.13,0.054,0.271,0.054,0.423v2.148
			c0,0.152-0.018,0.293-0.054,0.423s-0.093,0.242-0.168,0.336c-0.076,0.094-0.173,0.168-0.291,0.222
			c-0.118,0.054-0.257,0.081-0.417,0.081s-0.299-0.027-0.414-0.081c-0.116-0.054-0.211-0.128-0.285-0.222
			c-0.074-0.094-0.129-0.206-0.165-0.336s-0.054-0.271-0.054-0.423V26.225z M103.033,28.391c0,0.228,0.049,0.417,0.147,0.567
			s0.263,0.225,0.495,0.225s0.398-0.075,0.501-0.225s0.153-0.339,0.153-0.567v-2.184c0-0.228-0.051-0.417-0.153-0.567
			c-0.103-0.15-0.269-0.225-0.501-0.225s-0.396,0.075-0.495,0.225c-0.099,0.15-0.147,0.339-0.147,0.567V28.391z"/>
		<path display="inline" fill="#F2F2F2" d="M105.938,25.199c0.32,0,0.551,0.084,0.69,0.252c0.14,0.168,0.21,0.4,0.21,0.696v0.366
			c0,0.488-0.202,0.778-0.605,0.87c0.215,0.048,0.37,0.146,0.465,0.294c0.094,0.148,0.141,0.336,0.141,0.564v0.654
			c0,0.088,0.006,0.177,0.018,0.267c0.012,0.09,0.04,0.169,0.084,0.237h-0.287c-0.037-0.064-0.061-0.135-0.072-0.213
			s-0.018-0.175-0.018-0.291v-0.66c0-0.14-0.019-0.256-0.055-0.348c-0.036-0.092-0.089-0.165-0.159-0.219
			c-0.069-0.054-0.153-0.092-0.249-0.114c-0.096-0.021-0.203-0.033-0.324-0.033h-0.438v1.878h-0.275v-4.2H105.938z M105.781,27.269
			c0.125,0,0.234-0.01,0.33-0.03c0.097-0.02,0.178-0.056,0.244-0.108c0.065-0.052,0.116-0.124,0.152-0.216
			c0.036-0.092,0.055-0.208,0.055-0.348v-0.396c0-0.228-0.049-0.405-0.145-0.531s-0.258-0.189-0.486-0.189h-0.594v1.818H105.781z"/>
		<path display="inline" fill="#F2F2F2" d="M108.182,27.785l-0.941-2.586h0.287l0.805,2.208l0.804-2.208h0.271l-0.949,2.586v1.614
			h-0.275V27.785z"/>
		<path display="inline" fill="#F2F2F2" d="M111.613,25.163c0.16,0,0.297,0.026,0.408,0.078c0.111,0.052,0.204,0.125,0.275,0.219
			c0.072,0.094,0.125,0.205,0.16,0.333c0.033,0.128,0.051,0.268,0.051,0.42v0.09h-0.264v-0.108c0-0.112-0.012-0.215-0.033-0.309
			c-0.022-0.094-0.059-0.176-0.108-0.246c-0.05-0.07-0.115-0.125-0.194-0.165c-0.08-0.04-0.177-0.06-0.289-0.06
			c-0.228,0-0.389,0.073-0.482,0.219s-0.141,0.331-0.141,0.555c0,0.172,0.037,0.318,0.11,0.438c0.074,0.12,0.168,0.229,0.282,0.327
			c0.113,0.098,0.236,0.192,0.365,0.282c0.131,0.09,0.252,0.188,0.367,0.294c0.113,0.106,0.207,0.227,0.281,0.363
			c0.074,0.136,0.111,0.3,0.111,0.492c0,0.152-0.018,0.292-0.051,0.42c-0.034,0.128-0.088,0.239-0.162,0.333
			c-0.074,0.094-0.168,0.167-0.282,0.219s-0.251,0.078-0.411,0.078s-0.297-0.026-0.41-0.078c-0.115-0.052-0.209-0.125-0.283-0.219
			c-0.074-0.094-0.127-0.205-0.162-0.333c-0.033-0.128-0.051-0.268-0.051-0.42v-0.216h0.264v0.234c0,0.224,0.049,0.409,0.145,0.555
			s0.26,0.219,0.492,0.219s0.396-0.073,0.492-0.219s0.145-0.331,0.145-0.555c0-0.168-0.037-0.312-0.111-0.432
			c-0.074-0.12-0.168-0.229-0.282-0.327s-0.236-0.191-0.366-0.279c-0.13-0.088-0.252-0.185-0.365-0.291
			c-0.115-0.106-0.209-0.228-0.283-0.366c-0.074-0.138-0.11-0.305-0.11-0.501c0-0.316,0.071-0.568,0.213-0.756
			C111.074,25.263,111.302,25.167,111.613,25.163z"/>
		<path display="inline" fill="#F2F2F2" d="M114.379,27.143v0.252h-1.146v1.752h1.38v0.252h-1.656v-4.2h1.656v0.252h-1.38v1.692
			H114.379z"/>
		<path display="inline" fill="#F2F2F2" d="M115.939,25.199c0.32,0,0.55,0.084,0.689,0.252c0.141,0.168,0.211,0.4,0.211,0.696v0.366
			c0,0.488-0.203,0.778-0.606,0.87c0.216,0.048,0.37,0.146,0.465,0.294c0.094,0.148,0.142,0.336,0.142,0.564v0.654
			c0,0.088,0.006,0.177,0.018,0.267c0.012,0.09,0.039,0.169,0.084,0.237h-0.288c-0.036-0.064-0.06-0.135-0.072-0.213
			c-0.012-0.078-0.018-0.175-0.018-0.291v-0.66c0-0.14-0.019-0.256-0.054-0.348c-0.037-0.092-0.09-0.165-0.16-0.219
			c-0.069-0.054-0.152-0.092-0.248-0.114c-0.096-0.021-0.204-0.033-0.324-0.033h-0.438v1.878h-0.276v-4.2H115.939z M115.783,27.269
			c0.124,0,0.234-0.01,0.33-0.03s0.177-0.056,0.243-0.108c0.065-0.052,0.116-0.124,0.153-0.216c0.035-0.092,0.054-0.208,0.054-0.348
			v-0.396c0-0.228-0.048-0.405-0.144-0.531c-0.097-0.126-0.259-0.189-0.486-0.189h-0.594v1.818H115.783z"/>
		<path display="inline" fill="#F2F2F2" d="M117.59,25.199l0.852,3.882l0.852-3.882h0.258l-0.911,4.2h-0.408l-0.924-4.2H117.59z"/>
		<path display="inline" fill="#F2F2F2" d="M120.248,25.199v4.2h-0.276v-4.2H120.248z"/>
		<path display="inline" fill="#F2F2F2" d="M121.615,25.163c0.16,0,0.297,0.027,0.411,0.081c0.114,0.054,0.208,0.128,0.282,0.222
			c0.074,0.094,0.127,0.206,0.162,0.336c0.033,0.13,0.051,0.271,0.051,0.423v0.348h-0.264v-0.366c0-0.112-0.012-0.216-0.033-0.312
			c-0.022-0.096-0.06-0.18-0.111-0.252c-0.053-0.072-0.118-0.128-0.197-0.168c-0.08-0.04-0.179-0.06-0.295-0.06
			c-0.115,0-0.214,0.02-0.294,0.06s-0.146,0.096-0.198,0.168c-0.052,0.072-0.089,0.156-0.111,0.252
			c-0.021,0.096-0.032,0.2-0.032,0.312v2.184c0,0.112,0.011,0.216,0.032,0.312c0.022,0.096,0.06,0.179,0.111,0.249
			c0.053,0.07,0.118,0.125,0.198,0.165c0.08,0.04,0.179,0.06,0.294,0.06c0.116,0,0.215-0.02,0.295-0.06
			c0.079-0.04,0.145-0.095,0.197-0.165c0.052-0.07,0.089-0.153,0.111-0.249c0.021-0.096,0.033-0.2,0.033-0.312v-0.498h0.264v0.48
			c0,0.152-0.018,0.293-0.051,0.423c-0.035,0.13-0.088,0.242-0.162,0.336c-0.074,0.094-0.168,0.168-0.282,0.222
			c-0.114,0.054-0.251,0.081-0.411,0.081s-0.297-0.027-0.411-0.081c-0.114-0.054-0.208-0.128-0.282-0.222
			c-0.074-0.094-0.127-0.206-0.162-0.336c-0.033-0.13-0.051-0.271-0.051-0.423v-2.148c0-0.152,0.018-0.293,0.051-0.423
			c0.035-0.13,0.088-0.242,0.162-0.336c0.074-0.094,0.168-0.168,0.282-0.222C121.318,25.19,121.455,25.163,121.615,25.163z"/>
		<path display="inline" fill="#F2F2F2" d="M124.394,27.143v0.252h-1.146v1.752h1.379v0.252h-1.655v-4.2h1.655v0.252h-1.379v1.692
			H124.394z"/>
		<path display="inline" fill="#F2F2F2" d="M125.953,25.163c0.16,0,0.297,0.026,0.408,0.078c0.111,0.052,0.204,0.125,0.275,0.219
			c0.072,0.094,0.125,0.205,0.16,0.333c0.033,0.128,0.051,0.268,0.051,0.42v0.09h-0.264v-0.108c0-0.112-0.012-0.215-0.033-0.309
			c-0.022-0.094-0.059-0.176-0.108-0.246c-0.05-0.07-0.115-0.125-0.194-0.165c-0.08-0.04-0.177-0.06-0.289-0.06
			c-0.228,0-0.389,0.073-0.482,0.219s-0.141,0.331-0.141,0.555c0,0.172,0.037,0.318,0.11,0.438c0.074,0.12,0.168,0.229,0.282,0.327
			c0.113,0.098,0.236,0.192,0.365,0.282c0.131,0.09,0.252,0.188,0.367,0.294c0.113,0.106,0.207,0.227,0.281,0.363
			c0.074,0.136,0.111,0.3,0.111,0.492c0,0.152-0.018,0.292-0.051,0.42c-0.034,0.128-0.088,0.239-0.162,0.333
			c-0.074,0.094-0.168,0.167-0.282,0.219s-0.251,0.078-0.411,0.078s-0.297-0.026-0.41-0.078c-0.115-0.052-0.209-0.125-0.283-0.219
			c-0.074-0.094-0.127-0.205-0.162-0.333c-0.033-0.128-0.051-0.268-0.051-0.42v-0.216h0.264v0.234c0,0.224,0.049,0.409,0.145,0.555
			s0.26,0.219,0.492,0.219s0.396-0.073,0.492-0.219s0.145-0.331,0.145-0.555c0-0.168-0.037-0.312-0.111-0.432
			c-0.074-0.12-0.168-0.229-0.282-0.327s-0.236-0.191-0.366-0.279c-0.13-0.088-0.252-0.185-0.365-0.291
			c-0.115-0.106-0.209-0.228-0.283-0.366c-0.074-0.138-0.11-0.305-0.11-0.501c0-0.316,0.071-0.568,0.213-0.756
			C125.414,25.263,125.642,25.167,125.953,25.163z"/>
	</g>
</g>
<g id="Layer_6">
	<g>
		<path fill="#FEFEFE" d="M37.004,29.395c-1.164-0.613-2.235-1.433-3.653-1.422c0.124-0.468,0.251-0.946,0.376-1.425
			c0.229-0.873,0.462-1.746,0.684-2.621c0.038-0.148,0.082-0.191,0.23-0.128c0.208,0.088,0.483,0.101,0.62,0.248
			c0.156,0.169-0.077,0.401-0.099,0.616c-0.067,0.634,0.151,1.163,0.548,1.634c0.366,0.435,0.815,0.771,1.309,1.045
			c0.12,0.067,0.164,0.135,0.146,0.274c-0.037,0.294-0.051,0.59-0.077,0.886C37.061,28.795,37.033,29.088,37.004,29.395z"/>
		<path fill="#FEFEFE" d="M42.62,25.231c-0.286-1.082-0.544-2.124-0.839-3.154c-0.163-0.569-0.142-1.094,0.201-1.581
			c0.526-0.745,1.567-0.926,2.304-0.412c0.763,0.533,0.958,1.581,0.417,2.335c-0.65,0.905-1.317,1.798-1.977,2.695
			C42.703,25.145,42.676,25.17,42.62,25.231z"/>
		<path fill="#FEFEFE" d="M36.923,30.369c-0.049,0.55-0.099,1.069-0.139,1.59c-0.009,0.12-0.047,0.12-0.142,0.08
			c-1.271-0.527-2.544-1.051-3.817-1.574c-0.085-0.035-0.114-0.071-0.086-0.173c0.127-0.457,0.248-0.916,0.358-1.378
			c0.035-0.146,0.128-0.127,0.227-0.126c0.764,0.002,1.471,0.235,2.156,0.544c0.448,0.202,0.868,0.455,1.279,0.724
			C36.892,30.144,36.967,30.236,36.923,30.369z"/>
		<path fill="#FEFEFE" d="M40.699,28.338c0.033,0.731,0.063,1.44,0.097,2.148c0.005,0.099,0.005,0.174-0.11,0.223
			c-1.053,0.446-2.103,0.897-3.155,1.346c-0.013,0.006-0.03,0.001-0.066,0.001c0.052-0.6,0.106-1.197,0.155-1.794
			c0.006-0.076,0.051-0.108,0.105-0.14c0.964-0.587,1.929-1.173,2.893-1.759C40.637,28.35,40.66,28.349,40.699,28.338z"/>
		<path fill="#FEFEFE" d="M39.871,27.967c0-0.503,0-0.954,0-1.405c-0.001-0.423-0.223-0.572-0.625-0.421
			c-0.379,0.143-0.759,0.282-1.135,0.433c-0.143,0.057-0.173,0.022-0.16-0.121c0.051-0.52,0.098-1.041,0.138-1.562
			c0.008-0.106,0.06-0.144,0.145-0.181c0.707-0.307,1.414-0.614,2.118-0.93c0.151-0.068,0.165-0.013,0.17,0.119
			c0.043,1.131,0.089,2.262,0.142,3.392c0.006,0.136-0.036,0.213-0.151,0.279C40.311,27.684,40.117,27.813,39.871,27.967z"/>
		<path fill="#FEFEFE" d="M41.196,23.691c0.203,0.066,0.393,0.131,0.585,0.188c0.12,0.036,0.11,0.144,0.133,0.227
			c0.182,0.668,0.357,1.337,0.544,2.043c0.369-0.504,0.715-0.981,1.066-1.455c0.059-0.08,0.102-0.23,0.243-0.151
			c0.173,0.097,0.461,0.013,0.501,0.324c0.039,0.309,0.094,0.616,0.141,0.924c0.014,0.095,0.029,0.171-0.115,0.198
			c-1.046,0.201-1.746,0.845-2.208,1.772c-0.081,0.162-0.121,0.141-0.26,0.068c-0.391-0.205-0.508-0.504-0.511-0.942
			C41.307,25.829,41.24,24.77,41.196,23.691z"/>
		<path fill="#FEFEFE" d="M45.355,31.884c-1.185-0.387-2.344-0.764-3.503-1.143c-0.375-0.123-0.38-0.124-0.384-0.522
			c-0.005-0.59-0.001-1.179-0.001-1.758c0.42,0.304,0.88,0.633,1.365,0.923c0.684,0.407,1.387,0.771,2.171,0.948
			c0.065,0.015,0.111,0.022,0.124,0.105C45.199,30.912,45.276,31.387,45.355,31.884z"/>
		<path fill="#FEFEFE" d="M44.426,26.723c0.166-0.032,0.135,0.083,0.145,0.145c0.107,0.661,0.209,1.322,0.312,1.984
			c0.022,0.138,0.039,0.278,0.062,0.416c0.044,0.27,0.04,0.274-0.238,0.196c-0.484-0.135-0.917-0.383-1.347-0.633
			c-0.195-0.113-0.382-0.24-0.574-0.359c-0.069-0.042-0.128-0.074-0.087-0.18c0.298-0.771,0.799-1.327,1.619-1.551
			C44.362,26.729,44.409,26.726,44.426,26.723z"/>
		<path fill="#FEFEFE" d="M37.254,26.593c-0.614-0.328-1.159-0.674-1.335-1.379c-0.065-0.258-0.026-0.508,0.062-0.755
			c0.039-0.108,0.089-0.149,0.206-0.104c0.363,0.137,0.728,0.269,1.095,0.397c0.086,0.03,0.128,0.067,0.119,0.165
			C37.35,25.465,37.304,26.015,37.254,26.593z"/>
		<path fill="#FEFEFE" d="M37.701,29.334c0.055-0.615,0.107-1.174,0.151-1.733c0.007-0.089,0.052-0.12,0.12-0.146
			c0.349-0.134,0.699-0.263,1.044-0.406c0.137-0.057,0.139,0.008,0.138,0.11c-0.002,0.374-0.002,0.749,0,1.123
			c0,0.082-0.009,0.146-0.09,0.197C38.623,28.752,38.184,29.03,37.701,29.334z"/>
		<linearGradient id="SVGID_7_" gradientUnits="userSpaceOnUse" x1="42.4656" y1="21.516" x2="44.1866" y2="21.516">
			<stop  offset="0" style="stop-color:#0071BC"/>
			<stop  offset="0.8418" style="stop-color:#29ABE2"/>
		</linearGradient>
		<path fill="url(#SVGID_7_)" d="M44.187,21.528c-0.004,0.478-0.389,0.856-0.866,0.85c-0.474-0.006-0.862-0.4-0.855-0.868
			c0.007-0.47,0.411-0.865,0.872-0.854C43.816,20.666,44.19,21.051,44.187,21.528z"/>
	</g>
	<g>
	</g>
	<g>
	</g>
	<g>
	</g>
	<g>
	</g>
	<g>
	</g>
	<g>
	</g>
	<g>
	</g>
	<g>
	</g>
	<g>
	</g>
	<g>
	</g>
	<g>
	</g>
	<g>
	</g>
	<g>
	</g>
	<g>
	</g>
	<g>
	</g>
</g>
</svg>
