<?xml version="1.0" encoding="utf-8"?>
<!-- Generator: Adobe Illustrator 17.0.0, SVG Export Plug-In . SVG Version: 6.00 Build 0)  -->
<!DOCTYPE svg PUBLIC "-//W3C//DTD SVG 1.1//EN" "http://www.w3.org/Graphics/SVG/1.1/DTD/svg11.dtd">
<svg version="1.1" xmlns="http://www.w3.org/2000/svg" xmlns:xlink="http://www.w3.org/1999/xlink" x="0px" y="0px" width="192px"
	 height="64px" viewBox="0 0 192 64" enable-background="new 0 0 192 64" xml:space="preserve">
<g id="Layer_1" display="none">
</g>
<g id="background">
	<linearGradient id="SVGID_1_" gradientUnits="userSpaceOnUse" x1="-424" y1="32" x2="-232" y2="32">
		<stop  offset="0" style="stop-color:#0071BC"/>
		<stop  offset="0.8418" style="stop-color:#29ABE2"/>
	</linearGradient>
	<rect x="-424" fill="url(#SVGID_1_)" width="192" height="64"/>
	<linearGradient id="SVGID_2_" gradientUnits="userSpaceOnUse" x1="-212" y1="32" x2="-20" y2="32">
		<stop  offset="0" style="stop-color:#0071BC"/>
		<stop  offset="0.8418" style="stop-color:#29ABE2"/>
	</linearGradient>
	<rect x="-212" fill="url(#SVGID_2_)" width="192" height="64"/>
	<linearGradient id="SVGID_3_" gradientUnits="userSpaceOnUse" x1="0" y1="32" x2="192" y2="32">
		<stop  offset="0.5051" style="stop-color:#8CC63F"/>
		<stop  offset="0.6" style="stop-color:#88C540"/>
		<stop  offset="0.6955" style="stop-color:#7CC341"/>
		<stop  offset="0.7912" style="stop-color:#68BF44"/>
		<stop  offset="0.8866" style="stop-color:#4CB948"/>
		<stop  offset="0.9388" style="stop-color:#39B54A"/>
	</linearGradient>
	<rect fill="url(#SVGID_3_)" width="192" height="64"/>
	<g>
		<path fill="#FEFEFE" d="M132.483,23.539c0,1.088,0.014,2.176-0.009,3.263c-0.007,0.326,0.082,0.411,0.401,0.397
			c0.558-0.026,0.559-0.005,0.559,0.556c0,0.501-0.015,1.002,0.006,1.502c0.012,0.27-0.077,0.336-0.339,0.333
			c-0.619-0.008-0.619,0.006-0.619,0.629c0,0.386-0.013,0.773,0.005,1.159c0.011,0.232-0.073,0.282-0.292,0.288
			c-0.85,0.021-0.85,0.029-0.85-0.799c0-0.329-0.01-0.659,0.004-0.987c0.009-0.216-0.053-0.326-0.286-0.298
			c-0.085,0.01-0.173-0.01-0.257,0.004c-0.334,0.053-0.449-0.074-0.431-0.418c0.029-0.542,0.023-1.088,0.001-1.631
			c-0.012-0.289,0.088-0.388,0.364-0.347c0.084,0.012,0.173-0.01,0.257,0.004c0.292,0.048,0.356-0.084,0.354-0.357
			c-0.01-2.175,0.01-4.351-0.018-6.526c-0.006-0.454,0.133-0.58,0.544-0.514c0.098,0.016,0.201,0.013,0.3,0
			c0.244-0.033,0.315,0.063,0.312,0.308C132.476,21.249,132.483,22.394,132.483,23.539z"/>
		<path fill="#FEFEFE" d="M140.509,23.494c0,1.102,0.014,2.205-0.008,3.307c-0.007,0.331,0.092,0.411,0.408,0.398
			c0.562-0.024,0.563-0.004,0.563,0.56c0,0.472-0.016,0.946,0.006,1.417c0.014,0.304-0.054,0.47-0.395,0.409
			c-0.069-0.012-0.144,0.007-0.214-0.003c-0.275-0.039-0.381,0.058-0.366,0.351c0.024,0.457-0.006,0.916,0.011,1.374
			c0.009,0.254-0.057,0.346-0.332,0.347c-0.803,0.003-0.802,0.017-0.802-0.773c0-0.157,0.003-0.315-0.001-0.472
			c-0.006-0.256,0.071-0.566-0.047-0.752c-0.119-0.188-0.449-0.058-0.686-0.069c-0.168-0.008-0.223-0.071-0.222-0.232
			c0.005-0.644,0.012-1.289-0.003-1.932c-0.007-0.292,0.182-0.228,0.342-0.231c0.616-0.014,0.616-0.013,0.616-0.639
			c0-2.104,0.009-4.209-0.009-6.313c-0.003-0.353,0.08-0.464,0.442-0.45c0.695,0.028,0.696,0.007,0.696,0.698
			C140.509,21.49,140.509,22.492,140.509,23.494z"/>
		<path fill="#FEFEFE" d="M136.529,22.248c0,0.659,0.015,1.318-0.007,1.976c-0.01,0.302,0.043,0.43,0.387,0.412
			c0.57-0.03,0.571-0.004,0.571,0.553c0,0.487-0.018,0.975,0.007,1.461c0.015,0.294-0.059,0.396-0.371,0.384
			c-0.587-0.022-0.588-0.002-0.588,0.575c0,1.217-0.01,2.435,0.007,3.652c0.004,0.303-0.045,0.422-0.388,0.41
			c-0.742-0.026-0.743-0.004-0.743-0.735c0-1.16-0.01-2.32,0.006-3.48c0.004-0.313-0.042-0.461-0.409-0.439
			c-0.549,0.033-0.551,0.006-0.551-0.567c0-0.501,0.01-1.003-0.004-1.504c-0.006-0.232,0.048-0.357,0.306-0.321
			c0.098,0.014,0.202-0.01,0.3,0.004c0.283,0.041,0.361-0.071,0.358-0.353c-0.014-1.346,0.007-2.693-0.015-4.039
			c-0.006-0.35,0.071-0.465,0.439-0.448c0.693,0.032,0.694,0.008,0.694,0.697C136.529,21.074,136.529,21.661,136.529,22.248z"/>
		<linearGradient id="SVGID_4_" gradientUnits="userSpaceOnUse" x1="130.7747" y1="28.4031" x2="133.0493" y2="28.4031">
			<stop  offset="0" style="stop-color:#0071BC"/>
			<stop  offset="0.8418" style="stop-color:#29ABE2"/>
		</linearGradient>
		<path fill="url(#SVGID_4_)" d="M131.914,29.17c-0.353-0.045-0.812,0.149-1.033-0.081c-0.216-0.226-0.03-0.684-0.073-1.035
			c-0.043-0.356,0.074-0.474,0.439-0.448c0.484,0.035,0.972,0.022,1.458,0.003c0.252-0.01,0.334,0.082,0.3,0.316
			c-0.006,0.042,0.001,0.086-0.001,0.129c-0.02,0.354,0.148,0.81-0.062,1.035C132.727,29.319,132.266,29.124,131.914,29.17z"/>
		<linearGradient id="SVGID_5_" gradientUnits="userSpaceOnUse" x1="138.8106" y1="28.4027" x2="141.0663" y2="28.4027">
			<stop  offset="0" style="stop-color:#0071BC"/>
			<stop  offset="0.8418" style="stop-color:#29ABE2"/>
		</linearGradient>
		<path fill="url(#SVGID_5_)" d="M139.886,29.162c-0.287-0.029-0.744,0.151-0.966-0.065c-0.224-0.218-0.027-0.679-0.075-1.028
			c-0.053-0.38,0.081-0.493,0.46-0.463c0.468,0.037,0.942,0.021,1.413,0.004c0.249-0.009,0.369,0.045,0.347,0.325
			c-0.024,0.312-0.017,0.628-0.002,0.942c0.011,0.228-0.076,0.301-0.297,0.289C140.495,29.15,140.223,29.162,139.886,29.162z"/>
		<linearGradient id="SVGID_6_" gradientUnits="userSpaceOnUse" x1="134.8326" y1="25.8425" x2="137.0857" y2="25.8425">
			<stop  offset="0" style="stop-color:#0071BC"/>
			<stop  offset="0.8418" style="stop-color:#29ABE2"/>
		</linearGradient>
		<path fill="url(#SVGID_6_)" d="M135.933,26.603c-0.347-0.038-0.788,0.14-0.999-0.077c-0.208-0.214-0.024-0.656-0.069-0.992
			c-0.056-0.41,0.115-0.513,0.497-0.484c0.427,0.032,0.86,0.025,1.288,0.001c0.304-0.017,0.45,0.047,0.415,0.391
			c-0.038,0.367,0.11,0.849-0.075,1.077C136.792,26.763,136.292,26.556,135.933,26.603z"/>
	</g>
</g>
<g id="compass">
	<g>
		<path fill="#FEFEFE" d="M-403.376,12.762c4.03-0.002,7.321,3.295,7.315,7.328c-0.006,4.028-3.279,7.302-7.305,7.308
			c-4.034,0.006-7.329-3.28-7.332-7.312C-410.702,16.057-407.41,12.764-403.376,12.762z"/>
		<linearGradient id="SVGID_7_" gradientUnits="userSpaceOnUse" x1="-409.5248" y1="20.0834" x2="-397.2281" y2="20.0834">
			<stop  offset="0" style="stop-color:#0071BC"/>
			<stop  offset="0.8418" style="stop-color:#29ABE2"/>
		</linearGradient>
		<path fill="url(#SVGID_7_)" d="M-397.228,20.074c0.014,3.379-2.765,6.161-6.148,6.157c-3.394-0.004-6.158-2.771-6.148-6.155
			c0.009-3.391,2.727-6.112,6.132-6.141C-400.02,13.908-397.242,16.674-397.228,20.074z"/>
		<linearGradient id="SVGID_8_" gradientUnits="userSpaceOnUse" x1="-407.0051" y1="20.0809" x2="-399.7534" y2="20.0809">
			<stop  offset="0" style="stop-color:#D4145A"/>
			<stop  offset="0.8418" style="stop-color:#ED1E79"/>
		</linearGradient>
		<path fill="url(#SVGID_8_)" d="M-399.753,23.408c0.003,0.361-0.209,0.525-0.563,0.451c-0.367-0.077-0.696-0.247-1.011-0.443
			c-1.112-0.694-2.068-1.573-2.965-2.52c-0.884-0.933-1.701-1.92-2.322-3.053c-0.174-0.317-0.323-0.646-0.38-1.007
			c-0.062-0.394,0.162-0.613,0.555-0.532c0.413,0.085,0.777,0.289,1.124,0.517c1.41,0.926,2.595,2.098,3.68,3.378
			c0.632,0.745,1.212,1.527,1.637,2.413C-399.873,22.872-399.778,23.144-399.753,23.408z"/>
		<path fill="#F2F2F2" d="M-402.361,20.081c0.005,0.544-0.463,1.014-1.017,1.018c-0.546,0.005-1.012-0.462-1.017-1.017
			c-0.004-0.549,0.455-1.008,1.016-1.016C-402.833,19.058-402.367,19.524-402.361,20.081z"/>
	</g>
	<g>
		<path fill="#FEFEFE" d="M-156.956,14.348c1.497-0.001,2.72,1.224,2.718,2.723c-0.002,1.496-1.218,2.713-2.714,2.715
			c-1.499,0.002-2.723-1.219-2.724-2.717C-159.677,15.573-158.454,14.349-156.956,14.348z"/>
		<linearGradient id="SVGID_9_" gradientUnits="userSpaceOnUse" x1="-159.24" y1="17.0685" x2="-154.6711" y2="17.0685">
			<stop  offset="0" style="stop-color:#0071BC"/>
			<stop  offset="0.8418" style="stop-color:#29ABE2"/>
		</linearGradient>
		<path fill="url(#SVGID_9_)" d="M-154.671,17.065c0.005,1.255-1.027,2.289-2.284,2.288c-1.261-0.001-2.288-1.029-2.284-2.287
			c0.004-1.26,1.013-2.271,2.279-2.282C-155.708,14.774-154.676,15.802-154.671,17.065z"/>
		<linearGradient id="SVGID_10_" gradientUnits="userSpaceOnUse" x1="-158.3038" y1="17.0676" x2="-155.6094" y2="17.0676">
			<stop  offset="0" style="stop-color:#D4145A"/>
			<stop  offset="0.8418" style="stop-color:#ED1E79"/>
		</linearGradient>
		<path fill="url(#SVGID_10_)" d="M-155.609,18.304c0.001,0.134-0.078,0.195-0.209,0.167c-0.136-0.029-0.259-0.092-0.376-0.165
			c-0.413-0.258-0.768-0.584-1.102-0.936c-0.328-0.347-0.632-0.713-0.863-1.134c-0.065-0.118-0.12-0.24-0.141-0.374
			c-0.023-0.147,0.06-0.228,0.206-0.198c0.153,0.032,0.289,0.107,0.418,0.192c0.524,0.344,0.964,0.78,1.367,1.255
			c0.235,0.277,0.45,0.567,0.608,0.897C-155.654,18.105-155.619,18.206-155.609,18.304z"/>
		<path fill="#F2F2F2" d="M-156.578,17.068c0.002,0.202-0.172,0.377-0.378,0.378c-0.203,0.002-0.376-0.172-0.378-0.378
			c-0.002-0.204,0.169-0.375,0.378-0.378C-156.754,16.688-156.58,16.861-156.578,17.068z"/>
	</g>
	<g>
		<path fill="#FEFEFE" d="M55.044,14.348c1.497-0.001,2.72,1.224,2.718,2.723c-0.002,1.496-1.218,2.713-2.714,2.715
			c-1.499,0.002-2.723-1.219-2.724-2.717C52.323,15.573,53.546,14.349,55.044,14.348z"/>
		<linearGradient id="SVGID_11_" gradientUnits="userSpaceOnUse" x1="52.76" y1="17.0685" x2="57.3289" y2="17.0685">
			<stop  offset="0" style="stop-color:#0071BC"/>
			<stop  offset="0.8418" style="stop-color:#29ABE2"/>
		</linearGradient>
		<path fill="url(#SVGID_11_)" d="M57.329,17.065c0.005,1.255-1.027,2.289-2.284,2.288c-1.261-0.001-2.288-1.029-2.284-2.287
			c0.004-1.26,1.013-2.271,2.279-2.282C56.292,14.774,57.324,15.802,57.329,17.065z"/>
		<linearGradient id="SVGID_12_" gradientUnits="userSpaceOnUse" x1="53.6962" y1="17.0676" x2="56.3906" y2="17.0676">
			<stop  offset="0" style="stop-color:#D4145A"/>
			<stop  offset="0.8418" style="stop-color:#ED1E79"/>
		</linearGradient>
		<path fill="url(#SVGID_12_)" d="M56.391,18.304c0.001,0.134-0.078,0.195-0.209,0.167c-0.136-0.029-0.259-0.092-0.376-0.165
			c-0.413-0.258-0.768-0.584-1.102-0.936c-0.328-0.347-0.632-0.713-0.863-1.134c-0.065-0.118-0.12-0.24-0.141-0.374
			c-0.023-0.147,0.06-0.228,0.206-0.198c0.153,0.032,0.289,0.107,0.418,0.192c0.524,0.344,0.964,0.78,1.367,1.255
			c0.235,0.277,0.45,0.567,0.608,0.897C56.346,18.105,56.381,18.206,56.391,18.304z"/>
		<path fill="#F2F2F2" d="M55.422,17.068c0.002,0.202-0.172,0.377-0.378,0.378c-0.203,0.002-0.376-0.172-0.378-0.378
			c-0.002-0.204,0.169-0.375,0.378-0.378C55.246,16.688,55.42,16.861,55.422,17.068z"/>
	</g>
</g>
<g id="oasis_text">
	<g>
		<path fill="#F2F2F2" d="M-391.512,16.834c0-0.587,0.125-1.028,0.375-1.325c0.25-0.296,0.618-0.445,1.105-0.445
			c0.5,0,0.875,0.148,1.125,0.445c0.25,0.297,0.375,0.738,0.375,1.325v3.56c0,0.587-0.125,1.029-0.375,1.325
			c-0.25,0.297-0.625,0.445-1.125,0.445c-0.487,0-0.855-0.148-1.105-0.445c-0.25-0.296-0.375-0.738-0.375-1.325V16.834z
			 M-391.292,20.404c0,1.04,0.42,1.56,1.26,1.56c0.853,0,1.28-0.52,1.28-1.56v-3.58c0-1.04-0.427-1.56-1.28-1.56
			c-0.84,0-1.26,0.52-1.26,1.56V20.404z"/>
		<path fill="#F2F2F2" d="M-387.533,22.114h-0.21v-7h0.31l2.46,6.55v-6.55h0.21v7h-0.27l-2.5-6.68V22.114z"/>
		<path fill="#F2F2F2" d="M-383.962,22.114v-7h0.22v6.79h2.35v0.21H-383.962z"/>
		<path fill="#F2F2F2" d="M-380.413,15.114v7h-0.22v-7H-380.413z"/>
		<path fill="#F2F2F2" d="M-379.403,22.114h-0.21v-7h0.31l2.46,6.55v-6.55h0.21v7h-0.27l-2.5-6.68V22.114z"/>
		<path fill="#F2F2F2" d="M-373.553,18.464v0.2h-2.06v3.24h2.45v0.21h-2.67v-7h2.67v0.21h-2.45v3.14H-373.553z"/>
		<path fill="#F2F2F2" d="M-370.253,20.464l-0.41,1.65h-0.2l1.69-7.01h0.31l1.73,7.01h-0.22l-0.41-1.65H-370.253z M-370.213,20.264
			h2.41l-1.22-4.9L-370.213,20.264z"/>
		<path fill="#F2F2F2" d="M-364.913,15.064c0.267,0,0.493,0.046,0.68,0.14c0.187,0.094,0.338,0.22,0.455,0.38
			c0.117,0.16,0.202,0.348,0.255,0.565c0.053,0.217,0.08,0.445,0.08,0.685v0.54h-0.22v-0.55c0-0.213-0.022-0.415-0.065-0.605
			c-0.043-0.19-0.114-0.355-0.21-0.495c-0.097-0.14-0.225-0.251-0.385-0.335c-0.16-0.083-0.354-0.125-0.58-0.125
			c-0.233,0-0.43,0.042-0.59,0.125c-0.16,0.083-0.289,0.195-0.385,0.335c-0.097,0.14-0.167,0.305-0.21,0.495
			s-0.065,0.392-0.065,0.605v3.58c0,0.213,0.021,0.414,0.065,0.6s0.113,0.35,0.21,0.49c0.097,0.14,0.225,0.252,0.385,0.335
			c0.16,0.083,0.356,0.125,0.59,0.125c0.227,0,0.42-0.042,0.58-0.125c0.16-0.083,0.289-0.195,0.385-0.335
			c0.096-0.14,0.167-0.303,0.21-0.49c0.043-0.187,0.065-0.387,0.065-0.6v-0.77h0.22v0.76c0,0.24-0.026,0.469-0.08,0.685
			c-0.054,0.217-0.139,0.405-0.255,0.565c-0.117,0.16-0.268,0.287-0.455,0.38c-0.187,0.093-0.413,0.14-0.68,0.14
			s-0.492-0.046-0.675-0.14c-0.183-0.093-0.333-0.22-0.45-0.38c-0.117-0.16-0.202-0.348-0.255-0.565
			c-0.054-0.216-0.08-0.445-0.08-0.685v-3.56c0-0.24,0.026-0.468,0.08-0.685c0.053-0.217,0.138-0.405,0.255-0.565
			c0.117-0.16,0.267-0.287,0.45-0.38C-365.405,15.11-365.18,15.064-364.913,15.064z"/>
		<path fill="#F2F2F2" d="M-361.213,15.064c0.267,0,0.493,0.046,0.68,0.14c0.187,0.094,0.338,0.22,0.455,0.38
			c0.117,0.16,0.202,0.348,0.255,0.565c0.053,0.217,0.08,0.445,0.08,0.685v0.54h-0.22v-0.55c0-0.213-0.022-0.415-0.065-0.605
			c-0.043-0.19-0.114-0.355-0.21-0.495c-0.097-0.14-0.225-0.251-0.385-0.335c-0.16-0.083-0.354-0.125-0.58-0.125
			c-0.233,0-0.43,0.042-0.59,0.125c-0.16,0.083-0.289,0.195-0.385,0.335c-0.097,0.14-0.167,0.305-0.21,0.495
			s-0.065,0.392-0.065,0.605v3.58c0,0.213,0.021,0.414,0.065,0.6s0.113,0.35,0.21,0.49c0.097,0.14,0.225,0.252,0.385,0.335
			c0.16,0.083,0.356,0.125,0.59,0.125c0.227,0,0.42-0.042,0.58-0.125c0.16-0.083,0.289-0.195,0.385-0.335
			c0.096-0.14,0.167-0.303,0.21-0.49c0.043-0.187,0.065-0.387,0.065-0.6v-0.77h0.22v0.76c0,0.24-0.026,0.469-0.08,0.685
			c-0.054,0.217-0.139,0.405-0.255,0.565c-0.117,0.16-0.268,0.287-0.455,0.38c-0.187,0.093-0.413,0.14-0.68,0.14
			s-0.492-0.046-0.675-0.14c-0.183-0.093-0.333-0.22-0.45-0.38c-0.117-0.16-0.202-0.348-0.255-0.565
			c-0.054-0.216-0.08-0.445-0.08-0.685v-3.56c0-0.24,0.026-0.468,0.08-0.685c0.053-0.217,0.138-0.405,0.255-0.565
			c0.117-0.16,0.267-0.287,0.45-0.38C-361.705,15.11-361.479,15.064-361.213,15.064z"/>
		<path fill="#F2F2F2" d="M-358.973,16.834c0-0.247,0.026-0.477,0.08-0.69c0.053-0.213,0.14-0.4,0.26-0.56
			c0.12-0.16,0.273-0.287,0.46-0.38c0.187-0.093,0.414-0.14,0.68-0.14s0.495,0.046,0.685,0.14c0.19,0.094,0.345,0.22,0.465,0.38
			c0.12,0.16,0.208,0.347,0.265,0.56c0.057,0.214,0.085,0.444,0.085,0.69v3.56c0,0.247-0.028,0.477-0.085,0.69
			s-0.145,0.4-0.265,0.56c-0.12,0.16-0.275,0.287-0.465,0.38s-0.418,0.14-0.685,0.14s-0.494-0.046-0.68-0.14s-0.34-0.22-0.46-0.38
			c-0.12-0.16-0.207-0.346-0.26-0.56c-0.054-0.213-0.08-0.443-0.08-0.69V16.834z M-358.753,20.404c0,0.213,0.021,0.415,0.065,0.605
			s0.115,0.355,0.215,0.495c0.1,0.14,0.23,0.251,0.39,0.335c0.16,0.083,0.357,0.125,0.59,0.125s0.432-0.042,0.595-0.125
			c0.164-0.083,0.295-0.195,0.395-0.335c0.1-0.14,0.173-0.305,0.22-0.495c0.046-0.19,0.07-0.392,0.07-0.605v-3.58
			c0-0.213-0.023-0.415-0.07-0.605c-0.047-0.19-0.12-0.355-0.22-0.495c-0.1-0.14-0.231-0.251-0.395-0.335
			c-0.163-0.083-0.361-0.125-0.595-0.125s-0.43,0.042-0.59,0.125c-0.16,0.083-0.29,0.195-0.39,0.335
			c-0.1,0.14-0.172,0.305-0.215,0.495s-0.065,0.392-0.065,0.605V20.404z"/>
		<path fill="#F2F2F2" d="M-353.023,22.094h-0.25l-1.73-6.65v6.67h-0.2v-7h0.34l1.72,6.64l1.72-6.64h0.34v7h-0.22v-6.67
			L-353.023,22.094z"/>
		<path fill="#F2F2F2" d="M-350.293,16.834c0-0.247,0.026-0.477,0.08-0.69c0.053-0.213,0.14-0.4,0.26-0.56
			c0.12-0.16,0.273-0.287,0.46-0.38c0.187-0.093,0.414-0.14,0.68-0.14s0.495,0.046,0.685,0.14c0.19,0.094,0.345,0.22,0.465,0.38
			c0.12,0.16,0.208,0.347,0.265,0.56c0.057,0.214,0.085,0.444,0.085,0.69v3.56c0,0.247-0.028,0.477-0.085,0.69
			s-0.145,0.4-0.265,0.56c-0.12,0.16-0.275,0.287-0.465,0.38s-0.418,0.14-0.685,0.14s-0.494-0.046-0.68-0.14s-0.34-0.22-0.46-0.38
			c-0.12-0.16-0.207-0.346-0.26-0.56c-0.054-0.213-0.08-0.443-0.08-0.69V16.834z M-350.073,20.404c0,0.213,0.021,0.415,0.065,0.605
			s0.115,0.355,0.215,0.495c0.1,0.14,0.23,0.251,0.39,0.335c0.16,0.083,0.357,0.125,0.59,0.125s0.432-0.042,0.595-0.125
			c0.164-0.083,0.295-0.195,0.395-0.335c0.1-0.14,0.173-0.305,0.22-0.495c0.046-0.19,0.07-0.392,0.07-0.605v-3.58
			c0-0.213-0.023-0.415-0.07-0.605c-0.047-0.19-0.12-0.355-0.22-0.495c-0.1-0.14-0.231-0.251-0.395-0.335
			c-0.163-0.083-0.361-0.125-0.595-0.125s-0.43,0.042-0.59,0.125c-0.16,0.083-0.29,0.195-0.39,0.335
			c-0.1,0.14-0.172,0.305-0.215,0.495s-0.065,0.392-0.065,0.605V20.404z"/>
		<path fill="#F2F2F2" d="M-345.063,15.114c0.267,0,0.497,0.045,0.69,0.135c0.193,0.09,0.352,0.212,0.475,0.365
			s0.213,0.338,0.27,0.555c0.057,0.216,0.085,0.448,0.085,0.695v3.51c0,0.247-0.028,0.477-0.085,0.69s-0.146,0.396-0.27,0.55
			s-0.28,0.275-0.47,0.365c-0.19,0.09-0.418,0.135-0.685,0.135h-1.47v-7H-345.063z M-345.063,21.904c0.233,0,0.434-0.038,0.6-0.115
			c0.167-0.076,0.302-0.183,0.405-0.32c0.103-0.137,0.178-0.296,0.225-0.48c0.047-0.183,0.07-0.385,0.07-0.605v-3.53
			c0-0.22-0.023-0.423-0.07-0.61c-0.046-0.187-0.123-0.348-0.23-0.485c-0.106-0.137-0.242-0.243-0.405-0.32
			c-0.164-0.077-0.362-0.115-0.595-0.115h-1.24v6.58H-345.063z"/>
		<path fill="#F2F2F2" d="M-342.193,20.464l-0.41,1.65h-0.2l1.69-7.01h0.31l1.73,7.01h-0.22l-0.41-1.65H-342.193z M-342.153,20.264
			h2.41l-1.22-4.9L-342.153,20.264z"/>
		<path fill="#F2F2F2" d="M-337.374,22.114v-6.79h-1.52v-0.21h3.271v0.21h-1.53v6.79H-337.374z"/>
		<path fill="#F2F2F2" d="M-334.793,15.114v7h-0.22v-7H-334.793z"/>
		<path fill="#F2F2F2" d="M-334.004,16.834c0-0.247,0.027-0.477,0.08-0.69c0.054-0.213,0.141-0.4,0.261-0.56
			c0.119-0.16,0.272-0.287,0.46-0.38c0.187-0.093,0.413-0.14,0.68-0.14s0.495,0.046,0.685,0.14c0.19,0.094,0.346,0.22,0.465,0.38
			c0.12,0.16,0.209,0.347,0.266,0.56c0.057,0.214,0.085,0.444,0.085,0.69v3.56c0,0.247-0.028,0.477-0.085,0.69
			s-0.146,0.4-0.266,0.56c-0.119,0.16-0.274,0.287-0.465,0.38c-0.189,0.093-0.418,0.14-0.685,0.14s-0.493-0.046-0.68-0.14
			c-0.188-0.093-0.341-0.22-0.46-0.38c-0.12-0.16-0.207-0.346-0.261-0.56c-0.053-0.213-0.08-0.443-0.08-0.69V16.834z
			 M-333.783,20.404c0,0.213,0.021,0.415,0.064,0.605c0.044,0.19,0.115,0.355,0.215,0.495c0.101,0.14,0.23,0.251,0.391,0.335
			s0.356,0.125,0.59,0.125s0.432-0.042,0.595-0.125s0.295-0.195,0.396-0.335c0.1-0.14,0.173-0.305,0.22-0.495s0.07-0.392,0.07-0.605
			v-3.58c0-0.213-0.023-0.415-0.07-0.605s-0.12-0.355-0.22-0.495c-0.101-0.14-0.232-0.251-0.396-0.335
			c-0.163-0.083-0.361-0.125-0.595-0.125s-0.43,0.042-0.59,0.125c-0.16,0.083-0.29,0.195-0.391,0.335
			c-0.1,0.14-0.171,0.305-0.215,0.495c-0.043,0.19-0.064,0.392-0.064,0.605V20.404z"/>
		<path fill="#F2F2F2" d="M-330.023,22.114h-0.21v-7h0.31l2.46,6.55v-6.55h0.21v7h-0.27l-2.5-6.68V22.114z"/>
		<path fill="#F2F2F2" d="M-323.454,15.064c0.267,0,0.492,0.045,0.676,0.135c0.183,0.09,0.331,0.215,0.444,0.375
			s0.197,0.345,0.25,0.555c0.054,0.21,0.08,0.435,0.08,0.675v0.13h-0.22v-0.14c0-0.207-0.021-0.403-0.065-0.59
			c-0.043-0.187-0.111-0.35-0.205-0.49c-0.093-0.14-0.218-0.25-0.375-0.33c-0.156-0.08-0.348-0.12-0.574-0.12
			c-0.233,0-0.429,0.04-0.585,0.12c-0.157,0.08-0.282,0.19-0.375,0.33c-0.094,0.14-0.162,0.302-0.205,0.485
			c-0.044,0.184-0.065,0.378-0.065,0.585c0,0.3,0.066,0.554,0.2,0.76c0.133,0.207,0.298,0.392,0.495,0.555
			c0.196,0.164,0.411,0.317,0.645,0.46c0.233,0.144,0.448,0.3,0.646,0.47c0.196,0.17,0.361,0.367,0.495,0.59
			c0.133,0.224,0.199,0.492,0.199,0.805c0,0.24-0.026,0.467-0.079,0.68c-0.054,0.213-0.139,0.398-0.256,0.555
			c-0.116,0.157-0.268,0.28-0.455,0.37c-0.187,0.09-0.413,0.135-0.68,0.135s-0.491-0.045-0.675-0.135s-0.333-0.213-0.45-0.37
			c-0.116-0.156-0.201-0.341-0.255-0.555s-0.08-0.44-0.08-0.68v-0.34h0.21v0.35c0,0.213,0.021,0.412,0.065,0.595
			c0.043,0.184,0.114,0.343,0.215,0.48c0.1,0.137,0.229,0.245,0.385,0.325c0.156,0.08,0.352,0.12,0.585,0.12
			c0.227,0,0.42-0.04,0.58-0.12c0.16-0.08,0.29-0.188,0.39-0.325c0.101-0.137,0.172-0.296,0.216-0.48
			c0.043-0.183,0.064-0.382,0.064-0.595c0-0.293-0.066-0.543-0.2-0.75c-0.133-0.207-0.298-0.392-0.495-0.555
			c-0.196-0.164-0.411-0.315-0.645-0.455s-0.448-0.296-0.645-0.47c-0.197-0.173-0.362-0.372-0.495-0.595
			c-0.134-0.224-0.2-0.495-0.2-0.815c0-0.514,0.113-0.928,0.34-1.245C-324.327,15.232-323.96,15.07-323.454,15.064z"/>
		<path fill="#F2F2F2" d="M-319.904,22.114v-6.79h-1.52v-0.21h3.27v0.21h-1.53v6.79H-319.904z"/>
		<path fill="#F2F2F2" d="M-317.334,20.394c0,0.214,0.02,0.414,0.06,0.6c0.04,0.187,0.108,0.354,0.205,0.5
			c0.097,0.147,0.224,0.262,0.38,0.345s0.352,0.125,0.585,0.125s0.429-0.042,0.585-0.125c0.157-0.083,0.283-0.198,0.38-0.345
			c0.097-0.146,0.165-0.313,0.205-0.5c0.04-0.187,0.061-0.386,0.061-0.6v-5.28h0.21v5.27c0,0.24-0.025,0.468-0.075,0.685
			s-0.132,0.405-0.245,0.565s-0.262,0.289-0.445,0.385c-0.183,0.097-0.408,0.145-0.675,0.145s-0.491-0.048-0.675-0.145
			c-0.184-0.096-0.333-0.225-0.45-0.385c-0.116-0.16-0.2-0.348-0.25-0.565s-0.075-0.445-0.075-0.685v-5.27h0.221V20.394z"/>
		<path fill="#F2F2F2" d="M-312.414,15.114c0.267,0,0.496,0.045,0.689,0.135c0.193,0.09,0.352,0.212,0.476,0.365
			c0.123,0.153,0.213,0.338,0.27,0.555c0.057,0.216,0.085,0.448,0.085,0.695v3.51c0,0.247-0.028,0.477-0.085,0.69
			s-0.146,0.396-0.27,0.55c-0.124,0.153-0.28,0.275-0.471,0.365c-0.189,0.09-0.418,0.135-0.685,0.135h-1.47v-7H-312.414z
			 M-312.414,21.904c0.233,0,0.433-0.038,0.6-0.115c0.167-0.076,0.302-0.183,0.405-0.32s0.178-0.296,0.225-0.48
			c0.047-0.183,0.07-0.385,0.07-0.605v-3.53c0-0.22-0.023-0.423-0.07-0.61c-0.047-0.187-0.123-0.348-0.229-0.485
			c-0.107-0.137-0.242-0.243-0.405-0.32s-0.361-0.115-0.595-0.115h-1.24v6.58H-312.414z"/>
		<path fill="#F2F2F2" d="M-307.835,18.464v0.2h-2.06v3.24h2.45v0.21h-2.67v-7h2.67v0.21h-2.45v3.14H-307.835z"/>
		<path fill="#F2F2F2" d="M-306.454,22.114h-0.21v-7h0.31l2.46,6.55v-6.55h0.21v7h-0.27l-2.5-6.68V22.114z"/>
		<path fill="#F2F2F2" d="M-301.574,22.114v-6.79h-1.52v-0.21h3.27v0.21h-1.53v6.79H-301.574z"/>
		<path fill="#F2F2F2" d="M-297.444,15.114v7h-0.22v-7H-297.444z"/>
		<path fill="#F2F2F2" d="M-296.435,22.114h-0.21v-7h0.31l2.46,6.55v-6.55h0.21v7h-0.27l-2.5-6.68V22.114z"/>
		<path fill="#F2F2F2" d="M-290.685,18.634v0.21h-1.96v3.27h-0.22v-7h2.569v0.21h-2.35v3.31H-290.685z"/>
		<path fill="#F2F2F2" d="M-289.545,16.834c0-0.247,0.027-0.477,0.08-0.69c0.054-0.213,0.141-0.4,0.261-0.56
			c0.119-0.16,0.272-0.287,0.46-0.38c0.187-0.093,0.413-0.14,0.68-0.14s0.495,0.046,0.685,0.14c0.19,0.094,0.346,0.22,0.465,0.38
			c0.12,0.16,0.209,0.347,0.266,0.56c0.057,0.214,0.085,0.444,0.085,0.69v3.56c0,0.247-0.028,0.477-0.085,0.69
			s-0.146,0.4-0.266,0.56c-0.119,0.16-0.274,0.287-0.465,0.38c-0.189,0.093-0.418,0.14-0.685,0.14s-0.493-0.046-0.68-0.14
			c-0.188-0.093-0.341-0.22-0.46-0.38c-0.12-0.16-0.207-0.346-0.261-0.56c-0.053-0.213-0.08-0.443-0.08-0.69V16.834z
			 M-289.324,20.404c0,0.213,0.021,0.415,0.064,0.605c0.044,0.19,0.115,0.355,0.215,0.495c0.101,0.14,0.23,0.251,0.391,0.335
			s0.356,0.125,0.59,0.125s0.432-0.042,0.595-0.125s0.295-0.195,0.396-0.335c0.1-0.14,0.173-0.305,0.22-0.495s0.07-0.392,0.07-0.605
			v-3.58c0-0.213-0.023-0.415-0.07-0.605s-0.12-0.355-0.22-0.495c-0.101-0.14-0.232-0.251-0.396-0.335
			c-0.163-0.083-0.361-0.125-0.595-0.125s-0.43,0.042-0.59,0.125c-0.16,0.083-0.29,0.195-0.391,0.335
			c-0.1,0.14-0.171,0.305-0.215,0.495c-0.043,0.19-0.064,0.392-0.064,0.605V20.404z"/>
		<path fill="#F2F2F2" d="M-284.385,15.114c0.52,0,0.89,0.142,1.11,0.425c0.22,0.284,0.33,0.665,0.33,1.145v0.63
			c0,0.433-0.089,0.768-0.266,1.005s-0.458,0.392-0.845,0.465c0.394,0.06,0.677,0.212,0.85,0.455
			c0.174,0.244,0.261,0.559,0.261,0.945v1.1c0,0.133,0.011,0.277,0.034,0.43s0.075,0.287,0.155,0.4h-0.24
			c-0.073-0.113-0.12-0.242-0.14-0.385c-0.021-0.144-0.03-0.292-0.03-0.445v-1.1c0-0.26-0.036-0.473-0.109-0.64
			c-0.074-0.167-0.179-0.298-0.315-0.395s-0.299-0.165-0.485-0.205s-0.393-0.06-0.619-0.06h-0.86v3.23h-0.22v-7H-284.385z
			 M-284.694,18.674c0.239,0,0.454-0.019,0.645-0.055s0.35-0.105,0.48-0.205c0.13-0.1,0.229-0.235,0.3-0.405
			c0.069-0.17,0.104-0.392,0.104-0.665v-0.64c0-0.426-0.092-0.763-0.274-1.01c-0.184-0.247-0.502-0.37-0.955-0.37h-1.16v3.35
			H-284.694z"/>
		<path fill="#F2F2F2" d="M-279.795,22.094h-0.25l-1.73-6.65v6.67h-0.199v-7h0.34l1.72,6.64l1.72-6.64h0.34v7h-0.22v-6.67
			L-279.795,22.094z"/>
		<path fill="#F2F2F2" d="M-276.475,20.464l-0.41,1.65h-0.2l1.689-7.01h0.311l1.729,7.01h-0.22l-0.41-1.65H-276.475z
			 M-276.436,20.264h2.41l-1.22-4.9L-276.436,20.264z"/>
		<path fill="#F2F2F2" d="M-271.655,22.114v-6.79h-1.52v-0.21h3.27v0.21h-1.53v6.79H-271.655z"/>
		<path fill="#F2F2F2" d="M-269.075,15.114v7h-0.22v-7H-269.075z"/>
		<path fill="#F2F2F2" d="M-268.286,16.834c0-0.247,0.027-0.477,0.08-0.69c0.054-0.213,0.141-0.4,0.261-0.56
			c0.119-0.16,0.272-0.287,0.46-0.38c0.187-0.093,0.413-0.14,0.68-0.14s0.495,0.046,0.685,0.14c0.19,0.094,0.346,0.22,0.465,0.38
			c0.12,0.16,0.209,0.347,0.266,0.56c0.057,0.214,0.085,0.444,0.085,0.69v3.56c0,0.247-0.028,0.477-0.085,0.69
			s-0.146,0.4-0.266,0.56c-0.119,0.16-0.274,0.287-0.465,0.38c-0.189,0.093-0.418,0.14-0.685,0.14s-0.493-0.046-0.68-0.14
			c-0.188-0.093-0.341-0.22-0.46-0.38c-0.12-0.16-0.207-0.346-0.261-0.56c-0.053-0.213-0.08-0.443-0.08-0.69V16.834z
			 M-268.065,20.404c0,0.213,0.021,0.415,0.064,0.605c0.044,0.19,0.115,0.355,0.215,0.495c0.101,0.14,0.23,0.251,0.391,0.335
			s0.356,0.125,0.59,0.125s0.432-0.042,0.595-0.125s0.295-0.195,0.396-0.335c0.1-0.14,0.173-0.305,0.22-0.495s0.07-0.392,0.07-0.605
			v-3.58c0-0.213-0.023-0.415-0.07-0.605s-0.12-0.355-0.22-0.495c-0.101-0.14-0.232-0.251-0.396-0.335
			c-0.163-0.083-0.361-0.125-0.595-0.125s-0.43,0.042-0.59,0.125c-0.16,0.083-0.29,0.195-0.391,0.335
			c-0.1,0.14-0.171,0.305-0.215,0.495c-0.043,0.19-0.064,0.392-0.064,0.605V20.404z"/>
		<path fill="#F2F2F2" d="M-264.305,22.114h-0.21v-7h0.31l2.46,6.55v-6.55h0.21v7h-0.27l-2.5-6.68V22.114z"/>
		<path fill="#F2F2F2" d="M-257.736,15.064c0.267,0,0.492,0.045,0.676,0.135c0.183,0.09,0.331,0.215,0.444,0.375
			s0.197,0.345,0.25,0.555c0.054,0.21,0.08,0.435,0.08,0.675v0.13h-0.22v-0.14c0-0.207-0.021-0.403-0.065-0.59
			c-0.043-0.187-0.111-0.35-0.205-0.49c-0.093-0.14-0.218-0.25-0.375-0.33c-0.156-0.08-0.348-0.12-0.574-0.12
			c-0.233,0-0.429,0.04-0.585,0.12c-0.157,0.08-0.282,0.19-0.375,0.33c-0.094,0.14-0.162,0.302-0.205,0.485
			c-0.044,0.184-0.065,0.378-0.065,0.585c0,0.3,0.066,0.554,0.2,0.76c0.133,0.207,0.298,0.392,0.495,0.555
			c0.196,0.164,0.411,0.317,0.645,0.46c0.233,0.144,0.448,0.3,0.646,0.47c0.196,0.17,0.361,0.367,0.495,0.59
			c0.133,0.224,0.199,0.492,0.199,0.805c0,0.24-0.026,0.467-0.079,0.68c-0.054,0.213-0.139,0.398-0.256,0.555
			c-0.116,0.157-0.268,0.28-0.455,0.37c-0.187,0.09-0.413,0.135-0.68,0.135s-0.491-0.045-0.675-0.135s-0.333-0.213-0.45-0.37
			c-0.116-0.156-0.201-0.341-0.255-0.555s-0.08-0.44-0.08-0.68v-0.34h0.21v0.35c0,0.213,0.021,0.412,0.065,0.595
			c0.043,0.184,0.114,0.343,0.215,0.48c0.1,0.137,0.229,0.245,0.385,0.325c0.156,0.08,0.352,0.12,0.585,0.12
			c0.227,0,0.42-0.04,0.58-0.12c0.16-0.08,0.29-0.188,0.39-0.325c0.101-0.137,0.172-0.296,0.216-0.48
			c0.043-0.183,0.064-0.382,0.064-0.595c0-0.293-0.066-0.543-0.2-0.75c-0.133-0.207-0.298-0.392-0.495-0.555
			c-0.196-0.164-0.411-0.315-0.645-0.455s-0.448-0.296-0.645-0.47c-0.197-0.173-0.362-0.372-0.495-0.595
			c-0.134-0.224-0.2-0.495-0.2-0.815c0-0.514,0.113-0.928,0.34-1.245C-258.609,15.232-258.242,15.07-257.736,15.064z"/>
		<path fill="#F2F2F2" d="M-253.976,19.284l-1.63-4.17h0.22l1.53,3.87l1.529-3.87h0.23l-1.66,4.17v2.83h-0.22V19.284z"/>
		<path fill="#F2F2F2" d="M-249.966,15.064c0.267,0,0.492,0.045,0.676,0.135c0.183,0.09,0.331,0.215,0.444,0.375
			s0.197,0.345,0.25,0.555c0.054,0.21,0.08,0.435,0.08,0.675v0.13h-0.22v-0.14c0-0.207-0.021-0.403-0.065-0.59
			c-0.043-0.187-0.111-0.35-0.205-0.49c-0.093-0.14-0.218-0.25-0.375-0.33c-0.156-0.08-0.348-0.12-0.574-0.12
			c-0.233,0-0.429,0.04-0.585,0.12c-0.157,0.08-0.282,0.19-0.375,0.33c-0.094,0.14-0.162,0.302-0.205,0.485
			c-0.044,0.184-0.065,0.378-0.065,0.585c0,0.3,0.066,0.554,0.2,0.76c0.133,0.207,0.298,0.392,0.495,0.555
			c0.196,0.164,0.411,0.317,0.645,0.46c0.233,0.144,0.448,0.3,0.646,0.47c0.196,0.17,0.361,0.367,0.495,0.59
			c0.133,0.224,0.199,0.492,0.199,0.805c0,0.24-0.026,0.467-0.079,0.68c-0.054,0.213-0.139,0.398-0.256,0.555
			c-0.116,0.157-0.268,0.28-0.455,0.37c-0.187,0.09-0.413,0.135-0.68,0.135s-0.491-0.045-0.675-0.135s-0.333-0.213-0.45-0.37
			c-0.116-0.156-0.201-0.341-0.255-0.555s-0.08-0.44-0.08-0.68v-0.34h0.21v0.35c0,0.213,0.021,0.412,0.065,0.595
			c0.043,0.184,0.114,0.343,0.215,0.48c0.1,0.137,0.229,0.245,0.385,0.325c0.156,0.08,0.352,0.12,0.585,0.12
			c0.227,0,0.42-0.04,0.58-0.12c0.16-0.08,0.29-0.188,0.39-0.325c0.101-0.137,0.172-0.296,0.216-0.48
			c0.043-0.183,0.064-0.382,0.064-0.595c0-0.293-0.066-0.543-0.2-0.75c-0.133-0.207-0.298-0.392-0.495-0.555
			c-0.196-0.164-0.411-0.315-0.645-0.455s-0.448-0.296-0.645-0.47c-0.197-0.173-0.362-0.372-0.495-0.595
			c-0.134-0.224-0.2-0.495-0.2-0.815c0-0.514,0.113-0.928,0.34-1.245C-250.839,15.232-250.472,15.07-249.966,15.064z"/>
		<path fill="#F2F2F2" d="M-246.416,22.114v-6.79h-1.52v-0.21h3.27v0.21h-1.53v6.79H-246.416z"/>
		<path fill="#F2F2F2" d="M-241.776,18.464v0.2h-2.06v3.24h2.45v0.21h-2.67v-7h2.67v0.21h-2.45v3.14H-241.776z"/>
		<path fill="#F2F2F2" d="M-238.426,22.094h-0.25l-1.73-6.65v6.67h-0.199v-7h0.34l1.72,6.64l1.72-6.64h0.34v7h-0.22v-6.67
			L-238.426,22.094z"/>
	</g>
	<g>
		<path fill="#F2F2F2" d="M-159.965,29.524L-160.58,32h-0.3l2.535-10.515h0.465L-155.285,32h-0.33l-0.614-2.475H-159.965z
			 M-159.905,29.225h3.615l-1.83-7.35L-159.905,29.225z"/>
		<path fill="#F2F2F2" d="M-151.97,21.424c0.399,0,0.74,0.07,1.02,0.21c0.28,0.141,0.508,0.33,0.683,0.57
			c0.175,0.24,0.303,0.522,0.383,0.848c0.08,0.325,0.12,0.667,0.12,1.027v0.81h-0.33v-0.825c0-0.32-0.033-0.623-0.098-0.907
			c-0.065-0.285-0.17-0.533-0.315-0.743c-0.145-0.21-0.337-0.377-0.577-0.502s-0.53-0.188-0.87-0.188
			c-0.35,0-0.645,0.063-0.885,0.188s-0.433,0.292-0.577,0.502c-0.146,0.21-0.25,0.458-0.315,0.743
			c-0.065,0.285-0.098,0.587-0.098,0.907v5.37c0,0.32,0.032,0.62,0.098,0.9c0.065,0.28,0.17,0.525,0.315,0.735
			c0.145,0.21,0.337,0.378,0.577,0.502c0.24,0.125,0.535,0.188,0.885,0.188c0.34,0,0.63-0.062,0.87-0.188
			c0.24-0.125,0.433-0.292,0.577-0.502c0.146-0.21,0.25-0.455,0.315-0.735c0.064-0.28,0.098-0.58,0.098-0.9v-1.155h0.33v1.14
			c0,0.36-0.04,0.703-0.12,1.027c-0.08,0.325-0.208,0.608-0.383,0.848c-0.175,0.24-0.402,0.43-0.683,0.57
			c-0.279,0.14-0.62,0.21-1.02,0.21c-0.4,0-0.737-0.07-1.013-0.21c-0.275-0.14-0.5-0.33-0.675-0.57
			c-0.175-0.24-0.303-0.522-0.383-0.848c-0.08-0.325-0.12-0.667-0.12-1.027v-5.34c0-0.36,0.04-0.703,0.12-1.027
			c0.08-0.325,0.208-0.608,0.383-0.848c0.175-0.24,0.399-0.43,0.675-0.57C-152.707,21.495-152.37,21.424-151.97,21.424z"/>
		<path fill="#F2F2F2" d="M-146.42,21.424c0.399,0,0.74,0.07,1.02,0.21c0.28,0.141,0.508,0.33,0.683,0.57
			c0.175,0.24,0.303,0.522,0.383,0.848c0.08,0.325,0.12,0.667,0.12,1.027v0.81h-0.33v-0.825c0-0.32-0.033-0.623-0.098-0.907
			c-0.065-0.285-0.17-0.533-0.315-0.743c-0.145-0.21-0.337-0.377-0.577-0.502s-0.53-0.188-0.87-0.188
			c-0.35,0-0.645,0.063-0.885,0.188s-0.433,0.292-0.577,0.502c-0.146,0.21-0.25,0.458-0.315,0.743
			c-0.065,0.285-0.098,0.587-0.098,0.907v5.37c0,0.32,0.032,0.62,0.098,0.9c0.065,0.28,0.17,0.525,0.315,0.735
			c0.145,0.21,0.337,0.378,0.577,0.502c0.24,0.125,0.535,0.188,0.885,0.188c0.34,0,0.63-0.062,0.87-0.188
			c0.24-0.125,0.433-0.292,0.577-0.502c0.146-0.21,0.25-0.455,0.315-0.735c0.064-0.28,0.098-0.58,0.098-0.9v-1.155h0.33v1.14
			c0,0.36-0.04,0.703-0.12,1.027c-0.08,0.325-0.208,0.608-0.383,0.848c-0.175,0.24-0.402,0.43-0.683,0.57
			c-0.279,0.14-0.62,0.21-1.02,0.21c-0.4,0-0.737-0.07-1.013-0.21c-0.275-0.14-0.5-0.33-0.675-0.57
			c-0.175-0.24-0.303-0.522-0.383-0.848c-0.08-0.325-0.12-0.667-0.12-1.027v-5.34c0-0.36,0.04-0.703,0.12-1.027
			c0.08-0.325,0.208-0.608,0.383-0.848c0.175-0.24,0.399-0.43,0.675-0.57C-147.157,21.495-146.82,21.424-146.42,21.424z"/>
		<path fill="#F2F2F2" d="M-143.06,24.08c0-0.37,0.04-0.715,0.12-1.035c0.08-0.32,0.21-0.6,0.39-0.84c0.18-0.24,0.41-0.43,0.69-0.57
			c0.279-0.14,0.619-0.21,1.02-0.21s0.742,0.07,1.027,0.21c0.285,0.141,0.518,0.33,0.697,0.57c0.181,0.24,0.313,0.52,0.398,0.84
			c0.084,0.32,0.127,0.665,0.127,1.035v5.34c0,0.37-0.043,0.715-0.127,1.035c-0.086,0.32-0.218,0.6-0.398,0.84
			c-0.18,0.24-0.412,0.43-0.697,0.57c-0.285,0.14-0.627,0.21-1.027,0.21s-0.74-0.07-1.02-0.21c-0.28-0.14-0.511-0.33-0.69-0.57
			c-0.18-0.24-0.31-0.52-0.39-0.84c-0.08-0.32-0.12-0.665-0.12-1.035V24.08z M-142.729,29.435c0,0.32,0.032,0.623,0.098,0.907
			c0.064,0.285,0.172,0.533,0.322,0.743c0.149,0.21,0.345,0.377,0.585,0.502c0.24,0.125,0.535,0.188,0.885,0.188
			s0.647-0.062,0.893-0.188c0.245-0.125,0.442-0.292,0.593-0.502c0.149-0.21,0.26-0.458,0.33-0.743
			c0.069-0.285,0.104-0.587,0.104-0.907v-5.37c0-0.32-0.035-0.623-0.104-0.907c-0.07-0.285-0.181-0.533-0.33-0.743
			c-0.15-0.21-0.348-0.377-0.593-0.502s-0.543-0.188-0.893-0.188s-0.645,0.063-0.885,0.188s-0.436,0.292-0.585,0.502
			c-0.15,0.21-0.258,0.458-0.322,0.743c-0.065,0.285-0.098,0.587-0.098,0.907V29.435z"/>
		<path fill="#F2F2F2" d="M-134.135,31.97h-0.375l-2.596-9.975V32h-0.3V21.5h0.51l2.58,9.96l2.58-9.96h0.51V32h-0.329V21.995
			L-134.135,31.97z"/>
		<path fill="#F2F2F2" d="M-130.04,24.08c0-0.37,0.04-0.715,0.12-1.035c0.08-0.32,0.21-0.6,0.39-0.84c0.18-0.24,0.41-0.43,0.69-0.57
			c0.279-0.14,0.619-0.21,1.02-0.21s0.742,0.07,1.027,0.21c0.285,0.141,0.518,0.33,0.697,0.57c0.181,0.24,0.313,0.52,0.398,0.84
			c0.084,0.32,0.127,0.665,0.127,1.035v5.34c0,0.37-0.043,0.715-0.127,1.035c-0.086,0.32-0.218,0.6-0.398,0.84
			c-0.18,0.24-0.412,0.43-0.697,0.57c-0.285,0.14-0.627,0.21-1.027,0.21s-0.74-0.07-1.02-0.21c-0.28-0.14-0.511-0.33-0.69-0.57
			c-0.18-0.24-0.31-0.52-0.39-0.84c-0.08-0.32-0.12-0.665-0.12-1.035V24.08z M-129.71,29.435c0,0.32,0.032,0.623,0.098,0.907
			c0.064,0.285,0.172,0.533,0.322,0.743c0.149,0.21,0.345,0.377,0.585,0.502c0.24,0.125,0.535,0.188,0.885,0.188
			s0.647-0.062,0.893-0.188c0.245-0.125,0.442-0.292,0.593-0.502c0.149-0.21,0.26-0.458,0.33-0.743
			c0.069-0.285,0.104-0.587,0.104-0.907v-5.37c0-0.32-0.035-0.623-0.104-0.907c-0.07-0.285-0.181-0.533-0.33-0.743
			c-0.15-0.21-0.348-0.377-0.593-0.502s-0.543-0.188-0.893-0.188s-0.645,0.063-0.885,0.188s-0.436,0.292-0.585,0.502
			c-0.15,0.21-0.258,0.458-0.322,0.743c-0.065,0.285-0.098,0.587-0.098,0.907V29.435z"/>
		<path fill="#F2F2F2" d="M-122.195,21.5c0.399,0,0.744,0.067,1.035,0.203c0.289,0.135,0.527,0.317,0.712,0.547
			c0.186,0.23,0.32,0.508,0.405,0.833c0.085,0.325,0.127,0.673,0.127,1.042v5.265c0,0.37-0.042,0.715-0.127,1.035
			c-0.085,0.32-0.22,0.595-0.405,0.825c-0.185,0.23-0.42,0.413-0.705,0.547c-0.285,0.135-0.627,0.203-1.027,0.203h-2.205V21.5
			H-122.195z M-122.195,31.685c0.35,0,0.649-0.058,0.899-0.172c0.25-0.115,0.453-0.275,0.607-0.48
			c0.155-0.205,0.268-0.445,0.338-0.72c0.07-0.275,0.105-0.578,0.105-0.908v-5.295c0-0.33-0.035-0.635-0.105-0.915
			c-0.07-0.28-0.186-0.522-0.345-0.728c-0.16-0.205-0.363-0.365-0.607-0.48c-0.245-0.115-0.543-0.172-0.893-0.172h-1.86v9.87
			H-122.195z"/>
		<path fill="#F2F2F2" d="M-117.891,29.524L-118.506,32h-0.3l2.535-10.515h0.465L-113.211,32h-0.33l-0.614-2.475H-117.891z
			 M-117.831,29.225h3.615l-1.83-7.35L-117.831,29.225z"/>
		<path fill="#F2F2F2" d="M-110.66,32V21.814h-2.28V21.5h4.905v0.315h-2.295V32H-110.66z"/>
		<path fill="#F2F2F2" d="M-106.79,21.5V32h-0.33V21.5H-106.79z"/>
		<path fill="#F2F2F2" d="M-105.605,24.08c0-0.37,0.04-0.715,0.12-1.035c0.08-0.32,0.21-0.6,0.39-0.84
			c0.181-0.24,0.41-0.43,0.69-0.57c0.279-0.14,0.62-0.21,1.02-0.21c0.4,0,0.743,0.07,1.027,0.21c0.285,0.141,0.518,0.33,0.698,0.57
			c0.18,0.24,0.313,0.52,0.397,0.84c0.085,0.32,0.127,0.665,0.127,1.035v5.34c0,0.37-0.042,0.715-0.127,1.035
			c-0.085,0.32-0.218,0.6-0.397,0.84c-0.181,0.24-0.413,0.43-0.698,0.57c-0.284,0.14-0.627,0.21-1.027,0.21
			c-0.399,0-0.74-0.07-1.02-0.21c-0.28-0.14-0.51-0.33-0.69-0.57c-0.18-0.24-0.31-0.52-0.39-0.84c-0.08-0.32-0.12-0.665-0.12-1.035
			V24.08z M-105.275,29.435c0,0.32,0.032,0.623,0.098,0.907c0.064,0.285,0.172,0.533,0.322,0.743s0.345,0.377,0.585,0.502
			c0.24,0.125,0.535,0.188,0.885,0.188c0.351,0,0.647-0.062,0.893-0.188c0.245-0.125,0.442-0.292,0.593-0.502s0.26-0.458,0.33-0.743
			c0.069-0.285,0.104-0.587,0.104-0.907v-5.37c0-0.32-0.035-0.623-0.104-0.907c-0.07-0.285-0.18-0.533-0.33-0.743
			s-0.348-0.377-0.593-0.502s-0.542-0.188-0.893-0.188c-0.35,0-0.645,0.063-0.885,0.188s-0.435,0.292-0.585,0.502
			s-0.258,0.458-0.322,0.743c-0.065,0.285-0.098,0.587-0.098,0.907V29.435z"/>
		<path fill="#F2F2F2" d="M-99.636,32h-0.315V21.5h0.466l3.689,9.825V21.5h0.315V32h-0.405l-3.75-10.02V32z"/>
		<path fill="#F2F2F2" d="M-91.956,32V21.5h0.33v10.185h3.525V32H-91.956z"/>
		<path fill="#F2F2F2" d="M-86.976,24.08c0-0.37,0.04-0.715,0.12-1.035c0.08-0.32,0.21-0.6,0.39-0.84
			c0.181-0.24,0.41-0.43,0.69-0.57c0.279-0.14,0.62-0.21,1.02-0.21c0.4,0,0.743,0.07,1.027,0.21c0.285,0.141,0.518,0.33,0.698,0.57
			c0.18,0.24,0.313,0.52,0.397,0.84c0.085,0.32,0.127,0.665,0.127,1.035v5.34c0,0.37-0.042,0.715-0.127,1.035
			c-0.085,0.32-0.218,0.6-0.397,0.84c-0.181,0.24-0.413,0.43-0.698,0.57c-0.284,0.14-0.627,0.21-1.027,0.21
			c-0.399,0-0.74-0.07-1.02-0.21c-0.28-0.14-0.51-0.33-0.69-0.57c-0.18-0.24-0.31-0.52-0.39-0.84c-0.08-0.32-0.12-0.665-0.12-1.035
			V24.08z M-86.646,29.435c0,0.32,0.032,0.623,0.098,0.907c0.064,0.285,0.172,0.533,0.322,0.743s0.345,0.377,0.585,0.502
			c0.24,0.125,0.535,0.188,0.885,0.188c0.351,0,0.647-0.062,0.893-0.188c0.245-0.125,0.442-0.292,0.593-0.502s0.26-0.458,0.33-0.743
			c0.069-0.285,0.104-0.587,0.104-0.907v-5.37c0-0.32-0.035-0.623-0.104-0.907c-0.07-0.285-0.18-0.533-0.33-0.743
			s-0.348-0.377-0.593-0.502s-0.542-0.188-0.893-0.188c-0.35,0-0.645,0.063-0.885,0.188s-0.435,0.292-0.585,0.502
			s-0.258,0.458-0.322,0.743c-0.065,0.285-0.098,0.587-0.098,0.907V29.435z"/>
		<path fill="#F2F2F2" d="M-79.146,21.424c0.399,0,0.739,0.07,1.02,0.21c0.28,0.141,0.508,0.33,0.683,0.57
			c0.175,0.24,0.303,0.522,0.383,0.848c0.079,0.325,0.12,0.667,0.12,1.027v0.81h-0.33v-0.825c0-0.32-0.033-0.623-0.098-0.907
			c-0.065-0.285-0.17-0.533-0.315-0.743c-0.145-0.21-0.337-0.377-0.577-0.502s-0.53-0.188-0.87-0.188
			c-0.351,0-0.646,0.063-0.885,0.188c-0.24,0.125-0.433,0.292-0.578,0.502c-0.145,0.21-0.25,0.458-0.314,0.743
			c-0.065,0.285-0.098,0.587-0.098,0.907v5.37c0,0.32,0.032,0.62,0.098,0.9c0.064,0.28,0.17,0.525,0.314,0.735
			c0.146,0.21,0.338,0.378,0.578,0.502c0.239,0.125,0.534,0.188,0.885,0.188c0.34,0,0.63-0.062,0.87-0.188
			c0.24-0.125,0.433-0.292,0.577-0.502c0.146-0.21,0.25-0.455,0.315-0.735c0.064-0.28,0.098-0.58,0.098-0.9v-1.155h0.33v1.14
			c0,0.36-0.041,0.703-0.12,1.027c-0.08,0.325-0.208,0.608-0.383,0.848c-0.175,0.24-0.402,0.43-0.683,0.57
			c-0.28,0.14-0.62,0.21-1.02,0.21c-0.4,0-0.738-0.07-1.013-0.21c-0.275-0.14-0.5-0.33-0.675-0.57
			c-0.176-0.24-0.303-0.522-0.383-0.848c-0.08-0.325-0.12-0.667-0.12-1.027v-5.34c0-0.36,0.04-0.703,0.12-1.027
			c0.08-0.325,0.207-0.608,0.383-0.848c0.175-0.24,0.399-0.43,0.675-0.57C-79.884,21.495-79.546,21.424-79.146,21.424z"/>
		<path fill="#F2F2F2" d="M-74.901,29.524L-75.516,32h-0.301l2.535-10.515h0.465L-70.221,32h-0.33l-0.615-2.475H-74.901z
			 M-74.841,29.225h3.614l-1.829-7.35L-74.841,29.225z"/>
		<path fill="#F2F2F2" d="M-67.671,32V21.814h-2.28V21.5h4.905v0.315h-2.296V32H-67.671z"/>
		<path fill="#F2F2F2" d="M-64.146,24.08c0-0.37,0.04-0.715,0.12-1.035c0.08-0.32,0.21-0.6,0.39-0.84
			c0.181-0.24,0.41-0.43,0.69-0.57c0.279-0.14,0.62-0.21,1.02-0.21c0.4,0,0.743,0.07,1.027,0.21c0.285,0.141,0.518,0.33,0.698,0.57
			c0.18,0.24,0.313,0.52,0.397,0.84c0.085,0.32,0.127,0.665,0.127,1.035v5.34c0,0.37-0.042,0.715-0.127,1.035
			c-0.085,0.32-0.218,0.6-0.397,0.84c-0.181,0.24-0.413,0.43-0.698,0.57c-0.284,0.14-0.627,0.21-1.027,0.21
			c-0.399,0-0.74-0.07-1.02-0.21c-0.28-0.14-0.51-0.33-0.69-0.57c-0.18-0.24-0.31-0.52-0.39-0.84c-0.08-0.32-0.12-0.665-0.12-1.035
			V24.08z M-63.816,29.435c0,0.32,0.032,0.623,0.098,0.907c0.064,0.285,0.172,0.533,0.322,0.743s0.345,0.377,0.585,0.502
			c0.24,0.125,0.535,0.188,0.885,0.188c0.351,0,0.647-0.062,0.893-0.188c0.245-0.125,0.442-0.292,0.593-0.502s0.26-0.458,0.33-0.743
			c0.069-0.285,0.104-0.587,0.104-0.907v-5.37c0-0.32-0.035-0.623-0.104-0.907c-0.07-0.285-0.18-0.533-0.33-0.743
			s-0.348-0.377-0.593-0.502s-0.542-0.188-0.893-0.188c-0.35,0-0.645,0.063-0.885,0.188s-0.435,0.292-0.585,0.502
			s-0.258,0.458-0.322,0.743c-0.065,0.285-0.098,0.587-0.098,0.907V29.435z"/>
		<path fill="#F2F2F2" d="M-56.407,21.5c0.78,0,1.335,0.212,1.665,0.638c0.33,0.425,0.495,0.997,0.495,1.717v0.945
			c0,0.65-0.133,1.153-0.397,1.508s-0.688,0.587-1.268,0.697c0.59,0.09,1.016,0.318,1.275,0.683c0.26,0.365,0.39,0.838,0.39,1.417
			v1.65c0,0.2,0.018,0.415,0.053,0.645c0.035,0.23,0.112,0.43,0.232,0.6h-0.36c-0.109-0.17-0.18-0.362-0.21-0.578
			c-0.029-0.215-0.045-0.437-0.045-0.667v-1.65c0-0.39-0.055-0.71-0.165-0.96c-0.109-0.25-0.268-0.447-0.472-0.592
			c-0.205-0.145-0.448-0.248-0.728-0.308c-0.28-0.06-0.591-0.09-0.931-0.09h-1.29V32h-0.33V21.5H-56.407z M-56.872,26.839
			c0.36,0,0.683-0.027,0.968-0.083c0.285-0.055,0.525-0.157,0.72-0.307c0.195-0.15,0.346-0.353,0.45-0.608
			c0.105-0.255,0.157-0.587,0.157-0.997v-0.96c0-0.64-0.138-1.145-0.412-1.515c-0.275-0.37-0.753-0.555-1.433-0.555h-1.74v5.025
			H-56.872z"/>
	</g>
	<g>
		<path fill="#F2F2F2" d="M-153.112,16.185c0-0.148,0.016-0.286,0.048-0.414s0.084-0.24,0.156-0.336
			c0.071-0.096,0.163-0.172,0.275-0.228s0.248-0.084,0.408-0.084s0.297,0.028,0.411,0.084s0.207,0.132,0.278,0.228
			c0.072,0.096,0.125,0.208,0.159,0.336s0.052,0.266,0.052,0.414v2.136c0,0.148-0.018,0.286-0.052,0.414
			c-0.034,0.128-0.087,0.24-0.159,0.336c-0.071,0.096-0.164,0.172-0.278,0.228c-0.114,0.056-0.251,0.084-0.411,0.084
			s-0.296-0.028-0.408-0.084c-0.112-0.056-0.204-0.132-0.275-0.228c-0.072-0.096-0.124-0.208-0.156-0.336
			c-0.032-0.128-0.048-0.266-0.048-0.414V16.185z M-152.98,18.327c0,0.128,0.013,0.249,0.039,0.363
			c0.025,0.114,0.068,0.213,0.129,0.297c0.06,0.084,0.138,0.151,0.233,0.201c0.097,0.05,0.215,0.075,0.354,0.075
			s0.259-0.025,0.356-0.075c0.099-0.05,0.178-0.117,0.237-0.201c0.061-0.084,0.104-0.183,0.132-0.297
			c0.028-0.114,0.042-0.235,0.042-0.363v-2.148c0-0.128-0.014-0.249-0.042-0.363c-0.027-0.114-0.071-0.213-0.132-0.297
			c-0.06-0.084-0.139-0.151-0.237-0.201c-0.098-0.05-0.217-0.075-0.356-0.075s-0.258,0.025-0.354,0.075
			c-0.096,0.05-0.174,0.117-0.233,0.201c-0.061,0.084-0.104,0.183-0.129,0.297c-0.026,0.114-0.039,0.235-0.039,0.363V18.327z"/>
		<path fill="#F2F2F2" d="M-150.509,18.362l-0.246,0.99h-0.12l1.015-4.206h0.186l1.038,4.206h-0.132l-0.246-0.99H-150.509z
			 M-150.484,18.243h1.445l-0.731-2.94L-150.484,18.243z"/>
		<path fill="#F2F2F2" d="M-147.305,15.123c0.159,0,0.295,0.027,0.404,0.081c0.11,0.054,0.199,0.129,0.268,0.225
			c0.067,0.096,0.118,0.207,0.149,0.333c0.032,0.126,0.049,0.261,0.049,0.405v0.078h-0.133v-0.084c0-0.124-0.013-0.242-0.039-0.354
			c-0.025-0.112-0.066-0.21-0.123-0.294c-0.056-0.084-0.131-0.15-0.225-0.198s-0.209-0.072-0.345-0.072
			c-0.141,0-0.257,0.024-0.352,0.072c-0.094,0.048-0.169,0.114-0.225,0.198s-0.097,0.181-0.123,0.291
			c-0.026,0.11-0.039,0.227-0.039,0.351c0,0.18,0.04,0.333,0.12,0.456c0.08,0.124,0.179,0.235,0.297,0.333
			c0.118,0.098,0.247,0.19,0.387,0.276c0.141,0.086,0.27,0.18,0.388,0.282c0.117,0.102,0.217,0.22,0.297,0.354
			c0.08,0.134,0.12,0.295,0.12,0.483c0,0.144-0.017,0.28-0.048,0.408c-0.032,0.128-0.084,0.239-0.153,0.333
			c-0.07,0.094-0.161,0.168-0.273,0.222c-0.111,0.054-0.248,0.081-0.408,0.081c-0.159,0-0.295-0.027-0.404-0.081
			c-0.11-0.054-0.2-0.128-0.271-0.222c-0.069-0.094-0.121-0.205-0.152-0.333c-0.032-0.128-0.049-0.264-0.049-0.408v-0.204h0.126
			v0.21c0,0.128,0.014,0.247,0.039,0.357c0.026,0.11,0.069,0.206,0.13,0.288c0.06,0.082,0.137,0.147,0.23,0.195
			s0.211,0.072,0.351,0.072c0.137,0,0.253-0.024,0.349-0.072s0.174-0.113,0.233-0.195c0.061-0.082,0.104-0.178,0.13-0.288
			c0.025-0.11,0.038-0.229,0.038-0.357c0-0.176-0.039-0.326-0.119-0.45s-0.18-0.235-0.298-0.333
			c-0.117-0.098-0.246-0.189-0.387-0.273c-0.14-0.084-0.269-0.178-0.387-0.282c-0.118-0.104-0.217-0.223-0.297-0.357
			c-0.08-0.134-0.12-0.297-0.12-0.489c0-0.308,0.068-0.557,0.204-0.747S-147.609,15.126-147.305,15.123z"/>
		<path fill="#F2F2F2" d="M-145.829,15.152v4.2h-0.132v-4.2H-145.829z"/>
		<path fill="#F2F2F2" d="M-144.479,15.123c0.159,0,0.295,0.027,0.404,0.081c0.11,0.054,0.199,0.129,0.268,0.225
			c0.067,0.096,0.118,0.207,0.149,0.333c0.032,0.126,0.049,0.261,0.049,0.405v0.078h-0.133v-0.084c0-0.124-0.013-0.242-0.039-0.354
			c-0.025-0.112-0.066-0.21-0.123-0.294c-0.056-0.084-0.131-0.15-0.225-0.198s-0.209-0.072-0.345-0.072
			c-0.141,0-0.257,0.024-0.352,0.072c-0.094,0.048-0.169,0.114-0.225,0.198s-0.097,0.181-0.123,0.291
			c-0.026,0.11-0.039,0.227-0.039,0.351c0,0.18,0.04,0.333,0.12,0.456c0.08,0.124,0.179,0.235,0.297,0.333
			c0.118,0.098,0.247,0.19,0.387,0.276c0.141,0.086,0.27,0.18,0.388,0.282c0.117,0.102,0.217,0.22,0.297,0.354
			c0.08,0.134,0.12,0.295,0.12,0.483c0,0.144-0.017,0.28-0.048,0.408c-0.032,0.128-0.084,0.239-0.153,0.333
			c-0.07,0.094-0.161,0.168-0.273,0.222c-0.111,0.054-0.248,0.081-0.408,0.081c-0.159,0-0.295-0.027-0.404-0.081
			c-0.11-0.054-0.2-0.128-0.271-0.222c-0.069-0.094-0.121-0.205-0.152-0.333c-0.032-0.128-0.049-0.264-0.049-0.408v-0.204h0.126
			v0.21c0,0.128,0.014,0.247,0.039,0.357c0.026,0.11,0.069,0.206,0.13,0.288c0.06,0.082,0.137,0.147,0.23,0.195
			s0.211,0.072,0.351,0.072c0.137,0,0.253-0.024,0.349-0.072s0.174-0.113,0.233-0.195c0.061-0.082,0.104-0.178,0.13-0.288
			c0.025-0.11,0.038-0.229,0.038-0.357c0-0.176-0.039-0.326-0.119-0.45s-0.18-0.235-0.298-0.333
			c-0.117-0.098-0.246-0.189-0.387-0.273c-0.14-0.084-0.269-0.178-0.387-0.282c-0.118-0.104-0.217-0.223-0.297-0.357
			c-0.08-0.134-0.12-0.297-0.12-0.489c0-0.308,0.068-0.557,0.204-0.747S-144.783,15.126-144.479,15.123z"/>
	</g>
	<g>
		<path fill="#F2F2F2" d="M55.1,21.424c0.399,0,0.74,0.07,1.02,0.21c0.28,0.141,0.508,0.33,0.683,0.57
			c0.175,0.24,0.303,0.522,0.383,0.848c0.08,0.325,0.12,0.667,0.12,1.027v0.81h-0.33v-0.825c0-0.32-0.033-0.623-0.098-0.907
			c-0.065-0.285-0.17-0.533-0.315-0.743c-0.145-0.21-0.337-0.377-0.577-0.502s-0.53-0.188-0.87-0.188
			c-0.35,0-0.645,0.063-0.885,0.188s-0.433,0.292-0.577,0.502c-0.146,0.21-0.25,0.458-0.315,0.743
			c-0.065,0.285-0.098,0.587-0.098,0.907v5.37c0,0.32,0.032,0.62,0.098,0.9c0.065,0.28,0.17,0.525,0.315,0.735
			c0.145,0.21,0.337,0.378,0.577,0.502c0.24,0.125,0.535,0.188,0.885,0.188c0.34,0,0.63-0.062,0.87-0.188
			c0.24-0.125,0.433-0.292,0.577-0.502c0.146-0.21,0.25-0.455,0.315-0.735c0.064-0.28,0.098-0.58,0.098-0.9v-1.155h0.33v1.14
			c0,0.36-0.04,0.703-0.12,1.027c-0.08,0.325-0.208,0.608-0.383,0.848c-0.175,0.24-0.402,0.43-0.683,0.57
			c-0.279,0.14-0.62,0.21-1.02,0.21c-0.4,0-0.737-0.07-1.013-0.21c-0.275-0.14-0.5-0.33-0.675-0.57
			c-0.175-0.24-0.303-0.522-0.383-0.848c-0.08-0.325-0.12-0.667-0.12-1.027v-5.34c0-0.36,0.04-0.703,0.12-1.027
			c0.08-0.325,0.208-0.608,0.383-0.848c0.175-0.24,0.399-0.43,0.675-0.57C54.362,21.495,54.699,21.424,55.1,21.424z"/>
		<path fill="#F2F2F2" d="M58.459,24.08c0-0.37,0.04-0.715,0.12-1.035c0.08-0.32,0.21-0.6,0.391-0.84
			c0.18-0.24,0.409-0.43,0.689-0.57c0.28-0.14,0.62-0.21,1.021-0.21c0.399,0,0.742,0.07,1.027,0.21
			c0.285,0.141,0.518,0.33,0.697,0.57c0.18,0.24,0.313,0.52,0.397,0.84c0.085,0.32,0.128,0.665,0.128,1.035v5.34
			c0,0.37-0.043,0.715-0.128,1.035c-0.085,0.32-0.218,0.6-0.397,0.84c-0.18,0.24-0.412,0.43-0.697,0.57
			c-0.285,0.14-0.628,0.21-1.027,0.21c-0.4,0-0.74-0.07-1.021-0.21c-0.28-0.14-0.51-0.33-0.689-0.57
			c-0.181-0.24-0.311-0.52-0.391-0.84c-0.08-0.32-0.12-0.665-0.12-1.035V24.08z M58.789,29.435c0,0.32,0.032,0.623,0.098,0.907
			c0.065,0.285,0.173,0.533,0.322,0.743c0.15,0.21,0.346,0.377,0.585,0.502c0.24,0.125,0.535,0.188,0.886,0.188
			c0.35,0,0.646-0.062,0.892-0.188c0.245-0.125,0.443-0.292,0.593-0.502c0.15-0.21,0.26-0.458,0.33-0.743
			c0.07-0.285,0.105-0.587,0.105-0.907v-5.37c0-0.32-0.035-0.623-0.105-0.907c-0.07-0.285-0.18-0.533-0.33-0.743
			c-0.149-0.21-0.348-0.377-0.593-0.502s-0.542-0.188-0.892-0.188c-0.351,0-0.646,0.063-0.886,0.188
			c-0.239,0.125-0.435,0.292-0.585,0.502c-0.149,0.21-0.257,0.458-0.322,0.743c-0.065,0.285-0.098,0.587-0.098,0.907V29.435z"/>
		<path fill="#F2F2F2" d="M64.43,32h-0.315V21.5h0.465l3.69,9.825V21.5h0.314V32H68.18l-3.75-10.02V32z"/>
		<path fill="#F2F2F2" d="M71.749,32V21.814H69.47V21.5h4.904v0.315h-2.295V32H71.749z"/>
		<path fill="#F2F2F2" d="M77.374,21.5c0.779,0,1.335,0.212,1.665,0.638c0.33,0.425,0.495,0.997,0.495,1.717v0.945
			c0,0.65-0.133,1.153-0.398,1.508c-0.265,0.355-0.688,0.587-1.267,0.697c0.59,0.09,1.015,0.318,1.274,0.683
			c0.26,0.365,0.391,0.838,0.391,1.417v1.65c0,0.2,0.017,0.415,0.052,0.645c0.035,0.23,0.112,0.43,0.232,0.6h-0.359
			c-0.11-0.17-0.181-0.362-0.21-0.578c-0.03-0.215-0.045-0.437-0.045-0.667v-1.65c0-0.39-0.056-0.71-0.165-0.96
			c-0.11-0.25-0.268-0.447-0.473-0.592s-0.448-0.248-0.728-0.308c-0.28-0.06-0.59-0.09-0.93-0.09h-1.29V32h-0.33V21.5H77.374z
			 M76.909,26.839c0.359,0,0.682-0.027,0.967-0.083c0.285-0.055,0.525-0.157,0.721-0.307c0.194-0.15,0.345-0.353,0.449-0.608
			c0.105-0.255,0.158-0.587,0.158-0.997v-0.96c0-0.64-0.138-1.145-0.413-1.515s-0.752-0.555-1.433-0.555h-1.739v5.025H76.909z"/>
		<path fill="#F2F2F2" d="M80.974,24.08c0-0.37,0.04-0.715,0.12-1.035c0.08-0.32,0.21-0.6,0.391-0.84
			c0.18-0.24,0.409-0.43,0.689-0.57c0.28-0.14,0.62-0.21,1.021-0.21c0.399,0,0.742,0.07,1.027,0.21
			c0.285,0.141,0.518,0.33,0.697,0.57c0.18,0.24,0.313,0.52,0.397,0.84c0.085,0.32,0.128,0.665,0.128,1.035v5.34
			c0,0.37-0.043,0.715-0.128,1.035c-0.085,0.32-0.218,0.6-0.397,0.84c-0.18,0.24-0.412,0.43-0.697,0.57
			c-0.285,0.14-0.628,0.21-1.027,0.21c-0.4,0-0.74-0.07-1.021-0.21c-0.28-0.14-0.51-0.33-0.689-0.57
			c-0.181-0.24-0.311-0.52-0.391-0.84c-0.08-0.32-0.12-0.665-0.12-1.035V24.08z M81.304,29.435c0,0.32,0.032,0.623,0.098,0.907
			c0.065,0.285,0.173,0.533,0.322,0.743c0.15,0.21,0.346,0.377,0.585,0.502c0.24,0.125,0.535,0.188,0.886,0.188
			c0.35,0,0.646-0.062,0.892-0.188c0.245-0.125,0.443-0.292,0.593-0.502c0.15-0.21,0.26-0.458,0.33-0.743
			c0.07-0.285,0.105-0.587,0.105-0.907v-5.37c0-0.32-0.035-0.623-0.105-0.907c-0.07-0.285-0.18-0.533-0.33-0.743
			c-0.149-0.21-0.348-0.377-0.593-0.502s-0.542-0.188-0.892-0.188c-0.351,0-0.646,0.063-0.886,0.188
			c-0.239,0.125-0.435,0.292-0.585,0.502c-0.149,0.21-0.257,0.458-0.322,0.743c-0.065,0.285-0.098,0.587-0.098,0.907V29.435z"/>
		<path fill="#F2F2F2" d="M86.629,32V21.5h0.33v10.185h3.524V32H86.629z"/>
		<path fill="#F2F2F2" d="M96.123,21.424c0.4,0,0.74,0.07,1.021,0.21c0.279,0.141,0.507,0.33,0.683,0.57
			c0.175,0.24,0.302,0.522,0.382,0.848c0.08,0.325,0.12,0.667,0.12,1.027v0.81h-0.33v-0.825c0-0.32-0.032-0.623-0.097-0.907
			c-0.065-0.285-0.171-0.533-0.315-0.743c-0.146-0.21-0.338-0.377-0.577-0.502c-0.24-0.125-0.53-0.188-0.87-0.188
			c-0.351,0-0.646,0.063-0.886,0.188c-0.239,0.125-0.433,0.292-0.577,0.502s-0.25,0.458-0.314,0.743
			c-0.065,0.285-0.098,0.587-0.098,0.907v5.37c0,0.32,0.032,0.62,0.098,0.9c0.064,0.28,0.17,0.525,0.314,0.735
			s0.338,0.378,0.577,0.502c0.24,0.125,0.535,0.188,0.886,0.188c0.34,0,0.63-0.062,0.87-0.188c0.239-0.125,0.432-0.292,0.577-0.502
			c0.145-0.21,0.25-0.455,0.315-0.735c0.064-0.28,0.097-0.58,0.097-0.9v-1.155h0.33v1.14c0,0.36-0.04,0.703-0.12,1.027
			c-0.08,0.325-0.207,0.608-0.382,0.848c-0.176,0.24-0.403,0.43-0.683,0.57c-0.28,0.14-0.62,0.21-1.021,0.21
			c-0.399,0-0.737-0.07-1.012-0.21c-0.275-0.14-0.501-0.33-0.676-0.57c-0.175-0.24-0.302-0.522-0.382-0.848
			c-0.08-0.325-0.12-0.667-0.12-1.027v-5.34c0-0.36,0.04-0.703,0.12-1.027c0.08-0.325,0.207-0.608,0.382-0.848
			c0.175-0.24,0.4-0.43,0.676-0.57C95.386,21.495,95.724,21.424,96.123,21.424z"/>
		<path fill="#F2F2F2" d="M102.919,26.524v0.3h-3.09v4.86h3.675V32h-4.005V21.5h4.005v0.315h-3.675v4.71H102.919z"/>
		<path fill="#F2F2F2" d="M104.988,32h-0.314V21.5h0.465l3.689,9.825V21.5h0.315V32h-0.405l-3.75-10.02V32z"/>
		<path fill="#F2F2F2" d="M112.309,32V21.814h-2.28V21.5h4.905v0.315h-2.296V32H112.309z"/>
		<path fill="#F2F2F2" d="M117.933,21.5c0.78,0,1.335,0.212,1.665,0.638c0.33,0.425,0.495,0.997,0.495,1.717v0.945
			c0,0.65-0.133,1.153-0.397,1.508s-0.688,0.587-1.268,0.697c0.59,0.09,1.016,0.318,1.275,0.683c0.26,0.365,0.39,0.838,0.39,1.417
			v1.65c0,0.2,0.018,0.415,0.053,0.645c0.035,0.23,0.112,0.43,0.232,0.6h-0.36c-0.109-0.17-0.18-0.362-0.21-0.578
			c-0.029-0.215-0.045-0.437-0.045-0.667v-1.65c0-0.39-0.055-0.71-0.165-0.96c-0.109-0.25-0.268-0.447-0.472-0.592
			c-0.205-0.145-0.448-0.248-0.728-0.308c-0.28-0.06-0.591-0.09-0.931-0.09h-1.29V32h-0.33V21.5H117.933z M117.468,26.839
			c0.36,0,0.683-0.027,0.968-0.083c0.285-0.055,0.525-0.157,0.72-0.307c0.195-0.15,0.346-0.353,0.45-0.608
			c0.105-0.255,0.157-0.587,0.157-0.997v-0.96c0-0.64-0.138-1.145-0.412-1.515c-0.275-0.37-0.753-0.555-1.433-0.555h-1.74v5.025
			H117.468z"/>
		<path fill="#F2F2F2" d="M124.967,26.524v0.3h-3.09v4.86h3.676V32h-4.006V21.5h4.006v0.315h-3.676v4.71H124.967z"/>
	</g>
	<g>
		<path fill="#F2F2F2" d="M58.889,16.185c0-0.148,0.016-0.286,0.047-0.414c0.033-0.128,0.084-0.24,0.156-0.336
			s0.164-0.172,0.275-0.228c0.113-0.056,0.248-0.084,0.408-0.084s0.297,0.028,0.412,0.084c0.113,0.056,0.207,0.132,0.277,0.228
			c0.072,0.096,0.125,0.208,0.16,0.336c0.033,0.128,0.051,0.266,0.051,0.414v2.136c0,0.148-0.018,0.286-0.051,0.414
			c-0.035,0.128-0.088,0.24-0.16,0.336c-0.07,0.096-0.164,0.172-0.277,0.228c-0.115,0.056-0.252,0.084-0.412,0.084
			s-0.295-0.028-0.408-0.084c-0.111-0.056-0.203-0.132-0.275-0.228c-0.072-0.096-0.123-0.208-0.156-0.336
			c-0.031-0.128-0.047-0.266-0.047-0.414V16.185z M59.02,18.327c0,0.128,0.014,0.249,0.039,0.363
			c0.025,0.114,0.068,0.213,0.129,0.297s0.139,0.151,0.234,0.201c0.096,0.05,0.215,0.075,0.354,0.075
			c0.141,0,0.26-0.025,0.357-0.075c0.098-0.05,0.178-0.117,0.236-0.201c0.061-0.084,0.105-0.183,0.133-0.297
			c0.027-0.114,0.041-0.235,0.041-0.363v-2.148c0-0.128-0.014-0.249-0.041-0.363c-0.027-0.114-0.072-0.213-0.133-0.297
			c-0.059-0.084-0.139-0.151-0.236-0.201c-0.098-0.05-0.217-0.075-0.357-0.075c-0.139,0-0.258,0.025-0.354,0.075
			c-0.096,0.05-0.174,0.117-0.234,0.201s-0.104,0.183-0.129,0.297c-0.025,0.114-0.039,0.235-0.039,0.363V18.327z"/>
		<path fill="#F2F2F2" d="M61.492,18.362l-0.246,0.99h-0.121l1.016-4.206h0.186l1.037,4.206h-0.131l-0.246-0.99H61.492z
			 M61.516,18.243h1.445l-0.73-2.94L61.516,18.243z"/>
		<path fill="#F2F2F2" d="M64.695,15.123c0.16,0,0.295,0.027,0.404,0.081c0.111,0.054,0.199,0.129,0.268,0.225
			c0.068,0.096,0.119,0.207,0.15,0.333s0.049,0.261,0.049,0.405v0.078h-0.133v-0.084c0-0.124-0.014-0.242-0.039-0.354
			s-0.066-0.21-0.123-0.294s-0.131-0.15-0.225-0.198s-0.209-0.072-0.346-0.072c-0.141,0-0.256,0.024-0.352,0.072
			c-0.094,0.048-0.168,0.114-0.225,0.198c-0.055,0.084-0.096,0.181-0.123,0.291c-0.025,0.11-0.039,0.227-0.039,0.351
			c0,0.18,0.041,0.333,0.121,0.456c0.08,0.124,0.178,0.235,0.297,0.333c0.117,0.098,0.246,0.19,0.387,0.276s0.27,0.18,0.387,0.282
			s0.217,0.22,0.297,0.354c0.08,0.134,0.121,0.295,0.121,0.483c0,0.144-0.018,0.28-0.049,0.408s-0.084,0.239-0.152,0.333
			c-0.07,0.094-0.162,0.168-0.273,0.222c-0.111,0.054-0.248,0.081-0.408,0.081s-0.295-0.027-0.404-0.081
			c-0.111-0.054-0.201-0.128-0.271-0.222c-0.068-0.094-0.121-0.205-0.152-0.333s-0.049-0.264-0.049-0.408v-0.204h0.127v0.21
			c0,0.128,0.014,0.247,0.039,0.357s0.068,0.206,0.129,0.288s0.137,0.147,0.23,0.195s0.211,0.072,0.352,0.072
			c0.137,0,0.252-0.024,0.348-0.072s0.174-0.113,0.234-0.195s0.104-0.178,0.129-0.288s0.039-0.229,0.039-0.357
			c0-0.176-0.039-0.326-0.119-0.45s-0.18-0.235-0.299-0.333c-0.117-0.098-0.246-0.189-0.387-0.273
			c-0.139-0.084-0.268-0.178-0.387-0.282c-0.117-0.104-0.217-0.223-0.297-0.357c-0.08-0.134-0.119-0.297-0.119-0.489
			c0-0.308,0.068-0.557,0.203-0.747C64.172,15.224,64.391,15.126,64.695,15.123z"/>
		<path fill="#F2F2F2" d="M66.172,15.152v4.2h-0.133v-4.2H66.172z"/>
		<path fill="#F2F2F2" d="M67.521,15.123c0.16,0,0.295,0.027,0.404,0.081c0.111,0.054,0.199,0.129,0.268,0.225
			c0.068,0.096,0.119,0.207,0.15,0.333s0.049,0.261,0.049,0.405v0.078H68.26v-0.084c0-0.124-0.014-0.242-0.039-0.354
			s-0.066-0.21-0.123-0.294s-0.131-0.15-0.225-0.198s-0.209-0.072-0.346-0.072c-0.141,0-0.256,0.024-0.352,0.072
			c-0.094,0.048-0.168,0.114-0.225,0.198c-0.055,0.084-0.096,0.181-0.123,0.291c-0.025,0.11-0.039,0.227-0.039,0.351
			c0,0.18,0.041,0.333,0.121,0.456c0.08,0.124,0.178,0.235,0.297,0.333c0.117,0.098,0.246,0.19,0.387,0.276s0.27,0.18,0.387,0.282
			s0.217,0.22,0.297,0.354c0.08,0.134,0.121,0.295,0.121,0.483c0,0.144-0.018,0.28-0.049,0.408s-0.084,0.239-0.152,0.333
			c-0.07,0.094-0.162,0.168-0.273,0.222c-0.111,0.054-0.248,0.081-0.408,0.081s-0.295-0.027-0.404-0.081
			C67,19.248,66.91,19.173,66.84,19.08c-0.068-0.094-0.121-0.205-0.152-0.333s-0.049-0.264-0.049-0.408v-0.204h0.127v0.21
			c0,0.128,0.014,0.247,0.039,0.357s0.068,0.206,0.129,0.288s0.137,0.147,0.23,0.195s0.211,0.072,0.352,0.072
			c0.137,0,0.252-0.024,0.348-0.072s0.174-0.113,0.234-0.195s0.104-0.178,0.129-0.288s0.039-0.229,0.039-0.357
			c0-0.176-0.039-0.326-0.119-0.45s-0.18-0.235-0.299-0.333c-0.117-0.098-0.246-0.189-0.387-0.273
			c-0.139-0.084-0.268-0.178-0.387-0.282c-0.117-0.104-0.217-0.223-0.297-0.357c-0.08-0.134-0.119-0.297-0.119-0.489
			c0-0.308,0.068-0.557,0.203-0.747C66.998,15.224,67.217,15.126,67.521,15.123z"/>
	</g>
	<g>
		<path fill="#FEFEFE" d="M33.836,26.77c-1.331,0-1.295-0.001-1.347-1.357c-0.024-0.623,0.125-0.843,0.769-0.776
			c0.602,0.063,1.28,0.175,1.807-0.034c0.576-0.228,0.43-1.046,0.7-1.573c0.535-1.043,0.503-1.059-0.354-1.916
			c-1.014-1.014-0.99-0.991-0.003-2.047c0.401-0.429,0.63-0.424,0.997,0.01c0.405,0.48,0.81,1.069,1.349,1.297
			c0.548,0.233,1.037-0.449,1.608-0.621c1.104-0.332,1.094-0.367,1.094-1.556c0-1.503,0-1.483,1.518-1.506
			c0.477-0.007,0.654,0.097,0.612,0.601c-0.049,0.583,0.004,1.173-0.017,1.76c-0.012,0.32,0.096,0.464,0.418,0.526
			c0.665,0.128,1.295,0.376,1.851,0.765c0.287,0.201,0.449,0.111,0.655-0.108c0.432-0.458,0.903-0.881,1.328-1.346
			c0.238-0.26,0.376-0.225,0.618,0.006c1.229,1.173,1.237,1.165,0.035,2.367c-0.031,0.031-0.057,0.067-0.093,0.091
			c-0.592,0.403-0.724,0.848-0.254,1.472c0.239,0.317,0.394,0.742,0.452,1.138c0.084,0.574,0.343,0.783,0.897,0.692
			c0.148-0.024,0.304-0.004,0.456-0.004c1.719,0,1.711-0.001,1.588,1.759c-0.02,0.286-0.104,0.371-0.38,0.364
			c-0.63-0.015-1.262,0.023-1.89-0.015c-0.391-0.023-0.532,0.132-0.605,0.485c-0.131,0.642-0.376,1.25-0.752,1.787
			c-0.198,0.284-0.129,0.443,0.095,0.652c0.475,0.446,0.919,0.926,1.391,1.375c0.205,0.195,0.228,0.348-0.002,0.522
			c-0.017,0.013-0.032,0.029-0.047,0.045c-1.157,1.25-1.157,1.25-2.361,0.046c-0.031-0.031-0.067-0.057-0.091-0.093
			c-0.402-0.589-0.844-0.726-1.471-0.26c-0.336,0.25-0.78,0.421-1.197,0.48c-0.578,0.082-0.711,0.368-0.638,0.873
			c0.021,0.149,0.003,0.304,0.003,0.456c0,1.716,0.001,1.708-1.762,1.588c-0.289-0.02-0.368-0.108-0.361-0.381
			c0.015-0.652-0.018-1.305,0.014-1.956c0.017-0.338-0.123-0.462-0.418-0.522c-0.665-0.137-1.294-0.382-1.85-0.769
			c-0.286-0.199-0.444-0.127-0.653,0.095c-0.447,0.475-0.926,0.918-1.375,1.391c-0.195,0.206-0.348,0.227-0.522-0.002
			c-0.013-0.017-0.029-0.032-0.045-0.047c-1.253-1.156-1.253-1.156-0.05-2.359c0.015-0.015,0.029-0.034,0.046-0.046
			c0.641-0.428,0.803-0.917,0.279-1.576c-0.194-0.244-0.329-0.583-0.367-0.893c-0.093-0.768-0.493-1.022-1.219-0.885
			C34.145,26.794,33.988,26.77,33.836,26.77z"/>
		<linearGradient id="SVGID_13_" gradientUnits="userSpaceOnUse" x1="43.6196" y1="29.358" x2="39.4104" y2="22.0675">
			<stop  offset="0.5051" style="stop-color:#8CC63F"/>
			<stop  offset="0.6" style="stop-color:#88C540"/>
			<stop  offset="0.6955" style="stop-color:#7CC341"/>
			<stop  offset="0.7912" style="stop-color:#68BF44"/>
			<stop  offset="0.8866" style="stop-color:#4CB948"/>
			<stop  offset="0.9388" style="stop-color:#39B54A"/>
		</linearGradient>
		<path fill="url(#SVGID_13_)" d="M45.719,25.69c0.017,2.335-1.855,4.221-4.197,4.227c-2.315,0.006-4.179-1.831-4.211-4.147
			c-0.032-2.34,1.822-4.237,4.165-4.26C43.818,21.487,45.702,23.344,45.719,25.69z"/>
	</g>
	<g>
	</g>
</g>
<g id="sas">
	<g>
		<path fill="#F2F2F2" d="M-347.384,25.163c0.16,0,0.296,0.026,0.408,0.078c0.112,0.052,0.204,0.125,0.276,0.219
			c0.072,0.094,0.125,0.205,0.159,0.333s0.051,0.268,0.051,0.42v0.09h-0.264v-0.108c0-0.112-0.011-0.215-0.033-0.309
			c-0.022-0.094-0.058-0.176-0.108-0.246c-0.05-0.07-0.115-0.125-0.195-0.165c-0.08-0.04-0.176-0.06-0.288-0.06
			c-0.228,0-0.389,0.073-0.483,0.219c-0.094,0.146-0.141,0.331-0.141,0.555c0,0.172,0.037,0.318,0.111,0.438
			c0.074,0.12,0.168,0.229,0.282,0.327c0.114,0.098,0.236,0.192,0.366,0.282s0.252,0.188,0.366,0.294
			c0.114,0.106,0.208,0.227,0.282,0.363c0.074,0.136,0.111,0.3,0.111,0.492c0,0.152-0.017,0.292-0.051,0.42
			c-0.034,0.128-0.088,0.239-0.162,0.333c-0.074,0.094-0.168,0.167-0.282,0.219s-0.251,0.078-0.411,0.078
			c-0.16,0-0.297-0.026-0.411-0.078c-0.114-0.052-0.208-0.125-0.282-0.219c-0.074-0.094-0.128-0.205-0.162-0.333
			c-0.034-0.128-0.051-0.268-0.051-0.42v-0.216h0.264v0.234c0,0.224,0.048,0.409,0.144,0.555c0.096,0.146,0.26,0.219,0.492,0.219
			s0.396-0.073,0.492-0.219c0.096-0.146,0.144-0.331,0.144-0.555c0-0.168-0.037-0.312-0.111-0.432
			c-0.074-0.12-0.168-0.229-0.282-0.327c-0.114-0.098-0.236-0.191-0.366-0.279c-0.13-0.088-0.252-0.185-0.366-0.291
			c-0.114-0.106-0.208-0.228-0.282-0.366c-0.074-0.138-0.111-0.305-0.111-0.501c0-0.316,0.071-0.568,0.213-0.756
			C-347.923,25.263-347.696,25.167-347.384,25.163z"/>
		<path fill="#F2F2F2" d="M-345.332,29.399v-3.948h-0.852v-0.252h1.986v0.252h-0.858v3.948H-345.332z"/>
		<path fill="#F2F2F2" d="M-343.592,28.385c0,0.112,0.011,0.217,0.033,0.315c0.022,0.098,0.058,0.183,0.108,0.255
			c0.05,0.072,0.115,0.128,0.195,0.168s0.178,0.06,0.294,0.06c0.116,0,0.214-0.02,0.294-0.06c0.08-0.04,0.145-0.096,0.195-0.168
			c0.05-0.072,0.086-0.157,0.108-0.255c0.022-0.098,0.033-0.203,0.033-0.315v-3.186h0.258v3.174c0,0.152-0.016,0.292-0.048,0.42
			c-0.032,0.128-0.084,0.24-0.156,0.336c-0.072,0.096-0.165,0.171-0.279,0.225c-0.114,0.054-0.251,0.081-0.411,0.081
			s-0.297-0.027-0.411-0.081c-0.114-0.054-0.207-0.129-0.279-0.225s-0.125-0.208-0.159-0.336c-0.034-0.128-0.051-0.268-0.051-0.42
			v-3.174h0.276V28.385z"/>
		<path fill="#F2F2F2" d="M-340.676,25.199c0.16,0,0.299,0.025,0.417,0.075c0.118,0.05,0.215,0.121,0.291,0.213
			c0.076,0.092,0.132,0.202,0.168,0.33s0.054,0.27,0.054,0.426v2.112c0,0.156-0.018,0.298-0.054,0.426
			c-0.036,0.128-0.092,0.238-0.168,0.33c-0.076,0.092-0.173,0.163-0.291,0.213c-0.118,0.05-0.257,0.075-0.417,0.075h-0.924v-4.2
			H-340.676z M-340.682,29.147c0.236,0,0.405-0.072,0.507-0.216c0.102-0.144,0.153-0.332,0.153-0.564v-2.136
			c0-0.232-0.052-0.42-0.156-0.564s-0.272-0.216-0.504-0.216h-0.642v3.696H-340.682z"/>
		<path fill="#F2F2F2" d="M-337.868,27.143v0.252h-1.146v1.752h1.38v0.252h-1.656v-4.2h1.656v0.252h-1.38v1.692H-337.868z"/>
		<path fill="#F2F2F2" d="M-336.932,29.399h-0.252v-4.2h0.36l1.26,3.546v-3.546h0.252v4.2h-0.306l-1.314-3.744V29.399z"/>
		<path fill="#F2F2F2" d="M-334.13,29.399v-3.948h-0.852v-0.252h1.986v0.252h-0.858v3.948H-334.13z"/>
		<path fill="#F2F2F2" d="M-331.322,28.469l-0.21,0.93h-0.252l0.918-4.206h0.402l0.936,4.206h-0.276l-0.21-0.93H-331.322z
			 M-331.28,28.229h1.224l-0.618-2.718L-331.28,28.229z"/>
		<path fill="#F2F2F2" d="M-328.184,25.199c0.16,0,0.299,0.025,0.417,0.075c0.118,0.05,0.215,0.121,0.291,0.213
			c0.076,0.092,0.132,0.202,0.168,0.33s0.054,0.27,0.054,0.426v2.112c0,0.156-0.018,0.298-0.054,0.426
			c-0.036,0.128-0.092,0.238-0.168,0.33c-0.076,0.092-0.173,0.163-0.291,0.213c-0.118,0.05-0.257,0.075-0.417,0.075h-0.924v-4.2
			H-328.184z M-328.19,29.147c0.236,0,0.405-0.072,0.507-0.216c0.102-0.144,0.153-0.332,0.153-0.564v-2.136
			c0-0.232-0.052-0.42-0.156-0.564s-0.272-0.216-0.504-0.216h-0.642v3.696H-328.19z"/>
		<path fill="#F2F2F2" d="M-326.582,25.199l0.852,3.882l0.852-3.882h0.258l-0.911,4.2h-0.408l-0.924-4.2H-326.582z"/>
		<path fill="#F2F2F2" d="M-323.924,25.199v4.2h-0.276v-4.2H-323.924z"/>
		<path fill="#F2F2F2" d="M-322.568,25.163c0.16,0,0.296,0.026,0.408,0.078c0.111,0.052,0.203,0.125,0.275,0.219
			c0.072,0.094,0.125,0.205,0.159,0.333s0.051,0.268,0.051,0.42v0.09h-0.264v-0.108c0-0.112-0.011-0.215-0.033-0.309
			c-0.022-0.094-0.058-0.176-0.108-0.246c-0.049-0.07-0.115-0.125-0.194-0.165c-0.08-0.04-0.177-0.06-0.288-0.06
			c-0.229,0-0.389,0.073-0.482,0.219c-0.095,0.146-0.142,0.331-0.142,0.555c0,0.172,0.037,0.318,0.11,0.438
			c0.074,0.12,0.168,0.229,0.283,0.327c0.113,0.098,0.235,0.192,0.365,0.282s0.252,0.188,0.366,0.294s0.208,0.227,0.282,0.363
			c0.074,0.136,0.111,0.3,0.111,0.492c0,0.152-0.018,0.292-0.052,0.42c-0.034,0.128-0.088,0.239-0.161,0.333
			c-0.074,0.094-0.169,0.167-0.283,0.219c-0.113,0.052-0.25,0.078-0.41,0.078s-0.297-0.026-0.411-0.078s-0.208-0.125-0.282-0.219
			c-0.074-0.094-0.128-0.205-0.162-0.333c-0.033-0.128-0.051-0.268-0.051-0.42v-0.216h0.264v0.234c0,0.224,0.049,0.409,0.145,0.555
			s0.26,0.219,0.492,0.219c0.231,0,0.396-0.073,0.492-0.219c0.096-0.146,0.144-0.331,0.144-0.555c0-0.168-0.037-0.312-0.111-0.432
			c-0.073-0.12-0.168-0.229-0.282-0.327c-0.113-0.098-0.236-0.191-0.365-0.279c-0.131-0.088-0.252-0.185-0.366-0.291
			c-0.114-0.106-0.208-0.228-0.282-0.366c-0.074-0.138-0.111-0.305-0.111-0.501c0-0.316,0.071-0.568,0.213-0.756
			C-323.107,25.263-322.881,25.167-322.568,25.163z"/>
		<path fill="#F2F2F2" d="M-321.242,26.225c0-0.152,0.018-0.293,0.054-0.423c0.036-0.13,0.091-0.242,0.165-0.336
			c0.074-0.094,0.169-0.168,0.285-0.222c0.115-0.054,0.254-0.081,0.414-0.081s0.299,0.027,0.417,0.081
			c0.118,0.054,0.215,0.128,0.291,0.222c0.075,0.094,0.132,0.206,0.168,0.336c0.036,0.13,0.054,0.271,0.054,0.423v2.148
			c0,0.152-0.018,0.293-0.054,0.423s-0.093,0.242-0.168,0.336c-0.076,0.094-0.173,0.168-0.291,0.222
			c-0.118,0.054-0.257,0.081-0.417,0.081s-0.299-0.027-0.414-0.081c-0.116-0.054-0.211-0.128-0.285-0.222
			c-0.074-0.094-0.129-0.206-0.165-0.336s-0.054-0.271-0.054-0.423V26.225z M-320.967,28.391c0,0.228,0.049,0.417,0.147,0.567
			s0.263,0.225,0.495,0.225s0.398-0.075,0.501-0.225s0.153-0.339,0.153-0.567v-2.184c0-0.228-0.051-0.417-0.153-0.567
			c-0.103-0.15-0.269-0.225-0.501-0.225s-0.396,0.075-0.495,0.225c-0.099,0.15-0.147,0.339-0.147,0.567V28.391z"/>
		<path fill="#F2F2F2" d="M-318.063,25.199c0.32,0,0.551,0.084,0.69,0.252c0.14,0.168,0.21,0.4,0.21,0.696v0.366
			c0,0.488-0.202,0.778-0.605,0.87c0.215,0.048,0.37,0.146,0.465,0.294c0.094,0.148,0.141,0.336,0.141,0.564v0.654
			c0,0.088,0.006,0.177,0.018,0.267c0.012,0.09,0.04,0.169,0.084,0.237h-0.287c-0.037-0.064-0.061-0.135-0.072-0.213
			s-0.018-0.175-0.018-0.291v-0.66c0-0.14-0.019-0.256-0.055-0.348c-0.036-0.092-0.089-0.165-0.159-0.219
			c-0.069-0.054-0.153-0.092-0.249-0.114c-0.096-0.021-0.203-0.033-0.324-0.033h-0.438v1.878h-0.275v-4.2H-318.063z
			 M-318.219,27.269c0.125,0,0.234-0.01,0.33-0.03c0.097-0.02,0.178-0.056,0.244-0.108c0.065-0.052,0.116-0.124,0.152-0.216
			c0.036-0.092,0.055-0.208,0.055-0.348v-0.396c0-0.228-0.049-0.405-0.145-0.531s-0.258-0.189-0.486-0.189h-0.594v1.818H-318.219z"
			/>
		<path fill="#F2F2F2" d="M-315.818,27.785l-0.941-2.586h0.287l0.805,2.208l0.804-2.208h0.271l-0.949,2.586v1.614h-0.275V27.785z"/>
		<path fill="#F2F2F2" d="M-312.387,25.163c0.16,0,0.297,0.026,0.408,0.078c0.111,0.052,0.204,0.125,0.275,0.219
			c0.072,0.094,0.125,0.205,0.16,0.333c0.033,0.128,0.051,0.268,0.051,0.42v0.09h-0.264v-0.108c0-0.112-0.012-0.215-0.033-0.309
			c-0.022-0.094-0.059-0.176-0.108-0.246c-0.05-0.07-0.115-0.125-0.194-0.165c-0.08-0.04-0.177-0.06-0.289-0.06
			c-0.228,0-0.389,0.073-0.482,0.219s-0.141,0.331-0.141,0.555c0,0.172,0.037,0.318,0.11,0.438c0.074,0.12,0.168,0.229,0.282,0.327
			c0.113,0.098,0.236,0.192,0.365,0.282c0.131,0.09,0.252,0.188,0.367,0.294c0.113,0.106,0.207,0.227,0.281,0.363
			c0.074,0.136,0.111,0.3,0.111,0.492c0,0.152-0.018,0.292-0.051,0.42c-0.034,0.128-0.088,0.239-0.162,0.333
			c-0.074,0.094-0.168,0.167-0.282,0.219s-0.251,0.078-0.411,0.078s-0.297-0.026-0.41-0.078c-0.115-0.052-0.209-0.125-0.283-0.219
			c-0.074-0.094-0.127-0.205-0.162-0.333c-0.033-0.128-0.051-0.268-0.051-0.42v-0.216h0.264v0.234c0,0.224,0.049,0.409,0.145,0.555
			s0.26,0.219,0.492,0.219s0.396-0.073,0.492-0.219s0.145-0.331,0.145-0.555c0-0.168-0.037-0.312-0.111-0.432
			c-0.074-0.12-0.168-0.229-0.282-0.327s-0.236-0.191-0.366-0.279c-0.13-0.088-0.252-0.185-0.365-0.291
			c-0.115-0.106-0.209-0.228-0.283-0.366c-0.074-0.138-0.11-0.305-0.11-0.501c0-0.316,0.071-0.568,0.213-0.756
			C-312.926,25.263-312.698,25.167-312.387,25.163z"/>
		<path fill="#F2F2F2" d="M-309.621,27.143v0.252h-1.146v1.752h1.38v0.252h-1.656v-4.2h1.656v0.252h-1.38v1.692H-309.621z"/>
		<path fill="#F2F2F2" d="M-308.061,25.199c0.32,0,0.55,0.084,0.689,0.252c0.141,0.168,0.211,0.4,0.211,0.696v0.366
			c0,0.488-0.203,0.778-0.606,0.87c0.216,0.048,0.37,0.146,0.465,0.294c0.094,0.148,0.142,0.336,0.142,0.564v0.654
			c0,0.088,0.006,0.177,0.018,0.267c0.012,0.09,0.039,0.169,0.084,0.237h-0.288c-0.036-0.064-0.06-0.135-0.072-0.213
			c-0.012-0.078-0.018-0.175-0.018-0.291v-0.66c0-0.14-0.019-0.256-0.054-0.348c-0.037-0.092-0.09-0.165-0.16-0.219
			c-0.069-0.054-0.152-0.092-0.248-0.114c-0.096-0.021-0.204-0.033-0.324-0.033h-0.438v1.878h-0.276v-4.2H-308.061z
			 M-308.217,27.269c0.124,0,0.234-0.01,0.33-0.03s0.177-0.056,0.243-0.108c0.065-0.052,0.116-0.124,0.153-0.216
			c0.035-0.092,0.054-0.208,0.054-0.348v-0.396c0-0.228-0.048-0.405-0.144-0.531c-0.097-0.126-0.259-0.189-0.486-0.189h-0.594v1.818
			H-308.217z"/>
		<path fill="#F2F2F2" d="M-306.41,25.199l0.852,3.882l0.852-3.882h0.258l-0.911,4.2h-0.408l-0.924-4.2H-306.41z"/>
		<path fill="#F2F2F2" d="M-303.752,25.199v4.2h-0.276v-4.2H-303.752z"/>
		<path fill="#F2F2F2" d="M-302.385,25.163c0.16,0,0.297,0.027,0.411,0.081c0.114,0.054,0.208,0.128,0.282,0.222
			c0.074,0.094,0.127,0.206,0.162,0.336c0.033,0.13,0.051,0.271,0.051,0.423v0.348h-0.264v-0.366c0-0.112-0.012-0.216-0.033-0.312
			c-0.022-0.096-0.06-0.18-0.111-0.252c-0.053-0.072-0.118-0.128-0.197-0.168c-0.08-0.04-0.179-0.06-0.295-0.06
			c-0.115,0-0.214,0.02-0.294,0.06s-0.146,0.096-0.198,0.168c-0.052,0.072-0.089,0.156-0.111,0.252
			c-0.021,0.096-0.032,0.2-0.032,0.312v2.184c0,0.112,0.011,0.216,0.032,0.312c0.022,0.096,0.06,0.179,0.111,0.249
			c0.053,0.07,0.118,0.125,0.198,0.165c0.08,0.04,0.179,0.06,0.294,0.06c0.116,0,0.215-0.02,0.295-0.06
			c0.079-0.04,0.145-0.095,0.197-0.165c0.052-0.07,0.089-0.153,0.111-0.249c0.021-0.096,0.033-0.2,0.033-0.312v-0.498h0.264v0.48
			c0,0.152-0.018,0.293-0.051,0.423c-0.035,0.13-0.088,0.242-0.162,0.336c-0.074,0.094-0.168,0.168-0.282,0.222
			c-0.114,0.054-0.251,0.081-0.411,0.081s-0.297-0.027-0.411-0.081c-0.114-0.054-0.208-0.128-0.282-0.222
			c-0.074-0.094-0.127-0.206-0.162-0.336c-0.033-0.13-0.051-0.271-0.051-0.423v-2.148c0-0.152,0.018-0.293,0.051-0.423
			c0.035-0.13,0.088-0.242,0.162-0.336c0.074-0.094,0.168-0.168,0.282-0.222C-302.682,25.19-302.545,25.163-302.385,25.163z"/>
		<path fill="#F2F2F2" d="M-299.606,27.143v0.252h-1.146v1.752h1.379v0.252h-1.655v-4.2h1.655v0.252h-1.379v1.692H-299.606z"/>
		<path fill="#F2F2F2" d="M-298.047,25.163c0.16,0,0.297,0.026,0.408,0.078c0.111,0.052,0.204,0.125,0.275,0.219
			c0.072,0.094,0.125,0.205,0.16,0.333c0.033,0.128,0.051,0.268,0.051,0.42v0.09h-0.264v-0.108c0-0.112-0.012-0.215-0.033-0.309
			c-0.022-0.094-0.059-0.176-0.108-0.246c-0.05-0.07-0.115-0.125-0.194-0.165c-0.08-0.04-0.177-0.06-0.289-0.06
			c-0.228,0-0.389,0.073-0.482,0.219s-0.141,0.331-0.141,0.555c0,0.172,0.037,0.318,0.11,0.438c0.074,0.12,0.168,0.229,0.282,0.327
			c0.113,0.098,0.236,0.192,0.365,0.282c0.131,0.09,0.252,0.188,0.367,0.294c0.113,0.106,0.207,0.227,0.281,0.363
			c0.074,0.136,0.111,0.3,0.111,0.492c0,0.152-0.018,0.292-0.051,0.42c-0.034,0.128-0.088,0.239-0.162,0.333
			c-0.074,0.094-0.168,0.167-0.282,0.219s-0.251,0.078-0.411,0.078s-0.297-0.026-0.41-0.078c-0.115-0.052-0.209-0.125-0.283-0.219
			c-0.074-0.094-0.127-0.205-0.162-0.333c-0.033-0.128-0.051-0.268-0.051-0.42v-0.216h0.264v0.234c0,0.224,0.049,0.409,0.145,0.555
			s0.26,0.219,0.492,0.219s0.396-0.073,0.492-0.219s0.145-0.331,0.145-0.555c0-0.168-0.037-0.312-0.111-0.432
			c-0.074-0.12-0.168-0.229-0.282-0.327s-0.236-0.191-0.366-0.279c-0.13-0.088-0.252-0.185-0.365-0.291
			c-0.115-0.106-0.209-0.228-0.283-0.366c-0.074-0.138-0.11-0.305-0.11-0.501c0-0.316,0.071-0.568,0.213-0.756
			C-298.586,25.263-298.358,25.167-298.047,25.163z"/>
	</g>
	<g display="none">
		<path display="inline" fill="#F2F2F2" d="M-135.384,25.163c0.159,0,0.296,0.026,0.407,0.078c0.112,0.052,0.205,0.125,0.276,0.219
			c0.072,0.094,0.125,0.205,0.159,0.333s0.051,0.268,0.051,0.42v0.09h-0.264v-0.108c0-0.112-0.012-0.215-0.033-0.309
			c-0.021-0.094-0.059-0.176-0.107-0.246c-0.051-0.07-0.115-0.125-0.195-0.165s-0.176-0.06-0.288-0.06
			c-0.228,0-0.39,0.073-0.483,0.219s-0.141,0.331-0.141,0.555c0,0.172,0.037,0.318,0.111,0.438s0.168,0.229,0.281,0.327
			c0.114,0.098,0.236,0.192,0.366,0.282s0.252,0.188,0.366,0.294c0.113,0.106,0.208,0.227,0.281,0.363
			c0.074,0.136,0.111,0.3,0.111,0.492c0,0.152-0.017,0.292-0.051,0.42c-0.033,0.128-0.088,0.239-0.162,0.333
			c-0.074,0.094-0.168,0.167-0.281,0.219c-0.114,0.052-0.252,0.078-0.412,0.078c-0.159,0-0.297-0.026-0.41-0.078
			c-0.114-0.052-0.208-0.125-0.282-0.219c-0.074-0.094-0.128-0.205-0.162-0.333c-0.034-0.128-0.051-0.268-0.051-0.42v-0.216h0.264
			v0.234c0,0.224,0.048,0.409,0.144,0.555c0.097,0.146,0.261,0.219,0.492,0.219c0.232,0,0.396-0.073,0.492-0.219
			s0.145-0.331,0.145-0.555c0-0.168-0.037-0.312-0.111-0.432c-0.074-0.12-0.168-0.229-0.281-0.327
			c-0.115-0.098-0.236-0.191-0.367-0.279c-0.129-0.088-0.252-0.185-0.365-0.291c-0.114-0.106-0.209-0.228-0.282-0.366
			c-0.074-0.138-0.11-0.305-0.11-0.501c0-0.316,0.07-0.568,0.213-0.756C-135.923,25.263-135.695,25.167-135.384,25.163z"/>
		<path display="inline" fill="#F2F2F2" d="M-133.332,29.399v-3.948h-0.852v-0.252h1.985v0.252h-0.858v3.948H-133.332z"/>
		<path display="inline" fill="#F2F2F2" d="M-131.592,28.385c0,0.112,0.011,0.217,0.033,0.315c0.021,0.098,0.057,0.183,0.107,0.255
			c0.05,0.072,0.115,0.128,0.195,0.168s0.178,0.06,0.293,0.06c0.117,0,0.215-0.02,0.295-0.06s0.145-0.096,0.195-0.168
			c0.049-0.072,0.086-0.157,0.107-0.255c0.021-0.098,0.033-0.203,0.033-0.315v-3.186h0.258v3.174c0,0.152-0.016,0.292-0.048,0.42
			s-0.084,0.24-0.156,0.336c-0.071,0.096-0.165,0.171-0.278,0.225c-0.115,0.054-0.252,0.081-0.412,0.081s-0.297-0.027-0.41-0.081
			c-0.114-0.054-0.207-0.129-0.279-0.225s-0.125-0.208-0.159-0.336s-0.051-0.268-0.051-0.42v-3.174h0.276V28.385z"/>
		<path display="inline" fill="#F2F2F2" d="M-128.676,25.199c0.16,0,0.299,0.025,0.417,0.075c0.118,0.05,0.215,0.121,0.291,0.213
			c0.075,0.092,0.132,0.202,0.168,0.33s0.054,0.27,0.054,0.426v2.112c0,0.156-0.018,0.298-0.054,0.426
			c-0.036,0.128-0.093,0.238-0.168,0.33c-0.076,0.092-0.173,0.163-0.291,0.213c-0.118,0.05-0.257,0.075-0.417,0.075h-0.924v-4.2
			H-128.676z M-128.682,29.147c0.236,0,0.404-0.072,0.507-0.216c0.103-0.144,0.153-0.332,0.153-0.564v-2.136
			c0-0.232-0.053-0.42-0.156-0.564s-0.271-0.216-0.504-0.216h-0.643v3.696H-128.682z"/>
		<path display="inline" fill="#F2F2F2" d="M-125.868,27.143v0.252h-1.146v1.752h1.379v0.252h-1.655v-4.2h1.655v0.252h-1.379v1.692
			H-125.868z"/>
		<path display="inline" fill="#F2F2F2" d="M-124.932,29.399h-0.252v-4.2h0.359l1.26,3.546v-3.546h0.252v4.2h-0.306l-1.313-3.744
			V29.399z"/>
		<path display="inline" fill="#F2F2F2" d="M-122.13,29.399v-3.948h-0.853v-0.252h1.986v0.252h-0.857v3.948H-122.13z"/>
		<path display="inline" fill="#F2F2F2" d="M-119.322,28.469l-0.21,0.93h-0.252l0.918-4.206h0.401l0.937,4.206h-0.276l-0.209-0.93
			H-119.322z M-119.28,28.229h1.224l-0.617-2.718L-119.28,28.229z"/>
		<path display="inline" fill="#F2F2F2" d="M-116.184,25.199c0.159,0,0.299,0.025,0.416,0.075c0.118,0.05,0.215,0.121,0.291,0.213
			c0.076,0.092,0.133,0.202,0.168,0.33c0.037,0.128,0.055,0.27,0.055,0.426v2.112c0,0.156-0.018,0.298-0.055,0.426
			c-0.035,0.128-0.092,0.238-0.168,0.33c-0.076,0.092-0.173,0.163-0.291,0.213c-0.117,0.05-0.257,0.075-0.416,0.075h-0.924v-4.2
			H-116.184z M-116.189,29.147c0.235,0,0.404-0.072,0.506-0.216c0.103-0.144,0.153-0.332,0.153-0.564v-2.136
			c0-0.232-0.052-0.42-0.155-0.564c-0.104-0.144-0.272-0.216-0.504-0.216h-0.643v3.696H-116.189z"/>
		<path display="inline" fill="#F2F2F2" d="M-114.582,25.199l0.852,3.882l0.852-3.882h0.258l-0.911,4.2h-0.408l-0.924-4.2H-114.582z
			"/>
		<path display="inline" fill="#F2F2F2" d="M-111.924,25.199v4.2h-0.276v-4.2H-111.924z"/>
		<path display="inline" fill="#F2F2F2" d="M-110.568,25.163c0.16,0,0.296,0.026,0.408,0.078c0.111,0.052,0.203,0.125,0.275,0.219
			c0.072,0.094,0.125,0.205,0.159,0.333s0.051,0.268,0.051,0.42v0.09h-0.264v-0.108c0-0.112-0.011-0.215-0.033-0.309
			c-0.022-0.094-0.058-0.176-0.108-0.246c-0.049-0.07-0.115-0.125-0.194-0.165c-0.08-0.04-0.177-0.06-0.288-0.06
			c-0.229,0-0.389,0.073-0.482,0.219c-0.095,0.146-0.142,0.331-0.142,0.555c0,0.172,0.037,0.318,0.11,0.438
			c0.074,0.12,0.168,0.229,0.283,0.327c0.113,0.098,0.235,0.192,0.365,0.282s0.252,0.188,0.366,0.294s0.208,0.227,0.282,0.363
			c0.074,0.136,0.111,0.3,0.111,0.492c0,0.152-0.018,0.292-0.052,0.42c-0.034,0.128-0.088,0.239-0.161,0.333
			c-0.074,0.094-0.169,0.167-0.283,0.219c-0.113,0.052-0.25,0.078-0.41,0.078s-0.297-0.026-0.411-0.078s-0.208-0.125-0.282-0.219
			c-0.074-0.094-0.128-0.205-0.162-0.333c-0.033-0.128-0.051-0.268-0.051-0.42v-0.216h0.264v0.234c0,0.224,0.049,0.409,0.145,0.555
			s0.26,0.219,0.492,0.219c0.231,0,0.396-0.073,0.492-0.219c0.096-0.146,0.144-0.331,0.144-0.555c0-0.168-0.037-0.312-0.111-0.432
			c-0.073-0.12-0.168-0.229-0.282-0.327c-0.113-0.098-0.236-0.191-0.365-0.279c-0.131-0.088-0.252-0.185-0.366-0.291
			c-0.114-0.106-0.208-0.228-0.282-0.366c-0.074-0.138-0.111-0.305-0.111-0.501c0-0.316,0.071-0.568,0.213-0.756
			C-111.107,25.263-110.881,25.167-110.568,25.163z"/>
		<path display="inline" fill="#F2F2F2" d="M-109.242,26.225c0-0.152,0.018-0.293,0.054-0.423c0.036-0.13,0.091-0.242,0.165-0.336
			c0.074-0.094,0.169-0.168,0.285-0.222c0.115-0.054,0.254-0.081,0.414-0.081s0.299,0.027,0.417,0.081
			c0.118,0.054,0.215,0.128,0.291,0.222c0.075,0.094,0.132,0.206,0.168,0.336c0.036,0.13,0.054,0.271,0.054,0.423v2.148
			c0,0.152-0.018,0.293-0.054,0.423s-0.093,0.242-0.168,0.336c-0.076,0.094-0.173,0.168-0.291,0.222
			c-0.118,0.054-0.257,0.081-0.417,0.081s-0.299-0.027-0.414-0.081c-0.116-0.054-0.211-0.128-0.285-0.222
			c-0.074-0.094-0.129-0.206-0.165-0.336s-0.054-0.271-0.054-0.423V26.225z M-108.967,28.391c0,0.228,0.049,0.417,0.147,0.567
			s0.263,0.225,0.495,0.225s0.398-0.075,0.501-0.225s0.153-0.339,0.153-0.567v-2.184c0-0.228-0.051-0.417-0.153-0.567
			c-0.103-0.15-0.269-0.225-0.501-0.225s-0.396,0.075-0.495,0.225c-0.099,0.15-0.147,0.339-0.147,0.567V28.391z"/>
		<path display="inline" fill="#F2F2F2" d="M-106.063,25.199c0.32,0,0.551,0.084,0.69,0.252c0.14,0.168,0.21,0.4,0.21,0.696v0.366
			c0,0.488-0.202,0.778-0.605,0.87c0.215,0.048,0.37,0.146,0.465,0.294c0.094,0.148,0.141,0.336,0.141,0.564v0.654
			c0,0.088,0.006,0.177,0.018,0.267c0.012,0.09,0.04,0.169,0.084,0.237h-0.287c-0.037-0.064-0.061-0.135-0.072-0.213
			s-0.018-0.175-0.018-0.291v-0.66c0-0.14-0.019-0.256-0.055-0.348c-0.036-0.092-0.089-0.165-0.159-0.219
			c-0.069-0.054-0.153-0.092-0.249-0.114c-0.096-0.021-0.203-0.033-0.324-0.033h-0.438v1.878h-0.275v-4.2H-106.063z
			 M-106.219,27.269c0.125,0,0.234-0.01,0.33-0.03c0.097-0.02,0.178-0.056,0.244-0.108c0.065-0.052,0.116-0.124,0.152-0.216
			c0.036-0.092,0.055-0.208,0.055-0.348v-0.396c0-0.228-0.049-0.405-0.145-0.531s-0.258-0.189-0.486-0.189h-0.594v1.818H-106.219z"
			/>
		<path display="inline" fill="#F2F2F2" d="M-103.818,27.785l-0.941-2.586h0.287l0.805,2.208l0.804-2.208h0.271l-0.949,2.586v1.614
			h-0.275V27.785z"/>
		<path display="inline" fill="#F2F2F2" d="M-100.387,25.163c0.16,0,0.297,0.026,0.408,0.078c0.111,0.052,0.204,0.125,0.275,0.219
			c0.072,0.094,0.125,0.205,0.16,0.333c0.033,0.128,0.051,0.268,0.051,0.42v0.09h-0.264v-0.108c0-0.112-0.012-0.215-0.033-0.309
			c-0.022-0.094-0.059-0.176-0.108-0.246c-0.05-0.07-0.115-0.125-0.194-0.165c-0.08-0.04-0.177-0.06-0.289-0.06
			c-0.228,0-0.389,0.073-0.482,0.219s-0.141,0.331-0.141,0.555c0,0.172,0.037,0.318,0.11,0.438c0.074,0.12,0.168,0.229,0.282,0.327
			c0.113,0.098,0.236,0.192,0.365,0.282c0.131,0.09,0.252,0.188,0.367,0.294c0.113,0.106,0.207,0.227,0.281,0.363
			c0.074,0.136,0.111,0.3,0.111,0.492c0,0.152-0.018,0.292-0.051,0.42c-0.034,0.128-0.088,0.239-0.162,0.333
			c-0.074,0.094-0.168,0.167-0.282,0.219s-0.251,0.078-0.411,0.078s-0.297-0.026-0.41-0.078c-0.115-0.052-0.209-0.125-0.283-0.219
			c-0.074-0.094-0.127-0.205-0.162-0.333c-0.033-0.128-0.051-0.268-0.051-0.42v-0.216h0.264v0.234c0,0.224,0.049,0.409,0.145,0.555
			s0.26,0.219,0.492,0.219s0.396-0.073,0.492-0.219s0.145-0.331,0.145-0.555c0-0.168-0.037-0.312-0.111-0.432
			c-0.074-0.12-0.168-0.229-0.282-0.327s-0.236-0.191-0.366-0.279c-0.13-0.088-0.252-0.185-0.365-0.291
			c-0.115-0.106-0.209-0.228-0.283-0.366c-0.074-0.138-0.11-0.305-0.11-0.501c0-0.316,0.071-0.568,0.213-0.756
			C-100.926,25.263-100.698,25.167-100.387,25.163z"/>
		<path display="inline" fill="#F2F2F2" d="M-97.621,27.143v0.252h-1.146v1.752h1.38v0.252h-1.656v-4.2h1.656v0.252h-1.38v1.692
			H-97.621z"/>
		<path display="inline" fill="#F2F2F2" d="M-96.061,25.199c0.32,0,0.55,0.084,0.689,0.252c0.141,0.168,0.211,0.4,0.211,0.696v0.366
			c0,0.488-0.203,0.778-0.606,0.87c0.216,0.048,0.37,0.146,0.465,0.294c0.094,0.148,0.142,0.336,0.142,0.564v0.654
			c0,0.088,0.006,0.177,0.018,0.267c0.012,0.09,0.039,0.169,0.084,0.237h-0.288c-0.036-0.064-0.06-0.135-0.072-0.213
			c-0.012-0.078-0.018-0.175-0.018-0.291v-0.66c0-0.14-0.019-0.256-0.054-0.348c-0.037-0.092-0.09-0.165-0.16-0.219
			c-0.069-0.054-0.152-0.092-0.248-0.114c-0.096-0.021-0.204-0.033-0.324-0.033h-0.438v1.878h-0.276v-4.2H-96.061z M-96.217,27.269
			c0.124,0,0.234-0.01,0.33-0.03s0.177-0.056,0.243-0.108c0.065-0.052,0.116-0.124,0.153-0.216c0.035-0.092,0.054-0.208,0.054-0.348
			v-0.396c0-0.228-0.048-0.405-0.144-0.531c-0.097-0.126-0.259-0.189-0.486-0.189h-0.594v1.818H-96.217z"/>
		<path display="inline" fill="#F2F2F2" d="M-94.41,25.199l0.852,3.882l0.852-3.882h0.258l-0.911,4.2h-0.408l-0.924-4.2H-94.41z"/>
		<path display="inline" fill="#F2F2F2" d="M-91.752,25.199v4.2h-0.276v-4.2H-91.752z"/>
		<path display="inline" fill="#F2F2F2" d="M-90.385,25.163c0.16,0,0.297,0.027,0.411,0.081c0.114,0.054,0.208,0.128,0.282,0.222
			c0.074,0.094,0.127,0.206,0.162,0.336c0.033,0.13,0.051,0.271,0.051,0.423v0.348h-0.264v-0.366c0-0.112-0.012-0.216-0.033-0.312
			c-0.022-0.096-0.06-0.18-0.111-0.252c-0.053-0.072-0.118-0.128-0.197-0.168c-0.08-0.04-0.179-0.06-0.295-0.06
			c-0.115,0-0.214,0.02-0.294,0.06s-0.146,0.096-0.198,0.168c-0.052,0.072-0.089,0.156-0.111,0.252
			c-0.021,0.096-0.032,0.2-0.032,0.312v2.184c0,0.112,0.011,0.216,0.032,0.312c0.022,0.096,0.06,0.179,0.111,0.249
			c0.053,0.07,0.118,0.125,0.198,0.165c0.08,0.04,0.179,0.06,0.294,0.06c0.116,0,0.215-0.02,0.295-0.06
			c0.079-0.04,0.145-0.095,0.197-0.165c0.052-0.07,0.089-0.153,0.111-0.249c0.021-0.096,0.033-0.2,0.033-0.312v-0.498h0.264v0.48
			c0,0.152-0.018,0.293-0.051,0.423c-0.035,0.13-0.088,0.242-0.162,0.336c-0.074,0.094-0.168,0.168-0.282,0.222
			c-0.114,0.054-0.251,0.081-0.411,0.081s-0.297-0.027-0.411-0.081c-0.114-0.054-0.208-0.128-0.282-0.222
			c-0.074-0.094-0.127-0.206-0.162-0.336c-0.033-0.13-0.051-0.271-0.051-0.423v-2.148c0-0.152,0.018-0.293,0.051-0.423
			c0.035-0.13,0.088-0.242,0.162-0.336c0.074-0.094,0.168-0.168,0.282-0.222C-90.682,25.19-90.545,25.163-90.385,25.163z"/>
		<path display="inline" fill="#F2F2F2" d="M-87.606,27.143v0.252h-1.146v1.752h1.379v0.252h-1.655v-4.2h1.655v0.252h-1.379v1.692
			H-87.606z"/>
		<path display="inline" fill="#F2F2F2" d="M-86.047,25.163c0.16,0,0.297,0.026,0.408,0.078c0.111,0.052,0.204,0.125,0.275,0.219
			c0.072,0.094,0.125,0.205,0.16,0.333c0.033,0.128,0.051,0.268,0.051,0.42v0.09h-0.264v-0.108c0-0.112-0.012-0.215-0.033-0.309
			c-0.022-0.094-0.059-0.176-0.108-0.246c-0.05-0.07-0.115-0.125-0.194-0.165c-0.08-0.04-0.177-0.06-0.289-0.06
			c-0.228,0-0.389,0.073-0.482,0.219s-0.141,0.331-0.141,0.555c0,0.172,0.037,0.318,0.11,0.438c0.074,0.12,0.168,0.229,0.282,0.327
			c0.113,0.098,0.236,0.192,0.365,0.282c0.131,0.09,0.252,0.188,0.367,0.294c0.113,0.106,0.207,0.227,0.281,0.363
			c0.074,0.136,0.111,0.3,0.111,0.492c0,0.152-0.018,0.292-0.051,0.42c-0.034,0.128-0.088,0.239-0.162,0.333
			c-0.074,0.094-0.168,0.167-0.282,0.219s-0.251,0.078-0.411,0.078s-0.297-0.026-0.41-0.078c-0.115-0.052-0.209-0.125-0.283-0.219
			c-0.074-0.094-0.127-0.205-0.162-0.333c-0.033-0.128-0.051-0.268-0.051-0.42v-0.216h0.264v0.234c0,0.224,0.049,0.409,0.145,0.555
			s0.26,0.219,0.492,0.219s0.396-0.073,0.492-0.219s0.145-0.331,0.145-0.555c0-0.168-0.037-0.312-0.111-0.432
			c-0.074-0.12-0.168-0.229-0.282-0.327s-0.236-0.191-0.366-0.279c-0.13-0.088-0.252-0.185-0.365-0.291
			c-0.115-0.106-0.209-0.228-0.283-0.366c-0.074-0.138-0.11-0.305-0.11-0.501c0-0.316,0.071-0.568,0.213-0.756
			C-86.586,25.263-86.358,25.167-86.047,25.163z"/>
	</g>
</g>
<g id="Layer_6">
	<g>
		<path fill="#FEFEFE" d="M-174.996,29.395c-1.164-0.613-2.235-1.433-3.653-1.422c0.124-0.468,0.251-0.946,0.376-1.425
			c0.229-0.873,0.462-1.746,0.684-2.621c0.038-0.148,0.082-0.191,0.23-0.128c0.208,0.088,0.483,0.101,0.62,0.248
			c0.156,0.169-0.077,0.401-0.099,0.616c-0.067,0.634,0.151,1.163,0.548,1.634c0.366,0.435,0.815,0.771,1.309,1.045
			c0.12,0.067,0.164,0.135,0.146,0.274c-0.037,0.294-0.051,0.59-0.077,0.886C-174.939,28.795-174.967,29.088-174.996,29.395z"/>
		<path fill="#FEFEFE" d="M-169.38,25.231c-0.286-1.082-0.544-2.124-0.839-3.154c-0.163-0.569-0.142-1.094,0.201-1.581
			c0.526-0.745,1.567-0.926,2.304-0.412c0.763,0.533,0.958,1.581,0.417,2.335c-0.65,0.905-1.317,1.798-1.977,2.695
			C-169.297,25.145-169.324,25.17-169.38,25.231z"/>
		<path fill="#FEFEFE" d="M-175.077,30.369c-0.049,0.55-0.099,1.069-0.139,1.59c-0.009,0.12-0.047,0.12-0.142,0.08
			c-1.271-0.527-2.544-1.051-3.817-1.574c-0.085-0.035-0.114-0.071-0.086-0.173c0.127-0.457,0.248-0.916,0.358-1.378
			c0.035-0.146,0.128-0.127,0.227-0.126c0.764,0.002,1.471,0.235,2.156,0.544c0.448,0.202,0.868,0.455,1.279,0.724
			C-175.108,30.144-175.033,30.236-175.077,30.369z"/>
		<path fill="#FEFEFE" d="M-171.301,28.338c0.033,0.731,0.063,1.44,0.097,2.148c0.005,0.099,0.005,0.174-0.11,0.223
			c-1.053,0.446-2.103,0.897-3.155,1.346c-0.013,0.006-0.03,0.001-0.066,0.001c0.052-0.6,0.106-1.197,0.155-1.794
			c0.006-0.076,0.051-0.108,0.105-0.14c0.964-0.587,1.929-1.173,2.893-1.759C-171.363,28.35-171.34,28.349-171.301,28.338z"/>
		<path fill="#FEFEFE" d="M-172.129,27.967c0-0.503,0-0.954,0-1.405c-0.001-0.423-0.223-0.572-0.625-0.421
			c-0.379,0.143-0.759,0.282-1.135,0.433c-0.143,0.057-0.173,0.022-0.16-0.121c0.051-0.52,0.098-1.041,0.138-1.562
			c0.008-0.106,0.06-0.144,0.145-0.181c0.707-0.307,1.414-0.614,2.118-0.93c0.151-0.068,0.165-0.013,0.17,0.119
			c0.043,1.131,0.089,2.262,0.142,3.392c0.006,0.136-0.036,0.213-0.151,0.279C-171.689,27.684-171.883,27.813-172.129,27.967z"/>
		<path fill="#FEFEFE" d="M-170.804,23.691c0.203,0.066,0.393,0.131,0.585,0.188c0.12,0.036,0.11,0.144,0.133,0.227
			c0.182,0.668,0.357,1.337,0.544,2.043c0.369-0.504,0.715-0.981,1.066-1.455c0.059-0.08,0.102-0.23,0.243-0.151
			c0.173,0.097,0.461,0.013,0.501,0.324c0.039,0.309,0.094,0.616,0.141,0.924c0.014,0.095,0.029,0.171-0.115,0.198
			c-1.046,0.201-1.746,0.845-2.208,1.772c-0.081,0.162-0.121,0.141-0.26,0.068c-0.391-0.205-0.508-0.504-0.511-0.942
			C-170.693,25.829-170.76,24.77-170.804,23.691z"/>
		<path fill="#FEFEFE" d="M-166.645,31.884c-1.185-0.387-2.344-0.764-3.503-1.143c-0.375-0.123-0.38-0.124-0.384-0.522
			c-0.005-0.59-0.001-1.179-0.001-1.758c0.42,0.304,0.88,0.633,1.365,0.923c0.684,0.407,1.387,0.771,2.171,0.948
			c0.065,0.015,0.111,0.022,0.124,0.105C-166.801,30.912-166.724,31.387-166.645,31.884z"/>
		<path fill="#FEFEFE" d="M-167.574,26.723c0.166-0.032,0.135,0.083,0.145,0.145c0.107,0.661,0.209,1.322,0.312,1.984
			c0.022,0.138,0.039,0.278,0.062,0.416c0.044,0.27,0.04,0.274-0.238,0.196c-0.484-0.135-0.917-0.383-1.347-0.633
			c-0.195-0.113-0.382-0.24-0.574-0.359c-0.069-0.042-0.128-0.074-0.087-0.18c0.298-0.771,0.799-1.327,1.619-1.551
			C-167.638,26.729-167.591,26.726-167.574,26.723z"/>
		<path fill="#FEFEFE" d="M-174.746,26.593c-0.614-0.328-1.159-0.674-1.335-1.379c-0.065-0.258-0.026-0.508,0.062-0.755
			c0.039-0.108,0.089-0.149,0.206-0.104c0.363,0.137,0.728,0.269,1.095,0.397c0.086,0.03,0.128,0.067,0.119,0.165
			C-174.65,25.465-174.696,26.015-174.746,26.593z"/>
		<path fill="#FEFEFE" d="M-174.299,29.334c0.055-0.615,0.107-1.174,0.151-1.733c0.007-0.089,0.052-0.12,0.12-0.146
			c0.349-0.134,0.699-0.263,1.044-0.406c0.137-0.057,0.139,0.008,0.138,0.11c-0.002,0.374-0.002,0.749,0,1.123
			c0,0.082-0.009,0.146-0.09,0.197C-173.377,28.752-173.816,29.03-174.299,29.334z"/>
		<linearGradient id="SVGID_14_" gradientUnits="userSpaceOnUse" x1="-169.5344" y1="21.516" x2="-167.8134" y2="21.516">
			<stop  offset="0" style="stop-color:#0071BC"/>
			<stop  offset="0.8418" style="stop-color:#29ABE2"/>
		</linearGradient>
		<path fill="url(#SVGID_14_)" d="M-167.813,21.528c-0.004,0.478-0.389,0.856-0.866,0.85c-0.474-0.006-0.862-0.4-0.855-0.868
			c0.007-0.47,0.411-0.865,0.872-0.854C-168.184,20.666-167.81,21.051-167.813,21.528z"/>
	</g>
	<g>
	</g>
	<g>
	</g>
	<g>
	</g>
	<g>
	</g>
	<g>
	</g>
	<g>
	</g>
	<g>
	</g>
	<g>
	</g>
	<g>
	</g>
	<g>
	</g>
	<g>
	</g>
	<g>
	</g>
	<g>
	</g>
	<g>
	</g>
	<g>
	</g>
</g>
</svg>
