<?xml version="1.0" encoding="utf-8"?>
<!-- Generator: Adobe Illustrator 16.0.0, SVG Export Plug-In . SVG Version: 6.00 Build 0)  -->
<!DOCTYPE svg PUBLIC "-//W3C//DTD SVG 1.1//EN" "http://www.w3.org/Graphics/SVG/1.1/DTD/svg11.dtd">
<svg version="1.1" id="Layer_1" xmlns="http://www.w3.org/2000/svg" xmlns:xlink="http://www.w3.org/1999/xlink" x="0px" y="0px"
	 width="80.992px" height="120.808px" viewBox="0 0 80.992 120.808" enable-background="new 0 0 80.992 120.808"
	 xml:space="preserve">
<g>
	<defs>
		
			<rect id="SVGID_1_" x="-55.665" y="55.654" transform="matrix(-0.0037 -1 1 -0.0037 -55.5101 137.9016)" width="193.209" height="81.899"/>
	</defs>
	<clipPath id="SVGID_2_">
		<use xlink:href="#SVGID_1_"  overflow="visible"/>
	</clipPath>
	
		<rect x="-55.664" y="55.654" transform="matrix(-0.0037 -1 1 -0.0037 -55.5107 137.9021)" clip-path="url(#SVGID_2_)" fill="#16A085" width="193.208" height="81.899"/>
</g>
<g>
	<defs>
		<rect id="SVGID_3_" x="6.797" y="17.528" width="192" height="64"/>
	</defs>
	<clipPath id="SVGID_4_">
		<use xlink:href="#SVGID_3_"  overflow="visible"/>
	</clipPath>
	<path clip-path="url(#SVGID_4_)" fill="#FEFEFE" d="M22.589,39.933c-1.355,0-2.709-0.008-4.064,0.008
		c-0.283,0.002-0.364-0.074-0.361-0.359c0.016-1.287,0.016-2.574,0-3.861c-0.003-0.277,0.088-0.332,0.344-0.33
		c0.821,0.006,0.821-0.004,0.821,0.82c0,0.744,0.007,1.49-0.005,2.234c-0.003,0.227,0.024,0.33,0.299,0.328
		c1.978-0.014,3.955-0.012,5.933-0.002c0.251,0.002,0.321-0.066,0.317-0.316c-0.015-0.908,0.003-1.816-0.012-2.724
		c-0.004-0.261,0.062-0.345,0.336-0.343c0.841,0.008,0.841-0.006,0.841,0.848c0,1.07-0.017,2.141,0.009,3.211
		c0.01,0.377-0.064,0.508-0.476,0.498C25.245,39.913,23.917,39.933,22.589,39.933"/>
	<path clip-path="url(#SVGID_4_)" fill="#FEFEFE" d="M28.12,35.045c-1.4-1.015-2.734-1.981-4.068-2.949
		c-0.395-0.286-0.8-0.559-1.18-0.862c-0.206-0.166-0.346-0.156-0.557-0.002c-1.779,1.304-3.568,2.595-5.421,3.938
		c0-0.437,0.004-0.817-0.002-1.2c-0.002-0.156,0.121-0.203,0.213-0.271c1.753-1.273,3.51-2.541,5.26-3.818
		c0.178-0.13,0.295-0.109,0.46,0.012c1.696,1.235,3.396,2.465,5.099,3.692c0.131,0.095,0.208,0.185,0.2,0.358
		C28.11,34.28,28.12,34.618,28.12,35.045"/>
</g>
<g>
	<path fill="#F2F2F2" d="M35.212,39.539c-1.789,0-3.028-1.379-3.028-3.418c0-2.139,1.319-3.538,3.118-3.538
		c1.849,0,3.039,1.409,3.039,3.408c0,2.309-1.409,3.548-3.119,3.548H35.212z M35.252,38.83c1.379,0,2.159-1.27,2.159-2.799
		c0-1.34-0.7-2.738-2.149-2.738s-2.168,1.349-2.168,2.809c0,1.418,0.779,2.729,2.148,2.729H35.252z"/>
	<path fill="#F2F2F2" d="M40.563,37.311l-0.7,2.119h-0.899l2.289-6.736h1.049l2.299,6.736h-0.93l-0.719-2.119H40.563z
		 M42.771,36.631l-0.669-1.939c-0.14-0.439-0.24-0.84-0.34-1.229h-0.03c-0.09,0.389-0.2,0.809-0.33,1.219l-0.66,1.949H42.771z"/>
	<path fill="#F2F2F2" d="M45.483,38.369c0.39,0.25,0.95,0.44,1.549,0.44c0.89,0,1.409-0.46,1.409-1.149
		c0-0.619-0.36-0.989-1.269-1.329c-1.1-0.399-1.779-0.979-1.779-1.919c0-1.05,0.87-1.829,2.179-1.829
		c0.68,0,1.189,0.159,1.479,0.329l-0.24,0.711c-0.21-0.131-0.66-0.32-1.27-0.32c-0.919,0-1.27,0.549-1.27,1.01
		c0,0.629,0.41,0.939,1.339,1.299c1.14,0.449,1.709,0.989,1.709,1.979c0,1.04-0.759,1.949-2.349,1.949
		c-0.649,0-1.359-0.199-1.719-0.439L45.483,38.369z"/>
	<path fill="#F2F2F2" d="M51.393,32.693v6.736h-0.879v-6.736H51.393z"/>
	<path fill="#F2F2F2" d="M52.803,38.369c0.39,0.25,0.95,0.44,1.549,0.44c0.89,0,1.409-0.46,1.409-1.149
		c0-0.619-0.36-0.989-1.269-1.329c-1.1-0.399-1.779-0.979-1.779-1.919c0-1.05,0.87-1.829,2.179-1.829
		c0.68,0,1.189,0.159,1.479,0.329l-0.24,0.711c-0.21-0.131-0.66-0.32-1.27-0.32c-0.919,0-1.27,0.549-1.27,1.01
		c0,0.629,0.41,0.939,1.339,1.299c1.14,0.449,1.709,0.989,1.709,1.979c0,1.04-0.759,1.949-2.349,1.949
		c-0.649,0-1.359-0.199-1.719-0.439L52.803,38.369z"/>
</g>
<g>
	<path fill="#F2F2F2" d="M10.118,6.584c0.234,0.15,0.57,0.264,0.93,0.264c0.534,0,0.846-0.276,0.846-0.69
		c0-0.372-0.216-0.594-0.762-0.797c-0.66-0.24-1.067-0.588-1.067-1.151c0-0.63,0.521-1.098,1.307-1.098
		c0.408,0,0.714,0.096,0.888,0.198l-0.144,0.426c-0.126-0.078-0.396-0.192-0.762-0.192c-0.552,0-0.762,0.33-0.762,0.605
		c0,0.378,0.246,0.563,0.804,0.78c0.684,0.27,1.025,0.593,1.025,1.187c0,0.624-0.456,1.169-1.409,1.169
		c-0.39,0-0.815-0.12-1.031-0.264L10.118,6.584z"/>
	<path fill="#F2F2F2" d="M13.759,3.622v0.696h0.756v0.402h-0.756v1.565c0,0.36,0.102,0.564,0.396,0.564
		c0.144,0,0.228-0.012,0.306-0.036l0.024,0.402c-0.102,0.036-0.264,0.072-0.468,0.072c-0.246,0-0.443-0.084-0.569-0.222
		c-0.144-0.162-0.204-0.42-0.204-0.762V4.719h-0.45V4.317h0.45V3.784L13.759,3.622z"/>
	<path fill="#F2F2F2" d="M17.538,6.428c0,0.3,0.006,0.563,0.024,0.792h-0.468l-0.03-0.474h-0.012
		c-0.132,0.234-0.444,0.54-0.959,0.54c-0.456,0-1.001-0.258-1.001-1.271V4.317h0.527v1.601c0,0.552,0.174,0.93,0.648,0.93
		c0.354,0,0.6-0.246,0.695-0.486c0.03-0.072,0.048-0.168,0.048-0.27V4.317h0.527V6.428z"/>
	<path fill="#F2F2F2" d="M20.922,2.962V6.47c0,0.258,0.006,0.552,0.024,0.75h-0.474l-0.024-0.504h-0.012
		c-0.162,0.324-0.51,0.57-0.983,0.57c-0.702,0-1.247-0.594-1.247-1.475c-0.006-0.972,0.6-1.559,1.301-1.559
		c0.45,0,0.75,0.21,0.875,0.438h0.012V2.962H20.922z M20.395,5.499c0-0.072-0.006-0.156-0.024-0.228
		c-0.078-0.33-0.366-0.606-0.762-0.606c-0.545,0-0.869,0.48-0.869,1.115c0,0.594,0.294,1.08,0.857,1.08
		c0.354,0,0.678-0.24,0.773-0.629c0.018-0.072,0.024-0.144,0.024-0.228V5.499z"/>
	<path fill="#F2F2F2" d="M22.1,5.858c0.012,0.714,0.461,1.007,0.989,1.007c0.378,0,0.612-0.066,0.804-0.144l0.096,0.372
		c-0.186,0.084-0.51,0.186-0.971,0.186c-0.888,0-1.427-0.594-1.427-1.463c0-0.881,0.521-1.571,1.367-1.571
		c0.947,0,1.193,0.834,1.193,1.368c0,0.108-0.006,0.192-0.018,0.251L22.1,5.858z M23.641,5.48c0.006-0.33-0.138-0.857-0.726-0.857
		c-0.54,0-0.768,0.492-0.81,0.857H23.641z"/>
	<path fill="#F2F2F2" d="M24.806,5.103c0-0.306-0.006-0.546-0.024-0.786h0.468l0.03,0.474h0.012c0.144-0.27,0.48-0.54,0.959-0.54
		c0.402,0,1.025,0.24,1.025,1.235V7.22h-0.527V5.547c0-0.468-0.174-0.864-0.672-0.864c-0.342,0-0.612,0.246-0.708,0.54
		c-0.024,0.066-0.036,0.162-0.036,0.246V7.22h-0.527V5.103z"/>
	<path fill="#F2F2F2" d="M28.771,3.622v0.696h0.756v0.402h-0.756v1.565c0,0.36,0.102,0.564,0.396,0.564
		c0.144,0,0.228-0.012,0.306-0.036l0.024,0.402c-0.102,0.036-0.264,0.072-0.468,0.072c-0.246,0-0.443-0.084-0.569-0.222
		c-0.144-0.162-0.204-0.42-0.204-0.762V4.719h-0.45V4.317h0.45V3.784L28.771,3.622z"/>
	<path fill="#F2F2F2" d="M32.065,5.948l-0.42,1.271h-0.54l1.373-4.042h0.629l1.38,4.042H33.93l-0.432-1.271H32.065z M33.39,5.541
		l-0.401-1.163c-0.084-0.264-0.145-0.504-0.204-0.738h-0.019c-0.054,0.234-0.119,0.486-0.197,0.731l-0.396,1.169H33.39z"/>
	<path fill="#F2F2F2" d="M37.572,2.962V6.47c0,0.258,0.006,0.552,0.024,0.75h-0.474l-0.024-0.504h-0.012
		c-0.162,0.324-0.51,0.57-0.983,0.57c-0.702,0-1.248-0.594-1.248-1.475c-0.006-0.972,0.6-1.559,1.302-1.559
		c0.449,0,0.749,0.21,0.875,0.438h0.013V2.962H37.572z M37.044,5.499c0-0.072-0.006-0.156-0.024-0.228
		c-0.078-0.33-0.365-0.606-0.762-0.606c-0.546,0-0.869,0.48-0.869,1.115c0,0.594,0.294,1.08,0.857,1.08
		c0.354,0,0.678-0.24,0.773-0.629c0.019-0.072,0.024-0.144,0.024-0.228V5.499z"/>
	<path fill="#F2F2F2" d="M38.647,4.317l0.569,1.625c0.097,0.27,0.174,0.51,0.234,0.75h0.018c0.066-0.24,0.15-0.479,0.246-0.75
		l0.563-1.625h0.552L39.691,7.22h-0.504l-1.104-2.902H38.647z"/>
	<path fill="#F2F2F2" d="M41.582,3.784c-0.197,0-0.33-0.156-0.33-0.342s0.139-0.336,0.342-0.336c0.204,0,0.336,0.15,0.336,0.336
		s-0.132,0.342-0.342,0.342H41.582z M41.33,7.22V4.317h0.528V7.22H41.33z"/>
	<path fill="#F2F2F2" d="M42.662,6.686c0.161,0.096,0.438,0.204,0.701,0.204c0.378,0,0.558-0.186,0.558-0.432
		c0-0.252-0.149-0.39-0.533-0.534c-0.528-0.192-0.774-0.474-0.774-0.821c0-0.468,0.384-0.852,1.002-0.852
		c0.294,0,0.552,0.078,0.708,0.18l-0.126,0.378c-0.114-0.066-0.324-0.168-0.594-0.168c-0.313,0-0.48,0.18-0.48,0.396
		c0,0.246,0.168,0.354,0.546,0.498c0.498,0.186,0.762,0.438,0.762,0.875c0,0.516-0.401,0.875-1.079,0.875
		c-0.318,0-0.612-0.084-0.815-0.204L42.662,6.686z"/>
	<path fill="#F2F2F2" d="M46.291,7.286c-0.779,0-1.392-0.576-1.392-1.493c0-0.971,0.642-1.541,1.439-1.541
		c0.834,0,1.397,0.605,1.397,1.487c0,1.079-0.75,1.547-1.439,1.547H46.291z M46.308,6.89c0.504,0,0.882-0.474,0.882-1.134
		c0-0.492-0.246-1.109-0.869-1.109c-0.618,0-0.888,0.576-0.888,1.127c0,0.636,0.359,1.116,0.869,1.116H46.308z"/>
	<path fill="#F2F2F2" d="M48.409,5.223c0-0.342-0.006-0.635-0.023-0.905h0.462l0.023,0.57h0.019c0.132-0.39,0.455-0.636,0.81-0.636
		c0.054,0,0.096,0.006,0.144,0.018v0.492c-0.06-0.006-0.114-0.012-0.186-0.012c-0.372,0-0.636,0.282-0.708,0.672
		c-0.012,0.078-0.018,0.162-0.018,0.251V7.22h-0.528L48.409,5.223z"/>
	<path fill="#F2F2F2" d="M50.498,4.317l0.63,1.715c0.071,0.192,0.144,0.42,0.191,0.594h0.012c0.055-0.174,0.114-0.396,0.187-0.605
		l0.575-1.703h0.558l-0.791,2.069c-0.378,0.996-0.636,1.505-0.996,1.823c-0.264,0.222-0.516,0.312-0.647,0.336l-0.132-0.444
		c0.132-0.036,0.306-0.12,0.462-0.258c0.144-0.114,0.317-0.318,0.443-0.587c0.024-0.054,0.042-0.09,0.042-0.126
		c0-0.03-0.012-0.072-0.042-0.132l-1.067-2.681H50.498z"/>
	<path fill="#F2F2F2" d="M54.355,6.584c0.234,0.15,0.57,0.264,0.93,0.264c0.533,0,0.846-0.276,0.846-0.69
		c0-0.372-0.216-0.594-0.762-0.797c-0.66-0.24-1.067-0.588-1.067-1.151c0-0.63,0.521-1.098,1.308-1.098
		c0.407,0,0.713,0.096,0.887,0.198l-0.144,0.426c-0.126-0.078-0.396-0.192-0.762-0.192c-0.552,0-0.762,0.33-0.762,0.605
		c0,0.378,0.246,0.563,0.804,0.78c0.684,0.27,1.025,0.593,1.025,1.187c0,0.624-0.456,1.169-1.409,1.169
		c-0.39,0-0.815-0.12-1.031-0.264L54.355,6.584z"/>
	<path fill="#F2F2F2" d="M57.661,5.858c0.013,0.714,0.462,1.007,0.989,1.007c0.378,0,0.612-0.066,0.804-0.144l0.097,0.372
		c-0.187,0.084-0.51,0.186-0.972,0.186c-0.888,0-1.428-0.594-1.428-1.463c0-0.881,0.522-1.571,1.367-1.571
		c0.948,0,1.193,0.834,1.193,1.368c0,0.108-0.006,0.192-0.018,0.251L57.661,5.858z M59.202,5.48c0.007-0.33-0.138-0.857-0.726-0.857
		c-0.539,0-0.768,0.492-0.81,0.857H59.202z"/>
	<path fill="#F2F2F2" d="M60.373,5.223c0-0.342-0.006-0.635-0.023-0.905h0.462l0.023,0.57h0.019c0.132-0.39,0.455-0.636,0.81-0.636
		c0.054,0,0.096,0.006,0.144,0.018v0.492c-0.06-0.006-0.114-0.012-0.186-0.012c-0.372,0-0.636,0.282-0.708,0.672
		c-0.012,0.078-0.018,0.162-0.018,0.251V7.22h-0.528L60.373,5.223z"/>
	<path fill="#F2F2F2" d="M62.527,4.317l0.569,1.625c0.097,0.27,0.174,0.51,0.234,0.75h0.018c0.066-0.24,0.15-0.479,0.246-0.75
		l0.563-1.625h0.552L63.571,7.22h-0.504l-1.104-2.902H62.527z"/>
	<path fill="#F2F2F2" d="M65.46,3.784c-0.197,0-0.33-0.156-0.33-0.342s0.139-0.336,0.342-0.336c0.204,0,0.336,0.15,0.336,0.336
		s-0.132,0.342-0.342,0.342H65.46z M65.208,7.22V4.317h0.528V7.22H65.208z"/>
	<path fill="#F2F2F2" d="M68.682,7.118c-0.138,0.066-0.444,0.168-0.834,0.168c-0.875,0-1.445-0.594-1.445-1.487
		s0.612-1.547,1.56-1.547c0.312,0,0.588,0.078,0.731,0.156l-0.12,0.402c-0.126-0.066-0.323-0.138-0.611-0.138
		c-0.666,0-1.025,0.498-1.025,1.104c0,0.672,0.432,1.085,1.007,1.085c0.301,0,0.498-0.072,0.648-0.138L68.682,7.118z"/>
	<path fill="#F2F2F2" d="M69.6,5.858c0.013,0.714,0.462,1.007,0.989,1.007c0.378,0,0.612-0.066,0.804-0.144l0.097,0.372
		c-0.187,0.084-0.51,0.186-0.972,0.186c-0.888,0-1.428-0.594-1.428-1.463c0-0.881,0.522-1.571,1.367-1.571
		c0.948,0,1.193,0.834,1.193,1.368c0,0.108-0.006,0.192-0.018,0.251L69.6,5.858z M71.141,5.48c0.007-0.33-0.138-0.857-0.726-0.857
		c-0.539,0-0.768,0.492-0.81,0.857H71.141z"/>
	<path fill="#F2F2F2" d="M72.235,6.686c0.161,0.096,0.438,0.204,0.701,0.204c0.378,0,0.558-0.186,0.558-0.432
		c0-0.252-0.149-0.39-0.533-0.534c-0.528-0.192-0.774-0.474-0.774-0.821c0-0.468,0.384-0.852,1.002-0.852
		c0.294,0,0.552,0.078,0.708,0.18L73.77,4.809c-0.114-0.066-0.324-0.168-0.594-0.168c-0.313,0-0.48,0.18-0.48,0.396
		c0,0.246,0.168,0.354,0.546,0.498c0.498,0.186,0.762,0.438,0.762,0.875c0,0.516-0.401,0.875-1.079,0.875
		c-0.318,0-0.612-0.084-0.815-0.204L72.235,6.686z"/>
</g>
</svg>
