<?xml version="1.0" encoding="utf-8"?>
<!-- Generator: Adobe Illustrator 17.0.0, SVG Export Plug-In . SVG Version: 6.00 Build 0)  -->
<!DOCTYPE svg PUBLIC "-//W3C//DTD SVG 1.1//EN" "http://www.w3.org/Graphics/SVG/1.1/DTD/svg11.dtd">
<svg version="1.1" xmlns="http://www.w3.org/2000/svg" xmlns:xlink="http://www.w3.org/1999/xlink" x="0px" y="0px" width="192px"
	 height="64px" viewBox="0 0 192 64" enable-background="new 0 0 192 64" xml:space="preserve">
<g id="Layer_1" display="none">
</g>
<g id="background">
	<linearGradient id="SVGID_1_" gradientUnits="userSpaceOnUse" x1="-212" y1="32" x2="-20" y2="32">
		<stop  offset="0" style="stop-color:#39B54A"/>
		<stop  offset="0.1842" style="stop-color:#3DB649"/>
		<stop  offset="0.3695" style="stop-color:#49B848"/>
		<stop  offset="0.5554" style="stop-color:#5DBC45"/>
		<stop  offset="0.7406" style="stop-color:#79C241"/>
		<stop  offset="0.8418" style="stop-color:#8CC63F"/>
	</linearGradient>
	<rect x="-212" fill="url(#SVGID_1_)" width="192" height="64"/>
	<linearGradient id="SVGID_2_" gradientUnits="userSpaceOnUse" x1="0" y1="32" x2="192" y2="32">
		<stop  offset="0" style="stop-color:#39B54A"/>
		<stop  offset="0.1842" style="stop-color:#3DB649"/>
		<stop  offset="0.3695" style="stop-color:#49B848"/>
		<stop  offset="0.5554" style="stop-color:#5DBC45"/>
		<stop  offset="0.7406" style="stop-color:#79C241"/>
		<stop  offset="0.8418" style="stop-color:#8CC63F"/>
	</linearGradient>
	<rect fill="url(#SVGID_2_)" width="192" height="64"/>
</g>
<g id="compass">
	<g>
		<path fill="#FEFEFE" d="M-191.376,12.762c4.03-0.002,7.321,3.295,7.315,7.328c-0.006,4.028-3.279,7.302-7.305,7.308
			c-4.034,0.006-7.329-3.28-7.332-7.312C-198.702,16.057-195.41,12.764-191.376,12.762z"/>
		<path fill="#BDCCD4" d="M-185.228,20.074c0.014,3.379-2.765,6.161-6.148,6.157c-3.394-0.004-6.158-2.771-6.148-6.155
			c0.009-3.391,2.727-6.112,6.132-6.141C-188.02,13.908-185.242,16.674-185.228,20.074z"/>
		<linearGradient id="SVGID_3_" gradientUnits="userSpaceOnUse" x1="-195.0051" y1="20.0809" x2="-187.7534" y2="20.0809">
			<stop  offset="0" style="stop-color:#D4145A"/>
			<stop  offset="0.8418" style="stop-color:#ED1E79"/>
		</linearGradient>
		<path fill="url(#SVGID_3_)" d="M-187.753,23.408c0.003,0.361-0.209,0.525-0.563,0.451c-0.367-0.077-0.696-0.247-1.011-0.443
			c-1.112-0.694-2.068-1.573-2.965-2.52c-0.884-0.933-1.701-1.92-2.322-3.053c-0.174-0.317-0.323-0.646-0.38-1.007
			c-0.062-0.394,0.162-0.613,0.555-0.532c0.413,0.085,0.777,0.289,1.124,0.517c1.41,0.926,2.595,2.098,3.68,3.378
			c0.632,0.745,1.212,1.527,1.637,2.413C-187.873,22.872-187.778,23.144-187.753,23.408z"/>
		<path fill="#F2F2F2" d="M-190.361,20.081c0.005,0.544-0.463,1.014-1.017,1.018c-0.546,0.005-1.012-0.462-1.017-1.017
			c-0.004-0.549,0.455-1.008,1.016-1.016C-190.833,19.058-190.367,19.524-190.361,20.081z"/>
	</g>
	<g display="none">
		<path display="inline" fill="#FEFEFE" d="M52.316,15.758c1.497-0.001,2.72,1.224,2.718,2.723
			c-0.002,1.496-1.218,2.713-2.714,2.715c-1.499,0.002-2.723-1.219-2.724-2.717C49.594,16.983,50.817,15.759,52.316,15.758z"/>
		<path display="inline" fill="#BDCCD4" d="M54.6,18.475c0.005,1.255-1.027,2.289-2.284,2.288c-1.261-0.001-2.288-1.029-2.284-2.287
			c0.004-1.26,1.013-2.271,2.279-2.282C53.563,16.184,54.595,17.212,54.6,18.475z"/>
		<linearGradient id="SVGID_4_" gradientUnits="userSpaceOnUse" x1="50.9677" y1="18.4777" x2="53.6621" y2="18.4777">
			<stop  offset="0" style="stop-color:#D4145A"/>
			<stop  offset="0.8418" style="stop-color:#ED1E79"/>
		</linearGradient>
		<path display="inline" fill="url(#SVGID_4_)" d="M53.662,19.714c0.001,0.134-0.078,0.195-0.209,0.167
			c-0.136-0.029-0.259-0.092-0.376-0.165c-0.413-0.258-0.768-0.584-1.102-0.936c-0.328-0.347-0.632-0.713-0.863-1.134
			c-0.065-0.118-0.12-0.24-0.141-0.374c-0.023-0.147,0.06-0.228,0.206-0.198c0.153,0.032,0.289,0.107,0.418,0.192
			c0.524,0.344,0.964,0.78,1.367,1.255c0.235,0.277,0.45,0.567,0.608,0.897C53.618,19.515,53.653,19.616,53.662,19.714z"/>
		<path display="inline" fill="#F2F2F2" d="M52.693,18.478c0.002,0.202-0.172,0.377-0.378,0.378
			c-0.203,0.002-0.376-0.172-0.378-0.378c-0.002-0.204,0.169-0.375,0.378-0.378C52.518,18.098,52.691,18.271,52.693,18.478z"/>
	</g>
</g>
<g id="oasis_text">
	<g>
		<path fill="#F2F2F2" d="M-179.512,16.834c0-0.587,0.125-1.028,0.375-1.325c0.25-0.296,0.618-0.445,1.105-0.445
			c0.5,0,0.875,0.148,1.125,0.445c0.25,0.297,0.375,0.738,0.375,1.325v3.56c0,0.587-0.125,1.029-0.375,1.325
			c-0.25,0.297-0.625,0.445-1.125,0.445c-0.487,0-0.855-0.148-1.105-0.445c-0.25-0.296-0.375-0.738-0.375-1.325V16.834z
			 M-179.292,20.404c0,1.04,0.42,1.56,1.26,1.56c0.853,0,1.28-0.52,1.28-1.56v-3.58c0-1.04-0.427-1.56-1.28-1.56
			c-0.84,0-1.26,0.52-1.26,1.56V20.404z"/>
		<path fill="#F2F2F2" d="M-175.533,22.114h-0.21v-7h0.31l2.46,6.55v-6.55h0.21v7h-0.27l-2.5-6.68V22.114z"/>
		<path fill="#F2F2F2" d="M-171.962,22.114v-7h0.22v6.79h2.35v0.21H-171.962z"/>
		<path fill="#F2F2F2" d="M-168.413,15.114v7h-0.22v-7H-168.413z"/>
		<path fill="#F2F2F2" d="M-167.403,22.114h-0.21v-7h0.31l2.46,6.55v-6.55h0.21v7h-0.27l-2.5-6.68V22.114z"/>
		<path fill="#F2F2F2" d="M-161.553,18.464v0.2h-2.06v3.24h2.45v0.21h-2.67v-7h2.67v0.21h-2.45v3.14H-161.553z"/>
		<path fill="#F2F2F2" d="M-158.253,20.464l-0.41,1.65h-0.2l1.69-7.01h0.31l1.73,7.01h-0.22l-0.41-1.65H-158.253z M-158.213,20.264
			h2.41l-1.22-4.9L-158.213,20.264z"/>
		<path fill="#F2F2F2" d="M-152.913,15.064c0.267,0,0.493,0.046,0.68,0.14c0.187,0.094,0.338,0.22,0.455,0.38
			c0.117,0.16,0.202,0.348,0.255,0.565c0.053,0.217,0.08,0.445,0.08,0.685v0.54h-0.22v-0.55c0-0.213-0.022-0.415-0.065-0.605
			c-0.043-0.19-0.114-0.355-0.21-0.495c-0.097-0.14-0.225-0.251-0.385-0.335c-0.16-0.083-0.354-0.125-0.58-0.125
			c-0.233,0-0.43,0.042-0.59,0.125c-0.16,0.083-0.289,0.195-0.385,0.335c-0.097,0.14-0.167,0.305-0.21,0.495
			s-0.065,0.392-0.065,0.605v3.58c0,0.213,0.021,0.414,0.065,0.6s0.113,0.35,0.21,0.49c0.097,0.14,0.225,0.252,0.385,0.335
			c0.16,0.083,0.356,0.125,0.59,0.125c0.227,0,0.42-0.042,0.58-0.125c0.16-0.083,0.289-0.195,0.385-0.335
			c0.096-0.14,0.167-0.303,0.21-0.49c0.043-0.187,0.065-0.387,0.065-0.6v-0.77h0.22v0.76c0,0.24-0.026,0.469-0.08,0.685
			c-0.054,0.217-0.139,0.405-0.255,0.565c-0.117,0.16-0.268,0.287-0.455,0.38c-0.187,0.093-0.413,0.14-0.68,0.14
			s-0.492-0.046-0.675-0.14c-0.183-0.093-0.333-0.22-0.45-0.38c-0.117-0.16-0.202-0.348-0.255-0.565
			c-0.054-0.216-0.08-0.445-0.08-0.685v-3.56c0-0.24,0.026-0.468,0.08-0.685c0.053-0.217,0.138-0.405,0.255-0.565
			c0.117-0.16,0.267-0.287,0.45-0.38C-153.405,15.11-153.18,15.064-152.913,15.064z"/>
		<path fill="#F2F2F2" d="M-149.213,15.064c0.267,0,0.493,0.046,0.68,0.14c0.187,0.094,0.338,0.22,0.455,0.38
			c0.117,0.16,0.202,0.348,0.255,0.565c0.053,0.217,0.08,0.445,0.08,0.685v0.54h-0.22v-0.55c0-0.213-0.022-0.415-0.065-0.605
			c-0.043-0.19-0.114-0.355-0.21-0.495c-0.097-0.14-0.225-0.251-0.385-0.335c-0.16-0.083-0.354-0.125-0.58-0.125
			c-0.233,0-0.43,0.042-0.59,0.125c-0.16,0.083-0.289,0.195-0.385,0.335c-0.097,0.14-0.167,0.305-0.21,0.495
			s-0.065,0.392-0.065,0.605v3.58c0,0.213,0.021,0.414,0.065,0.6s0.113,0.35,0.21,0.49c0.097,0.14,0.225,0.252,0.385,0.335
			c0.16,0.083,0.356,0.125,0.59,0.125c0.227,0,0.42-0.042,0.58-0.125c0.16-0.083,0.289-0.195,0.385-0.335
			c0.096-0.14,0.167-0.303,0.21-0.49c0.043-0.187,0.065-0.387,0.065-0.6v-0.77h0.22v0.76c0,0.24-0.026,0.469-0.08,0.685
			c-0.054,0.217-0.139,0.405-0.255,0.565c-0.117,0.16-0.268,0.287-0.455,0.38c-0.187,0.093-0.413,0.14-0.68,0.14
			s-0.492-0.046-0.675-0.14c-0.183-0.093-0.333-0.22-0.45-0.38c-0.117-0.16-0.202-0.348-0.255-0.565
			c-0.054-0.216-0.08-0.445-0.08-0.685v-3.56c0-0.24,0.026-0.468,0.08-0.685c0.053-0.217,0.138-0.405,0.255-0.565
			c0.117-0.16,0.267-0.287,0.45-0.38C-149.705,15.11-149.479,15.064-149.213,15.064z"/>
		<path fill="#F2F2F2" d="M-146.973,16.834c0-0.247,0.026-0.477,0.08-0.69c0.053-0.213,0.14-0.4,0.26-0.56
			c0.12-0.16,0.273-0.287,0.46-0.38c0.187-0.093,0.414-0.14,0.68-0.14s0.495,0.046,0.685,0.14c0.19,0.094,0.345,0.22,0.465,0.38
			c0.12,0.16,0.208,0.347,0.265,0.56c0.057,0.214,0.085,0.444,0.085,0.69v3.56c0,0.247-0.028,0.477-0.085,0.69
			s-0.145,0.4-0.265,0.56c-0.12,0.16-0.275,0.287-0.465,0.38s-0.418,0.14-0.685,0.14s-0.494-0.046-0.68-0.14s-0.34-0.22-0.46-0.38
			c-0.12-0.16-0.207-0.346-0.26-0.56c-0.054-0.213-0.08-0.443-0.08-0.69V16.834z M-146.753,20.404c0,0.213,0.021,0.415,0.065,0.605
			s0.115,0.355,0.215,0.495c0.1,0.14,0.23,0.251,0.39,0.335c0.16,0.083,0.357,0.125,0.59,0.125s0.432-0.042,0.595-0.125
			c0.164-0.083,0.295-0.195,0.395-0.335c0.1-0.14,0.173-0.305,0.22-0.495c0.046-0.19,0.07-0.392,0.07-0.605v-3.58
			c0-0.213-0.023-0.415-0.07-0.605c-0.047-0.19-0.12-0.355-0.22-0.495c-0.1-0.14-0.231-0.251-0.395-0.335
			c-0.163-0.083-0.361-0.125-0.595-0.125s-0.43,0.042-0.59,0.125c-0.16,0.083-0.29,0.195-0.39,0.335
			c-0.1,0.14-0.172,0.305-0.215,0.495s-0.065,0.392-0.065,0.605V20.404z"/>
		<path fill="#F2F2F2" d="M-141.023,22.094h-0.25l-1.73-6.65v6.67h-0.2v-7h0.34l1.72,6.64l1.72-6.64h0.34v7h-0.22v-6.67
			L-141.023,22.094z"/>
		<path fill="#F2F2F2" d="M-138.293,16.834c0-0.247,0.026-0.477,0.08-0.69c0.053-0.213,0.14-0.4,0.26-0.56
			c0.12-0.16,0.273-0.287,0.46-0.38c0.187-0.093,0.414-0.14,0.68-0.14s0.495,0.046,0.685,0.14c0.19,0.094,0.345,0.22,0.465,0.38
			c0.12,0.16,0.208,0.347,0.265,0.56c0.057,0.214,0.085,0.444,0.085,0.69v3.56c0,0.247-0.028,0.477-0.085,0.69
			s-0.145,0.4-0.265,0.56c-0.12,0.16-0.275,0.287-0.465,0.38s-0.418,0.14-0.685,0.14s-0.494-0.046-0.68-0.14s-0.34-0.22-0.46-0.38
			c-0.12-0.16-0.207-0.346-0.26-0.56c-0.054-0.213-0.08-0.443-0.08-0.69V16.834z M-138.073,20.404c0,0.213,0.021,0.415,0.065,0.605
			s0.115,0.355,0.215,0.495c0.1,0.14,0.23,0.251,0.39,0.335c0.16,0.083,0.357,0.125,0.59,0.125s0.432-0.042,0.595-0.125
			c0.164-0.083,0.295-0.195,0.395-0.335c0.1-0.14,0.173-0.305,0.22-0.495c0.046-0.19,0.07-0.392,0.07-0.605v-3.58
			c0-0.213-0.023-0.415-0.07-0.605c-0.047-0.19-0.12-0.355-0.22-0.495c-0.1-0.14-0.231-0.251-0.395-0.335
			c-0.163-0.083-0.361-0.125-0.595-0.125s-0.43,0.042-0.59,0.125c-0.16,0.083-0.29,0.195-0.39,0.335
			c-0.1,0.14-0.172,0.305-0.215,0.495s-0.065,0.392-0.065,0.605V20.404z"/>
		<path fill="#F2F2F2" d="M-133.063,15.114c0.267,0,0.497,0.045,0.69,0.135c0.193,0.09,0.352,0.212,0.475,0.365
			s0.213,0.338,0.27,0.555c0.057,0.216,0.085,0.448,0.085,0.695v3.51c0,0.247-0.028,0.477-0.085,0.69s-0.146,0.396-0.27,0.55
			s-0.28,0.275-0.47,0.365c-0.19,0.09-0.418,0.135-0.685,0.135h-1.47v-7H-133.063z M-133.063,21.904c0.233,0,0.434-0.038,0.6-0.115
			c0.167-0.076,0.302-0.183,0.405-0.32c0.103-0.137,0.178-0.296,0.225-0.48c0.047-0.183,0.07-0.385,0.07-0.605v-3.53
			c0-0.22-0.023-0.423-0.07-0.61c-0.046-0.187-0.123-0.348-0.23-0.485c-0.106-0.137-0.242-0.243-0.405-0.32
			c-0.164-0.077-0.362-0.115-0.595-0.115h-1.24v6.58H-133.063z"/>
		<path fill="#F2F2F2" d="M-130.193,20.464l-0.41,1.65h-0.2l1.69-7.01h0.31l1.73,7.01h-0.22l-0.41-1.65H-130.193z M-130.153,20.264
			h2.41l-1.22-4.9L-130.153,20.264z"/>
		<path fill="#F2F2F2" d="M-125.374,22.114v-6.79h-1.52v-0.21h3.271v0.21h-1.53v6.79H-125.374z"/>
		<path fill="#F2F2F2" d="M-122.793,15.114v7h-0.22v-7H-122.793z"/>
		<path fill="#F2F2F2" d="M-122.004,16.834c0-0.247,0.027-0.477,0.08-0.69c0.054-0.213,0.141-0.4,0.261-0.56
			c0.119-0.16,0.272-0.287,0.46-0.38c0.187-0.093,0.413-0.14,0.68-0.14s0.495,0.046,0.685,0.14c0.19,0.094,0.346,0.22,0.465,0.38
			c0.12,0.16,0.209,0.347,0.266,0.56c0.057,0.214,0.085,0.444,0.085,0.69v3.56c0,0.247-0.028,0.477-0.085,0.69
			s-0.146,0.4-0.266,0.56c-0.119,0.16-0.274,0.287-0.465,0.38c-0.189,0.093-0.418,0.14-0.685,0.14s-0.493-0.046-0.68-0.14
			c-0.188-0.093-0.341-0.22-0.46-0.38c-0.12-0.16-0.207-0.346-0.261-0.56c-0.053-0.213-0.08-0.443-0.08-0.69V16.834z
			 M-121.783,20.404c0,0.213,0.021,0.415,0.064,0.605c0.044,0.19,0.115,0.355,0.215,0.495c0.101,0.14,0.23,0.251,0.391,0.335
			s0.356,0.125,0.59,0.125s0.432-0.042,0.595-0.125s0.295-0.195,0.396-0.335c0.1-0.14,0.173-0.305,0.22-0.495s0.07-0.392,0.07-0.605
			v-3.58c0-0.213-0.023-0.415-0.07-0.605s-0.12-0.355-0.22-0.495c-0.101-0.14-0.232-0.251-0.396-0.335
			c-0.163-0.083-0.361-0.125-0.595-0.125s-0.43,0.042-0.59,0.125c-0.16,0.083-0.29,0.195-0.391,0.335
			c-0.1,0.14-0.171,0.305-0.215,0.495c-0.043,0.19-0.064,0.392-0.064,0.605V20.404z"/>
		<path fill="#F2F2F2" d="M-118.023,22.114h-0.21v-7h0.31l2.46,6.55v-6.55h0.21v7h-0.27l-2.5-6.68V22.114z"/>
		<path fill="#F2F2F2" d="M-111.454,15.064c0.267,0,0.492,0.045,0.676,0.135c0.183,0.09,0.331,0.215,0.444,0.375
			s0.197,0.345,0.25,0.555c0.054,0.21,0.08,0.435,0.08,0.675v0.13h-0.22v-0.14c0-0.207-0.021-0.403-0.065-0.59
			c-0.043-0.187-0.111-0.35-0.205-0.49c-0.093-0.14-0.218-0.25-0.375-0.33c-0.156-0.08-0.348-0.12-0.574-0.12
			c-0.233,0-0.429,0.04-0.585,0.12c-0.157,0.08-0.282,0.19-0.375,0.33c-0.094,0.14-0.162,0.302-0.205,0.485
			c-0.044,0.184-0.065,0.378-0.065,0.585c0,0.3,0.066,0.554,0.2,0.76c0.133,0.207,0.298,0.392,0.495,0.555
			c0.196,0.164,0.411,0.317,0.645,0.46c0.233,0.144,0.448,0.3,0.646,0.47c0.196,0.17,0.361,0.367,0.495,0.59
			c0.133,0.224,0.199,0.492,0.199,0.805c0,0.24-0.026,0.467-0.079,0.68c-0.054,0.213-0.139,0.398-0.256,0.555
			c-0.116,0.157-0.268,0.28-0.455,0.37c-0.187,0.09-0.413,0.135-0.68,0.135s-0.491-0.045-0.675-0.135s-0.333-0.213-0.45-0.37
			c-0.116-0.156-0.201-0.341-0.255-0.555s-0.08-0.44-0.08-0.68v-0.34h0.21v0.35c0,0.213,0.021,0.412,0.065,0.595
			c0.043,0.184,0.114,0.343,0.215,0.48c0.1,0.137,0.229,0.245,0.385,0.325c0.156,0.08,0.352,0.12,0.585,0.12
			c0.227,0,0.42-0.04,0.58-0.12c0.16-0.08,0.29-0.188,0.39-0.325c0.101-0.137,0.172-0.296,0.216-0.48
			c0.043-0.183,0.064-0.382,0.064-0.595c0-0.293-0.066-0.543-0.2-0.75c-0.133-0.207-0.298-0.392-0.495-0.555
			c-0.196-0.164-0.411-0.315-0.645-0.455s-0.448-0.296-0.645-0.47c-0.197-0.173-0.362-0.372-0.495-0.595
			c-0.134-0.224-0.2-0.495-0.2-0.815c0-0.514,0.113-0.928,0.34-1.245C-112.327,15.232-111.96,15.07-111.454,15.064z"/>
		<path fill="#F2F2F2" d="M-107.904,22.114v-6.79h-1.52v-0.21h3.27v0.21h-1.53v6.79H-107.904z"/>
		<path fill="#F2F2F2" d="M-105.334,20.394c0,0.214,0.02,0.414,0.06,0.6c0.04,0.187,0.108,0.354,0.205,0.5
			c0.097,0.147,0.224,0.262,0.38,0.345s0.352,0.125,0.585,0.125s0.429-0.042,0.585-0.125c0.157-0.083,0.283-0.198,0.38-0.345
			c0.097-0.146,0.165-0.313,0.205-0.5c0.04-0.187,0.061-0.386,0.061-0.6v-5.28h0.21v5.27c0,0.24-0.025,0.468-0.075,0.685
			s-0.132,0.405-0.245,0.565s-0.262,0.289-0.445,0.385c-0.183,0.097-0.408,0.145-0.675,0.145s-0.491-0.048-0.675-0.145
			c-0.184-0.096-0.333-0.225-0.45-0.385c-0.116-0.16-0.2-0.348-0.25-0.565s-0.075-0.445-0.075-0.685v-5.27h0.221V20.394z"/>
		<path fill="#F2F2F2" d="M-100.414,15.114c0.267,0,0.496,0.045,0.689,0.135c0.193,0.09,0.352,0.212,0.476,0.365
			c0.123,0.153,0.213,0.338,0.27,0.555c0.057,0.216,0.085,0.448,0.085,0.695v3.51c0,0.247-0.028,0.477-0.085,0.69
			s-0.146,0.396-0.27,0.55c-0.124,0.153-0.28,0.275-0.471,0.365c-0.189,0.09-0.418,0.135-0.685,0.135h-1.47v-7H-100.414z
			 M-100.414,21.904c0.233,0,0.433-0.038,0.6-0.115c0.167-0.076,0.302-0.183,0.405-0.32s0.178-0.296,0.225-0.48
			c0.047-0.183,0.07-0.385,0.07-0.605v-3.53c0-0.22-0.023-0.423-0.07-0.61c-0.047-0.187-0.123-0.348-0.229-0.485
			c-0.107-0.137-0.242-0.243-0.405-0.32s-0.361-0.115-0.595-0.115h-1.24v6.58H-100.414z"/>
		<path fill="#F2F2F2" d="M-95.835,18.464v0.2h-2.06v3.24h2.45v0.21h-2.67v-7h2.67v0.21h-2.45v3.14H-95.835z"/>
		<path fill="#F2F2F2" d="M-94.454,22.114h-0.21v-7h0.31l2.46,6.55v-6.55h0.21v7h-0.27l-2.5-6.68V22.114z"/>
		<path fill="#F2F2F2" d="M-89.574,22.114v-6.79h-1.52v-0.21h3.27v0.21h-1.53v6.79H-89.574z"/>
		<path fill="#F2F2F2" d="M-85.444,15.114v7h-0.22v-7H-85.444z"/>
		<path fill="#F2F2F2" d="M-84.435,22.114h-0.21v-7h0.31l2.46,6.55v-6.55h0.21v7h-0.27l-2.5-6.68V22.114z"/>
		<path fill="#F2F2F2" d="M-78.685,18.634v0.21h-1.96v3.27h-0.22v-7h2.569v0.21h-2.35v3.31H-78.685z"/>
		<path fill="#F2F2F2" d="M-77.545,16.834c0-0.247,0.027-0.477,0.08-0.69c0.054-0.213,0.141-0.4,0.261-0.56
			c0.119-0.16,0.272-0.287,0.46-0.38c0.187-0.093,0.413-0.14,0.68-0.14s0.495,0.046,0.685,0.14c0.19,0.094,0.346,0.22,0.465,0.38
			c0.12,0.16,0.209,0.347,0.266,0.56c0.057,0.214,0.085,0.444,0.085,0.69v3.56c0,0.247-0.028,0.477-0.085,0.69
			s-0.146,0.4-0.266,0.56c-0.119,0.16-0.274,0.287-0.465,0.38c-0.189,0.093-0.418,0.14-0.685,0.14s-0.493-0.046-0.68-0.14
			c-0.188-0.093-0.341-0.22-0.46-0.38c-0.12-0.16-0.207-0.346-0.261-0.56c-0.053-0.213-0.08-0.443-0.08-0.69V16.834z
			 M-77.324,20.404c0,0.213,0.021,0.415,0.064,0.605c0.044,0.19,0.115,0.355,0.215,0.495c0.101,0.14,0.23,0.251,0.391,0.335
			s0.356,0.125,0.59,0.125s0.432-0.042,0.595-0.125s0.295-0.195,0.396-0.335c0.1-0.14,0.173-0.305,0.22-0.495s0.07-0.392,0.07-0.605
			v-3.58c0-0.213-0.023-0.415-0.07-0.605s-0.12-0.355-0.22-0.495c-0.101-0.14-0.232-0.251-0.396-0.335
			c-0.163-0.083-0.361-0.125-0.595-0.125s-0.43,0.042-0.59,0.125c-0.16,0.083-0.29,0.195-0.391,0.335
			c-0.1,0.14-0.171,0.305-0.215,0.495c-0.043,0.19-0.064,0.392-0.064,0.605V20.404z"/>
		<path fill="#F2F2F2" d="M-72.385,15.114c0.52,0,0.89,0.142,1.11,0.425c0.22,0.284,0.33,0.665,0.33,1.145v0.63
			c0,0.433-0.089,0.768-0.266,1.005s-0.458,0.392-0.845,0.465c0.394,0.06,0.677,0.212,0.85,0.455
			c0.174,0.244,0.261,0.559,0.261,0.945v1.1c0,0.133,0.011,0.277,0.034,0.43s0.075,0.287,0.155,0.4h-0.24
			c-0.073-0.113-0.12-0.242-0.14-0.385c-0.021-0.144-0.03-0.292-0.03-0.445v-1.1c0-0.26-0.036-0.473-0.109-0.64
			c-0.074-0.167-0.179-0.298-0.315-0.395s-0.299-0.165-0.485-0.205s-0.393-0.06-0.619-0.06h-0.86v3.23h-0.22v-7H-72.385z
			 M-72.694,18.674c0.239,0,0.454-0.019,0.645-0.055s0.35-0.105,0.48-0.205c0.13-0.1,0.229-0.235,0.3-0.405
			c0.069-0.17,0.104-0.392,0.104-0.665v-0.64c0-0.426-0.092-0.763-0.274-1.01c-0.184-0.247-0.502-0.37-0.955-0.37h-1.16v3.35
			H-72.694z"/>
		<path fill="#F2F2F2" d="M-67.795,22.094h-0.25l-1.73-6.65v6.67h-0.199v-7h0.34l1.72,6.64l1.72-6.64h0.34v7h-0.22v-6.67
			L-67.795,22.094z"/>
		<path fill="#F2F2F2" d="M-64.475,20.464l-0.41,1.65h-0.2l1.689-7.01h0.311l1.729,7.01h-0.22l-0.41-1.65H-64.475z M-64.436,20.264
			h2.41l-1.22-4.9L-64.436,20.264z"/>
		<path fill="#F2F2F2" d="M-59.655,22.114v-6.79h-1.52v-0.21h3.27v0.21h-1.53v6.79H-59.655z"/>
		<path fill="#F2F2F2" d="M-57.075,15.114v7h-0.22v-7H-57.075z"/>
		<path fill="#F2F2F2" d="M-56.286,16.834c0-0.247,0.027-0.477,0.08-0.69c0.054-0.213,0.141-0.4,0.261-0.56
			c0.119-0.16,0.272-0.287,0.46-0.38c0.187-0.093,0.413-0.14,0.68-0.14s0.495,0.046,0.685,0.14c0.19,0.094,0.346,0.22,0.465,0.38
			c0.12,0.16,0.209,0.347,0.266,0.56c0.057,0.214,0.085,0.444,0.085,0.69v3.56c0,0.247-0.028,0.477-0.085,0.69
			s-0.146,0.4-0.266,0.56c-0.119,0.16-0.274,0.287-0.465,0.38c-0.189,0.093-0.418,0.14-0.685,0.14s-0.493-0.046-0.68-0.14
			c-0.188-0.093-0.341-0.22-0.46-0.38c-0.12-0.16-0.207-0.346-0.261-0.56c-0.053-0.213-0.08-0.443-0.08-0.69V16.834z
			 M-56.065,20.404c0,0.213,0.021,0.415,0.064,0.605c0.044,0.19,0.115,0.355,0.215,0.495c0.101,0.14,0.23,0.251,0.391,0.335
			s0.356,0.125,0.59,0.125s0.432-0.042,0.595-0.125s0.295-0.195,0.396-0.335c0.1-0.14,0.173-0.305,0.22-0.495s0.07-0.392,0.07-0.605
			v-3.58c0-0.213-0.023-0.415-0.07-0.605s-0.12-0.355-0.22-0.495c-0.101-0.14-0.232-0.251-0.396-0.335
			c-0.163-0.083-0.361-0.125-0.595-0.125s-0.43,0.042-0.59,0.125c-0.16,0.083-0.29,0.195-0.391,0.335
			c-0.1,0.14-0.171,0.305-0.215,0.495c-0.043,0.19-0.064,0.392-0.064,0.605V20.404z"/>
		<path fill="#F2F2F2" d="M-52.305,22.114h-0.21v-7h0.31l2.46,6.55v-6.55h0.21v7h-0.27l-2.5-6.68V22.114z"/>
		<path fill="#F2F2F2" d="M-45.736,15.064c0.267,0,0.492,0.045,0.676,0.135c0.183,0.09,0.331,0.215,0.444,0.375
			s0.197,0.345,0.25,0.555c0.054,0.21,0.08,0.435,0.08,0.675v0.13h-0.22v-0.14c0-0.207-0.021-0.403-0.065-0.59
			c-0.043-0.187-0.111-0.35-0.205-0.49c-0.093-0.14-0.218-0.25-0.375-0.33c-0.156-0.08-0.348-0.12-0.574-0.12
			c-0.233,0-0.429,0.04-0.585,0.12c-0.157,0.08-0.282,0.19-0.375,0.33c-0.094,0.14-0.162,0.302-0.205,0.485
			c-0.044,0.184-0.065,0.378-0.065,0.585c0,0.3,0.066,0.554,0.2,0.76c0.133,0.207,0.298,0.392,0.495,0.555
			c0.196,0.164,0.411,0.317,0.645,0.46c0.233,0.144,0.448,0.3,0.646,0.47c0.196,0.17,0.361,0.367,0.495,0.59
			c0.133,0.224,0.199,0.492,0.199,0.805c0,0.24-0.026,0.467-0.079,0.68c-0.054,0.213-0.139,0.398-0.256,0.555
			c-0.116,0.157-0.268,0.28-0.455,0.37c-0.187,0.09-0.413,0.135-0.68,0.135s-0.491-0.045-0.675-0.135s-0.333-0.213-0.45-0.37
			c-0.116-0.156-0.201-0.341-0.255-0.555s-0.08-0.44-0.08-0.68v-0.34h0.21v0.35c0,0.213,0.021,0.412,0.065,0.595
			c0.043,0.184,0.114,0.343,0.215,0.48c0.1,0.137,0.229,0.245,0.385,0.325c0.156,0.08,0.352,0.12,0.585,0.12
			c0.227,0,0.42-0.04,0.58-0.12c0.16-0.08,0.29-0.188,0.39-0.325c0.101-0.137,0.172-0.296,0.216-0.48
			c0.043-0.183,0.064-0.382,0.064-0.595c0-0.293-0.066-0.543-0.2-0.75c-0.133-0.207-0.298-0.392-0.495-0.555
			c-0.196-0.164-0.411-0.315-0.645-0.455s-0.448-0.296-0.645-0.47c-0.197-0.173-0.362-0.372-0.495-0.595
			c-0.134-0.224-0.2-0.495-0.2-0.815c0-0.514,0.113-0.928,0.34-1.245C-46.609,15.232-46.242,15.07-45.736,15.064z"/>
		<path fill="#F2F2F2" d="M-41.976,19.284l-1.63-4.17h0.22l1.53,3.87l1.529-3.87h0.23l-1.66,4.17v2.83h-0.22V19.284z"/>
		<path fill="#F2F2F2" d="M-37.966,15.064c0.267,0,0.492,0.045,0.676,0.135c0.183,0.09,0.331,0.215,0.444,0.375
			s0.197,0.345,0.25,0.555c0.054,0.21,0.08,0.435,0.08,0.675v0.13h-0.22v-0.14c0-0.207-0.021-0.403-0.065-0.59
			c-0.043-0.187-0.111-0.35-0.205-0.49c-0.093-0.14-0.218-0.25-0.375-0.33c-0.156-0.08-0.348-0.12-0.574-0.12
			c-0.233,0-0.429,0.04-0.585,0.12c-0.157,0.08-0.282,0.19-0.375,0.33c-0.094,0.14-0.162,0.302-0.205,0.485
			c-0.044,0.184-0.065,0.378-0.065,0.585c0,0.3,0.066,0.554,0.2,0.76c0.133,0.207,0.298,0.392,0.495,0.555
			c0.196,0.164,0.411,0.317,0.645,0.46c0.233,0.144,0.448,0.3,0.646,0.47c0.196,0.17,0.361,0.367,0.495,0.59
			c0.133,0.224,0.199,0.492,0.199,0.805c0,0.24-0.026,0.467-0.079,0.68c-0.054,0.213-0.139,0.398-0.256,0.555
			c-0.116,0.157-0.268,0.28-0.455,0.37c-0.187,0.09-0.413,0.135-0.68,0.135s-0.491-0.045-0.675-0.135s-0.333-0.213-0.45-0.37
			c-0.116-0.156-0.201-0.341-0.255-0.555s-0.08-0.44-0.08-0.68v-0.34h0.21v0.35c0,0.213,0.021,0.412,0.065,0.595
			c0.043,0.184,0.114,0.343,0.215,0.48c0.1,0.137,0.229,0.245,0.385,0.325c0.156,0.08,0.352,0.12,0.585,0.12
			c0.227,0,0.42-0.04,0.58-0.12c0.16-0.08,0.29-0.188,0.39-0.325c0.101-0.137,0.172-0.296,0.216-0.48
			c0.043-0.183,0.064-0.382,0.064-0.595c0-0.293-0.066-0.543-0.2-0.75c-0.133-0.207-0.298-0.392-0.495-0.555
			c-0.196-0.164-0.411-0.315-0.645-0.455s-0.448-0.296-0.645-0.47c-0.197-0.173-0.362-0.372-0.495-0.595
			c-0.134-0.224-0.2-0.495-0.2-0.815c0-0.514,0.113-0.928,0.34-1.245C-38.839,15.232-38.472,15.07-37.966,15.064z"/>
		<path fill="#F2F2F2" d="M-34.416,22.114v-6.79h-1.52v-0.21h3.27v0.21h-1.53v6.79H-34.416z"/>
		<path fill="#F2F2F2" d="M-29.776,18.464v0.2h-2.06v3.24h2.45v0.21h-2.67v-7h2.67v0.21h-2.45v3.14H-29.776z"/>
		<path fill="#F2F2F2" d="M-26.426,22.094h-0.25l-1.73-6.65v6.67h-0.199v-7h0.34l1.72,6.64l1.72-6.64h0.34v7h-0.22v-6.67
			L-26.426,22.094z"/>
	</g>
	<g>
		<path fill="#F2F2F2" d="M50.407,28.445l-0.492,1.98h-0.24l2.028-8.412h0.372l2.076,8.412h-0.265l-0.491-1.98H50.407z
			 M50.455,28.205h2.893l-1.465-5.88L50.455,28.205z"/>
		<path fill="#F2F2F2" d="M56.804,21.965c0.319,0,0.592,0.056,0.815,0.168c0.224,0.112,0.406,0.264,0.546,0.456
			s0.242,0.418,0.307,0.678c0.063,0.26,0.096,0.534,0.096,0.822v0.648h-0.264v-0.66c0-0.256-0.026-0.498-0.078-0.726
			c-0.053-0.228-0.137-0.426-0.252-0.594c-0.116-0.168-0.271-0.302-0.462-0.402c-0.192-0.1-0.425-0.15-0.696-0.15
			c-0.28,0-0.517,0.05-0.708,0.15c-0.192,0.1-0.347,0.234-0.462,0.402c-0.116,0.168-0.2,0.366-0.252,0.594
			c-0.053,0.228-0.078,0.47-0.078,0.726v4.296c0,0.256,0.025,0.496,0.078,0.72c0.052,0.224,0.136,0.42,0.252,0.588
			c0.115,0.168,0.27,0.302,0.462,0.402c0.191,0.1,0.428,0.15,0.708,0.15c0.271,0,0.504-0.05,0.696-0.15
			c0.191-0.1,0.346-0.234,0.462-0.402c0.115-0.168,0.199-0.364,0.252-0.588c0.052-0.224,0.078-0.464,0.078-0.72v-0.924h0.264v0.912
			c0,0.288-0.032,0.562-0.096,0.822c-0.064,0.26-0.167,0.486-0.307,0.678s-0.322,0.344-0.546,0.456s-0.496,0.168-0.815,0.168
			c-0.32,0-0.591-0.056-0.811-0.168s-0.4-0.264-0.54-0.456s-0.242-0.418-0.306-0.678c-0.064-0.26-0.097-0.534-0.097-0.822v-4.272
			c0-0.288,0.032-0.562,0.097-0.822c0.063-0.26,0.166-0.486,0.306-0.678s0.32-0.344,0.54-0.456
			C56.213,22.021,56.483,21.965,56.804,21.965z"/>
		<path fill="#F2F2F2" d="M61.243,21.965c0.32,0,0.592,0.056,0.816,0.168c0.224,0.112,0.405,0.264,0.546,0.456
			c0.14,0.192,0.241,0.418,0.306,0.678c0.064,0.26,0.096,0.534,0.096,0.822v0.648h-0.264v-0.66c0-0.256-0.026-0.498-0.078-0.726
			c-0.052-0.228-0.136-0.426-0.252-0.594s-0.27-0.302-0.462-0.402s-0.424-0.15-0.696-0.15c-0.28,0-0.516,0.05-0.708,0.15
			c-0.191,0.1-0.346,0.234-0.462,0.402s-0.2,0.366-0.252,0.594c-0.052,0.228-0.078,0.47-0.078,0.726v4.296
			c0,0.256,0.026,0.496,0.078,0.72c0.052,0.224,0.136,0.42,0.252,0.588s0.271,0.302,0.462,0.402c0.192,0.1,0.428,0.15,0.708,0.15
			c0.272,0,0.504-0.05,0.696-0.15s0.346-0.234,0.462-0.402s0.2-0.364,0.252-0.588c0.052-0.224,0.078-0.464,0.078-0.72v-0.924h0.264
			v0.912c0,0.288-0.031,0.562-0.096,0.822c-0.064,0.26-0.166,0.486-0.306,0.678c-0.141,0.192-0.322,0.344-0.546,0.456
			c-0.225,0.112-0.496,0.168-0.816,0.168s-0.59-0.056-0.81-0.168c-0.221-0.112-0.4-0.264-0.54-0.456
			c-0.141-0.192-0.242-0.418-0.307-0.678c-0.063-0.26-0.096-0.534-0.096-0.822v-4.272c0-0.288,0.032-0.562,0.096-0.822
			c0.064-0.26,0.166-0.486,0.307-0.678c0.14-0.192,0.319-0.344,0.54-0.456C60.653,22.021,60.923,21.965,61.243,21.965z"/>
		<path fill="#F2F2F2" d="M63.931,24.089c0-0.296,0.032-0.572,0.097-0.828c0.063-0.256,0.168-0.48,0.312-0.672
			c0.145-0.192,0.328-0.344,0.553-0.456c0.224-0.112,0.495-0.168,0.815-0.168s0.594,0.056,0.822,0.168
			c0.228,0.112,0.414,0.264,0.558,0.456c0.145,0.192,0.25,0.416,0.318,0.672c0.067,0.256,0.102,0.532,0.102,0.828v4.272
			c0,0.296-0.034,0.572-0.102,0.828c-0.068,0.256-0.174,0.48-0.318,0.672c-0.144,0.192-0.33,0.344-0.558,0.456
			c-0.229,0.112-0.502,0.168-0.822,0.168s-0.592-0.056-0.815-0.168c-0.225-0.112-0.408-0.264-0.553-0.456
			c-0.144-0.192-0.248-0.416-0.312-0.672c-0.064-0.256-0.097-0.532-0.097-0.828V24.089z M64.195,28.373
			c0,0.256,0.025,0.498,0.078,0.726c0.052,0.228,0.138,0.426,0.258,0.594s0.276,0.302,0.468,0.402c0.192,0.1,0.428,0.15,0.708,0.15
			s0.518-0.05,0.714-0.15s0.354-0.234,0.475-0.402c0.119-0.168,0.208-0.366,0.264-0.594s0.084-0.47,0.084-0.726v-4.296
			c0-0.256-0.028-0.498-0.084-0.726c-0.056-0.228-0.145-0.426-0.264-0.594c-0.12-0.168-0.278-0.302-0.475-0.402
			s-0.434-0.15-0.714-0.15s-0.516,0.05-0.708,0.15c-0.191,0.1-0.348,0.234-0.468,0.402s-0.206,0.366-0.258,0.594
			c-0.053,0.228-0.078,0.47-0.078,0.726V28.373z"/>
		<path fill="#F2F2F2" d="M71.071,30.401h-0.301l-2.075-7.98v8.004h-0.24v-8.4h0.408l2.063,7.968l2.064-7.968h0.407v8.4h-0.264
			v-8.004L71.071,30.401z"/>
		<path fill="#F2F2F2" d="M74.347,24.089c0-0.296,0.032-0.572,0.096-0.828c0.064-0.256,0.168-0.48,0.313-0.672
			c0.144-0.192,0.328-0.344,0.552-0.456c0.224-0.112,0.496-0.168,0.816-0.168c0.319,0,0.594,0.056,0.821,0.168
			c0.229,0.112,0.414,0.264,0.559,0.456c0.144,0.192,0.25,0.416,0.317,0.672c0.068,0.256,0.103,0.532,0.103,0.828v4.272
			c0,0.296-0.034,0.572-0.103,0.828c-0.067,0.256-0.174,0.48-0.317,0.672c-0.145,0.192-0.33,0.344-0.559,0.456
			c-0.228,0.112-0.502,0.168-0.821,0.168c-0.32,0-0.593-0.056-0.816-0.168s-0.408-0.264-0.552-0.456
			c-0.145-0.192-0.248-0.416-0.313-0.672c-0.063-0.256-0.096-0.532-0.096-0.828V24.089z M74.61,28.373
			c0,0.256,0.026,0.498,0.078,0.726s0.139,0.426,0.258,0.594c0.12,0.168,0.276,0.302,0.469,0.402c0.191,0.1,0.428,0.15,0.708,0.15
			c0.279,0,0.518-0.05,0.714-0.15c0.195-0.1,0.354-0.234,0.474-0.402s0.208-0.366,0.264-0.594c0.057-0.228,0.084-0.47,0.084-0.726
			v-4.296c0-0.256-0.027-0.498-0.084-0.726c-0.056-0.228-0.144-0.426-0.264-0.594s-0.278-0.302-0.474-0.402
			c-0.196-0.1-0.435-0.15-0.714-0.15c-0.28,0-0.517,0.05-0.708,0.15c-0.192,0.1-0.349,0.234-0.469,0.402
			c-0.119,0.168-0.206,0.366-0.258,0.594c-0.052,0.228-0.078,0.47-0.078,0.726V28.373z"/>
		<path fill="#F2F2F2" d="M80.623,22.025c0.319,0,0.596,0.054,0.828,0.162c0.231,0.108,0.422,0.254,0.569,0.438
			c0.148,0.184,0.256,0.406,0.324,0.666c0.068,0.26,0.103,0.538,0.103,0.834v4.212c0,0.296-0.034,0.572-0.103,0.828
			c-0.068,0.256-0.176,0.476-0.324,0.66c-0.147,0.184-0.336,0.33-0.563,0.438c-0.229,0.108-0.502,0.162-0.822,0.162h-1.764v-8.4
			H80.623z M80.623,30.173c0.279,0,0.52-0.046,0.72-0.138c0.2-0.092,0.362-0.22,0.486-0.384s0.214-0.356,0.27-0.576
			c0.056-0.22,0.084-0.462,0.084-0.726v-4.236c0-0.264-0.028-0.508-0.084-0.732s-0.147-0.418-0.275-0.582
			c-0.129-0.164-0.29-0.292-0.486-0.384c-0.196-0.092-0.435-0.138-0.714-0.138h-1.488v7.896H80.623z"/>
		<path fill="#F2F2F2" d="M84.066,28.445l-0.491,1.98h-0.24l2.028-8.412h0.372l2.075,8.412h-0.264l-0.492-1.98H84.066z
			 M84.115,28.205h2.892l-1.464-5.88L84.115,28.205z"/>
		<path fill="#F2F2F2" d="M89.851,30.425v-8.148h-1.824v-0.252h3.924v0.252h-1.836v8.148H89.851z"/>
		<path fill="#F2F2F2" d="M92.946,22.025v8.4h-0.264v-8.4H92.946z"/>
		<path fill="#F2F2F2" d="M93.895,24.089c0-0.296,0.032-0.572,0.096-0.828c0.064-0.256,0.168-0.48,0.313-0.672
			c0.144-0.192,0.328-0.344,0.552-0.456c0.224-0.112,0.496-0.168,0.816-0.168c0.319,0,0.594,0.056,0.821,0.168
			c0.229,0.112,0.414,0.264,0.559,0.456c0.144,0.192,0.25,0.416,0.317,0.672c0.068,0.256,0.103,0.532,0.103,0.828v4.272
			c0,0.296-0.034,0.572-0.103,0.828c-0.067,0.256-0.174,0.48-0.317,0.672c-0.145,0.192-0.33,0.344-0.559,0.456
			c-0.228,0.112-0.502,0.168-0.821,0.168c-0.32,0-0.593-0.056-0.816-0.168s-0.408-0.264-0.552-0.456
			c-0.145-0.192-0.248-0.416-0.313-0.672c-0.063-0.256-0.096-0.532-0.096-0.828V24.089z M94.158,28.373
			c0,0.256,0.026,0.498,0.078,0.726s0.139,0.426,0.258,0.594c0.12,0.168,0.276,0.302,0.469,0.402c0.191,0.1,0.428,0.15,0.708,0.15
			c0.279,0,0.518-0.05,0.714-0.15c0.195-0.1,0.354-0.234,0.474-0.402s0.208-0.366,0.264-0.594c0.057-0.228,0.084-0.47,0.084-0.726
			v-4.296c0-0.256-0.027-0.498-0.084-0.726c-0.056-0.228-0.144-0.426-0.264-0.594s-0.278-0.302-0.474-0.402
			c-0.196-0.1-0.435-0.15-0.714-0.15c-0.28,0-0.517,0.05-0.708,0.15c-0.192,0.1-0.349,0.234-0.469,0.402
			c-0.119,0.168-0.206,0.366-0.258,0.594c-0.052,0.228-0.078,0.47-0.078,0.726V28.373z"/>
		<path fill="#F2F2F2" d="M98.67,30.425h-0.252v-8.4h0.372l2.952,7.86v-7.86h0.252v8.4h-0.324l-3-8.016V30.425z"/>
		<path fill="#F2F2F2" d="M104.815,30.425v-8.4h0.264v8.148h2.82v0.252H104.815z"/>
		<path fill="#F2F2F2" d="M108.798,24.089c0-0.296,0.032-0.572,0.097-0.828c0.063-0.256,0.168-0.48,0.312-0.672
			s0.328-0.344,0.552-0.456c0.225-0.112,0.496-0.168,0.816-0.168c0.319,0,0.594,0.056,0.822,0.168
			c0.228,0.112,0.414,0.264,0.558,0.456s0.25,0.416,0.318,0.672c0.067,0.256,0.102,0.532,0.102,0.828v4.272
			c0,0.296-0.034,0.572-0.102,0.828c-0.068,0.256-0.175,0.48-0.318,0.672s-0.33,0.344-0.558,0.456
			c-0.229,0.112-0.503,0.168-0.822,0.168c-0.32,0-0.592-0.056-0.816-0.168c-0.224-0.112-0.408-0.264-0.552-0.456
			s-0.248-0.416-0.312-0.672c-0.064-0.256-0.097-0.532-0.097-0.828V24.089z M109.063,28.373c0,0.256,0.025,0.498,0.077,0.726
			c0.053,0.228,0.139,0.426,0.259,0.594s0.275,0.302,0.468,0.402c0.191,0.1,0.428,0.15,0.708,0.15s0.518-0.05,0.714-0.15
			s0.354-0.234,0.474-0.402s0.208-0.366,0.265-0.594c0.056-0.228,0.084-0.47,0.084-0.726v-4.296c0-0.256-0.028-0.498-0.084-0.726
			c-0.057-0.228-0.145-0.426-0.265-0.594s-0.277-0.302-0.474-0.402s-0.434-0.15-0.714-0.15s-0.517,0.05-0.708,0.15
			c-0.192,0.1-0.348,0.234-0.468,0.402s-0.206,0.366-0.259,0.594c-0.052,0.228-0.077,0.47-0.077,0.726V28.373z"/>
		<path fill="#F2F2F2" d="M115.063,21.965c0.32,0,0.592,0.056,0.816,0.168c0.224,0.112,0.406,0.264,0.546,0.456
			s0.242,0.418,0.306,0.678c0.064,0.26,0.097,0.534,0.097,0.822v0.648h-0.265v-0.66c0-0.256-0.025-0.498-0.078-0.726
			c-0.052-0.228-0.136-0.426-0.252-0.594c-0.115-0.168-0.27-0.302-0.462-0.402c-0.191-0.1-0.424-0.15-0.695-0.15
			c-0.28,0-0.517,0.05-0.708,0.15c-0.192,0.1-0.347,0.234-0.463,0.402c-0.115,0.168-0.199,0.366-0.252,0.594
			c-0.052,0.228-0.077,0.47-0.077,0.726v4.296c0,0.256,0.025,0.496,0.077,0.72c0.053,0.224,0.137,0.42,0.252,0.588
			c0.116,0.168,0.271,0.302,0.463,0.402c0.191,0.1,0.428,0.15,0.708,0.15c0.271,0,0.504-0.05,0.695-0.15
			c0.192-0.1,0.347-0.234,0.462-0.402c0.116-0.168,0.2-0.364,0.252-0.588c0.053-0.224,0.078-0.464,0.078-0.72v-0.924h0.265v0.912
			c0,0.288-0.032,0.562-0.097,0.822c-0.063,0.26-0.166,0.486-0.306,0.678s-0.322,0.344-0.546,0.456
			c-0.225,0.112-0.496,0.168-0.816,0.168c-0.319,0-0.59-0.056-0.81-0.168c-0.221-0.112-0.4-0.264-0.54-0.456
			c-0.141-0.192-0.242-0.418-0.306-0.678c-0.064-0.26-0.097-0.534-0.097-0.822v-4.272c0-0.288,0.032-0.562,0.097-0.822
			c0.063-0.26,0.165-0.486,0.306-0.678c0.14-0.192,0.319-0.344,0.54-0.456C114.473,22.021,114.743,21.965,115.063,21.965z"/>
		<path fill="#F2F2F2" d="M118.458,28.445l-0.492,1.98h-0.239l2.027-8.412h0.372l2.076,8.412h-0.264l-0.492-1.98H118.458z
			 M118.506,28.205h2.893l-1.464-5.88L118.506,28.205z"/>
		<path fill="#F2F2F2" d="M124.242,30.425v-8.148h-1.824v-0.252h3.925v0.252h-1.836v8.148H124.242z"/>
		<path fill="#F2F2F2" d="M127.062,24.089c0-0.296,0.032-0.572,0.097-0.828c0.063-0.256,0.168-0.48,0.312-0.672
			s0.328-0.344,0.552-0.456c0.225-0.112,0.496-0.168,0.816-0.168c0.319,0,0.594,0.056,0.822,0.168
			c0.228,0.112,0.414,0.264,0.558,0.456s0.25,0.416,0.318,0.672c0.067,0.256,0.102,0.532,0.102,0.828v4.272
			c0,0.296-0.034,0.572-0.102,0.828c-0.068,0.256-0.175,0.48-0.318,0.672s-0.33,0.344-0.558,0.456
			c-0.229,0.112-0.503,0.168-0.822,0.168c-0.32,0-0.592-0.056-0.816-0.168c-0.224-0.112-0.408-0.264-0.552-0.456
			s-0.248-0.416-0.312-0.672c-0.064-0.256-0.097-0.532-0.097-0.828V24.089z M127.326,28.373c0,0.256,0.025,0.498,0.077,0.726
			c0.053,0.228,0.139,0.426,0.259,0.594s0.275,0.302,0.468,0.402c0.191,0.1,0.428,0.15,0.708,0.15s0.518-0.05,0.714-0.15
			s0.354-0.234,0.474-0.402s0.208-0.366,0.265-0.594c0.056-0.228,0.084-0.47,0.084-0.726v-4.296c0-0.256-0.028-0.498-0.084-0.726
			c-0.057-0.228-0.145-0.426-0.265-0.594s-0.277-0.302-0.474-0.402s-0.434-0.15-0.714-0.15s-0.517,0.05-0.708,0.15
			c-0.192,0.1-0.348,0.234-0.468,0.402s-0.206,0.366-0.259,0.594c-0.052,0.228-0.077,0.47-0.077,0.726V28.373z"/>
		<path fill="#F2F2F2" d="M133.255,22.025c0.624,0,1.067,0.17,1.332,0.51c0.264,0.34,0.396,0.798,0.396,1.374v0.756
			c0,0.52-0.106,0.922-0.318,1.206c-0.212,0.284-0.55,0.47-1.014,0.558c0.472,0.072,0.812,0.254,1.021,0.546
			c0.207,0.292,0.312,0.67,0.312,1.134v1.32c0,0.16,0.014,0.332,0.042,0.516s0.09,0.344,0.186,0.48h-0.287
			c-0.089-0.136-0.145-0.29-0.168-0.462c-0.024-0.172-0.036-0.35-0.036-0.534v-1.32c0-0.312-0.044-0.568-0.132-0.768
			c-0.089-0.2-0.215-0.358-0.379-0.474c-0.164-0.116-0.357-0.198-0.582-0.246c-0.224-0.048-0.472-0.072-0.743-0.072h-1.032v3.876
			h-0.264v-8.4H133.255z M132.883,26.297c0.288,0,0.546-0.022,0.773-0.066c0.229-0.044,0.42-0.126,0.576-0.246
			s0.276-0.282,0.36-0.486c0.084-0.204,0.126-0.47,0.126-0.798v-0.768c0-0.512-0.11-0.916-0.33-1.212
			c-0.221-0.296-0.603-0.444-1.146-0.444h-1.392v4.02H132.883z"/>
	</g>
	<g display="none">
		<path display="inline" fill="#F2F2F2" d="M56.159,17.595c0-0.148,0.016-0.286,0.048-0.414s0.084-0.24,0.156-0.336
			c0.071-0.096,0.163-0.172,0.275-0.228s0.248-0.084,0.408-0.084s0.297,0.028,0.411,0.084s0.207,0.132,0.278,0.228
			c0.072,0.096,0.125,0.208,0.159,0.336s0.052,0.266,0.052,0.414v2.136c0,0.148-0.018,0.286-0.052,0.414
			c-0.034,0.128-0.087,0.24-0.159,0.336c-0.071,0.096-0.164,0.172-0.278,0.228c-0.114,0.056-0.251,0.084-0.411,0.084
			s-0.296-0.028-0.408-0.084c-0.112-0.056-0.204-0.132-0.275-0.228c-0.072-0.096-0.124-0.208-0.156-0.336
			c-0.032-0.128-0.048-0.266-0.048-0.414V17.595z M56.291,19.737c0,0.128,0.013,0.249,0.039,0.363
			c0.025,0.114,0.068,0.213,0.129,0.297c0.06,0.084,0.138,0.151,0.233,0.201c0.097,0.05,0.215,0.075,0.354,0.075
			s0.259-0.025,0.356-0.075c0.099-0.05,0.178-0.117,0.237-0.201c0.061-0.084,0.104-0.183,0.132-0.297
			c0.028-0.114,0.042-0.235,0.042-0.363v-2.148c0-0.128-0.014-0.249-0.042-0.363c-0.027-0.114-0.071-0.213-0.132-0.297
			c-0.06-0.084-0.139-0.151-0.237-0.201c-0.098-0.05-0.217-0.075-0.356-0.075s-0.258,0.025-0.354,0.075
			c-0.096,0.05-0.174,0.117-0.233,0.201c-0.061,0.084-0.104,0.183-0.129,0.297c-0.026,0.114-0.039,0.235-0.039,0.363V19.737z"/>
		<path display="inline" fill="#F2F2F2" d="M58.763,19.772l-0.246,0.99h-0.12l1.015-4.206h0.186l1.038,4.206h-0.132l-0.246-0.99
			H58.763z M58.787,19.653h1.445l-0.731-2.94L58.787,19.653z"/>
		<path display="inline" fill="#F2F2F2" d="M61.967,16.533c0.159,0,0.295,0.027,0.404,0.081c0.11,0.054,0.199,0.129,0.268,0.225
			c0.067,0.096,0.118,0.207,0.149,0.333c0.032,0.126,0.049,0.261,0.049,0.405v0.078h-0.133v-0.084c0-0.124-0.013-0.242-0.039-0.354
			c-0.025-0.112-0.066-0.21-0.123-0.294c-0.056-0.084-0.131-0.15-0.225-0.198s-0.209-0.072-0.345-0.072
			c-0.141,0-0.257,0.024-0.352,0.072c-0.094,0.048-0.169,0.114-0.225,0.198s-0.097,0.181-0.123,0.291
			c-0.026,0.11-0.039,0.227-0.039,0.351c0,0.18,0.04,0.333,0.12,0.456c0.08,0.124,0.179,0.235,0.297,0.333
			c0.118,0.098,0.247,0.19,0.387,0.276c0.141,0.086,0.27,0.18,0.388,0.282c0.117,0.102,0.217,0.22,0.297,0.354
			c0.08,0.134,0.12,0.295,0.12,0.483c0,0.144-0.017,0.28-0.048,0.408c-0.032,0.128-0.084,0.239-0.153,0.333
			c-0.07,0.094-0.161,0.168-0.273,0.222c-0.111,0.054-0.248,0.081-0.408,0.081c-0.159,0-0.295-0.027-0.404-0.081
			c-0.11-0.054-0.2-0.128-0.271-0.222c-0.069-0.094-0.121-0.205-0.152-0.333c-0.032-0.128-0.049-0.264-0.049-0.408v-0.204h0.126
			v0.21c0,0.128,0.014,0.247,0.039,0.357c0.026,0.11,0.069,0.206,0.13,0.288c0.06,0.082,0.137,0.147,0.23,0.195
			s0.211,0.072,0.351,0.072c0.137,0,0.253-0.024,0.349-0.072s0.174-0.113,0.233-0.195c0.061-0.082,0.104-0.178,0.13-0.288
			c0.025-0.11,0.038-0.229,0.038-0.357c0-0.176-0.039-0.326-0.119-0.45s-0.18-0.235-0.298-0.333
			c-0.117-0.098-0.246-0.189-0.387-0.273c-0.14-0.084-0.269-0.178-0.387-0.282c-0.118-0.104-0.217-0.223-0.297-0.357
			c-0.08-0.134-0.12-0.297-0.12-0.489c0-0.308,0.068-0.557,0.204-0.747S61.662,16.537,61.967,16.533z"/>
		<path display="inline" fill="#F2F2F2" d="M63.442,16.563v4.2h-0.132v-4.2H63.442z"/>
		<path display="inline" fill="#F2F2F2" d="M64.793,16.533c0.159,0,0.295,0.027,0.404,0.081c0.11,0.054,0.199,0.129,0.268,0.225
			c0.067,0.096,0.118,0.207,0.149,0.333c0.032,0.126,0.049,0.261,0.049,0.405v0.078H65.53v-0.084c0-0.124-0.013-0.242-0.039-0.354
			c-0.025-0.112-0.066-0.21-0.123-0.294c-0.056-0.084-0.131-0.15-0.225-0.198s-0.209-0.072-0.345-0.072
			c-0.141,0-0.257,0.024-0.352,0.072c-0.094,0.048-0.169,0.114-0.225,0.198s-0.097,0.181-0.123,0.291
			c-0.026,0.11-0.039,0.227-0.039,0.351c0,0.18,0.04,0.333,0.12,0.456c0.08,0.124,0.179,0.235,0.297,0.333
			c0.118,0.098,0.247,0.19,0.387,0.276c0.141,0.086,0.27,0.18,0.388,0.282c0.117,0.102,0.217,0.22,0.297,0.354
			c0.08,0.134,0.12,0.295,0.12,0.483c0,0.144-0.017,0.28-0.048,0.408c-0.032,0.128-0.084,0.239-0.153,0.333
			c-0.07,0.094-0.161,0.168-0.273,0.222c-0.111,0.054-0.248,0.081-0.408,0.081c-0.159,0-0.295-0.027-0.404-0.081
			c-0.11-0.054-0.2-0.128-0.271-0.222c-0.069-0.094-0.121-0.205-0.152-0.333c-0.032-0.128-0.049-0.264-0.049-0.408v-0.204h0.126
			v0.21c0,0.128,0.014,0.247,0.039,0.357c0.026,0.11,0.069,0.206,0.13,0.288c0.06,0.082,0.137,0.147,0.23,0.195
			s0.211,0.072,0.351,0.072c0.137,0,0.253-0.024,0.349-0.072s0.174-0.113,0.233-0.195c0.061-0.082,0.104-0.178,0.13-0.288
			c0.025-0.11,0.038-0.229,0.038-0.357c0-0.176-0.039-0.326-0.119-0.45s-0.18-0.235-0.298-0.333
			c-0.117-0.098-0.246-0.189-0.387-0.273c-0.14-0.084-0.269-0.178-0.387-0.282c-0.118-0.104-0.217-0.223-0.297-0.357
			c-0.08-0.134-0.12-0.297-0.12-0.489c0-0.308,0.068-0.557,0.204-0.747S64.488,16.537,64.793,16.533z"/>
	</g>
</g>
<g id="sas">
	<g>
		<path fill="#F2F2F2" d="M-135.384,25.163c0.16,0,0.296,0.026,0.408,0.078c0.112,0.052,0.204,0.125,0.276,0.219
			c0.072,0.094,0.125,0.205,0.159,0.333s0.051,0.268,0.051,0.42v0.09h-0.264v-0.108c0-0.112-0.011-0.215-0.033-0.309
			c-0.022-0.094-0.058-0.176-0.108-0.246c-0.05-0.07-0.115-0.125-0.195-0.165c-0.08-0.04-0.176-0.06-0.288-0.06
			c-0.228,0-0.389,0.073-0.483,0.219c-0.094,0.146-0.141,0.331-0.141,0.555c0,0.172,0.037,0.318,0.111,0.438
			c0.074,0.12,0.168,0.229,0.282,0.327c0.114,0.098,0.236,0.192,0.366,0.282s0.252,0.188,0.366,0.294
			c0.114,0.106,0.208,0.227,0.282,0.363c0.074,0.136,0.111,0.3,0.111,0.492c0,0.152-0.017,0.292-0.051,0.42
			c-0.034,0.128-0.088,0.239-0.162,0.333c-0.074,0.094-0.168,0.167-0.282,0.219s-0.251,0.078-0.411,0.078
			c-0.16,0-0.297-0.026-0.411-0.078c-0.114-0.052-0.208-0.125-0.282-0.219c-0.074-0.094-0.128-0.205-0.162-0.333
			c-0.034-0.128-0.051-0.268-0.051-0.42v-0.216h0.264v0.234c0,0.224,0.048,0.409,0.144,0.555c0.096,0.146,0.26,0.219,0.492,0.219
			s0.396-0.073,0.492-0.219c0.096-0.146,0.144-0.331,0.144-0.555c0-0.168-0.037-0.312-0.111-0.432
			c-0.074-0.12-0.168-0.229-0.282-0.327c-0.114-0.098-0.236-0.191-0.366-0.279c-0.13-0.088-0.252-0.185-0.366-0.291
			c-0.114-0.106-0.208-0.228-0.282-0.366c-0.074-0.138-0.111-0.305-0.111-0.501c0-0.316,0.071-0.568,0.213-0.756
			C-135.923,25.263-135.696,25.167-135.384,25.163z"/>
		<path fill="#F2F2F2" d="M-133.332,29.399v-3.948h-0.852v-0.252h1.986v0.252h-0.858v3.948H-133.332z"/>
		<path fill="#F2F2F2" d="M-131.592,28.385c0,0.112,0.011,0.217,0.033,0.315c0.022,0.098,0.058,0.183,0.108,0.255
			c0.05,0.072,0.115,0.128,0.195,0.168s0.178,0.06,0.294,0.06c0.116,0,0.214-0.02,0.294-0.06c0.08-0.04,0.145-0.096,0.195-0.168
			c0.05-0.072,0.086-0.157,0.108-0.255c0.022-0.098,0.033-0.203,0.033-0.315v-3.186h0.258v3.174c0,0.152-0.016,0.292-0.048,0.42
			c-0.032,0.128-0.084,0.24-0.156,0.336c-0.072,0.096-0.165,0.171-0.279,0.225c-0.114,0.054-0.251,0.081-0.411,0.081
			s-0.297-0.027-0.411-0.081c-0.114-0.054-0.207-0.129-0.279-0.225s-0.125-0.208-0.159-0.336c-0.034-0.128-0.051-0.268-0.051-0.42
			v-3.174h0.276V28.385z"/>
		<path fill="#F2F2F2" d="M-128.676,25.199c0.16,0,0.299,0.025,0.417,0.075c0.118,0.05,0.215,0.121,0.291,0.213
			c0.076,0.092,0.132,0.202,0.168,0.33s0.054,0.27,0.054,0.426v2.112c0,0.156-0.018,0.298-0.054,0.426
			c-0.036,0.128-0.092,0.238-0.168,0.33c-0.076,0.092-0.173,0.163-0.291,0.213c-0.118,0.05-0.257,0.075-0.417,0.075h-0.924v-4.2
			H-128.676z M-128.682,29.147c0.236,0,0.405-0.072,0.507-0.216c0.102-0.144,0.153-0.332,0.153-0.564v-2.136
			c0-0.232-0.052-0.42-0.156-0.564s-0.272-0.216-0.504-0.216h-0.642v3.696H-128.682z"/>
		<path fill="#F2F2F2" d="M-125.868,27.143v0.252h-1.146v1.752h1.38v0.252h-1.656v-4.2h1.656v0.252h-1.38v1.692H-125.868z"/>
		<path fill="#F2F2F2" d="M-124.932,29.399h-0.252v-4.2h0.36l1.26,3.546v-3.546h0.252v4.2h-0.306l-1.314-3.744V29.399z"/>
		<path fill="#F2F2F2" d="M-122.13,29.399v-3.948h-0.852v-0.252h1.986v0.252h-0.858v3.948H-122.13z"/>
		<path fill="#F2F2F2" d="M-119.322,28.469l-0.21,0.93h-0.252l0.918-4.206h0.402l0.936,4.206h-0.276l-0.21-0.93H-119.322z
			 M-119.28,28.229h1.224l-0.618-2.718L-119.28,28.229z"/>
		<path fill="#F2F2F2" d="M-116.184,25.199c0.16,0,0.299,0.025,0.417,0.075c0.118,0.05,0.215,0.121,0.291,0.213
			c0.076,0.092,0.132,0.202,0.168,0.33s0.054,0.27,0.054,0.426v2.112c0,0.156-0.018,0.298-0.054,0.426
			c-0.036,0.128-0.092,0.238-0.168,0.33c-0.076,0.092-0.173,0.163-0.291,0.213c-0.118,0.05-0.257,0.075-0.417,0.075h-0.924v-4.2
			H-116.184z M-116.19,29.147c0.236,0,0.405-0.072,0.507-0.216c0.102-0.144,0.153-0.332,0.153-0.564v-2.136
			c0-0.232-0.052-0.42-0.156-0.564s-0.272-0.216-0.504-0.216h-0.642v3.696H-116.19z"/>
		<path fill="#F2F2F2" d="M-114.582,25.199l0.852,3.882l0.852-3.882h0.258l-0.911,4.2h-0.408l-0.924-4.2H-114.582z"/>
		<path fill="#F2F2F2" d="M-111.924,25.199v4.2h-0.276v-4.2H-111.924z"/>
		<path fill="#F2F2F2" d="M-110.568,25.163c0.16,0,0.296,0.026,0.408,0.078c0.111,0.052,0.203,0.125,0.275,0.219
			c0.072,0.094,0.125,0.205,0.159,0.333s0.051,0.268,0.051,0.42v0.09h-0.264v-0.108c0-0.112-0.011-0.215-0.033-0.309
			c-0.022-0.094-0.058-0.176-0.108-0.246c-0.049-0.07-0.115-0.125-0.194-0.165c-0.08-0.04-0.177-0.06-0.288-0.06
			c-0.229,0-0.389,0.073-0.482,0.219c-0.095,0.146-0.142,0.331-0.142,0.555c0,0.172,0.037,0.318,0.11,0.438
			c0.074,0.12,0.168,0.229,0.283,0.327c0.113,0.098,0.235,0.192,0.365,0.282s0.252,0.188,0.366,0.294s0.208,0.227,0.282,0.363
			c0.074,0.136,0.111,0.3,0.111,0.492c0,0.152-0.018,0.292-0.052,0.42c-0.034,0.128-0.088,0.239-0.161,0.333
			c-0.074,0.094-0.169,0.167-0.283,0.219c-0.113,0.052-0.25,0.078-0.41,0.078s-0.297-0.026-0.411-0.078s-0.208-0.125-0.282-0.219
			c-0.074-0.094-0.128-0.205-0.162-0.333c-0.033-0.128-0.051-0.268-0.051-0.42v-0.216h0.264v0.234c0,0.224,0.049,0.409,0.145,0.555
			s0.26,0.219,0.492,0.219c0.231,0,0.396-0.073,0.492-0.219c0.096-0.146,0.144-0.331,0.144-0.555c0-0.168-0.037-0.312-0.111-0.432
			c-0.073-0.12-0.168-0.229-0.282-0.327c-0.113-0.098-0.236-0.191-0.365-0.279c-0.131-0.088-0.252-0.185-0.366-0.291
			c-0.114-0.106-0.208-0.228-0.282-0.366c-0.074-0.138-0.111-0.305-0.111-0.501c0-0.316,0.071-0.568,0.213-0.756
			C-111.107,25.263-110.881,25.167-110.568,25.163z"/>
		<path fill="#F2F2F2" d="M-109.242,26.225c0-0.152,0.018-0.293,0.054-0.423c0.036-0.13,0.091-0.242,0.165-0.336
			c0.074-0.094,0.169-0.168,0.285-0.222c0.115-0.054,0.254-0.081,0.414-0.081s0.299,0.027,0.417,0.081
			c0.118,0.054,0.215,0.128,0.291,0.222c0.075,0.094,0.132,0.206,0.168,0.336c0.036,0.13,0.054,0.271,0.054,0.423v2.148
			c0,0.152-0.018,0.293-0.054,0.423s-0.093,0.242-0.168,0.336c-0.076,0.094-0.173,0.168-0.291,0.222
			c-0.118,0.054-0.257,0.081-0.417,0.081s-0.299-0.027-0.414-0.081c-0.116-0.054-0.211-0.128-0.285-0.222
			c-0.074-0.094-0.129-0.206-0.165-0.336s-0.054-0.271-0.054-0.423V26.225z M-108.967,28.391c0,0.228,0.049,0.417,0.147,0.567
			s0.263,0.225,0.495,0.225s0.398-0.075,0.501-0.225s0.153-0.339,0.153-0.567v-2.184c0-0.228-0.051-0.417-0.153-0.567
			c-0.103-0.15-0.269-0.225-0.501-0.225s-0.396,0.075-0.495,0.225c-0.099,0.15-0.147,0.339-0.147,0.567V28.391z"/>
		<path fill="#F2F2F2" d="M-106.063,25.199c0.32,0,0.551,0.084,0.69,0.252c0.14,0.168,0.21,0.4,0.21,0.696v0.366
			c0,0.488-0.202,0.778-0.605,0.87c0.215,0.048,0.37,0.146,0.465,0.294c0.094,0.148,0.141,0.336,0.141,0.564v0.654
			c0,0.088,0.006,0.177,0.018,0.267c0.012,0.09,0.04,0.169,0.084,0.237h-0.287c-0.037-0.064-0.061-0.135-0.072-0.213
			s-0.018-0.175-0.018-0.291v-0.66c0-0.14-0.019-0.256-0.055-0.348c-0.036-0.092-0.089-0.165-0.159-0.219
			c-0.069-0.054-0.153-0.092-0.249-0.114c-0.096-0.021-0.203-0.033-0.324-0.033h-0.438v1.878h-0.275v-4.2H-106.063z
			 M-106.219,27.269c0.125,0,0.234-0.01,0.33-0.03c0.097-0.02,0.178-0.056,0.244-0.108c0.065-0.052,0.116-0.124,0.152-0.216
			c0.036-0.092,0.055-0.208,0.055-0.348v-0.396c0-0.228-0.049-0.405-0.145-0.531s-0.258-0.189-0.486-0.189h-0.594v1.818H-106.219z"
			/>
		<path fill="#F2F2F2" d="M-103.818,27.785l-0.941-2.586h0.287l0.805,2.208l0.804-2.208h0.271l-0.949,2.586v1.614h-0.275V27.785z"/>
		<path fill="#F2F2F2" d="M-100.387,25.163c0.16,0,0.297,0.026,0.408,0.078c0.111,0.052,0.204,0.125,0.275,0.219
			c0.072,0.094,0.125,0.205,0.16,0.333c0.033,0.128,0.051,0.268,0.051,0.42v0.09h-0.264v-0.108c0-0.112-0.012-0.215-0.033-0.309
			c-0.022-0.094-0.059-0.176-0.108-0.246c-0.05-0.07-0.115-0.125-0.194-0.165c-0.08-0.04-0.177-0.06-0.289-0.06
			c-0.228,0-0.389,0.073-0.482,0.219s-0.141,0.331-0.141,0.555c0,0.172,0.037,0.318,0.11,0.438c0.074,0.12,0.168,0.229,0.282,0.327
			c0.113,0.098,0.236,0.192,0.365,0.282c0.131,0.09,0.252,0.188,0.367,0.294c0.113,0.106,0.207,0.227,0.281,0.363
			c0.074,0.136,0.111,0.3,0.111,0.492c0,0.152-0.018,0.292-0.051,0.42c-0.034,0.128-0.088,0.239-0.162,0.333
			c-0.074,0.094-0.168,0.167-0.282,0.219s-0.251,0.078-0.411,0.078s-0.297-0.026-0.41-0.078c-0.115-0.052-0.209-0.125-0.283-0.219
			c-0.074-0.094-0.127-0.205-0.162-0.333c-0.033-0.128-0.051-0.268-0.051-0.42v-0.216h0.264v0.234c0,0.224,0.049,0.409,0.145,0.555
			s0.26,0.219,0.492,0.219s0.396-0.073,0.492-0.219s0.145-0.331,0.145-0.555c0-0.168-0.037-0.312-0.111-0.432
			c-0.074-0.12-0.168-0.229-0.282-0.327s-0.236-0.191-0.366-0.279c-0.13-0.088-0.252-0.185-0.365-0.291
			c-0.115-0.106-0.209-0.228-0.283-0.366c-0.074-0.138-0.11-0.305-0.11-0.501c0-0.316,0.071-0.568,0.213-0.756
			C-100.926,25.263-100.698,25.167-100.387,25.163z"/>
		<path fill="#F2F2F2" d="M-97.621,27.143v0.252h-1.146v1.752h1.38v0.252h-1.656v-4.2h1.656v0.252h-1.38v1.692H-97.621z"/>
		<path fill="#F2F2F2" d="M-96.061,25.199c0.32,0,0.55,0.084,0.689,0.252c0.141,0.168,0.211,0.4,0.211,0.696v0.366
			c0,0.488-0.203,0.778-0.606,0.87c0.216,0.048,0.37,0.146,0.465,0.294c0.094,0.148,0.142,0.336,0.142,0.564v0.654
			c0,0.088,0.006,0.177,0.018,0.267c0.012,0.09,0.039,0.169,0.084,0.237h-0.288c-0.036-0.064-0.06-0.135-0.072-0.213
			c-0.012-0.078-0.018-0.175-0.018-0.291v-0.66c0-0.14-0.019-0.256-0.054-0.348c-0.037-0.092-0.09-0.165-0.16-0.219
			c-0.069-0.054-0.152-0.092-0.248-0.114c-0.096-0.021-0.204-0.033-0.324-0.033h-0.438v1.878h-0.276v-4.2H-96.061z M-96.217,27.269
			c0.124,0,0.234-0.01,0.33-0.03s0.177-0.056,0.243-0.108c0.065-0.052,0.116-0.124,0.153-0.216c0.035-0.092,0.054-0.208,0.054-0.348
			v-0.396c0-0.228-0.048-0.405-0.144-0.531c-0.097-0.126-0.259-0.189-0.486-0.189h-0.594v1.818H-96.217z"/>
		<path fill="#F2F2F2" d="M-94.41,25.199l0.852,3.882l0.852-3.882h0.258l-0.911,4.2h-0.408l-0.924-4.2H-94.41z"/>
		<path fill="#F2F2F2" d="M-91.752,25.199v4.2h-0.276v-4.2H-91.752z"/>
		<path fill="#F2F2F2" d="M-90.385,25.163c0.16,0,0.297,0.027,0.411,0.081c0.114,0.054,0.208,0.128,0.282,0.222
			c0.074,0.094,0.127,0.206,0.162,0.336c0.033,0.13,0.051,0.271,0.051,0.423v0.348h-0.264v-0.366c0-0.112-0.012-0.216-0.033-0.312
			c-0.022-0.096-0.06-0.18-0.111-0.252c-0.053-0.072-0.118-0.128-0.197-0.168c-0.08-0.04-0.179-0.06-0.295-0.06
			c-0.115,0-0.214,0.02-0.294,0.06s-0.146,0.096-0.198,0.168c-0.052,0.072-0.089,0.156-0.111,0.252
			c-0.021,0.096-0.032,0.2-0.032,0.312v2.184c0,0.112,0.011,0.216,0.032,0.312c0.022,0.096,0.06,0.179,0.111,0.249
			c0.053,0.07,0.118,0.125,0.198,0.165c0.08,0.04,0.179,0.06,0.294,0.06c0.116,0,0.215-0.02,0.295-0.06
			c0.079-0.04,0.145-0.095,0.197-0.165c0.052-0.07,0.089-0.153,0.111-0.249c0.021-0.096,0.033-0.2,0.033-0.312v-0.498h0.264v0.48
			c0,0.152-0.018,0.293-0.051,0.423c-0.035,0.13-0.088,0.242-0.162,0.336c-0.074,0.094-0.168,0.168-0.282,0.222
			c-0.114,0.054-0.251,0.081-0.411,0.081s-0.297-0.027-0.411-0.081c-0.114-0.054-0.208-0.128-0.282-0.222
			c-0.074-0.094-0.127-0.206-0.162-0.336c-0.033-0.13-0.051-0.271-0.051-0.423v-2.148c0-0.152,0.018-0.293,0.051-0.423
			c0.035-0.13,0.088-0.242,0.162-0.336c0.074-0.094,0.168-0.168,0.282-0.222C-90.682,25.19-90.545,25.163-90.385,25.163z"/>
		<path fill="#F2F2F2" d="M-87.606,27.143v0.252h-1.146v1.752h1.379v0.252h-1.655v-4.2h1.655v0.252h-1.379v1.692H-87.606z"/>
		<path fill="#F2F2F2" d="M-86.047,25.163c0.16,0,0.297,0.026,0.408,0.078c0.111,0.052,0.204,0.125,0.275,0.219
			c0.072,0.094,0.125,0.205,0.16,0.333c0.033,0.128,0.051,0.268,0.051,0.42v0.09h-0.264v-0.108c0-0.112-0.012-0.215-0.033-0.309
			c-0.022-0.094-0.059-0.176-0.108-0.246c-0.05-0.07-0.115-0.125-0.194-0.165c-0.08-0.04-0.177-0.06-0.289-0.06
			c-0.228,0-0.389,0.073-0.482,0.219s-0.141,0.331-0.141,0.555c0,0.172,0.037,0.318,0.11,0.438c0.074,0.12,0.168,0.229,0.282,0.327
			c0.113,0.098,0.236,0.192,0.365,0.282c0.131,0.09,0.252,0.188,0.367,0.294c0.113,0.106,0.207,0.227,0.281,0.363
			c0.074,0.136,0.111,0.3,0.111,0.492c0,0.152-0.018,0.292-0.051,0.42c-0.034,0.128-0.088,0.239-0.162,0.333
			c-0.074,0.094-0.168,0.167-0.282,0.219s-0.251,0.078-0.411,0.078s-0.297-0.026-0.41-0.078c-0.115-0.052-0.209-0.125-0.283-0.219
			c-0.074-0.094-0.127-0.205-0.162-0.333c-0.033-0.128-0.051-0.268-0.051-0.42v-0.216h0.264v0.234c0,0.224,0.049,0.409,0.145,0.555
			s0.26,0.219,0.492,0.219s0.396-0.073,0.492-0.219s0.145-0.331,0.145-0.555c0-0.168-0.037-0.312-0.111-0.432
			c-0.074-0.12-0.168-0.229-0.282-0.327s-0.236-0.191-0.366-0.279c-0.13-0.088-0.252-0.185-0.365-0.291
			c-0.115-0.106-0.209-0.228-0.283-0.366c-0.074-0.138-0.11-0.305-0.11-0.501c0-0.316,0.071-0.568,0.213-0.756
			C-86.586,25.263-86.358,25.167-86.047,25.163z"/>
	</g>
	<g display="none">
		<path display="inline" fill="#F2F2F2" d="M76.616,25.163c0.159,0,0.296,0.026,0.407,0.078c0.112,0.052,0.205,0.125,0.276,0.219
			c0.072,0.094,0.125,0.205,0.159,0.333s0.051,0.268,0.051,0.42v0.09h-0.264v-0.108c0-0.112-0.012-0.215-0.033-0.309
			c-0.021-0.094-0.059-0.176-0.107-0.246c-0.051-0.07-0.115-0.125-0.195-0.165s-0.176-0.06-0.288-0.06
			c-0.228,0-0.39,0.073-0.483,0.219s-0.141,0.331-0.141,0.555c0,0.172,0.037,0.318,0.111,0.438s0.168,0.229,0.281,0.327
			c0.114,0.098,0.236,0.192,0.366,0.282s0.252,0.188,0.366,0.294c0.113,0.106,0.208,0.227,0.281,0.363
			c0.074,0.136,0.111,0.3,0.111,0.492c0,0.152-0.017,0.292-0.051,0.42c-0.033,0.128-0.088,0.239-0.162,0.333
			c-0.074,0.094-0.168,0.167-0.281,0.219c-0.114,0.052-0.252,0.078-0.412,0.078c-0.159,0-0.297-0.026-0.41-0.078
			c-0.114-0.052-0.208-0.125-0.282-0.219c-0.074-0.094-0.128-0.205-0.162-0.333c-0.034-0.128-0.051-0.268-0.051-0.42v-0.216h0.264
			v0.234c0,0.224,0.048,0.409,0.144,0.555c0.097,0.146,0.261,0.219,0.492,0.219c0.232,0,0.396-0.073,0.492-0.219
			s0.145-0.331,0.145-0.555c0-0.168-0.037-0.312-0.111-0.432c-0.074-0.12-0.168-0.229-0.281-0.327
			c-0.115-0.098-0.236-0.191-0.367-0.279c-0.129-0.088-0.252-0.185-0.365-0.291c-0.114-0.106-0.209-0.228-0.282-0.366
			c-0.074-0.138-0.11-0.305-0.11-0.501c0-0.316,0.07-0.568,0.213-0.756C76.077,25.263,76.305,25.167,76.616,25.163z"/>
		<path display="inline" fill="#F2F2F2" d="M78.668,29.399v-3.948h-0.852v-0.252h1.985v0.252h-0.858v3.948H78.668z"/>
		<path display="inline" fill="#F2F2F2" d="M80.408,28.385c0,0.112,0.011,0.217,0.033,0.315c0.021,0.098,0.057,0.183,0.107,0.255
			c0.05,0.072,0.115,0.128,0.195,0.168s0.178,0.06,0.293,0.06c0.117,0,0.215-0.02,0.295-0.06s0.145-0.096,0.195-0.168
			c0.049-0.072,0.086-0.157,0.107-0.255c0.021-0.098,0.033-0.203,0.033-0.315v-3.186h0.258v3.174c0,0.152-0.016,0.292-0.048,0.42
			s-0.084,0.24-0.156,0.336c-0.071,0.096-0.165,0.171-0.278,0.225c-0.115,0.054-0.252,0.081-0.412,0.081s-0.297-0.027-0.41-0.081
			c-0.114-0.054-0.207-0.129-0.279-0.225s-0.125-0.208-0.159-0.336s-0.051-0.268-0.051-0.42v-3.174h0.276V28.385z"/>
		<path display="inline" fill="#F2F2F2" d="M83.324,25.199c0.16,0,0.299,0.025,0.417,0.075c0.118,0.05,0.215,0.121,0.291,0.213
			c0.075,0.092,0.132,0.202,0.168,0.33s0.054,0.27,0.054,0.426v2.112c0,0.156-0.018,0.298-0.054,0.426
			c-0.036,0.128-0.093,0.238-0.168,0.33c-0.076,0.092-0.173,0.163-0.291,0.213c-0.118,0.05-0.257,0.075-0.417,0.075H82.4v-4.2
			H83.324z M83.318,29.147c0.236,0,0.404-0.072,0.507-0.216c0.103-0.144,0.153-0.332,0.153-0.564v-2.136
			c0-0.232-0.053-0.42-0.156-0.564s-0.271-0.216-0.504-0.216h-0.643v3.696H83.318z"/>
		<path display="inline" fill="#F2F2F2" d="M86.132,27.143v0.252h-1.146v1.752h1.379v0.252H84.71v-4.2h1.655v0.252h-1.379v1.692
			H86.132z"/>
		<path display="inline" fill="#F2F2F2" d="M87.068,29.399h-0.252v-4.2h0.359l1.26,3.546v-3.546h0.252v4.2h-0.306l-1.313-3.744
			V29.399z"/>
		<path display="inline" fill="#F2F2F2" d="M89.87,29.399v-3.948h-0.853v-0.252h1.986v0.252h-0.857v3.948H89.87z"/>
		<path display="inline" fill="#F2F2F2" d="M92.678,28.469l-0.21,0.93h-0.252l0.918-4.206h0.401l0.937,4.206h-0.276l-0.209-0.93
			H92.678z M92.72,28.229h1.224l-0.617-2.718L92.72,28.229z"/>
		<path display="inline" fill="#F2F2F2" d="M95.816,25.199c0.159,0,0.299,0.025,0.416,0.075c0.118,0.05,0.215,0.121,0.291,0.213
			c0.076,0.092,0.133,0.202,0.168,0.33c0.037,0.128,0.055,0.27,0.055,0.426v2.112c0,0.156-0.018,0.298-0.055,0.426
			c-0.035,0.128-0.092,0.238-0.168,0.33c-0.076,0.092-0.173,0.163-0.291,0.213c-0.117,0.05-0.257,0.075-0.416,0.075h-0.924v-4.2
			H95.816z M95.811,29.147c0.235,0,0.404-0.072,0.506-0.216c0.103-0.144,0.153-0.332,0.153-0.564v-2.136
			c0-0.232-0.052-0.42-0.155-0.564c-0.104-0.144-0.272-0.216-0.504-0.216h-0.643v3.696H95.811z"/>
		<path display="inline" fill="#F2F2F2" d="M97.418,25.199l0.852,3.882l0.852-3.882h0.258l-0.911,4.2H98.06l-0.924-4.2H97.418z"/>
		<path display="inline" fill="#F2F2F2" d="M100.076,25.199v4.2H99.8v-4.2H100.076z"/>
		<path display="inline" fill="#F2F2F2" d="M101.432,25.163c0.16,0,0.296,0.026,0.408,0.078c0.111,0.052,0.203,0.125,0.275,0.219
			c0.072,0.094,0.125,0.205,0.159,0.333s0.051,0.268,0.051,0.42v0.09h-0.264v-0.108c0-0.112-0.011-0.215-0.033-0.309
			c-0.022-0.094-0.058-0.176-0.108-0.246c-0.049-0.07-0.115-0.125-0.194-0.165c-0.08-0.04-0.177-0.06-0.288-0.06
			c-0.229,0-0.389,0.073-0.482,0.219c-0.095,0.146-0.142,0.331-0.142,0.555c0,0.172,0.037,0.318,0.11,0.438
			c0.074,0.12,0.168,0.229,0.283,0.327c0.113,0.098,0.235,0.192,0.365,0.282s0.252,0.188,0.366,0.294s0.208,0.227,0.282,0.363
			c0.074,0.136,0.111,0.3,0.111,0.492c0,0.152-0.018,0.292-0.052,0.42c-0.034,0.128-0.088,0.239-0.161,0.333
			c-0.074,0.094-0.169,0.167-0.283,0.219c-0.113,0.052-0.25,0.078-0.41,0.078s-0.297-0.026-0.411-0.078s-0.208-0.125-0.282-0.219
			c-0.074-0.094-0.128-0.205-0.162-0.333c-0.033-0.128-0.051-0.268-0.051-0.42v-0.216h0.264v0.234c0,0.224,0.049,0.409,0.145,0.555
			s0.26,0.219,0.492,0.219c0.231,0,0.396-0.073,0.492-0.219c0.096-0.146,0.144-0.331,0.144-0.555c0-0.168-0.037-0.312-0.111-0.432
			c-0.073-0.12-0.168-0.229-0.282-0.327c-0.113-0.098-0.236-0.191-0.365-0.279c-0.131-0.088-0.252-0.185-0.366-0.291
			c-0.114-0.106-0.208-0.228-0.282-0.366c-0.074-0.138-0.111-0.305-0.111-0.501c0-0.316,0.071-0.568,0.213-0.756
			C100.893,25.263,101.119,25.167,101.432,25.163z"/>
		<path display="inline" fill="#F2F2F2" d="M102.758,26.225c0-0.152,0.018-0.293,0.054-0.423c0.036-0.13,0.091-0.242,0.165-0.336
			c0.074-0.094,0.169-0.168,0.285-0.222c0.115-0.054,0.254-0.081,0.414-0.081s0.299,0.027,0.417,0.081
			c0.118,0.054,0.215,0.128,0.291,0.222c0.075,0.094,0.132,0.206,0.168,0.336c0.036,0.13,0.054,0.271,0.054,0.423v2.148
			c0,0.152-0.018,0.293-0.054,0.423s-0.093,0.242-0.168,0.336c-0.076,0.094-0.173,0.168-0.291,0.222
			c-0.118,0.054-0.257,0.081-0.417,0.081s-0.299-0.027-0.414-0.081c-0.116-0.054-0.211-0.128-0.285-0.222
			c-0.074-0.094-0.129-0.206-0.165-0.336s-0.054-0.271-0.054-0.423V26.225z M103.033,28.391c0,0.228,0.049,0.417,0.147,0.567
			s0.263,0.225,0.495,0.225s0.398-0.075,0.501-0.225s0.153-0.339,0.153-0.567v-2.184c0-0.228-0.051-0.417-0.153-0.567
			c-0.103-0.15-0.269-0.225-0.501-0.225s-0.396,0.075-0.495,0.225c-0.099,0.15-0.147,0.339-0.147,0.567V28.391z"/>
		<path display="inline" fill="#F2F2F2" d="M105.938,25.199c0.32,0,0.551,0.084,0.69,0.252c0.14,0.168,0.21,0.4,0.21,0.696v0.366
			c0,0.488-0.202,0.778-0.605,0.87c0.215,0.048,0.37,0.146,0.465,0.294c0.094,0.148,0.141,0.336,0.141,0.564v0.654
			c0,0.088,0.006,0.177,0.018,0.267c0.012,0.09,0.04,0.169,0.084,0.237h-0.287c-0.037-0.064-0.061-0.135-0.072-0.213
			s-0.018-0.175-0.018-0.291v-0.66c0-0.14-0.019-0.256-0.055-0.348c-0.036-0.092-0.089-0.165-0.159-0.219
			c-0.069-0.054-0.153-0.092-0.249-0.114c-0.096-0.021-0.203-0.033-0.324-0.033h-0.438v1.878h-0.275v-4.2H105.938z M105.781,27.269
			c0.125,0,0.234-0.01,0.33-0.03c0.097-0.02,0.178-0.056,0.244-0.108c0.065-0.052,0.116-0.124,0.152-0.216
			c0.036-0.092,0.055-0.208,0.055-0.348v-0.396c0-0.228-0.049-0.405-0.145-0.531s-0.258-0.189-0.486-0.189h-0.594v1.818H105.781z"/>
		<path display="inline" fill="#F2F2F2" d="M108.182,27.785l-0.941-2.586h0.287l0.805,2.208l0.804-2.208h0.271l-0.949,2.586v1.614
			h-0.275V27.785z"/>
		<path display="inline" fill="#F2F2F2" d="M111.613,25.163c0.16,0,0.297,0.026,0.408,0.078c0.111,0.052,0.204,0.125,0.275,0.219
			c0.072,0.094,0.125,0.205,0.16,0.333c0.033,0.128,0.051,0.268,0.051,0.42v0.09h-0.264v-0.108c0-0.112-0.012-0.215-0.033-0.309
			c-0.022-0.094-0.059-0.176-0.108-0.246c-0.05-0.07-0.115-0.125-0.194-0.165c-0.08-0.04-0.177-0.06-0.289-0.06
			c-0.228,0-0.389,0.073-0.482,0.219s-0.141,0.331-0.141,0.555c0,0.172,0.037,0.318,0.11,0.438c0.074,0.12,0.168,0.229,0.282,0.327
			c0.113,0.098,0.236,0.192,0.365,0.282c0.131,0.09,0.252,0.188,0.367,0.294c0.113,0.106,0.207,0.227,0.281,0.363
			c0.074,0.136,0.111,0.3,0.111,0.492c0,0.152-0.018,0.292-0.051,0.42c-0.034,0.128-0.088,0.239-0.162,0.333
			c-0.074,0.094-0.168,0.167-0.282,0.219s-0.251,0.078-0.411,0.078s-0.297-0.026-0.41-0.078c-0.115-0.052-0.209-0.125-0.283-0.219
			c-0.074-0.094-0.127-0.205-0.162-0.333c-0.033-0.128-0.051-0.268-0.051-0.42v-0.216h0.264v0.234c0,0.224,0.049,0.409,0.145,0.555
			s0.26,0.219,0.492,0.219s0.396-0.073,0.492-0.219s0.145-0.331,0.145-0.555c0-0.168-0.037-0.312-0.111-0.432
			c-0.074-0.12-0.168-0.229-0.282-0.327s-0.236-0.191-0.366-0.279c-0.13-0.088-0.252-0.185-0.365-0.291
			c-0.115-0.106-0.209-0.228-0.283-0.366c-0.074-0.138-0.11-0.305-0.11-0.501c0-0.316,0.071-0.568,0.213-0.756
			C111.074,25.263,111.302,25.167,111.613,25.163z"/>
		<path display="inline" fill="#F2F2F2" d="M114.379,27.143v0.252h-1.146v1.752h1.38v0.252h-1.656v-4.2h1.656v0.252h-1.38v1.692
			H114.379z"/>
		<path display="inline" fill="#F2F2F2" d="M115.939,25.199c0.32,0,0.55,0.084,0.689,0.252c0.141,0.168,0.211,0.4,0.211,0.696v0.366
			c0,0.488-0.203,0.778-0.606,0.87c0.216,0.048,0.37,0.146,0.465,0.294c0.094,0.148,0.142,0.336,0.142,0.564v0.654
			c0,0.088,0.006,0.177,0.018,0.267c0.012,0.09,0.039,0.169,0.084,0.237h-0.288c-0.036-0.064-0.06-0.135-0.072-0.213
			c-0.012-0.078-0.018-0.175-0.018-0.291v-0.66c0-0.14-0.019-0.256-0.054-0.348c-0.037-0.092-0.09-0.165-0.16-0.219
			c-0.069-0.054-0.152-0.092-0.248-0.114c-0.096-0.021-0.204-0.033-0.324-0.033h-0.438v1.878h-0.276v-4.2H115.939z M115.783,27.269
			c0.124,0,0.234-0.01,0.33-0.03s0.177-0.056,0.243-0.108c0.065-0.052,0.116-0.124,0.153-0.216c0.035-0.092,0.054-0.208,0.054-0.348
			v-0.396c0-0.228-0.048-0.405-0.144-0.531c-0.097-0.126-0.259-0.189-0.486-0.189h-0.594v1.818H115.783z"/>
		<path display="inline" fill="#F2F2F2" d="M117.59,25.199l0.852,3.882l0.852-3.882h0.258l-0.911,4.2h-0.408l-0.924-4.2H117.59z"/>
		<path display="inline" fill="#F2F2F2" d="M120.248,25.199v4.2h-0.276v-4.2H120.248z"/>
		<path display="inline" fill="#F2F2F2" d="M121.615,25.163c0.16,0,0.297,0.027,0.411,0.081c0.114,0.054,0.208,0.128,0.282,0.222
			c0.074,0.094,0.127,0.206,0.162,0.336c0.033,0.13,0.051,0.271,0.051,0.423v0.348h-0.264v-0.366c0-0.112-0.012-0.216-0.033-0.312
			c-0.022-0.096-0.06-0.18-0.111-0.252c-0.053-0.072-0.118-0.128-0.197-0.168c-0.08-0.04-0.179-0.06-0.295-0.06
			c-0.115,0-0.214,0.02-0.294,0.06s-0.146,0.096-0.198,0.168c-0.052,0.072-0.089,0.156-0.111,0.252
			c-0.021,0.096-0.032,0.2-0.032,0.312v2.184c0,0.112,0.011,0.216,0.032,0.312c0.022,0.096,0.06,0.179,0.111,0.249
			c0.053,0.07,0.118,0.125,0.198,0.165c0.08,0.04,0.179,0.06,0.294,0.06c0.116,0,0.215-0.02,0.295-0.06
			c0.079-0.04,0.145-0.095,0.197-0.165c0.052-0.07,0.089-0.153,0.111-0.249c0.021-0.096,0.033-0.2,0.033-0.312v-0.498h0.264v0.48
			c0,0.152-0.018,0.293-0.051,0.423c-0.035,0.13-0.088,0.242-0.162,0.336c-0.074,0.094-0.168,0.168-0.282,0.222
			c-0.114,0.054-0.251,0.081-0.411,0.081s-0.297-0.027-0.411-0.081c-0.114-0.054-0.208-0.128-0.282-0.222
			c-0.074-0.094-0.127-0.206-0.162-0.336c-0.033-0.13-0.051-0.271-0.051-0.423v-2.148c0-0.152,0.018-0.293,0.051-0.423
			c0.035-0.13,0.088-0.242,0.162-0.336c0.074-0.094,0.168-0.168,0.282-0.222C121.318,25.19,121.455,25.163,121.615,25.163z"/>
		<path display="inline" fill="#F2F2F2" d="M124.394,27.143v0.252h-1.146v1.752h1.379v0.252h-1.655v-4.2h1.655v0.252h-1.379v1.692
			H124.394z"/>
		<path display="inline" fill="#F2F2F2" d="M125.953,25.163c0.16,0,0.297,0.026,0.408,0.078c0.111,0.052,0.204,0.125,0.275,0.219
			c0.072,0.094,0.125,0.205,0.16,0.333c0.033,0.128,0.051,0.268,0.051,0.42v0.09h-0.264v-0.108c0-0.112-0.012-0.215-0.033-0.309
			c-0.022-0.094-0.059-0.176-0.108-0.246c-0.05-0.07-0.115-0.125-0.194-0.165c-0.08-0.04-0.177-0.06-0.289-0.06
			c-0.228,0-0.389,0.073-0.482,0.219s-0.141,0.331-0.141,0.555c0,0.172,0.037,0.318,0.11,0.438c0.074,0.12,0.168,0.229,0.282,0.327
			c0.113,0.098,0.236,0.192,0.365,0.282c0.131,0.09,0.252,0.188,0.367,0.294c0.113,0.106,0.207,0.227,0.281,0.363
			c0.074,0.136,0.111,0.3,0.111,0.492c0,0.152-0.018,0.292-0.051,0.42c-0.034,0.128-0.088,0.239-0.162,0.333
			c-0.074,0.094-0.168,0.167-0.282,0.219s-0.251,0.078-0.411,0.078s-0.297-0.026-0.41-0.078c-0.115-0.052-0.209-0.125-0.283-0.219
			c-0.074-0.094-0.127-0.205-0.162-0.333c-0.033-0.128-0.051-0.268-0.051-0.42v-0.216h0.264v0.234c0,0.224,0.049,0.409,0.145,0.555
			s0.26,0.219,0.492,0.219s0.396-0.073,0.492-0.219s0.145-0.331,0.145-0.555c0-0.168-0.037-0.312-0.111-0.432
			c-0.074-0.12-0.168-0.229-0.282-0.327s-0.236-0.191-0.366-0.279c-0.13-0.088-0.252-0.185-0.365-0.291
			c-0.115-0.106-0.209-0.228-0.283-0.366c-0.074-0.138-0.11-0.305-0.11-0.501c0-0.316,0.071-0.568,0.213-0.756
			C125.414,25.263,125.642,25.167,125.953,25.163z"/>
	</g>
</g>
<g id="Layer_6">
	<g>
		<path fill="#FEFEFE" d="M40.643,28.072c-0.883-0.552-1.695-1.289-2.771-1.28c0.094-0.421,0.19-0.852,0.285-1.282
			c0.174-0.786,0.35-1.571,0.519-2.358c0.028-0.133,0.063-0.172,0.175-0.116c0.157,0.079,0.367,0.091,0.47,0.223
			c0.118,0.152-0.058,0.36-0.075,0.554c-0.05,0.571,0.115,1.047,0.416,1.471c0.278,0.391,0.618,0.694,0.993,0.94
			c0.091,0.06,0.124,0.121,0.111,0.247c-0.028,0.264-0.039,0.531-0.059,0.797C40.687,27.532,40.665,27.795,40.643,28.072z"/>
		<path fill="#FEFEFE" d="M44.904,24.326c-0.217-0.974-0.412-1.911-0.637-2.838c-0.124-0.512-0.108-0.984,0.153-1.422
			c0.399-0.67,1.189-0.833,1.747-0.371c0.579,0.479,0.727,1.422,0.316,2.101c-0.493,0.814-0.999,1.618-1.5,2.425
			C44.967,24.248,44.945,24.271,44.904,24.326z"/>
		<path fill="#FEFEFE" d="M40.582,28.948c-0.037,0.494-0.075,0.962-0.106,1.43c-0.007,0.108-0.035,0.108-0.108,0.072
			c-0.964-0.474-1.93-0.946-2.895-1.416c-0.065-0.031-0.086-0.064-0.065-0.155c0.097-0.411,0.188-0.824,0.272-1.239
			c0.026-0.132,0.097-0.114,0.172-0.114c0.58,0.001,1.116,0.211,1.636,0.49c0.34,0.182,0.658,0.409,0.97,0.651
			C40.559,28.745,40.615,28.829,40.582,28.948z"/>
		<path fill="#FEFEFE" d="M43.446,27.12c0.025,0.658,0.048,1.295,0.074,1.933c0.004,0.089,0.004,0.157-0.083,0.2
			c-0.799,0.401-1.595,0.807-2.393,1.211c-0.01,0.005-0.023,0.001-0.05,0.001c0.04-0.54,0.08-1.077,0.117-1.614
			c0.005-0.068,0.039-0.097,0.08-0.126c0.731-0.528,1.463-1.056,2.195-1.583C43.399,27.132,43.417,27.13,43.446,27.12z"/>
		<path fill="#FEFEFE" d="M42.818,26.787c0-0.452,0-0.858,0-1.264c0-0.381-0.169-0.515-0.474-0.379
			c-0.287,0.128-0.576,0.254-0.861,0.389c-0.109,0.052-0.132,0.02-0.121-0.109c0.038-0.468,0.075-0.937,0.105-1.405
			c0.006-0.096,0.045-0.13,0.11-0.163c0.536-0.276,1.073-0.553,1.606-0.837c0.115-0.061,0.125-0.012,0.129,0.107
			c0.033,1.017,0.068,2.035,0.107,3.052c0.005,0.123-0.028,0.192-0.114,0.251C43.152,26.532,43.005,26.648,42.818,26.787z"/>
		<path fill="#FEFEFE" d="M43.823,22.94c0.154,0.059,0.298,0.118,0.444,0.169c0.091,0.032,0.084,0.13,0.101,0.204
			c0.138,0.601,0.271,1.203,0.412,1.838c0.28-0.453,0.543-0.883,0.809-1.309c0.045-0.072,0.077-0.207,0.184-0.136
			c0.131,0.087,0.35,0.011,0.38,0.292c0.03,0.278,0.071,0.554,0.107,0.831c0.011,0.085,0.022,0.154-0.087,0.178
			c-0.793,0.181-1.325,0.761-1.675,1.594c-0.061,0.146-0.092,0.127-0.197,0.061c-0.296-0.185-0.386-0.454-0.388-0.848
			C43.908,24.863,43.857,23.911,43.823,22.94z"/>
		<path fill="#FEFEFE" d="M46.978,30.311c-0.899-0.348-1.778-0.688-2.657-1.028c-0.284-0.11-0.289-0.111-0.291-0.47
			c-0.004-0.53-0.001-1.061-0.001-1.581c0.319,0.274,0.667,0.57,1.036,0.83c0.519,0.367,1.052,0.693,1.647,0.853
			c0.05,0.013,0.084,0.02,0.094,0.094C46.859,29.436,46.918,29.864,46.978,30.311z"/>
		<path fill="#FEFEFE" d="M46.273,25.668c0.126-0.028,0.102,0.075,0.11,0.131c0.081,0.595,0.159,1.19,0.237,1.785
			c0.016,0.125,0.03,0.25,0.047,0.374c0.033,0.243,0.031,0.247-0.18,0.177c-0.367-0.122-0.695-0.345-1.022-0.57
			c-0.148-0.102-0.29-0.216-0.436-0.323c-0.052-0.038-0.097-0.067-0.066-0.162c0.226-0.693,0.606-1.194,1.228-1.396
			C46.225,25.673,46.261,25.67,46.273,25.668z"/>
		<path fill="#FEFEFE" d="M40.833,25.551c-0.466-0.295-0.879-0.606-1.013-1.241c-0.049-0.233-0.02-0.457,0.047-0.679
			c0.029-0.097,0.067-0.134,0.156-0.094c0.276,0.123,0.552,0.242,0.831,0.357c0.066,0.027,0.097,0.06,0.09,0.148
			C40.905,24.536,40.871,25.031,40.833,25.551z"/>
		<path fill="#FEFEFE" d="M41.172,28.016c0.041-0.553,0.081-1.056,0.115-1.559c0.005-0.08,0.039-0.108,0.091-0.131
			c0.264-0.121,0.53-0.237,0.792-0.365c0.104-0.051,0.105,0.007,0.105,0.099c-0.002,0.337-0.002,0.674,0,1.011
			c0,0.074-0.007,0.132-0.068,0.177C41.871,27.493,41.538,27.743,41.172,28.016z"/>
		<linearGradient id="SVGID_5_" gradientUnits="userSpaceOnUse" x1="44.7862" y1="20.9828" x2="46.0917" y2="20.9828">
			<stop  offset="0" style="stop-color:#D4145A"/>
			<stop  offset="0.8418" style="stop-color:#ED1E79"/>
		</linearGradient>
		<path fill="url(#SVGID_5_)" d="M46.092,20.993c-0.003,0.43-0.295,0.77-0.657,0.764c-0.359-0.005-0.654-0.36-0.648-0.781
			c0.005-0.423,0.311-0.778,0.662-0.769C45.811,20.218,46.094,20.564,46.092,20.993z"/>
	</g>
	<g>
	</g>
	<g>
	</g>
	<g>
	</g>
	<g>
	</g>
	<g>
	</g>
	<g>
	</g>
	<g>
	</g>
	<g>
	</g>
	<g>
	</g>
	<g>
	</g>
	<g>
	</g>
	<g>
	</g>
	<g>
	</g>
	<g>
	</g>
	<g>
	</g>
</g>
</svg>
