<?xml version="1.0" encoding="utf-8"?>
<!-- Generator: Adobe Illustrator 17.0.0, SVG Export Plug-In . SVG Version: 6.00 Build 0)  -->
<!DOCTYPE svg PUBLIC "-//W3C//DTD SVG 1.1//EN" "http://www.w3.org/Graphics/SVG/1.1/DTD/svg11.dtd">
<svg version="1.1" id="Layer_1" xmlns="http://www.w3.org/2000/svg" xmlns:xlink="http://www.w3.org/1999/xlink" x="0px" y="0px"
	 width="128px" height="128px" viewBox="0 0 128 128" enable-background="new 0 0 128 128" xml:space="preserve">
<g>
	<path fill="#1A1A1A" d="M31.534,97.146c1.106-6.906,3.672-12.916,9.068-17.444c3.247-2.725,7.008-4.122,11.25-4.121
		c8.013,0.002,16.027-0.031,24.039,0.091c5.139,0.078,9.233,2.544,12.591,6.267c3.737,4.144,5.731,9.118,6.628,14.576
		c0.072,0.439,0.035,0.681-0.48,0.634c-0.234-0.021-0.471-0.003-0.707-0.003c-20.349,0-40.698,0-61.047,0
		C32.451,97.146,32.026,97.146,31.534,97.146z"/>
	<path fill="#1A1A1A" d="M77.301,52.406c-0.07,3.941-1.393,8.494-4.759,12.277c-5.297,5.952-13.228,5.872-18.468-0.134
		c-5.971-6.845-6.218-18.795-0.534-25.871c5.982-7.447,15.615-6.748,20.705,1.501C76.304,43.516,77.327,47.254,77.301,52.406z"/>
	<path fill="#F2F2F2" d="M63.391,92.863c-8.72,0-17.441-0.016-26.161,0.021c-1.034,0.004-1.152-0.213-0.765-1.139
		c2.164-5.167,5.391-9.268,10.893-11.168c1.388-0.479,2.817-0.676,4.28-0.676c7.817,0.002,15.634-0.005,23.451,0.003
		c4.578,0.004,8.248,1.991,11.238,5.319c1.769,1.969,3.073,4.242,4.036,6.721c0.337,0.866,0.075,0.933-0.693,0.931
		C80.91,92.856,72.151,92.863,63.391,92.863z"/>
	<path fill="#F2F2F2" d="M73.954,50.456c-0.067,4.674-1.13,8.109-3.638,10.976c-4.164,4.76-10.924,4.359-14.551-0.809
		c-3.962-5.646-3.964-12.949-0.003-18.619c3.831-5.484,11.234-5.539,15.149-0.112C72.954,44.724,73.966,47.876,73.954,50.456z"/>
</g>
<g>
</g>
<g>
</g>
<g>
</g>
<g>
</g>
<g>
</g>
<g>
</g>
<g>
</g>
<g>
</g>
<g>
</g>
<g>
</g>
<g>
</g>
<g>
</g>
<g>
</g>
<g>
</g>
<g>
</g>
</svg>
